<svg width="20" height="20" fill="none" xmlns="http://www.w3.org/2000/svg"><g clip-path="url(#a)"><circle cx="9.998" cy="10" r="10" fill="#647084"/><path fill-rule="evenodd" clip-rule="evenodd" d="M12.343 19.723c-.752.18-1.537.277-2.345.277-.8 0-1.577-.094-2.322-.271l-.002-.337c-.003-.72-.008-1.758-.008-2.283-2.356.445-2.965-.589-3.152-1.13a3.493 3.493 0 0 0-.961-1.357c-.328-.18-.797-.625-.012-.637.3.034.587.14.838.312s.458.403.603.673c.129.237.3.445.508.612a1.955 1.955 0 0 0 2.223.181c.04-.488.253-.945.597-1.285-2.086-.24-4.265-1.07-4.265-4.746-.013-.955.33-1.88.96-2.583A3.535 3.535 0 0 1 5.1 4.6s.785-.252 2.578.986a8.628 8.628 0 0 1 4.687 0c1.793-1.25 2.578-.986 2.578-.986.347.806.38 1.717.094 2.548.632.702.976 1.627.96 2.583 0 3.689-2.19 4.506-4.277 4.746.224.232.397.512.506.818.109.307.152.635.127.96a878.233 878.233 0 0 1-.01 3.467Z" fill="#fff"/></g><defs><clipPath id="a"><path fill="#fff" transform="translate(-.002)" d="M0 0h20v20H0z"/></clipPath></defs></svg>