<svg xmlns="http://www.w3.org/2000/svg" width="20" height="20" fill="none" viewBox="0 0 20 20"><g clip-path="url(#a)"><path fill="#647084" d="M10 0c7.5 0 10 2.5 10 10s-2.5 10-10 10S0 17.5 0 10 2.5 0 10 0M8.32 10.618q-.44.023-.865.135c-1.198.31-1.884 1.12-1.826 2.228.075 1.379 1.464 2.227 2.854 2.148 2.265-.13 3.938-2.187 4.123-4.515q-.021.007-.046.013l-.027.008a4.5 4.5 0 0 1-.87.13c-.636.037-1.154-.018-1.672-.073-.517-.055-1.035-.11-1.67-.074m3.196-5.749C9.25 5 7.579 7.056 7.393 9.384l.037-.01.036-.01q.428-.11.87-.132c.636-.035 1.153.02 1.67.075.518.055 1.036.11 1.673.074q.44-.023.865-.135c1.198-.31 1.887-1.12 1.826-2.228-.075-1.379-1.464-2.228-2.854-2.149"/></g><defs><clipPath id="a"><rect width="20" height="20" fill="#fff" rx="10"/></clipPath></defs></svg>