<svg
  width="16"
  height="16"
  viewBox="0 0 16 16"
  fill="none"
  xmlns="http://www.w3.org/2000/svg"
>
  <path
    d="M14 9.2C14 10.8802 14 11.7202 13.673 12.362C13.3854 12.9265 12.9265 13.3854 12.362 13.673C11.7202 14 10.8802 14 9.2 14L6.8 14C5.11984 14 4.27976 14 3.63803 13.673C3.07354 13.3854 2.6146 12.9265 2.32698 12.362C2 11.7202 2 10.8802 2 9.2L2 7.8C2 6.11984 2 5.27976 2.32698 4.63803C2.6146 4.07354 3.07354 3.6146 3.63803 3.32698C4.27976 3 5.11984 3 6.8 3L9.2 3C10.8802 3 11.7202 3 12.362 3.32698C12.9265 3.6146 13.3854 4.07354 13.673 4.63803C14 5.27976 14 6.11984 14 7.8L14 9.2Z"
    stroke="#09101C"
    stroke-width="1.2"
  />
  <path d="M5 2L5 4" stroke="black" stroke-width="1.3" stroke-linecap="round" />
  <path
    d="M3 6.5L13 6.5"
    stroke="black"
    stroke-width="1.3"
    stroke-linecap="square"
  />
  <path
    d="M11 2L11 4"
    stroke="black"
    stroke-width="1.3"
    stroke-linecap="round"
  />
</svg>
