<svg
  width="16"
  height="16"
  viewBox="0 0 16 16"
  fill="none"
  xmlns="http://www.w3.org/2000/svg"
>
  <path
    d="M6 10.625C6 9.58947 6.83947 8.75 7.875 8.75H9.125C10.1605 8.75 11 9.58947 11 10.625V10.625C11 10.9702 10.7202 11.25 10.375 11.25H6.625C6.27982 11.25 6 10.9702 6 10.625V10.625Z"
    stroke="#09101C"
    stroke-width="1.2"
    stroke-linejoin="round"
  />
  <circle
    cx="8.5"
    cy="6"
    r="1.25"
    stroke="#09101C"
    stroke-width="1.2"
    stroke-linejoin="round"
  />
  <path
    fill-rule="evenodd"
    clip-rule="evenodd"
    d="M14.6 6.77374L14.6 6.8V9.2V9.22626C14.6 10.0441 14.6 10.6945 14.5572 11.2193C14.5133 11.7566 14.4214 12.2148 14.2076 12.6344C13.8625 13.3118 13.3118 13.8625 12.6344 14.2076C12.2148 14.4214 11.7566 14.5132 11.2193 14.5571C10.6945 14.6 10.0441 14.6 9.22626 14.6H9.20002H7.80003H7.77379C6.95595 14.6 6.30553 14.6 5.78077 14.5571C5.24341 14.5132 4.78521 14.4214 4.36566 14.2076C3.68828 13.8625 3.13755 13.3118 2.7924 12.6344C2.57863 12.2148 2.48679 11.7566 2.44289 11.2193C2.42742 11.0299 2.41753 10.8241 2.41121 10.6H1.9999C1.66853 10.6 1.3999 10.3314 1.3999 10C1.3999 9.66863 1.66853 9.4 1.9999 9.4H2.40004L2.40003 9.22624V9.2L2.40003 6.8V6.77376V6.77375C2.40002 6.71498 2.40002 6.65706 2.40004 6.6H2.00002C1.66865 6.6 1.40002 6.33137 1.40002 6C1.40002 5.66863 1.66865 5.4 2.00002 5.4H2.41121C2.41753 5.1759 2.42742 4.97014 2.44289 4.78075C2.4868 4.24339 2.57863 3.78518 2.7924 3.36563C3.13755 2.68825 3.68828 2.13752 4.36566 1.79238C4.78521 1.57861 5.24341 1.48677 5.78077 1.44286C6.30553 1.39999 6.95594 1.39999 7.77377 1.4H7.80003H9.20002H9.22628C10.0441 1.39999 10.6945 1.39999 11.2193 1.44287C11.7566 1.48677 12.2148 1.57861 12.6344 1.79238C13.3118 2.13752 13.8625 2.68825 14.2076 3.36563C14.4214 3.78518 14.5133 4.24339 14.5572 4.78075C14.6 5.3055 14.6 5.95592 14.6 6.77374ZM3.61165 5.4C3.61741 5.20846 3.62603 5.03609 3.63891 4.87846C3.67675 4.41531 3.7484 4.13261 3.86161 3.91042C4.09171 3.45883 4.45886 3.09168 4.91045 2.86158C5.13264 2.74837 5.41534 2.67672 5.87849 2.63888C6.34865 2.60047 6.95005 2.6 7.80003 2.6H9.20002C10.05 2.6 10.6514 2.60047 11.1216 2.63888C11.5847 2.67672 11.8674 2.74837 12.0896 2.86158C12.5412 3.09168 12.9083 3.45883 13.1384 3.91042C13.2516 4.13261 13.3233 4.41531 13.3611 4.87846C13.3996 5.34862 13.4 5.95002 13.4 6.8V9.2C13.4 10.05 13.3996 10.6514 13.3611 11.1215C13.3233 11.5847 13.2516 11.8674 13.1384 12.0896C12.9083 12.5412 12.5412 12.9083 12.0896 13.1384C11.8674 13.2516 11.5847 13.3233 11.1216 13.3611C10.6514 13.3995 10.05 13.4 9.20002 13.4H7.80003C6.95005 13.4 6.34865 13.3995 5.87849 13.3611C5.41534 13.3233 5.13263 13.2516 4.91045 13.1384C4.45886 12.9083 4.09171 12.5412 3.86161 12.0896C3.7484 11.8674 3.67675 11.5847 3.63891 11.1215C3.62603 10.9639 3.61741 10.7915 3.61165 10.6H3.9999C4.33127 10.6 4.5999 10.3314 4.5999 10C4.5999 9.66863 4.33127 9.4 3.9999 9.4H3.60005L3.60003 9.2V6.8C3.60003 6.73175 3.60003 6.6651 3.60005 6.6H4.00002C4.3314 6.6 4.60002 6.33137 4.60002 6C4.60002 5.66863 4.3314 5.4 4.00002 5.4H3.61165Z"
    fill="black"
  />
</svg>
