<svg
  width="16"
  height="16"
  viewBox="0 0 16 16"
  fill="none"
  xmlns="http://www.w3.org/2000/svg"
>
  <path
    d="M3.5 4L12.5 4L12.152 10.9598C12.0985 12.029 12.0718 12.5637 11.8467 12.9697C11.6485 13.3272 11.3456 13.6154 10.9787 13.7954C10.5619 14 10.0266 14 8.95604 14L7.04404 14.0001C5.97347 14.0001 5.43819 14.0001 5.02134 13.7955C4.65443 13.6154 4.3515 13.3273 4.15332 12.9698C3.92818 12.5637 3.90145 12.0291 3.84799 10.9599L3.5 4Z"
    stroke="#09101C"
    stroke-width="1.2"
    stroke-linejoin="round"
  />
  <path d="M1.5 4H14.5" stroke="#09101C" stroke-width="1.2" />
  <path
    d="M10.5 4C10.5 2.61929 9.38071 1.5 8 1.5C6.61929 1.5 5.5 2.61929 5.5 4"
    stroke="#09101C"
    stroke-width="1.2"
    stroke-linejoin="round"
  />
  <path d="M9.5 7L9.5 11" stroke="#09101C" stroke-width="1.2" />
  <path d="M6.5 7L6.5 11" stroke="#09101C" stroke-width="1.2" />
</svg>
