<svg
  width="16"
  height="16"
  viewBox="0 0 16 16"
  fill="none"
  xmlns="http://www.w3.org/2000/svg"
>
  <path
    d="M9.2 13H6.8C5.11984 13 4.27976 13 3.63803 12.673C3.07354 12.3854 2.6146 11.9265 2.32698 11.362C2 10.7202 2 9.88016 2 8.2V7.8C2 6.11984 2 5.27976 2.32698 4.63803C2.6146 4.07354 3.07354 3.6146 3.63803 3.32698C4.27976 3 5.11984 3 6.8 3H9.2C10.8802 3 11.7202 3 12.362 3.32698C12.9265 3.6146 13.3854 4.07354 13.673 4.63803C14 5.27976 14 6.11984 14 7.8V8.2C14 9.88016 14 10.7202 13.673 11.362C13.3854 11.9265 12.9265 12.3854 12.362 12.673C11.7202 13 10.8802 13 9.2 13Z"
    stroke="#09101C"
    stroke-width="1.2"
  />
  <path d="M4.5 5.5L8 8.75L11.5 5.5" stroke="#09101C" stroke-width="1.2" />
</svg>
