<svg
  width="16"
  height="16"
  viewBox="0 0 16 16"
  fill="none"
  xmlns="http://www.w3.org/2000/svg"
>
  <path
    d="M9.2 14H6.8C5.11984 14 4.27976 14 3.63803 13.673C3.07354 13.3854 2.6146 12.9265 2.32698 12.362C2 11.7202 2 10.8802 2 9.2V6.8C2 5.11984 2 4.27976 2.32698 3.63803C2.6146 3.07354 3.07354 2.6146 3.63803 2.32698C4.27976 2 5.11984 2 6.8 2H9.2C10.8802 2 11.7202 2 12.362 2.32698C12.9265 2.6146 13.3854 3.07354 13.673 3.63803C14 4.27976 14 5.11984 14 6.8V9.2C14 10.8802 14 11.7202 13.673 12.362C13.3854 12.9265 12.9265 13.3854 12.362 13.673C11.7202 14 10.8802 14 9.2 14Z"
    stroke="#09101C"
    stroke-width="1.2"
  />
  <path
    d="M6.40952 7.43451L6.39843 7.39969C6.37124 7.31437 6.33394 7.23868 6.28677 7.17224L6.28625 7.17151L6.28626 7.1715C6.24019 7.10407 6.18462 7.04665 6.11941 6.99903L6.11909 6.9988C6.05561 6.95167 5.98214 6.91594 5.89811 6.89195L5.89756 6.89179L5.89757 6.89179C5.81343 6.86672 5.72097 6.85395 5.61982 6.85395C5.43939 6.85395 5.28036 6.89777 5.14124 6.98445C5.00272 7.07076 4.8925 7.19821 4.8113 7.36929C4.73166 7.53836 4.6907 7.74688 4.6907 7.99667C4.6907 8.24878 4.73169 8.45901 4.81138 8.62923C4.89139 8.80011 5.00153 8.92809 5.1412 9.01552C5.28119 9.10205 5.44474 9.14606 5.63357 9.14606C5.80603 9.14606 5.95252 9.11395 6.07466 9.0517L6.07481 9.05162C6.19826 8.98925 6.29222 8.9016 6.35813 8.7884C6.41386 8.69175 6.44667 8.58015 6.45549 8.45257H5.69712H5.64712V8.40257V7.92015V7.87015H5.69712H7.12458H7.17458V7.92015V8.32937C7.17458 8.62854 7.10873 8.89009 6.97502 9.11206C6.84189 9.33308 6.65856 9.50362 6.42598 9.62313L6.4258 9.62322C6.19331 9.74154 5.92766 9.8 5.63013 9.8C5.2986 9.8 5.00519 9.72789 4.75149 9.58209L4.75125 9.58195C4.49887 9.43507 4.30175 9.22673 4.16016 8.95821L4.16004 8.95798C4.01933 8.68773 3.94998 8.36895 3.94998 8.00333C3.94998 7.72348 3.99076 7.47179 4.07334 7.24902L4.07342 7.2488L4.07342 7.2488C4.15687 7.02685 4.27368 6.83733 4.42429 6.68113C4.57461 6.52411 4.75114 6.40479 4.95346 6.32343C5.15576 6.24096 5.3752 6.2 5.61124 6.2C5.81066 6.2 5.99745 6.2284 6.17128 6.28564M6.40952 7.43451L6.15577 6.33318M6.40952 7.43451H6.44607H7.09538H7.15386L7.14477 7.37674C7.11746 7.20308 7.05973 7.04377 6.97142 6.8993C6.88343 6.75537 6.77108 6.63106 6.63468 6.52651M6.40952 7.43451L6.6041 6.56606M6.17128 6.28564C6.17132 6.28566 6.17136 6.28567 6.17141 6.28568L6.15577 6.33318M6.17128 6.28564C6.17123 6.28562 6.17118 6.28561 6.17113 6.28559L6.15577 6.33318M6.17128 6.28564C6.34466 6.34163 6.49928 6.42184 6.63468 6.52651M6.15577 6.33318C6.32411 6.38752 6.47355 6.46515 6.6041 6.56606M6.63468 6.52651C6.63463 6.52646 6.63457 6.52642 6.63451 6.52638L6.6041 6.56606M6.63468 6.52651L6.6041 6.56606M7.09538 7.38451L7.04599 7.39227C7.04558 7.38968 7.04516 7.38709 7.04474 7.38451H7.09538ZM7.09538 7.38451V7.33451H7.08656C7.0898 7.35103 7.09274 7.36769 7.09538 7.38451ZM6.09736 9.09625C5.96681 9.16279 5.81221 9.19606 5.63357 9.19606C5.4366 9.19606 5.26368 9.15003 5.1148 9.05798C4.96593 8.96483 4.8497 8.82898 4.7661 8.65043C4.6825 8.47188 4.6407 8.25396 4.6407 7.99667C4.6407 7.7416 4.6825 7.52535 4.7661 7.34791L6.09736 9.09625ZM8.68907 6.29658V6.24658H8.63907H8.00178H7.95178V6.29658V9.70342V9.75342H8.00178H8.63907H8.68907V9.70342V6.29658ZM9.6963 9.70342V9.75342H9.7463H10.3836H10.4336V9.70342V8.30618H11.8454H11.8954V8.25618V7.73883V7.68883H11.8454H10.4336V6.86393H12H12.05V6.81393V6.29658V6.24658H12H9.7463H9.6963V6.29658V9.70342Z"
    fill="#09101C"
    stroke="#09101C"
    stroke-width="0.1"
  />
</svg>
