<svg
  width="16"
  height="16"
  viewBox="0 0 16 16"
  fill="none"
  xmlns="http://www.w3.org/2000/svg"
>
  <path
    fill-rule="evenodd"
    clip-rule="evenodd"
    d="M4.60002 5C4.60002 3.95066 5.45068 3.1 6.50002 3.1C7.54937 3.1 8.40002 3.95066 8.40002 5C8.40002 6.04934 7.54937 6.9 6.50002 6.9C5.45068 6.9 4.60002 6.04934 4.60002 5ZM6.50002 1.9C4.78794 1.9 3.40002 3.28792 3.40002 5C3.40002 6.71208 4.78794 8.1 6.50002 8.1C8.21211 8.1 9.60002 6.71208 9.60002 5C9.60002 3.28792 8.21211 1.9 6.50002 1.9ZM5.00002 8.9C3.0118 8.9 1.40002 10.5118 1.40002 12.5C1.40002 13.3837 2.11637 14.1 3.00002 14.1H9.00002C9.88368 14.1 10.6 13.3837 10.6 12.5C10.6 10.5118 8.98825 8.9 7.00002 8.9H5.00002ZM2.60002 12.5C2.60002 11.1745 3.67454 10.1 5.00002 10.1H7.00002C8.32551 10.1 9.40002 11.1745 9.40002 12.5C9.40002 12.7209 9.22094 12.9 9.00002 12.9H3.00002C2.77911 12.9 2.60002 12.7209 2.60002 12.5Z"
    fill="#09101C"
  />
  <path
    d="M10 3.1C11.0493 3.1 11.9 3.95066 11.9 5C11.9 5.77819 11.4321 6.44843 10.7598 6.74217C10.5279 6.84349 10.2713 6.9 10 6.9V8.1C10.4398 8.1 10.8597 8.00806 11.2402 7.84179C12.3338 7.36397 13.1 6.27213 13.1 5C13.1 3.28792 11.7121 1.9 10 1.9V3.1Z"
    fill="#09101C"
  />
  <path
    d="M11 10.1H11.5C12.8255 10.1 13.9 11.1745 13.9 12.5C13.9 12.7209 13.7209 12.9 13.5 12.9H11.5V14.1H13.5C14.3837 14.1 15.1 13.3837 15.1 12.5C15.1 10.5118 13.4882 8.9 11.5 8.9H11V10.1Z"
    fill="#09101C"
  />
</svg>
