<svg
  width="16"
  height="16"
  viewBox="0 0 16 16"
  fill="none"
  xmlns="http://www.w3.org/2000/svg"
>
  <path
    fill-rule="evenodd"
    clip-rule="evenodd"
    d="M2.60002 4.20447V3H1.40002V6V6.6H2.00002H4.50002V5.4H3.26577C4.18449 3.73085 5.96063 2.6 7.99997 2.6C10.9823 2.6 13.4 5.01766 13.4 8C13.4 10.9823 10.9823 13.4 7.99997 13.4C5.42722 13.4 3.27469 11.6008 2.73197 9.192L1.56729 9.48317C2.2403 12.4141 4.86486 14.6 7.99997 14.6C11.6451 14.6 14.6 11.6451 14.6 8C14.6 4.35492 11.6451 1.4 7.99997 1.4C5.76734 1.4 3.7943 2.50828 2.60002 4.20447Z"
    fill="black"
  />
  <path d="M7.5 5V8L10 10.5" stroke="black" stroke-width="1.2" />
</svg>
