<svg
  width="16"
  height="16"
  viewBox="0 0 16 16"
  fill="none"
  xmlns="http://www.w3.org/2000/svg"
>
  <path
    fill-rule="evenodd"
    clip-rule="evenodd"
    d="M8.00005 0.9H7.98848H7.98844C7.90675 0.899997 7.85114 0.899995 7.8019 0.901607C6.22206 0.953325 4.95338 2.22201 4.90166 3.80184C4.90005 3.85109 4.90005 3.9067 4.90005 3.98841V3.98843L4.90005 4V5.16265C3.86071 5.5829 3.06723 6.46914 2.77272 7.56825C2.64973 8.02724 2.64985 8.56617 2.65004 9.40026L2.65005 9.5L2.65004 9.59974C2.64985 10.4338 2.64973 10.9728 2.77272 11.4317C3.1056 12.6741 4.07597 13.6445 5.3183 13.9773C5.77729 14.1003 6.31621 14.1002 7.1503 14.1H7.15031L7.25005 14.1H8.75005L8.8498 14.1H8.84981C9.6839 14.1002 10.2228 14.1003 10.6818 13.9773C11.9241 13.6445 12.8945 12.6741 13.2274 11.4317C13.3504 10.9728 13.3503 10.4338 13.3501 9.59977V9.59974L13.3501 9.5L13.3501 9.40026V9.40023C13.3503 8.56615 13.3504 8.02724 13.2274 7.56825C12.9329 6.46914 12.1394 5.5829 11.1001 5.16265V4V3.98842V3.98838C11.1001 3.90669 11.1001 3.85108 11.0984 3.80184C11.0467 2.22201 9.77805 0.953325 8.19821 0.901607C8.14897 0.899995 8.09336 0.899997 8.01166 0.9H8.01163H8.00005ZM8.75005 6.1H7.25005C6.28145 6.1 5.91485 6.10515 5.62889 6.18178C4.80067 6.4037 4.15375 7.05061 3.93183 7.87883C3.85521 8.1648 3.85005 8.5314 3.85005 9.5C3.85005 10.4686 3.85521 10.8352 3.93183 11.1212C4.15375 11.9494 4.80067 12.5963 5.62889 12.8182C5.91485 12.8948 6.28145 12.9 7.25005 12.9H8.75005C9.71865 12.9 10.0853 12.8948 10.3712 12.8182C11.1994 12.5963 11.8464 11.9494 12.0683 11.1212C12.1449 10.8352 12.1501 10.4686 12.1501 9.5C12.1501 8.5314 12.1449 8.1648 12.0683 7.87883C11.8464 7.05061 11.1994 6.4037 10.3712 6.18178C10.0853 6.10515 9.71865 6.1 8.75005 6.1ZM9.03758 4.9H9.90005V4C9.90005 3.9024 9.89997 3.86807 9.89909 3.84111C9.86806 2.8932 9.10685 2.132 8.15895 2.10096C8.13198 2.10008 8.09765 2.1 8.00005 2.1C7.90246 2.1 7.86812 2.10008 7.84116 2.10096C6.89326 2.132 6.13205 2.8932 6.10102 3.84111C6.10013 3.86807 6.10005 3.9024 6.10005 4V4.9H6.96253C7.02343 4.89996 7.08599 4.89997 7.15031 4.89999L7.25005 4.9H8.75005L8.8498 4.89999C8.91411 4.89997 8.97667 4.89996 9.03758 4.9ZM7.40005 8.25H8.60005V10.75H7.40005V8.25Z"
    fill="#09101C"
  />
</svg>
