<svg
  width="16"
  height="16"
  viewBox="0 0 16 16"
  fill="none"
  xmlns="http://www.w3.org/2000/svg"
>
  <path
    fill-rule="evenodd"
    clip-rule="evenodd"
    d="M9.70824 1.62489C8.30486 1.24886 6.81662 1.3464 5.47432 1.9024C4.13203 2.45839 3.01071 3.44176 2.28427 4.7C1.55782 5.95824 1.26686 7.42102 1.4565 8.86147C1.64614 10.3019 2.30578 11.6396 3.33313 12.6669C4.36047 13.6943 5.6981 14.3539 7.13856 14.5435C8.57902 14.7332 10.0418 14.4422 11.3 13.7158L10.7 12.6765C9.67057 13.2709 8.47375 13.509 7.29519 13.3538C6.11664 13.1986 5.02221 12.6589 4.18166 11.8184C3.3411 10.9778 2.80139 9.8834 2.64623 8.70484C2.49107 7.52629 2.72913 6.32947 3.3235 5.3C3.91786 4.27053 4.8353 3.46596 5.93354 3.01105C7.03178 2.55615 8.24944 2.47634 9.39766 2.784C10.5459 3.09167 11.5605 3.76961 12.2841 4.71269C13.0078 5.65576 13.4 6.81125 13.4 7.99996H13.4V8.00019L13.4 8.00149L13.4 8.00732L13.3999 8.0315C13.3998 8.05301 13.3996 8.08503 13.3991 8.12619C13.3982 8.20855 13.3964 8.32729 13.3928 8.47136C13.3855 8.7602 13.371 9.14755 13.3421 9.54606C13.3078 10.0207 12.8972 10.4 12.325 10.4C11.6485 10.4 11.1 9.85153 11.1 9.17495V8V4.5H9.9V5.55033C9.37521 5.1427 8.71595 4.9 8 4.9C6.28792 4.9 4.9 6.28792 4.9 8C4.9 9.71208 6.28792 11.1 8 11.1C8.83232 11.1 9.58802 10.772 10.1449 10.2382C10.5389 11.0446 11.3671 11.6 12.325 11.6C13.4278 11.6 14.4525 10.8286 14.539 9.63262C14.5696 9.2093 14.5848 8.80198 14.5924 8.50161C14.5962 8.35107 14.5981 8.22657 14.599 8.13933C14.5995 8.0957 14.5998 8.06135 14.5999 8.03767L14.6 8.01032L14.6 8.00296L14.6 8.00093V8.00032V8.00013V8.00005L14 8H14.6C14.6 6.54711 14.1206 5.13483 13.2362 3.98217C12.3517 2.82952 11.1116 2.00092 9.70824 1.62489ZM8 9.9C9.04934 9.9 9.9 9.04934 9.9 8C9.9 6.95066 9.04934 6.1 8 6.1C6.95066 6.1 6.1 6.95066 6.1 8C6.1 9.04934 6.95066 9.9 8 9.9Z"
    fill="#09101C"
  />
</svg>
