<svg
  width="16"
  height="16"
  viewBox="0 0 16 16"
  fill="none"
  xmlns="http://www.w3.org/2000/svg"
>
  <path
    fill-rule="evenodd"
    clip-rule="evenodd"
    d="M8.00002 1.9C5.70114 1.9 3.83752 3.76362 3.83752 6.0625V6.75798C3.83752 7.28259 3.67023 7.79354 3.35996 8.21657L3.00239 8.70408C2.77346 9.01621 2.65002 9.39321 2.65002 9.7803C2.65002 10.7853 3.46473 11.6 4.46972 11.6H11.5303C12.5353 11.6 13.35 10.7853 13.35 9.7803C13.35 9.39321 13.2266 9.01621 12.9977 8.70408L12.6401 8.21657C12.3298 7.79354 12.1625 7.28259 12.1625 6.75798V6.0625C12.1625 3.76362 10.2989 1.9 8.00002 1.9ZM5.03752 6.0625C5.03752 4.42636 6.36388 3.1 8.00002 3.1C9.63617 3.1 10.9625 4.42636 10.9625 6.0625V6.75798C10.9625 7.53786 11.2112 8.29742 11.6725 8.92628L12.03 9.41379C12.108 9.52009 12.15 9.64848 12.15 9.7803C12.15 10.1226 11.8726 10.4 11.5303 10.4H4.46972C4.12747 10.4 3.85002 10.1226 3.85002 9.7803C3.85002 9.64848 3.89206 9.52009 3.97002 9.41379L4.32759 8.92629C4.78883 8.29742 5.03752 7.53786 5.03752 6.75798V6.0625ZM8.00002 14.35C8.46772 14.35 8.9271 14.2386 9.35074 14.0268C9.7738 13.8152 10.1502 13.5092 10.4621 13.1328L9.53798 12.3672C9.32457 12.6248 9.07735 12.8218 8.81409 12.9535C8.55141 13.0848 8.27519 13.15 8.00002 13.15C7.72485 13.15 7.44864 13.0848 7.18596 12.9535C6.9227 12.8218 6.67547 12.6248 6.46207 12.3672L5.53798 13.1328C5.84986 13.5092 6.22625 13.8152 6.6493 14.0268C7.07294 14.2386 7.53233 14.35 8.00002 14.35Z"
    fill="#09101C"
  />
</svg>
