<svg
  width="16"
  height="16"
  viewBox="0 0 16 16"
  fill="none"
  xmlns="http://www.w3.org/2000/svg"
>
  <path
    fill-rule="evenodd"
    clip-rule="evenodd"
    d="M8.00002 2.6C6.72502 2.6 5.55322 3.04188 4.62942 3.78086L8.00003 7.15147L11.3706 3.78086C10.4468 3.04188 9.27503 2.6 8.00002 2.6ZM12.2192 4.62939L8.84856 8L12.2192 11.3706C12.9581 10.4468 13.4 9.27501 13.4 8C13.4 6.72499 12.9581 5.55319 12.2192 4.62939ZM7.1515 8L3.78089 4.62938C3.04191 5.55319 2.60002 6.72499 2.60002 8C2.60002 9.27501 3.04191 10.4468 3.78088 11.3706L7.1515 8ZM4.62941 12.2191L8.00003 8.84852L11.3706 12.2191C10.4468 12.9581 9.27503 13.4 8.00002 13.4C6.72502 13.4 5.55321 12.9581 4.62941 12.2191ZM1.40002 8C1.40002 4.35492 4.35495 1.4 8.00002 1.4C11.6451 1.4 14.6 4.35492 14.6 8C14.6 11.6451 11.6451 14.6 8.00002 14.6C4.35495 14.6 1.40002 11.6451 1.40002 8Z"
    fill="#09101C"
  />
</svg>
