<svg
  width="16"
  height="16"
  viewBox="0 0 16 16"
  fill="none"
  xmlns="http://www.w3.org/2000/svg"
>
  <path
    fill-rule="evenodd"
    clip-rule="evenodd"
    d="M5.13968 4.12245C5.22212 3.84766 5.55849 3.74644 5.77889 3.9301L7.61589 5.46093L8.03682 5.81171L8.42426 5.42426L9.85191 3.99662C10.055 3.79356 10.3995 3.86428 10.5061 4.13091L11.6138 6.9H4.30642L5.13968 4.12245ZM3.05358 6.9L3.99029 3.77763C4.32004 2.67847 5.66553 2.27358 6.54711 3.00823L7.96318 4.18829L9.00338 3.14809C9.81561 2.33586 11.1937 2.61873 11.6203 3.68524L12.9062 6.9H14V8.1H2V6.9H3.05358ZM5 10.6C4.36487 10.6 3.85 11.1149 3.85 11.75C3.85 12.3851 4.36487 12.9 5 12.9C5.63513 12.9 6.15 12.3851 6.15 11.75C6.15 11.1149 5.63513 10.6 5 10.6ZM2.65 11.75C2.65 10.4521 3.70213 9.4 5 9.4C6.04839 9.4 6.93643 10.0865 7.2391 11.0345C7.73921 10.9163 8.26079 10.9163 8.76091 11.0345C9.06357 10.0865 9.95161 9.4 11 9.4C12.2979 9.4 13.35 10.4521 13.35 11.75C13.35 13.0479 12.2979 14.1 11 14.1C9.88018 14.1 8.94329 13.3167 8.70732 12.2682C8.2503 12.1051 7.7497 12.1051 7.29268 12.2682C7.05671 13.3167 6.11982 14.1 5 14.1C3.70213 14.1 2.65 13.0479 2.65 11.75ZM9.85 11.75C9.85 11.1149 10.3649 10.6 11 10.6C11.6351 10.6 12.15 11.1149 12.15 11.75C12.15 12.3851 11.6351 12.9 11 12.9C10.3649 12.9 9.85 12.3851 9.85 11.75Z"
    fill="black"
  />
</svg>
