<svg
  width="16"
  height="16"
  viewBox="0 0 16 16"
  fill="none"
  xmlns="http://www.w3.org/2000/svg"
>
  <path
    d="M8 2H8.66667C9.90663 2 10.5266 2 11.0353 2.1363C12.4156 2.50617 13.4938 3.58436 13.8637 4.96472C14 5.47339 14 6.09337 14 7.33333C14 8.88329 14 9.65826 13.8296 10.2941C13.3673 12.0196 12.0196 13.3673 10.2941 13.8296C9.65826 14 8.88329 14 7.33333 14C6.09337 14 5.47339 14 4.96472 13.8637C3.58436 13.4938 2.50617 12.4156 2.1363 11.0353C2 10.5266 2 9.90663 2 8.66667V8C2 6.13623 2 5.20435 2.30448 4.46927C2.71046 3.48915 3.48915 2.71046 4.46927 2.30448C5.20435 2 6.13623 2 8 2Z"
    stroke="#09101C"
    stroke-width="1.2"
  />
  <path
    d="M13.8 9V9C12.1198 9 11.2798 9 10.638 9.32698C10.0735 9.6146 9.6146 10.0735 9.32698 10.638C9 11.2798 9 12.1198 9 13.8V13.8"
    stroke="#09101C"
    stroke-width="1.3"
  />
</svg>
