<svg
  width="16"
  height="16"
  viewBox="0 0 16 16"
  fill="none"
  xmlns="http://www.w3.org/2000/svg"
>
  <path
    fill-rule="evenodd"
    clip-rule="evenodd"
    d="M8.06532 0.9C9.74136 0.9 11.1001 2.2587 11.1001 3.93473V5.16265C12.1394 5.58289 12.9329 6.46914 13.2274 7.56825C13.3504 8.02724 13.3503 8.56615 13.3501 9.40023V9.40026L13.3501 9.5L13.3501 9.59974V9.59977C13.3503 10.4338 13.3504 10.9728 13.2274 11.4317C12.8945 12.6741 11.9241 13.6445 10.6818 13.9773C10.2228 14.1003 9.68391 14.1002 8.84984 14.1H8.8498L8.75005 14.1H7.25005L7.15031 14.1H7.15027C6.3162 14.1002 5.77729 14.1003 5.3183 13.9773C4.07597 13.6445 3.1056 12.6741 2.77272 11.4317C2.64973 10.9728 2.64985 10.4338 2.65004 9.59974L2.65005 9.5L2.65004 9.40026C2.64985 8.56616 2.64973 8.02724 2.77272 7.56825C3.1056 6.32592 4.07597 5.35555 5.3183 5.02267C5.7773 4.89968 6.31622 4.8998 7.15031 4.89998L7.25005 4.9H8.75005L8.8498 4.89998C9.26384 4.89989 9.60515 4.89982 9.90005 4.91481V3.93473C9.90005 2.92144 9.07862 2.1 8.06532 2.1C7.28399 2.1 6.58838 2.59482 6.3321 3.33292L6.06686 4.09681L4.93325 3.70319L5.19849 2.9393C5.62239 1.71845 6.77297 0.9 8.06532 0.9ZM7.25005 6.1C6.28145 6.1 5.91485 6.10515 5.62889 6.18178C4.80067 6.4037 4.15375 7.05061 3.93183 7.87883C3.85521 8.1648 3.85005 8.5314 3.85005 9.5C3.85005 10.4686 3.85521 10.8352 3.93183 11.1212C4.15375 11.9494 4.80067 12.5963 5.62889 12.8182C5.91485 12.8948 6.28145 12.9 7.25005 12.9H8.75005C9.71865 12.9 10.0853 12.8948 10.3712 12.8182C11.1994 12.5963 11.8464 11.9494 12.0683 11.1212C12.1449 10.8352 12.1501 10.4686 12.1501 9.5C12.1501 8.5314 12.1449 8.1648 12.0683 7.87883C11.8464 7.05061 11.1994 6.4037 10.3712 6.18178C10.0853 6.10515 9.71865 6.1 8.75005 6.1H7.25005ZM7.40005 8.25H8.60005V10.75H7.40005V8.25Z"
    fill="#09101C"
  />
</svg>
