<svg
  width="16"
  height="16"
  viewBox="0 0 16 16"
  fill="none"
  xmlns="http://www.w3.org/2000/svg"
>
  <path
    fill-rule="evenodd"
    clip-rule="evenodd"
    d="M3.83756 6.0625C3.83756 5.64507 3.899 5.24199 4.01334 4.86181L1.91895 2.76741L2.76747 1.91888L4.56276 3.71416C5.31257 2.61876 6.57238 1.9 8.00006 1.9C10.2989 1.9 12.1626 3.76362 12.1626 6.0625V6.75798C12.1626 7.28259 12.3298 7.79354 12.6401 8.21657L12.9977 8.70408C13.2266 9.01621 13.3501 9.39321 13.3501 9.7803C13.3501 10.516 12.9134 11.1498 12.2852 11.4366L14.0812 13.2326L13.2327 14.0811L10.7515 11.6H4.46976C3.46476 11.6 2.65006 10.7853 2.65006 9.7803C2.65006 9.39321 2.77349 9.01621 3.00243 8.70408L3.35999 8.21657C3.67027 7.79354 3.83756 7.28259 3.83756 6.75798V6.0625ZM5.03756 6.0625C5.03756 6.0049 5.0392 5.94769 5.04244 5.89091L9.55154 10.4H4.46976C4.12751 10.4 3.85006 10.1226 3.85006 9.7803C3.85006 9.64848 3.89209 9.52009 3.97006 9.41379L4.32762 8.92629C4.78887 8.29742 5.03756 7.53786 5.03756 6.75798V6.0625ZM11.5304 10.4H11.2486L5.43241 4.58381C5.94427 3.69691 6.90246 3.1 8.00006 3.1C9.6362 3.1 10.9626 4.42636 10.9626 6.0625V6.75798C10.9626 7.53786 11.2112 8.29742 11.6725 8.92628L12.0301 9.41379C12.108 9.52009 12.1501 9.64848 12.1501 9.7803C12.1501 10.1226 11.8726 10.4 11.5304 10.4ZM8.00006 14.35C8.46776 14.35 8.92714 14.2386 9.35078 14.0268C9.77383 13.8152 10.1502 13.5092 10.4621 13.1328L9.53801 12.3672C9.32461 12.6248 9.07739 12.8218 8.81412 12.9535C8.55144 13.0848 8.27523 13.15 8.00006 13.15C7.72489 13.15 7.44867 13.0848 7.18599 12.9535C6.92273 12.8218 6.67551 12.6248 6.4621 12.3672L5.53801 13.1328C5.8499 13.5092 6.22628 13.8152 6.64934 14.0268C7.07298 14.2386 7.53236 14.35 8.00006 14.35Z"
    fill="#09101C"
  />
</svg>
