<svg
  width="16"
  height="16"
  viewBox="0 0 16 16"
  fill="none"
  xmlns="http://www.w3.org/2000/svg"
>
  <path
    fill-rule="evenodd"
    clip-rule="evenodd"
    d="M2.6 8C2.6 5.01766 5.01766 2.6 8 2.6C8.13192 2.6 8.26273 2.60473 8.39228 2.61403C7.93797 2.86162 7.46649 3.1286 7.06222 3.38411C6.67211 3.63067 6.28977 3.8998 6.05163 4.1563C5.94694 4.26905 5.77598 4.47565 5.74225 4.74894C5.7223 4.91055 5.75181 5.08881 5.85607 5.24935C5.95353 5.39942 6.08675 5.48864 6.19776 5.54157C6.46441 5.66873 6.77158 5.77311 7.04965 5.86514L7.16107 5.90191C7.4094 5.98375 7.63711 6.0588 7.84419 6.14288C8.08594 6.24103 8.2434 6.3302 8.334 6.41005C8.40436 6.47206 8.40104 6.49617 8.40013 6.49957C8.39526 6.50508 8.38551 6.51486 8.36782 6.52829C8.28943 6.58782 8.14265 6.65563 7.89646 6.72995C7.73227 6.77953 7.56464 6.82102 7.37997 6.86674L7.37983 6.86678C7.28738 6.88966 7.19066 6.91361 7.08797 6.94015C6.80249 7.01394 6.48147 7.10573 6.19773 7.24105C6.11621 7.27993 6.01269 7.32189 5.88202 7.37487C5.81001 7.40406 5.72976 7.4366 5.64039 7.47381C5.41704 7.56679 5.1436 7.68679 4.92606 7.82561C4.81903 7.89392 4.68917 7.98915 4.58523 8.11602C4.48069 8.24363 4.34906 8.47253 4.40003 8.76727C4.44918 9.05153 4.64057 9.23002 4.78625 9.32955C4.93708 9.4326 5.12178 9.50936 5.31823 9.57181C5.65548 9.67901 5.89221 9.76405 6.0631 9.84173C6.23486 9.91981 6.303 9.97434 6.33064 10.0031L6.33288 10.0054C6.35471 10.0274 6.4 10.0733 6.4 10.5C6.4 10.7106 6.44686 10.9532 6.5023 11.1767C6.56034 11.4107 6.63917 11.6673 6.72489 11.9211C6.91039 12.4704 7.35887 12.9078 7.96032 12.8782C8.54902 12.8492 8.96136 12.3862 9.11643 11.8364C9.3598 10.9736 9.6699 10.2808 10.2042 9.9411C10.6941 9.62958 10.9634 9.25939 11.1531 8.88412C11.2349 8.72237 11.3034 8.55635 11.3633 8.41104L11.3633 8.41103L11.3789 8.37324C11.4454 8.21219 11.5059 8.06922 11.5801 7.92762C11.7872 7.53247 12.1457 7.05236 13.2065 6.5622C13.3326 7.01998 13.4 7.50212 13.4 8C13.4 10.9823 10.9823 13.4 8 13.4C5.01766 13.4 2.6 10.9823 2.6 8ZM12.7597 5.4473C12.1855 4.37879 11.2619 3.52592 10.1419 3.04145L9.91481 3.16147C9.24128 3.5171 8.37008 3.9771 7.70332 4.3985C7.5421 4.5004 7.40231 4.59427 7.28524 4.67864C7.33104 4.69413 7.37819 4.70986 7.42666 4.7259L7.53323 4.76104C7.77759 4.84147 8.04792 4.93046 8.29563 5.03103C8.57591 5.14483 8.8835 5.2948 9.12743 5.50979C9.38585 5.73754 9.6 6.06536 9.6 6.5C9.6 6.94481 9.37539 7.26992 9.09359 7.48394C8.83742 7.67848 8.51914 7.79546 8.24329 7.87874C8.04984 7.93715 7.83213 7.99112 7.6315 8.04086L7.63149 8.04087C7.54628 8.06199 7.46415 8.08236 7.38826 8.10197C7.11128 8.17356 6.88639 8.2421 6.7143 8.32417C6.60017 8.3786 6.43962 8.44379 6.28634 8.50603L6.28633 8.50603C6.22865 8.52946 6.17199 8.55246 6.11922 8.57432C6.28224 8.63235 6.42908 8.68993 6.5597 8.7493C6.79742 8.85737 7.01879 8.98761 7.19518 9.17085C7.58246 9.57317 7.6 10.0724 7.6 10.5C7.6 10.5596 7.61712 10.6867 7.667 10.8878C7.71429 11.0784 7.78213 11.3012 7.86181 11.5372C7.87738 11.5833 7.89372 11.6164 7.90788 11.6397C7.92478 11.6122 7.94455 11.5708 7.96149 11.5107C8.20594 10.644 8.6092 9.5332 9.56031 8.92846C9.82898 8.75763 9.96658 8.57144 10.0822 8.34268C10.1423 8.22398 10.1938 8.0992 10.2577 7.94423L10.2577 7.94422L10.2698 7.9151C10.3365 7.75361 10.4151 7.56545 10.5172 7.3706C10.876 6.68603 11.4658 6.0342 12.7597 5.4473ZM8 1.4C4.35492 1.4 1.4 4.35492 1.4 8C1.4 11.6451 4.35492 14.6 8 14.6C11.6451 14.6 14.6 11.6451 14.6 8C14.6 4.35492 11.6451 1.4 8 1.4ZM6.89444 5.01738C6.89427 5.01739 6.89545 5.01535 6.89849 5.01118C6.89612 5.01527 6.8946 5.01736 6.89444 5.01738Z"
    fill="black"
  />
</svg>
