<svg
  xmlns="http://www.w3.org/2000/svg"
  width="16"
  height="16"
  fill="none"
  viewBox="0 0 16 16"
>
  <path
    fill="currentColor"
    fill-rule="evenodd"
    d="M6.1 4a1.9 1.9 0 1 1 3.8 0 1.9 1.9 0 0 1-3.8 0ZM8 .9a3.1 3.1 0 0 0-.777 6.102 5.48 5.48 0 0 1 3.486-1.495A3.1 3.1 0 0 0 8 .9ZM3.73 9.173c.755-.66 1.675-1 2.648-1.156-.274.424-.492.89-.642 1.384-.462.153-.87.373-1.216.675-.747.654-1.314 1.794-1.407 3.824h3.213c.278.447.618.85 1.008 1.2H1.9v-.6c0-2.59.648-4.292 1.83-5.327ZM7.6 11a3.4 3.4 0 1 1 6.8 0 3.4 3.4 0 0 1-6.8 0ZM11 6.4a4.6 4.6 0 1 0 0 9.2 4.6 4.6 0 0 0 0-9.2Zm.6 4h1.9v1.2h-1.9v1.9h-1.2v-1.9H8.5v-1.2h1.9V8.5h1.2v1.9Z"
    clip-rule="evenodd"
  />
</svg>
