<svg
  xmlns="http://www.w3.org/2000/svg"
  width="16"
  height="16"
  fill="none"
  viewBox="0 0 16 16"
>
  <g
    fill="#09101C"
    fill-rule="evenodd"
    clip-path="url(#prefix__clip0_3221_3548)"
    clip-rule="evenodd"
  >
    <path
      d="M4.5 1.778c-2.461.573-3 2.185-3 6.222 0 4.037.539 5.65 3 6.222V1.778Z"
      opacity=".12"
    />
    <path
      d="M2.33 4.786C2.163 5.59 2.1 6.634 2.1 8c0 1.365.063 2.409.23 3.214.165.799.424 1.316.782 1.674.265.266.618.476 1.108.635a24.246 24.246 0 0 1-.066-.515C4.026 11.92 3.9 10.271 3.9 8s.126-3.92.254-5.008c.022-.188.044-.36.066-.515-.49.159-.843.37-1.108.635-.358.358-.617.875-.782 1.674ZM8 13.9c-1.006 0-1.837-.034-2.527-.119a20.389 20.389 0 0 1-.127-.914C5.224 11.83 5.1 10.227 5.1 8c0-2.228.124-3.83.246-4.868.044-.378.089-.682.127-.913.69-.085 1.52-.12 2.527-.12 1.365 0 2.409.064 3.214.23.799.166 1.316.425 1.674.783.358.358.617.875.782 1.674.167.805.23 1.848.23 3.214 0 1.365-.063 2.409-.23 3.214-.165.799-.424 1.316-.782 1.674-.358.358-.875.617-1.674.782-.805.167-1.849.23-3.214.23ZM4.542 1.155C5.472.962 6.615.9 8 .9c1.384 0 2.528.062 3.458.255.935.193 1.7.529 2.279 1.108.58.58.914 1.343 1.108 2.28.193.929.255 2.072.255 3.457 0 1.384-.062 2.528-.255 3.458-.194.935-.529 1.7-1.108 2.279-.58.58-1.344.914-2.28 1.108-.929.193-2.073.255-3.457.255-1.385 0-2.528-.062-3.458-.255-.936-.194-1.7-.529-2.279-1.108-.58-.58-.915-1.344-1.108-2.28C.962 10.529.9 9.385.9 8c0-1.385.062-2.528.255-3.458.193-.936.529-1.7 1.108-2.279.58-.58 1.343-.915 2.28-1.108Zm4.382 9.27 2-2L11.348 8l-.424-.424-2-2-.848.848L9.65 8 8.076 9.576l.848.848Z"
    />
  </g>
  <defs>
    <clipPath id="prefix__clip0_3221_3548">
      <path fill="#fff" d="M0 0h16v16H0z" />
    </clipPath>
  </defs>
</svg>
