<svg
  xmlns="http://www.w3.org/2000/svg"
  width="16"
  height="16"
  fill="none"
  viewBox="0 0 16 16"
>
  <g clip-path="url(#prefix__clip0_6693_71)">
    <path
      fill="currentColor"
      fill-rule="evenodd"
      d="M9.4 1.433a22.82 22.82 0 0 0-.8-.028V0H7.4v1.405c-.278.005-.545.014-.8.028V.5H5.4v1.046c-.2.029-.39.063-.573.102-.868.187-1.581.508-2.126 1.053-.545.545-.866 1.259-1.053 2.126-.04.182-.073.373-.102.573H.5v1.2h.933c-.014.256-.023.522-.028.8H0v1.2h1.405c.005.278.014.544.028.8H.5v1.2h1.046c.029.2.063.391.102.573.187.868.508 1.581 1.053 2.126.545.546 1.258.866 2.126 1.053.182.04.373.073.573.102V15.5h1.2v-.933c.256.014.522.023.8.028V16h1.2v-1.405c.278-.005.544-.014.8-.028v.933h1.2v-1.046c.2-.029.39-.062.573-.102.867-.187 1.581-.508 2.126-1.053.546-.545.866-1.258 1.053-2.126.04-.182.073-.373.102-.573H15.5V9.4h-.933c.014-.256.023-.522.028-.8H16V7.4h-1.405a22.796 22.796 0 0 0-.028-.8h.933V5.4h-1.046c-.029-.2-.063-.39-.102-.573-.187-.867-.508-1.581-1.053-2.126-.545-.545-1.258-.866-2.126-1.053a8.443 8.443 0 0 0-.573-.102V.5H9.4v.933ZM2.6 8c0-1.238.063-2.187.22-2.92.158-.727.4-1.2.73-1.53.33-.33.803-.572 1.53-.729.733-.158 1.682-.22 2.92-.22s2.187.062 2.92.22c.727.157 1.2.399 1.53.728.33.33.572.804.73 1.53.157.734.22 1.683.22 2.921 0 1.238-.063 2.187-.22 2.92-.158.727-.4 1.201-.73 1.53-.33.33-.803.573-1.53.73-.733.157-1.682.22-2.92.22s-2.187-.063-2.92-.22c-.727-.157-1.2-.4-1.53-.73-.33-.329-.572-.803-.73-1.53-.157-.733-.22-1.682-.22-2.92Zm2.5 0c0-.742.032-1.287.113-1.695.08-.401.2-.619.336-.756.137-.137.355-.255.756-.336C6.713 5.132 7.258 5.1 8 5.1c.74 0 1.285.034 1.691.118.4.083.62.204.758.344.139.14.258.36.338.76.081.406.113.946.113 1.678s-.032 1.272-.113 1.678c-.08.4-.2.62-.338.76-.139.14-.358.261-.758.344-.406.084-.95.118-1.691.118-.742 0-1.287-.032-1.695-.113-.401-.08-.619-.2-.756-.336-.137-.137-.255-.355-.336-.756C5.132 9.287 5.1 8.742 5.1 8ZM8 3.9c-.758 0-1.4.03-1.93.137-.536.107-1.006.3-1.37.664-.362.363-.556.833-.663 1.369C3.93 6.6 3.9 7.242 3.9 8s.03 1.4.137 1.93c.107.536.3 1.006.664 1.37.363.362.833.556 1.369.663.53.106 1.172.137 1.93.137.76 0 1.403-.033 1.934-.143.537-.11 1.006-.31 1.367-.674.361-.365.555-.835.662-1.369.106-.528.137-1.166.137-1.914s-.03-1.387-.137-1.914c-.107-.535-.3-1.004-.662-1.369-.361-.365-.83-.563-1.367-.674C9.403 3.933 8.759 3.9 8 3.9Z"
      clip-rule="evenodd"
    />
  </g>
  <defs>
    <clipPath id="prefix__clip0_6693_71">
      <path fill="#fff" d="M0 0h16v16H0z" />
    </clipPath>
  </defs>
</svg>
