<svg
  xmlns="http://www.w3.org/2000/svg"
  width="16"
  height="16"
  fill="none"
  viewBox="0 0 16 16"
>
  <g clip-path="url(#prefix__clip0_1118_21)">
    <path
      fill="currentColor"
      fill-rule="evenodd"
      d="M2.1 8c0-1.366.063-2.41.23-3.214.165-.799.424-1.316.782-1.674.358-.358.875-.617 1.674-.782C5.59 2.163 6.634 2.1 8 2.1c1.365 0 2.409.063 3.214.23.799.165 1.316.424 1.674.782.358.358.617.875.782 1.674.167.805.23 1.848.23 3.214 0 1.365-.063 2.409-.23 3.214-.165.799-.424 1.316-.782 1.674-.358.358-.875.617-1.674.782-.805.167-1.849.23-3.214.23-1.366 0-2.41-.063-3.214-.23-.799-.165-1.316-.424-1.674-.782-.358-.358-.617-.875-.782-1.674C2.163 10.41 2.1 9.365 2.1 8ZM8 .9c-1.385 0-2.528.062-3.458.255-.936.193-1.7.529-2.279 1.108-.58.58-.915 1.343-1.108 2.28C.962 5.471.9 6.614.9 8c0 1.384.062 2.528.255 3.458.193.935.529 1.7 1.108 2.279.58.58 1.343.914 2.28 1.108.929.193 2.072.255 3.457.255 1.384 0 2.528-.062 3.458-.255.935-.194 1.7-.529 2.279-1.108.58-.58.914-1.344 1.108-2.28.193-.929.255-2.073.255-3.457 0-1.385-.062-2.528-.255-3.458-.194-.936-.529-1.7-1.108-2.279-.58-.58-1.344-.915-2.28-1.108C10.529.962 9.385.9 8 .9Zm-3.072 9.6c.655 0 1.139-.303 1.36-.813l.042.699h.735V7.73H5.05v.813h1.071v.101c0 .417-.3.981-.961.981-.729 0-1.102-.631-1.102-1.633 0-1.008.398-1.64 1.09-1.64.532 0 .802.37.875.82l1.022-.208C6.912 6.172 6.293 5.5 5.155 5.5 3.82 5.5 3 6.508 3 8.007c0 1.512.728 2.493 1.928 2.493Zm4.066-.114V5.614H7.959v4.772h1.035Zm2.065-1.963v1.963h-1.034V5.614H13v.86h-1.94v1.102h1.83v.847h-1.83Z"
      clip-rule="evenodd"
    />
  </g>
  <defs>
    <clipPath id="prefix__clip0_1118_21">
      <path fill="#fff" d="M0 0h16v16H0z" />
    </clipPath>
  </defs>
</svg>
