<svg
  xmlns="http://www.w3.org/2000/svg"
  width="16"
  height="16"
  fill="none"
  viewBox="0 0 16 16"
>
  <g clip-path="url(#prefix__clip0_6776_109)">
    <path
      fill="#09101C"
      fill-rule="evenodd"
      d="M2.33 4.786C2.163 5.59 2.1 6.634 2.1 8c0 1.365.063 2.409.23 3.214.165.799.424 1.316.782 1.674.358.358.875.617 1.674.782.805.167 1.848.23 3.214.23 1.365 0 2.409-.063 3.214-.23.799-.165 1.316-.424 1.674-.782.358-.358.617-.875.782-1.674.167-.805.23-1.849.23-3.214h1.2c0 1.384-.062 2.528-.255 3.458-.194.935-.529 1.7-1.108 2.279-.58.58-1.344.914-2.28 1.108-.929.193-2.073.255-3.457.255-1.385 0-2.528-.062-3.458-.255-.936-.194-1.7-.529-2.279-1.108-.58-.58-.915-1.344-1.108-2.28C.962 10.529.9 9.385.9 8c0-1.385.062-2.528.255-3.458.193-.936.529-1.7 1.108-2.279.58-.58 1.343-.915 2.28-1.108C5.471.962 6.614.9 8 .9v1.2c-1.366 0-2.41.063-3.214.23-.799.165-1.316.424-1.674.782-.358.358-.617.875-.782 1.674ZM8.6 6.55l4.976-4.975.848.848L9.448 7.4H11.5v1.2H7.4V4.5h1.2v2.051Z"
      clip-rule="evenodd"
    />
  </g>
  <defs>
    <clipPath id="prefix__clip0_6776_109">
      <path fill="#fff" d="M0 0h16v16H0z" />
    </clipPath>
  </defs>
</svg>
