<svg
  xmlns="http://www.w3.org/2000/svg"
  width="16"
  height="16"
  fill="none"
  viewBox="0 0 16 16"
>
  <path
    fill="currentColor"
    fill-rule="evenodd"
    d="M2.1 8c0-1.366.063-2.41.23-3.214.165-.799.424-1.316.782-1.674.358-.358.875-.617 1.674-.782C5.59 2.163 6.634 2.1 8 2.1V.9c-1.385 0-2.528.062-3.458.255-.936.193-1.7.529-2.279 1.108-.58.58-.915 1.343-1.108 2.28C.962 5.471.9 6.614.9 8c0 1.384.062 2.528.255 3.458.193.935.529 1.7 1.108 2.279.58.58 1.343.914 2.28 1.108.929.193 2.072.255 3.457.255v-1.2c-1.366 0-2.41-.063-3.214-.23-.799-.165-1.316-.424-1.674-.782-.358-.358-.617-.875-.782-1.674C2.163 10.41 2.1 9.365 2.1 8Zm2.9.6h6.695l-2.15 2.51.91.78 3-3.5.335-.39-.334-.39-3-3.5-.912.78 2.151 2.51H5v1.2Z"
    clip-rule="evenodd"
  />
</svg>
