<svg
  xmlns="http://www.w3.org/2000/svg"
  width="16"
  height="16"
  fill="none"
  viewBox="0 0 16 16"
>
  <path
    fill="currentColor"
    fill-rule="evenodd"
    d="M3.6 8c0-1.46.04-2.56.16-3.398.12-.842.315-1.349.57-1.675.243-.307.591-.517 1.175-.649C6.108 2.142 6.908 2.1 8 2.1s1.892.042 2.494.178c.585.132.933.342 1.175.65.256.325.45.833.57 1.674.121.838.16 1.938.16 3.398 0 1.46-.039 2.56-.16 3.398-.12.842-.314 1.35-.57 1.675-.242.307-.59.517-1.175.649-.602.136-1.402.178-2.494.178-1.092 0-1.892-.042-2.495-.178-.584-.132-.932-.342-1.174-.65-.256-.325-.45-.832-.571-1.674C3.64 10.56 3.6 9.46 3.6 8ZM8 .9c-1.096 0-2.014.04-2.76.208-.763.172-1.39.491-1.852 1.077-.447.568-.683 1.32-.816 2.246-.133.93-.172 2.104-.172 3.57 0 1.464.039 2.639.172 3.568.133.926.369 1.678.816 2.246.461.586 1.09.905 1.853 1.077.745.169 1.663.208 2.759.208 1.095 0 2.014-.04 2.759-.208.764-.172 1.392-.49 1.853-1.077.447-.568.683-1.32.816-2.246.133-.93.172-2.104.172-3.569 0-1.465-.039-2.64-.172-3.569-.133-.926-.37-1.678-.816-2.246-.461-.586-1.09-.905-1.853-1.077C10.014.939 9.095.9 7.999.9ZM6 4.6h4V3.4H6v1.2Z"
    clip-rule="evenodd"
  />
</svg>
