<svg
  xmlns="http://www.w3.org/2000/svg"
  width="16"
  height="16"
  fill="none"
  viewBox="0 0 16 16"
>
  <path
    fill="currentColor"
    fill-rule="evenodd"
    d="M4.627 6.252c.117-1.565.602-2.448 1.177-2.949C6.387 2.797 7.156 2.6 8 2.6c.845 0 1.614.197 2.196.703.576.5 1.06 1.384 1.177 2.949l.005.064c.042.556.066.871.085 1.011.019.14.05.293.1.544l.004.023.701 3.506H3.732l.701-3.506.005-.023c.05-.25.08-.404.1-.544.019-.14.043-.455.084-1.01l.005-.065ZM8 1.4c-1.016 0-2.108.236-2.983.998-.883.767-1.454 1.987-1.587 3.764-.047.628-.068.905-.081 1.002a9.165 9.165 0 0 1-.093.495l-.844 4.223-.144.718H4.96a3.1 3.1 0 0 0 6.083 0h2.69l-.143-.718-.845-4.223a9.239 9.239 0 0 1-.092-.495 30.56 30.56 0 0 1-.082-1.002c-.133-1.777-.704-2.997-1.586-3.764C10.108 1.636 9.016 1.4 8 1.4ZM6.657 13.343a1.9 1.9 0 0 1-.46-.743h3.606a1.9 1.9 0 0 1-3.146.743Z"
    clip-rule="evenodd"
  />
</svg>
