<svg
  xmlns="http://www.w3.org/2000/svg"
  width="16"
  height="16"
  fill="none"
  viewBox="0 0 16 16"
>
  <path
    fill="#09101C"
    fill-rule="evenodd"
    d="M8 1.4c-.292 0-.58.019-.861.056l.155 1.19a5.456 5.456 0 0 1 1.412 0l.155-1.19A6.655 6.655 0 0 0 8 1.4Zm4.018 1.364a6.594 6.594 0 0 0-1.492-.863l-.46 1.108c.44.182.85.42 1.221.706l.731-.951ZM5.473 1.9a6.594 6.594 0 0 0-1.491.863l.73.951a5.393 5.393 0 0 1 1.221-.706l-.46-1.108ZM14.1 5.473a6.598 6.598 0 0 0-.863-1.491l-.952.73c.286.373.524.782.706 1.221l1.109-.46ZM2.764 3.982c-.35.454-.64.954-.863 1.491l1.108.46c.182-.439.42-.848.706-1.22l-.951-.731ZM14.6 8c0-.292-.019-.58-.056-.861l-1.19.155a5.458 5.458 0 0 1 0 1.412l1.19.155A6.64 6.64 0 0 0 14.6 8ZM1.456 7.139a6.655 6.655 0 0 0 0 1.722l1.19-.155a5.456 5.456 0 0 1 0-1.412l-1.19-.155Zm11.78 4.88c.349-.455.64-.956.863-1.492l-1.109-.46c-.181.438-.42.848-.706 1.22l.952.731ZM1.901 10.526c.223.536.514 1.037.863 1.491l.951-.731a5.393 5.393 0 0 1-.706-1.22l-1.108.46Zm2.08 2.71c.455.348.955.64 1.492.862l.46-1.109a5.393 5.393 0 0 1-1.22-.706l-.731.952Zm6.546.862a6.598 6.598 0 0 0 1.491-.863l-.731-.952a5.393 5.393 0 0 1-1.22.706l.46 1.109Zm-2.527.5c.292 0 .579-.018.861-.055l-.155-1.19a5.458 5.458 0 0 1-1.412 0l-.155 1.19c.282.037.57.056.86.056Zm0-8.1a1.5 1.5 0 1 0 0 3 1.5 1.5 0 0 0 0-3Z"
    clip-rule="evenodd"
  />
</svg>
