<svg
  xmlns="http://www.w3.org/2000/svg"
  width="16"
  height="16"
  fill="none"
  viewBox="0 0 16 16"
>
  <path
    fill="currentColor"
    fill-rule="evenodd"
    d="M5 .9c-.263 0-.512.095-.716.201a3.707 3.707 0 0 0-.637.438A8.18 8.18 0 0 0 2.395 2.89C1.623 3.92.9 5.3.9 6.5v.6h14.2v-.6c0-1.32-.769-2.349-1.598-3.02a5.603 5.603 0 0 0-1.297-.786C11.792 2.517 11.363 2.4 11 2.4c-.438 0-.76.181-.985.45-.147.177-.258.41-.328.556l-.036.076c-.086.171-.147.257-.216.311-.055.043-.167.107-.435.107-.179 0-.424-.093-.752-.345-.322-.246-.65-.586-.993-.96L7.06 2.38c-.27-.298-.553-.609-.817-.853a3.244 3.244 0 0 0-.542-.416A1.393 1.393 0 0 0 5 .9Zm8.813 5H2.18c.174-.71.615-1.543 1.175-2.29a6.995 6.995 0 0 1 1.06-1.149c.166-.138.31-.236.426-.297a.632.632 0 0 1 .156-.063.43.43 0 0 1 .096.045c.088.052.199.137.336.264.222.204.456.463.723.756l.218.24c.344.375.735.785 1.148 1.102.406.31.91.592 1.482.592.482 0 .87-.123 1.174-.362.29-.227.448-.516.55-.72l.082-.165a1.141 1.141 0 0 1 .135-.24c.005-.008.008-.013.059-.013.136 0 .395.053.732.197.326.14.685.348 1.016.616.502.407.898.913 1.066 1.487ZM2.1 11a1.9 1.9 0 1 1 3.8 0 1.9 1.9 0 0 1-3.8 0ZM4 7.9a3.1 3.1 0 1 0 3.084 3.418l.06-.031c.176-.089.46-.187.856-.187a1.898 1.898 0 0 1 .916.218 3.1 3.1 0 1 0 .127-1.25A3.216 3.216 0 0 0 8 9.9c-.412 0-.76.07-1.043.167A3.101 3.101 0 0 0 4 7.9Zm8 1.2a1.9 1.9 0 1 0 0 3.8 1.9 1.9 0 0 0 0-3.8Z"
    clip-rule="evenodd"
  />
</svg>
