<svg
  xmlns="http://www.w3.org/2000/svg"
  width="16"
  height="16"
  fill="none"
  viewBox="0 0 16 16"
>
  <path
    fill="#09101C"
    fill-rule="evenodd"
    d="M7.5 2.6a.9.9 0 0 0-.9.9v.6H5V2.9h.487a2.1 2.1 0 0 1 4.026 0h.611c.4 0 .735 0 1.01.022.287.024.56.075.82.207a2.1 2.1 0 0 1 .917.918c.132.259.183.532.207.819.022.275.022.61.022 1.01v.611a2.101 2.101 0 0 1 0 4.026v.611c0 .4 0 .735-.022 1.01-.024.287-.075.56-.207.82a2.1 2.1 0 0 1-.918.917c-.259.132-.532.183-.819.207-.275.022-.61.022-1.01.022H4.876c-.4 0-.735 0-1.01-.022-.287-.024-.56-.075-.82-.207a2.1 2.1 0 0 1-.917-.918c-.132-.259-.183-.532-.207-.819-.022-.275-.022-.61-.022-1.01V9.4h.6a.9.9 0 0 0 0-1.8h-.6V5.876c0-.4 0-.735.022-1.01.024-.287.075-.56.207-.82a2.1 2.1 0 0 1 .918-.917c.259-.132.532-.183.819-.207.275-.022.61-.022 1.01-.022H5v1.2h-.1c-.43 0-.716 0-.936.018-.213.018-.31.049-.373.08a.9.9 0 0 0-.393.393c-.031.062-.062.16-.08.373-.018.22-.018.506-.018.936v.587a2.1 2.1 0 0 1 0 4.026v.587c0 .43 0 .716.018.936.018.213.049.31.08.373a.9.9 0 0 0 .393.393c.062.031.16.062.373.08.22.018.506.018.936.018h5.2c.43 0 .716 0 .936-.018.213-.018.31-.049.373-.08a.9.9 0 0 0 .393-.393c.031-.062.062-.16.08-.373.018-.22.018-.506.018-.936V9.4h.6a.9.9 0 0 0 0-1.8h-.6V5.9c0-.43 0-.716-.018-.936-.018-.213-.049-.31-.08-.373a.9.9 0 0 0-.393-.393c-.062-.031-.16-.062-.373-.08A12.86 12.86 0 0 0 10.1 4.1H8.4v-.6a.9.9 0 0 0-.9-.9Z"
    clip-rule="evenodd"
  />
</svg>
