<svg
  xmlns="http://www.w3.org/2000/svg"
  width="16"
  height="16"
  fill="none"
  viewBox="0 0 16 16"
>
  <path
    fill="#09101C"
    fill-rule="evenodd"
    d="M11.088 1.875C9.92 1.078 8.548.751 7.19.963c-1.357.21-2.597.942-3.537 2.053-.94 1.11-1.532 2.542-1.702 4.07a8.103 8.103 0 0 0 .747 4.427c.657 1.346 1.682 2.418 2.933 3.031a5.314 5.314 0 0 0 3.974.306c1.316-.416 2.457-1.327 3.262-2.566C13.67 11.045 14.1 9.54 14.1 8h-.002a85.348 85.348 0 0 0-.568-.19l-.57-.19.001-.001v-.001l.001-.002v-.001a1.258 1.258 0 0 1-.066.138c-.057.102-.15.242-.29.383-.27.27-.746.574-1.576.574-.83 0-1.306-.304-1.576-.574a1.747 1.747 0 0 1-.347-.498.59.59 0 0 1-.01-.023l.001.003v.001c.001 0 .001.001-.568.191L7.96 8l.001.001v.002l.002.003.003.009.009.024a2.468 2.468 0 0 0 .14.297c.1.18.256.414.49.648.48.48 1.255.926 2.425.926.704 0 1.265-.162 1.705-.395a6.445 6.445 0 0 1-.875 2.115c-.67 1.032-1.595 1.752-2.618 2.076-1.02.323-2.1.241-3.083-.24-.986-.482-1.83-1.346-2.383-2.48a6.904 6.904 0 0 1-.633-3.768c.146-1.31.653-2.513 1.426-3.427.772-.912 1.76-1.48 2.805-1.643 1.043-.162 2.109.085 3.038.718l.676-.99ZM9.5 5c0 .69-.448 1.25-1 1.25s-1-.56-1-1.25.448-1.25 1-1.25 1 .56 1 1.25ZM13 6.25c.552 0 1-.56 1-1.25s-.448-1.25-1-1.25-1 .56-1 1.25.448 1.25 1 1.25Z"
    clip-rule="evenodd"
  />
</svg>
