<svg
  xmlns="http://www.w3.org/2000/svg"
  width="16"
  height="16"
  fill="none"
  viewBox="0 0 16 16"
>
  <path
    fill="currentColor"
    fill-rule="evenodd"
    d="M2.395 8.39A7.845 7.845 0 0 1 2.17 8a8.862 8.862 0 0 1 1.328-1.838C4.492 5.11 5.969 4.1 8 4.1c2.03 0 3.508 1.01 4.501 2.062A8.86 8.86 0 0 1 13.83 8a8.86 8.86 0 0 1-1.328 1.838c-.993 1.051-2.47 2.062-4.5 2.062-2.031 0-3.51-1.01-4.502-2.062A8.863 8.863 0 0 1 2.395 8.39Zm12.653-.634L14.5 8l.548.244v.002l-.003.004-.006.014a4.53 4.53 0 0 1-.1.204 10.063 10.063 0 0 1-1.565 2.194C12.242 11.86 10.47 13.1 8 13.1c-2.47 0-4.242-1.24-5.374-2.438a10.062 10.062 0 0 1-1.564-2.194 5.881 5.881 0 0 1-.101-.204L.955 8.25l-.002-.004v-.001H.951L1.5 8l-.548-.244.001-.002.002-.005.006-.013a3.568 3.568 0 0 1 .1-.205 10.062 10.062 0 0 1 1.565-2.194C3.758 4.14 5.53 2.9 8 2.9c2.47 0 4.242 1.24 5.374 2.438a10.063 10.063 0 0 1 1.565 2.193 5.711 5.711 0 0 1 .1.205l.006.013.002.005v.001h.001ZM14.5 8l.548-.244.109.244-.109.244L14.5 8ZM.952 7.756 1.5 8l-.548.244L.844 8l.108-.244ZM7.1 8c0-.435.133-.806.32-1.054.186-.249.397-.346.58-.346.183 0 .395.097.58.346.187.248.32.619.32 1.054 0 .435-.133.806-.32 1.054-.185.248-.397.346-.58.346-.183 0-.394-.098-.58-.346-.187-.248-.32-.62-.32-1.054ZM8 5.4c-.645 0-1.184.35-1.54.826C6.102 6.7 5.9 7.33 5.9 8c0 .67.203 1.299.56 1.774.356.476.895.826 1.54.826.646 0 1.184-.35 1.54-.826.357-.475.56-1.105.56-1.774 0-.67-.203-1.299-.56-1.774C9.185 5.75 8.647 5.4 8 5.4Z"
    clip-rule="evenodd"
  />
</svg>
