<svg
  xmlns="http://www.w3.org/2000/svg"
  width="16"
  height="16"
  fill="none"
  viewBox="0 0 16 16"
>
  <path
    fill="currentColor"
    d="M8.079 7.74c.701.07 1.402.142 2.265.095 2.336-.127 3.752-1.299 3.651-3.05-.102-1.783-1.985-2.88-3.87-2.778-3.07.167-5.327 2.801-5.582 5.812a7.636 7.636 0 0 1 1.27-.175c.863-.047 1.564.024 2.266.096ZM2.005 11.394c.098 1.668 1.902 2.696 3.707 2.6 2.941-.157 5.104-2.622 5.348-5.44-.4.088-.807.143-1.217.164-.826.044-1.498-.022-2.17-.09-.672-.066-1.344-.133-2.17-.089-2.238.12-3.594 1.216-3.498 2.855Z"
  />
</svg>
