<svg
  xmlns="http://www.w3.org/2000/svg"
  width="16"
  height="16"
  fill="none"
  viewBox="0 0 16 16"
>
  <path
    fill="currentColor"
    fill-rule="evenodd"
    d="M7.474.779c.838-.205 1.61.088 2.24.451.628.364 1.268.886 1.51 1.714.167.57.123 1.205-.134 1.92.36.16.676.374.944.655.857.898 1.066 2.319 1.066 4.231s-.209 3.333-1.066 4.231C11.166 14.89 9.794 15.1 8 15.1c-1.795 0-3.167-.21-4.034-1.119C3.108 13.083 2.9 11.662 2.9 9.75s.208-3.333 1.066-4.231C4.833 4.61 6.205 4.4 8 4.4c.713 0 1.36.033 1.933.13.222-.577.22-.973.14-1.249-.113-.387-.431-.706-.96-1.011-.528-.305-.963-.421-1.355-.325-.39.094-.904.439-1.49 1.453l-1.04-.6C5.894 1.648 6.633.984 7.475.778Zm-2.64 5.568C4.34 6.863 4.1 7.817 4.1 9.75s.241 2.887.734 3.403c.482.505 1.36.747 3.166.747 1.805 0 2.683-.242 3.166-.747.492-.516.734-1.47.734-3.403s-.242-2.887-.734-3.403C10.683 5.842 9.805 5.6 8 5.6s-2.684.242-3.166.747ZM7.4 8.5V11h1.2V8.5H7.4Z"
    clip-rule="evenodd"
  />
</svg>
