<svg
  xmlns="http://www.w3.org/2000/svg"
  width="20"
  height="20"
  fill="none"
  viewBox="0 0 20 20"
>
  <path
    fill="#09101C"
    fill-rule="evenodd"
    d="M3.347 6.2C3.163 7.148 3.1 8.381 3.1 10c0 1.619.063 2.852.247 3.8.182.942.474 1.547.89 1.963.415.416 1.021.708 1.963.89.948.184 2.18.247 3.8.247 1.619 0 2.852-.063 3.8-.247.942-.182 1.547-.474 1.963-.89.416-.416.708-1.021.89-1.963.184-.948.247-2.181.247-3.8 0-1.619-.063-2.852-.247-3.8-.182-.942-.474-1.547-.89-1.963-.416-.416-1.021-.708-1.963-.89-.948-.184-2.181-.247-3.8-.247-1.62 0-2.852.063-3.8.247-.942.182-1.548.474-1.963.89-.416.416-.708 1.021-.89 1.963ZM5.972 2.17C7.039 1.962 8.369 1.9 10 1.9c1.63 0 2.96.062 4.028.269 1.074.208 1.937.573 2.584 1.22.646.646 1.011 1.51 1.22 2.583.206 1.067.268 2.397.268 4.028 0 1.631-.062 2.96-.269 4.028-.208 1.074-.573 1.937-1.22 2.584-.646.647-1.51 1.011-2.583 1.22-1.067.206-2.397.268-4.028.268-1.631 0-2.96-.062-4.028-.269-1.074-.208-1.937-.572-2.584-1.22-.647-.646-1.011-1.51-1.22-2.583C1.963 12.961 1.9 11.631 1.9 10c0-1.631.062-2.96.269-4.028.208-1.074.572-1.937 1.22-2.584.646-.646 1.509-1.011 2.583-1.22Zm.354 2.813c.293-.067.613-.082.924-.082.31 0 .63.015.924.082.307.07.662.215.947.53.28.31.383.665.43.938.044.264.049.548.049.8s-.005.536-.05.8a1.82 1.82 0 0 1-.429.937 1.78 1.78 0 0 1-.947.53 4.211 4.211 0 0 1-.924.083c-.31 0-.63-.015-.924-.082a1.78 1.78 0 0 1-.947-.53 1.82 1.82 0 0 1-.43-.938 4.916 4.916 0 0 1-.049-.8c0-.252.005-.536.05-.8a1.82 1.82 0 0 1 .429-.937c.285-.316.64-.46.947-.53ZM7.25 6.1c-.284 0-.497.016-.656.052-.16.036-.258.092-.324.165a.634.634 0 0 0-.137.332 3.81 3.81 0 0 0-.033.601c0 .25.007.445.033.6.026.155.07.259.137.333.066.073.165.129.324.165.16.036.372.052.656.052.284 0 .497-.016.656-.052.16-.036.258-.092.324-.165a.634.634 0 0 0 .137-.332A3.81 3.81 0 0 0 8.4 7.25c0-.25-.007-.445-.033-.6a.634.634 0 0 0-.137-.333c-.066-.073-.165-.129-.324-.165A3.074 3.074 0 0 0 7.25 6.1Zm5.5-1.2c-.31 0-.63.015-.924.082a1.78 1.78 0 0 0-.947.53 1.82 1.82 0 0 0-.43.938c-.044.264-.049.548-.049.8s.005.536.05.8c.046.273.15.628.429.937.285.316.64.46.947.53.293.068.613.083.924.083.31 0 .63-.015.924-.082a1.78 1.78 0 0 0 .947-.53 1.82 1.82 0 0 0 .43-.938c.044-.264.049-.548.049-.8s-.005-.536-.05-.8a1.82 1.82 0 0 0-.429-.937 1.78 1.78 0 0 0-.947-.53 4.21 4.21 0 0 0-.924-.083Zm-.656 1.252c.16-.036.372-.052.656-.052.284 0 .496.016.656.052.16.036.258.092.324.165.067.074.111.178.137.332.026.156.033.351.033.601s-.007.445-.033.6a.635.635 0 0 1-.137.333c-.066.073-.165.129-.324.165-.16.036-.372.052-.656.052-.284 0-.496-.016-.656-.052-.16-.036-.258-.092-.324-.165a.635.635 0 0 1-.137-.332 3.806 3.806 0 0 1-.033-.601c0-.25.007-.445.033-.6a.635.635 0 0 1 .137-.333c.066-.073.165-.129.324-.165Zm-5.768 4.33c.293-.067.613-.082.924-.082.31 0 .63.015.924.082.307.07.662.215.947.53.28.31.383.665.43.938.044.264.049.549.049.8 0 .252-.005.537-.05.8a1.82 1.82 0 0 1-.429.937 1.78 1.78 0 0 1-.947.53 4.211 4.211 0 0 1-.924.083c-.31 0-.63-.015-.924-.082a1.78 1.78 0 0 1-.947-.53 1.82 1.82 0 0 1-.43-.938 4.916 4.916 0 0 1-.049-.8c0-.252.005-.537.05-.8a1.82 1.82 0 0 1 .429-.937c.285-.316.64-.46.947-.53ZM7.25 11.6a3.07 3.07 0 0 0-.656.052c-.16.037-.258.092-.324.165a.634.634 0 0 0-.137.332 3.81 3.81 0 0 0-.033.601c0 .25.007.445.033.6.026.155.07.259.137.333.066.073.165.129.324.165.16.036.372.052.656.052.284 0 .497-.016.656-.052.16-.037.258-.092.324-.165a.634.634 0 0 0 .137-.332 3.81 3.81 0 0 0 .033-.601c0-.25-.007-.445-.033-.6a.634.634 0 0 0-.137-.333c-.066-.073-.165-.129-.324-.165a3.07 3.07 0 0 0-.656-.052Zm5.5-1.2c-.31 0-.63.015-.924.082a1.78 1.78 0 0 0-.947.53 1.82 1.82 0 0 0-.43.938c-.044.264-.049.549-.049.8 0 .252.005.537.05.8.046.273.15.628.429.937.285.316.64.46.947.53.293.068.613.083.924.083.31 0 .63-.015.924-.082a1.78 1.78 0 0 0 .947-.53 1.82 1.82 0 0 0 .43-.938c.044-.264.049-.549.049-.8 0-.252-.005-.537-.05-.8a1.82 1.82 0 0 0-.429-.937 1.78 1.78 0 0 0-.947-.53 4.21 4.21 0 0 0-.924-.083Zm-.656 1.252a3.07 3.07 0 0 1 .656-.052c.284 0 .496.016.656.052.16.037.258.092.324.165.067.074.111.178.137.332.026.156.033.352.033.601 0 .25-.007.445-.033.6a.635.635 0 0 1-.137.333c-.066.073-.165.129-.324.165a3.07 3.07 0 0 1-.656.052 3.07 3.07 0 0 1-.656-.052c-.16-.037-.258-.092-.324-.165a.635.635 0 0 1-.137-.332 3.807 3.807 0 0 1-.033-.601c0-.25.007-.445.033-.6a.635.635 0 0 1 .137-.333c.066-.073.165-.129.324-.165Z"
    clip-rule="evenodd"
  />
</svg>
