<svg
  xmlns="http://www.w3.org/2000/svg"
  width="20"
  height="20"
  fill="none"
  viewBox="0 0 20 20"
>
  <g clip-path="url(#clip0_4906_1097)">
    <path
      fill="#09101C"
      fill-rule="evenodd"
      d="M2.2 5.5a3.3 3.3 0 1 1 6.6 0 3.3 3.3 0 0 1-6.6 0ZM5.5.8a4.7 4.7 0 1 0 2.792 8.482l4.144 4.144a3.7 3.7 0 1 0 .99-.99L9.282 8.292a4.676 4.676 0 0 0 .866-2.092h1.718a3.701 3.701 0 1 0 0-1.4h-1.718A4.701 4.701 0 0 0 5.5.8Zm10 2.4a2.3 2.3 0 1 0 0 4.6 2.3 2.3 0 0 0 0-4.6Zm0 10a2.3 2.3 0 1 0 0 4.6 2.3 2.3 0 0 0 0-4.6Z"
      clip-rule="evenodd"
    />
  </g>
  <defs>
    <clipPath id="clip0_4906_1097">
      <path fill="#fff" d="M0 0h20v20H0z" />
    </clipPath>
  </defs>
</svg>
