<svg
  xmlns="http://www.w3.org/2000/svg"
  width="20"
  height="20"
  fill="none"
  viewBox="0 0 20 20"
>
  <path
    fill="#039"
    d="M17.778 2.778H2.222A2.222 2.222 0 0 0 0 5v10c0 1.227.995 2.222 2.222 2.222h15.556A2.222 2.222 0 0 0 20 15V5a2.222 2.222 0 0 0-2.222-2.222Z"
  />
  <path
    fill="#FC0"
    d="m10.3 5.392.471-.343h-.583l-.18-.555-.18.555h-.583l.472.343-.181.554.472-.343.471.343-.18-.554Zm0 9.63.471-.344h-.583l-.18-.554-.18.554h-.583l.472.343-.181.554.472-.342.471.342-.18-.554Zm-4.815-4.816.472-.343h-.584l-.18-.554-.18.554H4.43l.472.343-.18.555.471-.343.472.343-.18-.555Zm.615-2.38.472-.343h-.584l-.18-.555-.18.555h-.583l.472.343-.18.554.471-.343.472.343-.18-.555Zm0 4.788.472-.343h-.584l-.18-.554-.18.554h-.583l.472.343-.18.554.471-.342.472.342-.18-.554Zm1.792-6.577.472-.343H7.78l-.18-.555-.18.555h-.583l.472.343-.18.554.471-.343.472.343-.18-.554Zm0 8.37.472-.343H7.78l-.18-.554-.18.554h-.583l.472.343-.18.555.471-.343.472.343-.18-.555Zm6.623-4.2-.472-.344h.584l.18-.554.18.554h.583l-.472.343.18.555-.471-.343-.472.343.18-.555ZM13.9 7.824l-.472-.342h.584l.18-.555.18.555h.583l-.472.343.18.554-.471-.343-.472.343.18-.555Zm0 4.789-.472-.343h.584l.18-.554.18.554h.583l-.472.343.18.554-.471-.342-.472.342.18-.554Zm-1.792-6.577-.472-.343h.583l.18-.555.18.555h.584l-.472.343.18.554-.472-.343-.471.343.18-.554Zm0 8.37-.472-.343h.583l.18-.554.18.554h.584l-.472.343.18.555-.472-.343-.471.343.18-.555Z"
  />
</svg>
