<svg
  xmlns="http://www.w3.org/2000/svg"
  width="20"
  height="20"
  fill="none"
  viewBox="0 0 20 20"
>
  <path
    fill="#09101C"
    fill-rule="evenodd"
    d="M13.034 17.373c.113-.467.466-2.331.466-7.373s-.353-6.906-.466-7.373C16.831 3.047 17.5 4.685 17.5 10s-.669 6.953-4.466 7.373Z"
    clip-rule="evenodd"
    opacity=".12"
  />
  <path
    fill="#09101C"
    fill-rule="evenodd"
    d="M3.1 10c0-1.619.063-2.852.247-3.8.182-.942.474-1.547.89-1.963.415-.416 1.021-.708 1.963-.89.948-.184 2.18-.247 3.8-.247.978 0 1.815.023 2.533.082.036.213.078.502.12.884.123 1.098.247 2.95.247 5.934 0 2.985-.124 4.836-.246 5.934-.043.382-.085.671-.12.884-.72.059-1.556.082-2.534.082-1.62 0-2.852-.063-3.8-.247-.942-.182-1.548-.474-1.963-.89-.416-.416-.708-1.021-.89-1.963-.184-.948-.247-2.181-.247-3.8Zm10.672 6.658c.024-.17.05-.367.074-.592.128-1.152.254-3.05.254-6.066s-.126-4.914-.254-6.066a19.66 19.66 0 0 0-.074-.593l.028.006c.942.182 1.547.474 1.963.89.416.416.708 1.021.89 1.963.184.948.247 2.181.247 3.8 0 1.619-.063 2.852-.247 3.8-.182.942-.474 1.547-.89 1.963-.416.416-1.021.708-1.963.89l-.028.005ZM10 1.9c-1.631 0-2.96.062-4.028.269-1.074.208-1.937.573-2.584 1.22-.647.646-1.011 1.51-1.22 2.583C1.963 7.039 1.9 8.369 1.9 10c0 1.631.062 2.96.269 4.028.208 1.074.572 1.937 1.22 2.584.646.646 1.509 1.011 2.583 1.22 1.067.206 2.397.268 4.028.268 1.63 0 2.96-.062 4.028-.269 1.074-.208 1.937-.573 2.584-1.22.646-.646 1.011-1.51 1.22-2.583.206-1.067.268-2.397.268-4.028 0-1.631-.062-2.96-.269-4.028-.208-1.074-.573-1.937-1.22-2.584-.646-.646-1.51-1.011-2.583-1.22C12.961 1.963 11.631 1.9 10 1.9ZM7.576 12.924l-2.5-2.5L4.65 10l.425-.424 2.5-2.5.848.848L6.95 9.4H11v1.2H6.949l1.475 1.476-.848.848Z"
    clip-rule="evenodd"
  />
</svg>
