<svg
  xmlns="http://www.w3.org/2000/svg"
  width="20"
  height="20"
  fill="none"
  viewBox="0 0 20 20"
>
  <g clip-path="url(#clip0_7194_109)">
    <path
      fill="#006847"
      d="M2.222 2.778A2.222 2.222 0 0 0 0 5v10c0 1.227.995 2.222 2.222 2.222h3.89V2.778h-3.89Z"
    />
    <path
      fill="#CE1126"
      d="M17.778 2.778h-3.89v14.444h3.89A2.222 2.222 0 0 0 20 15V5a2.222 2.222 0 0 0-2.222-2.222Z"
    />
    <path fill="#EEE" d="M6.111 2.778h7.778v14.444H6.11V2.778Z" />
    <path
      fill="#A6D388"
      d="M12.778 10a2.777 2.777 0 1 1-5.556 0h-.555a3.333 3.333 0 0 0 6.666 0h-.555Z"
    />
    <path
      fill="#5C913B"
      d="M7.524 11.26a.277.277 0 0 0-.374-.12.278.278 0 0 0-.122.373c.05.099.105.195.165.287l.002.004.004.006.002.004v.002l.003.002.002.004.001.004.002.003.001.002.002.002v.001l.002.002v.002l.002.003.002.002.001.003v.001l.003.003v.001l.004.006.003.004c.029.043.058.084.09.126a.276.276 0 0 0 .387.056.277.277 0 0 0 .057-.388 3.313 3.313 0 0 1-.24-.394Zm-.276-.878a2.935 2.935 0 0 1-.026-.463.278.278 0 0 0-.27-.286h-.02a.277.277 0 0 0-.265.27 4.484 4.484 0 0 0 0 .173V10.166l.001.002v.016l.001.005v.006c.005.09.014.178.026.265a.278.278 0 0 0 .312.237.28.28 0 0 0 .24-.315Zm2.94 2.389h-.003l-.068.004a2.83 2.83 0 0 1-.395-.011.278.278 0 0 0-.056.553l.07.006H9.75l.002.001h.008l.003.001h.01l.004.001h.007c.084.006.17.008.255.007H10.088l.004-.001H10.12l.003-.002h.028l.07-.005a.274.274 0 0 0 .252-.292.274.274 0 0 0-.285-.262Zm-1.354-.25a2.809 2.809 0 0 1-.402-.228.274.274 0 0 0-.169-.048.278.278 0 0 0-.146.506l.004.002.003.004.004.002.003.003c.148.1.305.188.468.264a.277.277 0 0 0 .368-.135.277.277 0 0 0-.133-.37Zm2.794-.22a.277.277 0 0 0-.137.044c-.13.082-.268.155-.408.215a.277.277 0 0 0 .118.533.294.294 0 0 0 .096-.02l.075-.034.004-.002h.001l.002-.002h.003l.002-.001.001-.001h.003l.001-.002.002-.001.003-.001h.002l.002-.002h.001l.003-.002h.001l.003-.002h.001l.004-.002.004-.002.003-.001h.001l.003-.003h.001l.004-.002h.004l.004-.003h.001l.002-.002h.001l.004-.002.004-.002.004-.002.004-.002.008-.004.004-.002.008-.004.004-.002.004-.001.008-.005.003-.002.013-.006.004-.001.008-.005.004-.002.004-.001a.007.007 0 0 1 .004-.003l.004-.002.003-.002.008-.004.005-.002.003-.002.004-.002.004-.002.004-.002.004-.002.004-.003.003-.001h.001l.003-.003h.001l.003-.002h.001l.003-.002h.001l.003-.002.004-.002h.001l.002-.002h.002l.003-.002h.001c0-.002.001-.002.002-.002l.002-.001.002-.001.002-.001.002-.001.002-.002h.001l.002-.002h.003l.002-.001.001-.002h.002l.003-.002.003-.002.002-.002h.002l.003-.001v-.001l.003-.002h.002l.001-.002h.002l.003-.002v-.001c.002 0 .004 0 .005-.002l.003-.001.003-.003h.002l.003-.002.007-.004.005-.003a.047.047 0 0 1 .01-.006l.107-.065a.278.278 0 0 0 .084-.383.308.308 0 0 0-.254-.126Zm1.429-2.566h-.014a.278.278 0 0 0-.266.277c0 .154-.014.31-.04.46a.278.278 0 0 0 .549.094v-.008l.001-.001v-.008c.002 0 .002-.002.002-.002v-.004c.011-.071.021-.144.029-.217v-.011l.001-.002v-.007h.001v-.016l.002-.002c.007-.09.011-.183.011-.276a.278.278 0 0 0-.276-.277Zm-.247 1.498a.278.278 0 0 0-.377.109c-.075.134-.16.264-.258.384a.278.278 0 0 0 .435.346c.065-.081.127-.166.184-.253.001-.004.004-.008.006-.011l.003-.004.002-.005.002-.003.003-.003a.006.006 0 0 0 .002-.004l.003-.004.002-.003.002-.004.001-.001.001-.003.002-.001v-.003h.002l.001-.003v-.002l.003-.002.002-.004v-.001l.003-.002.001-.002v-.002h.002l.001-.004.003-.004v-.001l.002-.002v-.002l.002-.002.001-.002.002-.002v-.002l.001-.002.002-.001v-.002c.002 0 .002-.001.002-.002v-.002l.002-.002.002-.002v-.002l.001-.002.002-.002.002-.002v-.001l.002-.003v-.002c.001 0 .002 0 .002-.002l.002-.003.001-.002.002-.002v-.001l.002-.003v-.002l.001-.001.002-.003.001-.002.001-.001.001-.003h.002v-.004h.002v-.004h.002l.001-.003h.001l.001-.004h.001l.002-.004v-.001l.002-.003v-.001l.002-.003.002-.004h.001l.001-.004.003-.004.002-.003.002-.004h.001l.014-.027a.277.277 0 0 0-.11-.373Z"
    />
    <path
      fill="#55ACEE"
      d="M10 12.222c.92 0 1.667-.248 1.667-.555 0-.307-.747-.556-1.667-.556s-1.667.249-1.667.556c0 .306.746.555 1.667.555Z"
    />
    <path
      fill="#FFCC4D"
      d="M10.278 12.222c.46 0 .833-.248.833-.555 0-.307-.373-.556-.833-.556-.46 0-.834.249-.834.556 0 .306.373.555.834.555Z"
    />
    <path
      fill="#5C913B"
      d="M10.62 11.819a.279.279 0 0 1-.244-.41c.089-.164.182-.312.279-.442a5.608 5.608 0 0 1-.239.005c-.153 0-.293-.125-.293-.279 0-.153.108-.277.262-.277h.046c.164 0 .333-.01.484-.024a.272.272 0 0 1 .228.087 1.334 1.334 0 0 1 .18-.107.271.271 0 0 1 .116-.052l.02-.004a.696.696 0 0 1 .208-.038.277.277 0 0 1 .265.36c-.046.147-.148.18-.326.216a.67.67 0 0 0-.132.07.282.282 0 0 1-.333-.018c.076.098.08.24-.001.341-.095.12-.187.264-.276.427a.276.276 0 0 1-.244.145Zm-.788-.883c-.012 0-.025 0-.037-.002a3.88 3.88 0 0 1-.587-.123.278.278 0 0 1-.187-.345l.003-.012-.006.013a.277.277 0 0 1-.379.107 2.289 2.289 0 0 1-.504-.379.278.278 0 0 1 .393-.392c.11.11.238.205.382.286.12.066.17.208.128.332a.278.278 0 0 1 .327-.143c.154.046.322.08.5.105a.278.278 0 0 1-.033.553Zm-1.363-1.3c-.236 0-.542-.091-.728-.31-.284-.335-.452-.766-.426-1.096.007-.088-.08-.16-.164-.182-.048-.012-.133-.02-.173.066a.14.14 0 0 1-.252-.117c.086-.188.28-.272.495-.218.199.052.39.23.37.473-.02.256.126.616.362.894.124.147.34.206.486.212.12.006.18-.021.193-.033-.032-.074-.443-.29-.619-.383-.15-.078-.194-.186-.205-.262-.037-.253.222-.509.474-.756.088-.087.172-.17.217-.23.052-.068.044-.114.034-.142-.039-.104-.205-.206-.405-.25-.185-.042-.31-.131-.37-.267-.081-.178-.039-.412.13-.714a.139.139 0 1 1 .243.135c-.16.284-.144.413-.12.465.023.051.082.087.177.108.235.053.518.192.605.426a.42.42 0 0 1-.071.406c-.058.077-.15.167-.245.262-.144.14-.411.404-.394.517.004.023.034.044.06.057.417.219.694.377.75.57a.253.253 0 0 1-.023.2c-.053.094-.166.152-.325.166a.836.836 0 0 1-.076.004Z"
    />
    <path
      fill="#FFCC4D"
      d="M10.833 10.555c.154 0 .278-.248.278-.555 0-.307-.124-.556-.278-.556-.153 0-.277.25-.277.556 0 .307.124.555.277.555ZM9.607 9.549c0 .16-.192.29-.429.29-.236 0-.428-.13-.428-.29 0-.16.192-.29.428-.29s.429.13.429.29Zm-.66-2.57c.028.117-.126.255-.344.307-.218.051-.416-.003-.445-.12-.028-.119.126-.257.344-.308.218-.051.417.002.445.12Z"
    />
    <path
      fill="#C1694F"
      d="M12.518 9.975c.05.039.135-.405.123-.543 0-.01-.017-.304.046-.514.038-.07.04-.601-.019-.74.047-.005.103-.02.11-.076-.216.08-.266-.454-.473-.76-.202-.308-.451-.487-.712-.674a.546.546 0 0 1 .09-.15c-.319.16-.817-.42-1.552-.376-.165.016-.244.026-.286.127-.137.012-.277.043-.277.223 0 .044.04.122.128.123.12.035.217.008.3.176l.02.173s-.106-.137-.165-.159l.036-.074c-.056-.032-.154-.006-.154-.006s-.214-.1-.386-.073l-.033-.14c-.03.086-.097.082-.107.162-.019-.057-.044-.129-.061-.187-.06.082-.043.171-.065.257-.023.02-.07.02-.083-.035-.006-.067-.015-.073-.015-.154-.043.076-.095.113-.112.244l-.046-.145c.001.171-.145.273-.284.393-.04.072.006.073.01.11l.072.037.132-.01c.022.028.004.03.061.047.154.043.345-.141.495.148-.07.058-.139.193-.116.219.027 0-.056.039.056.003a.987.987 0 0 0-.195.272c-.014.032.046-.005.034.054l.028-.004c-.266.288-.009.598-.037.764.044.071.05-.002.105-.01.047.205.181.33.264.49l-.174.002c.004.077.074.15.129.217l-.117.037a.626.626 0 0 0-.195.152c-.038.093.185.116.293.132l-.004.113a.88.88 0 0 0 .363-.043l.042-.033.095.052c.031 0 .08-.127.058-.224.061.073.119.19.18.264l.057-.008c.053.083.124.165.176.248l.059.022c.034-.012.063-.016.08-.083l.027.047.093-.063.064-.013.049.079c.028-.01.056-.072.057-.138.03.057.037.053.058.068l.043-.09.23.216.175.01c.062.042.233.068.261 0 .14.06.306-.008.297-.074a.592.592 0 0 0 .327.008c.024-.003.085-.063.028-.108-.427-.296-1.058-.788-1.302-.906 0-.088-.066-.404-.137-.49l.057-.097c.167.155.227.14.315.164.094.075.127.19.222.293l.084.016a1.434 1.434 0 0 0-.308-.485c.091.045.242.167.344.255.066.112.086.2.147.34.044.03.09.133.084.047-.01-.162-.125-.418-.125-.436.181.143.18.366.234.503.046.068.07.16.09.139l-.054-.42-.03-.154c.133.077.18.372.244.725 0 .056.022.118.02.154.028.036.06.134.06.076 0 0 0-.575-.04-.707-.01-.07.017-.185.017-.185l.151.735v.175l.073.074c.014-.145.03-.288.045-.431l-.055-.514V8.68c0-.052.047-.042.078.017.007.126.007.224.012.35.022.143.037.248.048.43.006.149.012.503.043.497Z"
    />
  </g>
  <defs>
    <clipPath id="clip0_7194_109">
      <path fill="#fff" d="M0 0h20v20H0z" />
    </clipPath>
  </defs>
</svg>
