<svg
  xmlns="http://www.w3.org/2000/svg"
  width="20"
  height="20"
  fill="none"
  viewBox="0 0 20 20"
>
  <g clip-path="url(#prefix__clip0_580_17)">
    <path
      fill="#09101C"
      fill-rule="evenodd"
      d="M13.491 3.1h.008c.003 0 .027.003.077.023.056.023.132.064.226.13.19.132.417.339.67.614.506.55 1.062 1.314 1.583 2.14.518.824.99 1.691 1.328 2.437.17.373.303.708.392.986.094.291.125.478.125.57 0 .093-.031.279-.125.57-.09.278-.222.613-.392.986-.338.746-.81 1.613-1.328 2.437-.212.336-.43.663-.648.968a5.171 5.171 0 0 0-.87-1.085C13.242 12.654 11.548 12.4 10 12.4s-3.243.254-4.537 1.476c-.331.313-.628.681-.886 1.111a20.846 20.846 0 0 1-1.97-3.427 9.44 9.44 0 0 1-.385-.987c-.09-.29-.122-.478-.122-.573 0-.093.031-.279.125-.57.089-.278.222-.613.391-.986.34-.746.81-1.613 1.33-2.437.52-.826 1.076-1.59 1.581-2.14a4.36 4.36 0 0 1 .67-.614c.095-.066.17-.107.227-.13A.284.284 0 0 1 6.5 3.1H13.492ZM5.387 16.015c.035.04.07.078.106.116.254.275.483.48.677.613.206.14.31.156.33.156H13.499s.024-.001.077-.023c.056-.023.132-.064.226-.13.19-.133.417-.338.67-.614.043-.046.086-.094.129-.143a4.21 4.21 0 0 0-.888-1.241C12.757 13.846 11.452 13.6 10 13.6s-2.758.246-3.713 1.149a4.227 4.227 0 0 0-.9 1.266ZM19.1 10c0-.282-.078-.612-.182-.936-.108-.337-.26-.717-.442-1.117a22.484 22.484 0 0 0-1.406-2.58c-.542-.86-1.142-1.69-1.715-2.312a5.517 5.517 0 0 0-.866-.786c-.274-.192-.618-.369-.99-.369H6.5c-.372 0-.715.177-.989.369a5.521 5.521 0 0 0-.867.786c-.572.622-1.172 1.452-1.714 2.313a22.5 22.5 0 0 0-1.406 2.579c-.182.4-.334.78-.442 1.117C.978 9.388.9 9.718.9 10c0 .28.076.608.178.933.105.336.254.716.433 1.116.358.802.849 1.717 1.388 2.581.537.862 1.135 1.693 1.713 2.317.289.311.586.586.881.788.284.194.632.365 1.007.365H13.5c.371 0 .715-.177.989-.369.288-.201.581-.475.866-.786.573-.622 1.173-1.452 1.715-2.313a22.483 22.483 0 0 0 1.406-2.579c.182-.4.334-.78.442-1.117.104-.324.182-.653.182-.936ZM3.4 20.5c0-.17.002-.337.006-.5h13.188c.004.163.006.33.006.5v.6H3.4v-.6ZM8.1 8a1.9 1.9 0 1 1 3.8 0 1.9 1.9 0 0 1-3.8 0ZM10 4.9a3.1 3.1 0 1 0 0 6.2 3.1 3.1 0 0 0 0-6.2Z"
      clip-rule="evenodd"
    />
  </g>
  <defs>
    <clipPath id="prefix__clip0_580_17">
      <path fill="#fff" d="M0 0h20v20H0z" />
    </clipPath>
  </defs>
</svg>
