<svg
  xmlns="http://www.w3.org/2000/svg"
  width="20"
  height="20"
  fill="none"
  viewBox="0 0 20 20"
>
  <path
    fill="#060"
    d="M20 15a2.222 2.222 0 0 1-2.222 2.222H2.222A2.222 2.222 0 0 1 0 15V5c0-1.227.995-2.222 2.222-2.222h15.556C19.005 2.778 20 3.773 20 5v10Z"
  />
  <path
    fill="#D52B1E"
    d="M17.778 2.778H8.333v14.444h9.445A2.222 2.222 0 0 0 20 15V5a2.222 2.222 0 0 0-2.222-2.222Z"
  />
  <path
    fill="#FFCC4D"
    d="M8.333 5.556a4.445 4.445 0 1 0 0 8.889 4.445 4.445 0 0 0 0-8.89Zm2.22 3.299 1.16-.774c.273.48.446 1.021.493 1.6l-1.654-.826Zm-1.664 4.478h1.44c-.433.26-.92.437-1.44.512v-.512ZM4.46 9.681a3.859 3.859 0 0 1 .476-1.573l.89.89-1.366.683Zm0 .637 2.081 1.042.249-.498L5.066 10l1.175-.588.785.785.392-.393-.653-.653.026-.013-.249-.497-.19.095-.543-.541.812.135.091-.548-1.396-.232a3.88 3.88 0 0 1 2.462-1.394v6.622H6.056l1.32-.88-.308-.462-1.667 1.11.008.012a3.87 3.87 0 0 1-.948-2.24Zm3.317 3.527a3.867 3.867 0 0 1-1.44-.512h1.44v.512Zm3.493-1.3-1.63-1.63-.393.393.262.262-.22.328 1.32.88H8.89V6.156a3.865 3.865 0 0 1 1.944.867l-1.476.492.175.527 1.667-.556-.057-.17c.093.096.18.197.261.304L9.846 8.658l.154.231-.124.248L11.6 10l-1.725.863.248.497 2.082-1.041a3.87 3.87 0 0 1-.935 2.226Z"
  />
  <path
    fill="#D52B1E"
    d="M6.111 7.222v3.89a2.222 2.222 0 0 0 4.445 0v-3.89H6.11Z"
  />
  <path
    fill="#fff"
    d="M6.667 7.778v3.333a1.667 1.667 0 0 0 3.333 0V7.778H6.667Z"
  />
  <path fill="#829ACD" d="M7.222 9.444h2.222v1.111H7.222v-1.11Z" />
  <path fill="#829ACD" d="M7.778 8.889h1.11v2.222h-1.11V8.89Z" />
  <path
    fill="#039"
    d="M6.667 9.444h.555v1.112h-.555V9.445Zm1.11 0H8.89v1.112H7.778V9.445Zm1.668 0H10v1.112h-.555V9.445Zm-1.667 1.667h1.111v1.111H7.778v-1.11Zm0-3.333h1.111v1.11H7.778v-1.11Z"
  />
</svg>
