<svg
  xmlns="http://www.w3.org/2000/svg"
  width="20"
  height="20"
  fill="none"
  viewBox="0 0 20 20"
>
  <path
    stroke="#09101C"
    stroke-width="1.2"
    d="M10 14c5 0-.243 3.5 2 3.5 2.242 0 2-1.5 3.5-1.5s1 1.5 2 1.5S19 16 19 16"
  />
  <path
    fill="#09101C"
    fill-rule="evenodd"
    d="M13.213 3.352a6.114 6.114 0 0 1 1.974 1.382c.183.192.267.283.32.363.033.05.047.086.053.16.004.05-.001.094-.046.185-.059.118-.157.262-.34.523l-.677.967-3.113-2.18.677-.966c.183-.262.284-.403.375-.499.07-.074.11-.093.16-.107.07-.02.109-.018.168-.004.092.022.207.07.45.176Zm-2.517 2.384-4.81 6.867c-.433.62-.455 1.492-.31 2.317.07.397.174.75.26 1.005l.015.042h.044c.269-.006.637-.03 1.034-.1.825-.146 1.637-.465 2.07-1.084l4.81-6.868-3.113-2.18ZM4.888 16.804l.548-.244-.548.244.146.329.36.025.042-.598-.042.598h.004l.01.001.03.002.107.004a8.115 8.115 0 0 0 1.592-.117c.917-.161 2.132-.558 2.846-1.577l6.174-8.817.056-.08c.291-.414.587-.833.543-1.408-.043-.573-.352-.896-.654-1.212l-.046-.048a7.315 7.315 0 0 0-2.362-1.654l-.06-.026c-.4-.176-.81-.356-1.363-.2-.556.155-.848.576-1.137.99l-.056.081-6.174 8.818c-.714 1.02-.671 2.297-.51 3.213a8.122 8.122 0 0 0 .476 1.635l.012.028.004.009.001.002v.002Z"
    clip-rule="evenodd"
  />
</svg>
