<svg
  xmlns="http://www.w3.org/2000/svg"
  width="20"
  height="20"
  fill="none"
  viewBox="0 0 20 20"
>
  <g clip-path="url(#clip0_3194_865)">
    <path
      fill="#09101C"
      fill-rule="evenodd"
      d="M5.381 1.085C6.133.947 7.002.87 8 .833v1.4c-.93.038-1.71.108-2.366.229-1.074.197-1.747.516-2.202.97-.454.455-.773 1.128-.97 2.202-.12.657-.191 1.436-.228 2.366H.833c.038-.998.114-1.867.252-2.619.224-1.222.625-2.206 1.357-2.938.733-.733 1.717-1.134 2.94-1.358ZM12 .833v1.4c.93.038 1.71.108 2.366.229 1.074.197 1.747.516 2.201.97.455.455.774 1.128.971 2.202.12.657.191 1.436.228 2.366h1.401c-.038-.998-.114-1.867-.252-2.619-.224-1.222-.625-2.206-1.357-2.938-.733-.733-1.717-1.134-2.94-1.358C13.869.947 12.999.87 12 .833Zm2.366 16.705c-.657.12-1.436.191-2.366.228v1.401c.998-.038 1.867-.114 2.619-.252 1.222-.224 2.206-.625 2.939-1.357.732-.733 1.133-1.717 1.357-2.94.138-.75.214-1.62.252-2.618h-1.4c-.038.93-.108 1.71-.229 2.366-.197 1.074-.516 1.747-.97 2.201-.455.455-1.128.774-2.202.971ZM2.462 14.366c-.12-.657-.191-1.436-.228-2.366H.833c.038.998.114 1.867.252 2.619.224 1.222.625 2.206 1.357 2.939.733.732 1.717 1.133 2.94 1.357.75.138 1.62.214 2.618.252v-1.4c-.93-.038-1.71-.108-2.366-.229-1.074-.197-1.747-.516-2.202-.97-.454-.455-.773-1.128-.97-2.202ZM7 10.7h6V9.3H7v1.4Z"
      clip-rule="evenodd"
    />
  </g>
  <defs>
    <clipPath id="clip0_3194_865">
      <path fill="#fff" d="M0 0h20v20H0z" />
    </clipPath>
  </defs>
</svg>
