<svg
  xmlns="http://www.w3.org/2000/svg"
  width="20"
  height="20"
  fill="none"
  viewBox="0 0 20 20"
>
  <path
    fill="#09101C"
    fill-rule="evenodd"
    d="M8.928 1.9H8.62l-.18.251-.795 1.114c-.257.359-.301.406-.34.432a.4.4 0 0 1-.178.065c-.046.005-.11-.001-.538-.108l-.944-.236-.33-.082-.24.24-1.5 1.5-.24.24.083.33.242.969c.105.418.111.48.106.526a.4.4 0 0 1-.062.175c-.024.038-.07.083-.414.341l-1.15.863-.24.18V11.3l.24.18 1.155.866c.343.257.387.302.412.34a.4.4 0 0 1 .062.174c.005.045-.001.107-.103.524l-.249 1.02-.082.333.247.24 1.5 1.454.24.232.323-.08.97-.243c.418-.105.48-.111.526-.107a.4.4 0 0 1 .175.063c.038.024.083.07.341.414l.863 1.15.18.24H11.3l.18-.24.862-1.15c.26-.345.304-.39.342-.414a.4.4 0 0 1 .175-.063c.045-.004.108.002.526.107l.97.242.329.082.24-.24 1.5-1.5.24-.24-.082-.33-.242-.969c-.105-.418-.111-.48-.107-.526a.399.399 0 0 1 .063-.175c.024-.038.069-.083.414-.341l1.15-.863.24-.18V8.7l-.24-.18-1.15-.863c-.345-.258-.39-.303-.415-.34a.399.399 0 0 1-.062-.176c-.005-.045.002-.108.107-.526l.242-.97.082-.329-.24-.24-1.5-1.5-.24-.24-.33.082-.943.236c-.428.107-.492.113-.538.108a.4.4 0 0 1-.178-.065c-.039-.026-.084-.073-.34-.432L11.56 2.15l-.18-.251H8.928Zm-.307 2.062.616-.862h1.526l.616.862.042.06c.185.26.36.507.604.67a1.6 1.6 0 0 0 .711.262c.292.034.586-.04.895-.118l.071-.018.614-.153 1.02 1.02-.16.639-.018.07c-.076.301-.149.589-.118.875.027.25.112.49.249.7.157.242.394.42.643.605l.058.043.91.683v1.4l-.91.683-.058.043c-.249.186-.486.363-.643.605-.137.21-.222.45-.249.7-.03.286.042.574.118.876l.018.07.16.639-1.02 1.02-.64-.16-.07-.018c-.301-.076-.589-.148-.875-.118a1.6 1.6 0 0 0-.7.249c-.242.157-.42.394-.606.643l-.043.058-.682.91H9.3l-.683-.91-.043-.058c-.186-.249-.363-.486-.605-.643a1.601 1.601 0 0 0-.7-.249c-.287-.03-.574.042-.876.118l-.07.018-.645.161-1.014-.983.168-.685.017-.07c.074-.3.145-.587.113-.871a1.6 1.6 0 0 0-.25-.697c-.156-.24-.392-.417-.64-.602l-.057-.043L3.1 10.7V9.3l.91-.683.057-.043c.25-.186.487-.363.644-.605a1.6 1.6 0 0 0 .249-.7c.03-.286-.042-.574-.118-.876l-.018-.07-.16-.639 1.02-1.02.614.154.07.018c.31.078.604.152.895.118a1.6 1.6 0 0 0 .712-.261c.243-.164.42-.411.604-.67l.042-.06ZM8.1 10a1.9 1.9 0 1 1 3.8 0 1.9 1.9 0 0 1-3.8 0ZM10 6.9a3.1 3.1 0 1 0 0 6.2 3.1 3.1 0 0 0 0-6.2Z"
    clip-rule="evenodd"
  />
</svg>
