<svg
  xmlns="http://www.w3.org/2000/svg"
  width="20"
  height="20"
  fill="none"
  viewBox="0 0 20 20"
>
  <path
    fill="#09101C"
    fill-rule="evenodd"
    d="m13.452 10.895 3.5-4 .346-.395-.346-.395-3.5-4-.903.79L15.703 6.5l-3.154 3.605.903.79Zm-6.903-1.79-3.5 4-.346.395.345.395 3.5 4 .904-.79L4.297 13.5l3.155-3.605-.903-.79Z"
    clip-rule="evenodd"
  />
  <mask
    id="mask0_347_91"
    width="12"
    height="3"
    x="4"
    y="5"
    maskUnits="userSpaceOnUse"
    style="mask-type: alpha"
  >
    <path
      fill="url(#paint0_linear_347_91)"
      d="M4 7.5h2v12H4z"
      transform="rotate(-90 4 7.5)"
    />
  </mask>
  <g mask="url(#mask0_347_91)">
    <path stroke="#09101C" stroke-width="1.2" d="M4.5 6.5H16" />
  </g>
  <mask
    id="mask1_347_91"
    width="12"
    height="3"
    x="4"
    y="12"
    maskUnits="userSpaceOnUse"
    style="mask-type: alpha"
  >
    <path
      fill="url(#paint1_linear_347_91)"
      d="M16 12.5h2v12h-2z"
      transform="rotate(90 16 12.5)"
    />
  </mask>
  <g mask="url(#mask1_347_91)">
    <path stroke="#09101C" stroke-width="1.2" d="M15.5 13.5H4" />
  </g>
  <defs>
    <linearGradient
      id="paint0_linear_347_91"
      x1="5"
      x2="5"
      y1="8"
      y2="13.5"
      gradientUnits="userSpaceOnUse"
    >
      <stop stop-color="#09101C" stop-opacity="0" />
      <stop offset="1" stop-color="#09101C" />
    </linearGradient>
    <linearGradient
      id="paint1_linear_347_91"
      x1="17"
      x2="17"
      y1="13"
      y2="18.5"
      gradientUnits="userSpaceOnUse"
    >
      <stop stop-color="#09101C" stop-opacity="0" />
      <stop offset="1" stop-color="#09101C" />
    </linearGradient>
  </defs>
</svg>
