<svg
  xmlns="http://www.w3.org/2000/svg"
  width="20"
  height="20"
  fill="none"
  viewBox="0 0 20 20"
>
  <path
    fill="#FE0000"
    d="M17.778 2.778H9.444V10H0v5c0 1.227.995 2.222 2.222 2.222h15.556A2.222 2.222 0 0 0 20 15V5a2.222 2.222 0 0 0-2.222-2.222Z"
  />
  <path
    fill="#000095"
    d="M9.444 2.778H2.222A2.222 2.222 0 0 0 0 5v5h9.444V2.778Zm-3.368 2.56 1.13-.303-.828.826a1.6 1.6 0 0 0-.302-.522Zm.14 1.05a1.354 1.354 0 1 1-2.71.001 1.354 1.354 0 0 1 2.71 0Zm0-2.345-.305 1.13a1.595 1.595 0 0 0-.522-.301l.827-.829ZM4.86 3.681l.301 1.13a1.628 1.628 0 0 0-.602 0l.301-1.13Zm-.528 1.19a1.6 1.6 0 0 0-.522.303l-.304-1.13.826.828Zm-.687.468a1.595 1.595 0 0 0-.302.522l-.828-.826 1.13.304Zm-.363.749a1.585 1.585 0 0 0 0 .602l-1.13-.301 1.13-.301Zm.06.829c.068.193.172.37.303.521l-1.13.305.828-.826Zm.164 1.818.304-1.131c.152.131.328.235.522.302l-.826.829Zm1.354.362-.301-1.13a1.585 1.585 0 0 0 .602 0l-.3 1.13Zm.528-1.19c.194-.068.37-.172.522-.303l.305 1.13-.827-.828Zm.687-.468c.132-.152.235-.328.302-.522l.829.826-1.13-.304Zm.363-.749a1.585 1.585 0 0 0 0-.602l1.13.3-1.13.302Z"
  />
  <path
    fill="#fff"
    d="m5.162 4.81-.3-1.13-.302 1.13a1.628 1.628 0 0 1 .602 0ZM3.254 6.39c0-.103.01-.204.029-.301l-1.13.3 1.13.302a1.628 1.628 0 0 1-.03-.301ZM4.56 7.967l.301 1.13.301-1.13a1.585 1.585 0 0 1-.602 0ZM6.468 6.39c0 .103-.01.204-.029.301l1.13-.301-1.13-.301c.019.097.03.198.03.3Zm-.252-2.346-.827.829c.194.067.37.17.522.302l.305-1.13Zm-.14 3.396 1.13.304-.828-.826a1.6 1.6 0 0 1-.302.522Zm-2.57 1.295.827-.828a1.605 1.605 0 0 1-.522-.302l-.304 1.13Zm.14-3.395-1.13-.305.828.827a1.6 1.6 0 0 1 .302-.522ZM5.39 7.906l.826.828-.305-1.13a1.6 1.6 0 0 1-.521.302Zm-2.046-.99-.828.827 1.13-.305a1.59 1.59 0 0 1-.302-.521Zm.989-2.044-.826-.829.304 1.13a1.6 1.6 0 0 1 .522-.301Zm2.874.162-1.13.305c.13.152.234.328.301.522l.829-.827Z"
  />
  <path
    fill="#fff"
    d="M4.861 7.743a1.354 1.354 0 1 0 0-2.709 1.354 1.354 0 0 0 0 2.71Z"
  />
</svg>
