<svg
  width="20"
  height="20"
  viewBox="0 0 20 20"
  fill="none"
  xmlns="http://www.w3.org/2000/svg"
>
  <path
    fill-rule="evenodd"
    clip-rule="evenodd"
    d="M9.99976 1.90002C9.3646 1.90002 8.80753 1.93071 8.33889 2.04097C7.85788 2.15415 7.43499 2.35932 7.11071 2.72992C6.79358 3.09236 6.62312 3.55382 6.52678 4.07933C6.45722 4.45877 6.42178 4.89805 6.40753 5.40002H6.39624H6.36694H6.33765H6.30835H6.27905H6.24976H6.22046H6.19116H6.16187H6.13257H6.10327H6.07397H6.04468H6.01538H5.98608H5.95679H5.92749H5.89819H5.8689H5.8396H5.8103H5.78101H5.75171H5.72241H5.69312H5.66382H5.63452H5.60522H5.57593H5.54663H5.51733H5.48804H5.45874H5.42944H5.40015H5.37085H5.34155H5.31226H5.28296H5.25366H5.22437H5.19507H5.16577H5.13647H5.10718H5.07788H5.04858H5.01929H4.98999H4.96069H4.9314H4.9021H4.8728H4.84351H4.81421H4.78491H4.75562H4.72632H4.69702H4.66772H4.63843H4.60913H4.57983H4.55054H4.52124H4.49194H4.46265H4.43335H4.40405H4.37476H4.34546H4.31616H4.28687H4.25757H4.22827H4.19897H4.16968H4.14038H4.11108H4.08179H4.05249H4.02319H3.9939H3.9646H3.9353H3.90601H3.87671H3.84741H3.81812H3.78882H3.75952H3.73022H3.70093H3.67163H3.64233H3.61304H3.58374H3.55444H3.52515H3.49585H3.46655H3.43726H3.40796H3.37866H3.34937H3.32007H3.29077H3.26147H3.23218H3.20288H3.17358H3.14429H3.11499H3.08569H3.0564H3.0271H2.9978H2.96851H2.93921H2.90991H2.88062H2.85132H2.82202H2.79272H2.76343H2.73413H2.70483H2.67554H2.64624H2.61694H2.58765H2.55835H2.52905H2.49976V6.60002H2.52905H2.55835H2.58765H2.61694H2.64624H2.67554H2.70483H2.73413H2.76343H2.79272H2.82202H2.85132H2.88062H2.90991H2.93921H2.96851H2.9978H3.0271H3.0564H3.08569H3.11499H3.14429H3.17358H3.20288H3.23218H3.26147H3.29077H3.32007H3.34937H3.37866H3.40796H3.43726H3.46655H3.49585H3.52515H3.55444H3.58374H3.61304H3.64233H3.67163H3.70093H3.73022H3.75952H3.78882H3.81812H3.84741H3.87671H3.9009C3.91004 8.94535 3.9751 10.8105 4.12957 12.2889C4.2961 13.8828 4.57119 15.0821 5.02993 15.9643C5.50545 16.8788 6.17005 17.436 7.0413 17.7451C7.87325 18.0404 8.87064 18.1 9.99976 18.1C11.1289 18.1 12.1263 18.0404 12.9582 17.7451C13.8295 17.436 14.4941 16.8788 14.9696 15.9643C15.4283 15.0821 15.7034 13.8828 15.8699 12.2889C16.0244 10.8105 16.0895 8.94535 16.0986 6.60002H16.1228H16.1521H16.1814H16.2107H16.24H16.2693H16.2986H16.3279H16.3572H16.3865H16.4158H16.4451H16.4744H16.5037H16.533H16.5623H16.5916H16.6208H16.6501H16.6794H16.7087H16.738H16.7673H16.7966H16.8259H16.8552H16.8845H16.9138H16.9431H16.9724H17.0017H17.031H17.0603H17.0896H17.1189H17.1482H17.1775H17.2068H17.2361H17.2654H17.2947H17.324H17.3533H17.3826H17.4119H17.4412H17.4705H17.4998V5.40002H17.4705H17.4412H17.4119H17.3826H17.3533H17.324H17.2947H17.2654H17.2361H17.2068H17.1775H17.1482H17.1189H17.0896H17.0603H17.031H17.0017H16.9724H16.9431H16.9138H16.8845H16.8552H16.8259H16.7966H16.7673H16.738H16.7087H16.6794H16.6501H16.6208H16.5916H16.5623H16.533H16.5037H16.4744H16.4451H16.4158H16.3865H16.3572H16.3279H16.2986H16.2693H16.24H16.2107H16.1814H16.1521H16.1228H16.0935H16.0642H16.0349H16.0056H15.9763H15.947H15.9177H15.8884H15.8591H15.8298H15.8005H15.7712H15.7419H15.7126H15.6833H15.6541H15.6248H15.5955H15.5662H15.5369H15.5076H15.4783H15.449H15.4197H15.3904H15.3611H15.3318H15.3025H15.2732H15.2439H15.2146H15.1853H15.156H15.1267H15.0974H15.0681H15.0388H15.0095H14.9802H14.9509H14.9216H14.8923H14.863H14.8337H14.8044H14.7751H14.7458H14.7166H14.6873H14.658H14.6287H14.5994H14.5701H14.5408H14.5115H14.4822H14.4529H14.4236H14.3943H14.365H14.3357H14.3064H14.2771H14.2478H14.2185H14.1892H14.1599H14.1306H14.1013H14.072H14.0427H14.0134H13.9841H13.9548H13.9255H13.8962H13.8669H13.8376H13.8083H13.7791H13.7498H13.7205H13.6912H13.6619H13.6326H13.6033H13.592C13.5777 4.89805 13.5423 4.45877 13.4727 4.07933C13.3764 3.55382 13.2059 3.09236 12.8888 2.72992C12.5645 2.35932 12.1416 2.15415 11.6606 2.04097C11.192 1.93071 10.6349 1.90002 9.99976 1.90002ZM7.62671 5.40002H7.60809C7.62186 4.95055 7.65334 4.58898 7.70711 4.29572C7.78264 3.88373 7.89343 3.65769 8.0138 3.52013C8.12703 3.39073 8.29788 3.28339 8.61374 3.20907C8.94198 3.13184 9.38491 3.10002 9.99976 3.10002C10.6146 3.10002 11.0575 3.13184 11.3858 3.20907C11.7016 3.28339 11.8725 3.39073 11.9857 3.52013C12.1061 3.65769 12.2169 3.88373 12.2924 4.29572C12.3462 4.58898 12.3776 4.95055 12.3914 5.40002H12.3728H12.3435H12.3142H12.2849H12.2556H12.2263H12.197H12.1677H12.1384H12.1091H12.0798H12.0505H12.0212H11.9919H11.9626H11.9333H11.9041H11.8748H11.8455H11.8162H11.7869H11.7576H11.7283H11.699H11.6697H11.6404H11.6111H11.5818H11.5525H11.5232H11.4939H11.4646H11.4353H11.406H11.3767H11.3474H11.3181H11.2888H11.2595H11.2302H11.2009H11.1716H11.1423H11.113H11.0837H11.0544H11.0251H10.9958H10.9666H10.9373H10.908H10.8787H10.8494H10.8201H10.7908H10.7615H10.7322H10.7029H10.6736H10.6443H10.615H10.5857H10.5564H10.5271H10.4978H10.4685H10.4392H10.4099H10.3806H10.3513H10.322H10.2927H10.2634H10.2341H10.2048H10.1755H10.1462H10.1169H10.0876H10.0583H10.0291H9.99976H9.97046H9.94116H9.91187H9.88257H9.85327H9.82397H9.79468H9.76538H9.73608H9.70679H9.67749H9.64819H9.6189H9.5896H9.5603H9.53101H9.50171H9.47241H9.44312H9.41382H9.38452H9.35522H9.32593H9.29663H9.26733H9.23804H9.20874H9.17944H9.15015H9.12085H9.09155H9.06226H9.03296H9.00366H8.97437H8.94507H8.91577H8.88647H8.85718H8.82788H8.79858H8.76929H8.73999H8.71069H8.6814H8.6521H8.6228H8.59351H8.56421H8.53491H8.50562H8.47632H8.44702H8.41772H8.38843H8.35913H8.32983H8.30054H8.27124H8.24194H8.21265H8.18335H8.15405H8.12476H8.09546H8.06616H8.03687H8.00757H7.97827H7.94897H7.91968H7.89038H7.86108H7.83179H7.80249H7.77319H7.7439H7.7146H7.6853H7.65601H7.62671ZM5.32307 12.1642C5.17485 10.7456 5.11008 8.92915 5.10091 6.60002H5.10718H5.13647H5.16577H5.19507H5.22437H5.25366H5.28296H5.31226H5.34155H5.37085H5.40015H5.42944H5.45874H5.48804H5.51733H5.54663H5.57593H5.60522H5.63452H5.66382H5.69312H5.72241H5.75171H5.78101H5.8103H5.8396H5.8689H5.89819H5.92749H5.95679H5.98608H6.01538H6.04468H6.07397H6.10327H6.13257H6.16187H6.19116H6.22046H6.24976H6.27905H6.30835H6.33765H6.36694H6.39624H6.42554H6.45483H6.48413H6.51343H6.54272H6.57202H6.60132H6.63062H6.65991H6.68921H6.71851H6.7478H6.7771H6.8064H6.83569H6.86499H6.89429H6.92358H6.95288H6.98218H7.01147H7.04077H7.07007H7.09937H7.12866H7.15796H7.18726H7.21655H7.24585H7.27515H7.30444H7.33374H7.36304H7.39233H7.42163H7.45093H7.48022H7.50952H7.53882H7.56812H7.59741H7.62671H7.65601H7.6853H7.7146H7.7439H7.77319H7.80249H7.83179H7.86108H7.89038H7.91968H7.94897H7.97827H8.00757H8.03687H8.06616H8.09546H8.12476H8.15405H8.18335H8.21265H8.24194H8.27124H8.30054H8.32983H8.35913H8.38843H8.41772H8.44702H8.47632H8.50562H8.53491H8.56421H8.59351H8.6228H8.6521H8.6814H8.71069H8.73999H8.76929H8.79858H8.82788H8.85718H8.88647H8.91577H8.94507H8.97437H9.00366H9.03296H9.06226H9.09155H9.12085H9.15015H9.17944H9.20874H9.23804H9.26733H9.29663H9.32593H9.35522H9.38452H9.41382H9.44312H9.47241H9.50171H9.53101H9.5603H9.5896H9.6189H9.64819H9.67749H9.70679H9.73608H9.76538H9.79468H9.82397H9.85327H9.88257H9.91187H9.94116H9.97046H9.99976H10.0291H10.0583H10.0876H10.1169H10.1462H10.1755H10.2048H10.2341H10.2634H10.2927H10.322H10.3513H10.3806H10.4099H10.4392H10.4685H10.4978H10.5271H10.5564H10.5857H10.615H10.6443H10.6736H10.7029H10.7322H10.7615H10.7908H10.8201H10.8494H10.8787H10.908H10.9373H10.9666H10.9958H11.0251H11.0544H11.0837H11.113H11.1423H11.1716H11.2009H11.2302H11.2595H11.2888H11.3181H11.3474H11.3767H11.406H11.4353H11.4646H11.4939H11.5232H11.5525H11.5818H11.6111H11.6404H11.6697H11.699H11.7283H11.7576H11.7869H11.8162H11.8455H11.8748H11.9041H11.9333H11.9626H11.9919H12.0212H12.0505H12.0798H12.1091H12.1384H12.1677H12.197H12.2263H12.2556H12.2849H12.3142H12.3435H12.3728H12.4021H12.4314H12.4607H12.49H12.5193H12.5486H12.5779H12.6072H12.6365H12.6658H12.6951H12.7244H12.7537H12.783H12.8123H12.8416H12.8708H12.9001H12.9294H12.9587H12.988H13.0173H13.0466H13.0759H13.1052H13.1345H13.1638H13.1931H13.2224H13.2517H13.281H13.3103H13.3396H13.3689H13.3982H13.4275H13.4568H13.4861H13.5154H13.5447H13.574H13.6033H13.6326H13.6619H13.6912H13.7205H13.7498H13.7791H13.8083H13.8376H13.8669H13.8962H13.9255H13.9548H13.9841H14.0134H14.0427H14.072H14.1013H14.1306H14.1599H14.1892H14.2185H14.2478H14.2771H14.3064H14.3357H14.365H14.3943H14.4236H14.4529H14.4822H14.5115H14.5408H14.5701H14.5994H14.6287H14.658H14.6873H14.7166H14.7458H14.7751H14.8044H14.8337H14.863H14.8923H14.8986C14.8894 8.92915 14.8247 10.7456 14.6764 12.1642C14.5148 13.7109 14.2587 14.7304 13.9049 15.4107C13.568 16.0587 13.1388 16.4078 12.5569 16.6142C11.9357 16.8346 11.1206 16.9 9.99976 16.9C8.87888 16.9 8.06376 16.8346 7.44259 16.6142C6.86071 16.4078 6.43156 16.0587 6.09459 15.4107C5.74082 14.7304 5.48466 13.7109 5.32307 12.1642ZM7.89975 13.5V9.00002H9.09975V13.5H7.89975ZM10.8997 13.5V9.00002H12.0997V13.5H10.8997Z"
    fill="currentColor"
  />
</svg>
