<svg
  xmlns="http://www.w3.org/2000/svg"
  width="20"
  height="20"
  fill="none"
  viewBox="0 0 20 20"
>
  <path
    fill="#09101C"
    d="M20 3.512a8.256 8.256 0 0 1-2.363.678 4.237 4.237 0 0 0 1.804-2.371 7.977 7.977 0 0 1-2.6 1.038 4.06 4.06 0 0 0-2.094-1.253 3.93 3.93 0 0 0-2.405.196 4.14 4.14 0 0 0-1.884 1.578 4.43 4.43 0 0 0-.71 2.412c0 .34.028.667.096.979a11.206 11.206 0 0 1-4.684-1.3 11.722 11.722 0 0 1-3.768-3.187 4.468 4.468 0 0 0-.455 3.127 4.303 4.303 0 0 0 1.715 2.606A3.914 3.914 0 0 1 .8 7.486v.048c.001.99.328 1.95.927 2.718a4.093 4.093 0 0 0 2.358 1.496c-.35.097-.712.145-1.075.142-.26.004-.52-.02-.776-.074a4.328 4.328 0 0 0 1.461 2.131 4.023 4.023 0 0 0 2.37.857A8.008 8.008 0 0 1 0 16.575 11.175 11.175 0 0 0 6.29 18.5c7.545 0 11.67-6.539 11.67-12.206 0-.19-.006-.373-.015-.555A8.399 8.399 0 0 0 20 3.512Z"
  />
</svg>
