<svg
  xmlns="http://www.w3.org/2000/svg"
  width="20"
  height="20"
  fill="none"
  viewBox="0 0 20 20"
>
  <path
    fill="#09101C"
    fill-rule="evenodd"
    d="M2.831 6.488C2.663 7.368 2.6 8.508 2.6 10s.063 2.633.231 3.512c.168.876.432 1.44.794 1.828.359.382.873.652 1.666.824.802.173 1.843.236 3.209.236s2.407-.063 3.209-.236c.793-.172 1.307-.442 1.666-.824.362-.387.626-.952.793-1.828.169-.88.232-2.02.232-3.512s-.063-2.632-.232-3.512c-.167-.876-.43-1.44-.793-1.828-.36-.382-.873-.652-1.666-.824-.802-.173-1.843-.236-3.21-.236-1.365 0-2.406.063-3.208.236-.793.172-1.307.442-1.666.824-.362.387-.626.952-.794 1.828Zm2.206-3.824C5.97 2.462 7.117 2.4 8.5 2.4c1.384 0 2.53.062 3.463.264.941.203 1.708.558 2.287 1.176.575.613.905 1.423 1.097 2.422.094.492.157 1.042.197 1.654l2.123-1.415.933-.622v8.242l-.933-.622-2.123-1.415c-.04.612-.103 1.162-.197 1.654-.192 1-.522 1.81-1.097 2.422-.579.618-1.346.973-2.287 1.177-.933.201-2.08.263-3.463.263-1.384 0-2.53-.062-3.463-.264-.941-.203-1.709-.558-2.287-1.176-.575-.613-.906-1.423-1.097-2.422-.191-.995-.253-2.23-.253-3.738s.062-2.742.253-3.738c.191-1 .522-1.81 1.097-2.422.578-.618 1.346-.973 2.287-1.176ZM15.6 10c0-.232-.002-.457-.005-.676L17.4 8.121v3.758l-1.805-1.203c.003-.22.005-.444.005-.676Zm-9 0a1.9 1.9 0 1 1 3.8 0 1.9 1.9 0 0 1-3.8 0Zm1.9-3.1a3.1 3.1 0 1 0 0 6.2 3.1 3.1 0 0 0 0-6.2Z"
    clip-rule="evenodd"
  />
</svg>
