<svg
  xmlns="http://www.w3.org/2000/svg"
  width="20"
  height="20"
  fill="none"
  viewBox="0 0 20 20"
>
  <path
    fill="#09101C"
    fill-rule="evenodd"
    d="M3.6 6.5c0-.626.035-1.027.142-1.314.09-.24.237-.423.574-.58.372-.173.959-.307 1.901-.391C7.15 4.13 8.378 4.1 10 4.1c1.621 0 2.85.031 3.782.115.943.084 1.53.218 1.902.391.336.157.485.34.574.58.107.287.142.688.142 1.314 0 .626-.035 1.028-.142 1.314-.09.24-.238.423-.574.58-.372.173-.959.307-1.902.391-.933.084-2.16.115-3.782.115-1.622 0-2.85-.031-3.783-.115-.942-.084-1.53-.218-1.9-.391-.338-.157-.486-.34-.575-.58C3.635 7.528 3.6 7.126 3.6 6.5ZM10 2.9c-1.628 0-2.9.031-3.89.12-.979.087-1.735.235-2.301.499-.601.28-.984.691-1.192 1.248-.19.51-.217 1.11-.217 1.733 0 .624.027 1.223.217 1.733.208.557.591.968 1.192 1.248.566.264 1.322.412 2.302.5.864.077 1.944.11 3.289.117v1.871a2.604 2.604 0 0 0-1.93 1.93H3v1.2h4.47a2.601 2.601 0 0 0 5.06 0H17v-1.2h-4.47a2.604 2.604 0 0 0-1.93-1.93V10.1c1.345-.008 2.425-.041 3.29-.119.978-.087 1.735-.235 2.301-.499.6-.28.984-.691 1.192-1.248.19-.51.217-1.11.217-1.733 0-.624-.027-1.222-.218-1.733-.207-.557-.59-.968-1.19-1.248-.567-.264-1.324-.412-2.303-.5C12.9 2.932 11.63 2.9 10 2.9ZM8.6 14.5a1.4 1.4 0 1 1 2.8 0 1.4 1.4 0 0 1-2.8 0Z"
    clip-rule="evenodd"
  />
</svg>
