<svg
  xmlns="http://www.w3.org/2000/svg"
  width="20"
  height="20"
  fill="none"
  viewBox="0 0 20 20"
>
  <path
    fill="#09101C"
    fill-rule="evenodd"
    d="M3.952 6.675a6.9 6.9 0 0 0 11.809 7.123l-.136.17-2.5-2-.348-.277.166-.414.795-1.987-2.506-1.253-.809-.404.687-.589 3.01-2.58a6.864 6.864 0 0 0-3.52-1.338V5.37l-.332.167-1.803.901-.544 1.27 2.893 1.781.468.288-.245.491-.937 1.874v2.744l-.823-.329-2.5-1-.322-.129-.049-.343-.5-3.5-.024-.167.066-.154.462-1.077-2.458-1.512Zm.67-.997 2.266 1.394.56-1.308.087-.202.197-.099L9.4 4.63V3.126A6.889 6.889 0 0 0 4.62 5.678ZM16.9 10a6.873 6.873 0 0 1-.651 2.93l-2.027-1.62.835-2.087.205-.513-.494-.247-2.192-1.096 2.448-2.097A6.876 6.876 0 0 1 16.9 10Zm-15 0a8.1 8.1 0 1 1 16.2 0 8.1 8.1 0 0 1-16.2 0Zm5.218-.418.325-.759 2.275 1.4-.755 1.509-.063.126v1.256l-1.355-.542-.427-2.99Z"
    clip-rule="evenodd"
  />
</svg>
