<svg xmlns="http://www.w3.org/2000/svg" width="145" height="15" viewBox="0 0 145 15" fill="none">
<path d="M16.3164 2.85254H18.2715V5.25879H16.3164V10.8223C16.3164 11.0477 16.3518 11.2951 16.4521 11.5098C16.5343 11.6651 16.6695 11.7861 16.833 11.8506C17.014 11.9191 17.1443 11.9601 17.3887 11.9883C17.615 12.0258 18.7422 11.9977 18.8174 11.9883V14.5449H17.0781C16.3263 14.5261 15.6997 14.465 15.0547 14.2188C14.5003 14.004 14.0281 13.6191 13.7051 13.1201C13.3666 12.5548 13.2344 11.8945 13.2344 11.2461V5.25879H11.5801V2.85254H13.2344V0.220703H16.3164V2.85254ZM25.4639 2.62695C26.0746 2.62698 26.7067 2.70136 27.3096 2.85352C27.87 2.99148 28.4021 3.22705 28.8799 3.55078C29.3339 3.86246 29.7059 4.27956 29.9648 4.76562C30.2394 5.31376 30.417 5.92616 30.417 6.53711V14.3193H27.3438L27.334 12.7217C27.1483 13.0832 26.7915 13.4095 26.4854 13.6768C26.1563 13.9579 25.7754 14.1735 25.3652 14.3115C24.8782 14.4718 24.3638 14.5449 23.8564 14.5449C23.1798 14.5449 22.5085 14.4205 21.8877 14.1533C21.3309 13.911 20.8561 13.5112 20.5225 13.0039C20.1733 12.432 20.0215 11.7628 20.0215 11.0957C20.0215 10.5412 20.1269 9.98572 20.377 9.48535C20.6025 9.05661 20.9342 8.69251 21.3398 8.42773C21.7656 8.15278 22.2339 7.94993 22.7256 7.82715C23.2614 7.68864 23.8074 7.59256 24.3584 7.54102C25.031 7.47121 25.5457 7.41974 25.9561 7.3584C26.2782 7.31024 26.583 7.23934 26.8633 7.08105C26.953 7.02007 27.056 6.91537 27.1045 6.81836C27.153 6.72132 27.1744 6.56241 27.1807 6.45508C27.1927 6.24957 27.1484 6.04634 27.0713 5.85547C26.9941 5.66459 26.8752 5.49294 26.7236 5.35352C26.3627 5.07257 25.8946 4.94633 25.4463 4.94629C24.9556 4.94629 24.4846 5.07152 24.0791 5.34277C23.7533 5.57458 23.4424 5.90735 23.3672 6.38672H20.4346C20.4346 5.59282 20.8175 4.82959 21.3271 4.23047C21.792 3.70429 22.3777 3.29893 23.0342 3.0498C23.8104 2.75623 24.6461 2.62694 25.4639 2.62695ZM36.3584 2.85254H38.3125V5.25879H36.3584V10.8223C36.3584 11.0477 36.3929 11.2951 36.4932 11.5098C36.5753 11.6651 36.7106 11.7861 36.874 11.8506C37.055 11.9191 37.1853 11.9601 37.4297 11.9883C37.6559 12.0258 38.7832 11.9977 38.8584 11.9883V14.5449H37.1191C36.3673 14.5261 35.7407 14.465 35.0957 14.2188C34.5414 14.004 34.0692 13.6191 33.7461 13.1201C33.4076 12.5548 33.2754 11.8945 33.2754 11.2461V5.25879H31.6211V2.85254H33.2754V0.220703H36.3584V2.85254ZM43.1416 9.83984C43.1651 10.3509 43.3564 10.8426 43.6895 11.2363C43.8746 11.4354 44.1018 11.5917 44.3535 11.6943C44.6051 11.7969 44.876 11.8438 45.1475 11.8311C45.5244 11.8322 45.896 11.7399 46.2285 11.5625C46.5688 11.3803 46.851 11.1054 47.043 10.7705C47.2626 10.3732 47.3525 9.92094 47.3525 9.46973V2.85254H50.4355V14.3193H47.4844V12.29C47.2326 12.9555 46.7635 13.5276 46.1719 13.9229C45.5171 14.3481 44.7394 14.5449 43.9688 14.5449C43.2545 14.5449 42.5483 14.3713 41.9307 14.0117C41.3394 13.6563 40.8632 13.138 40.5596 12.5186C40.2145 11.7923 40.0586 10.9834 40.0586 10.1846V2.85254H43.1416V9.83984ZM5.20898 2.62793C6.66731 2.62936 7.81554 2.9378 8.65332 3.55273C9.06139 3.84563 9.40293 4.22152 9.65625 4.65527C9.90957 5.08907 10.0947 5.91679 10.0947 6.38672H7.2002C7.15321 6.13297 7.01964 5.76557 6.85059 5.57129C6.67469 5.36045 6.45249 5.19264 6.20117 5.08203C5.89865 4.95258 5.57115 4.89026 5.24219 4.89844C4.80345 4.88414 4.38026 4.97768 3.99902 5.19531C3.84614 5.27391 3.7071 5.40718 3.61719 5.55371C3.52728 5.70033 3.47924 5.86903 3.47852 6.04102C3.47748 6.17466 3.50636 6.3069 3.56348 6.42773C3.62062 6.54858 3.70462 6.65524 3.80859 6.73926C4.14768 6.97953 4.53525 7.11501 4.95117 7.19434L7.03906 7.61719C8.16147 7.84705 8.99781 8.21768 9.54785 8.72949C9.82085 8.98668 10.0355 9.30002 10.1768 9.64746C10.318 9.99501 10.377 10.3721 10.377 10.748C10.3769 11.4621 10.1485 12.1643 9.71094 12.7344C9.23209 13.3307 8.60456 13.7906 7.8916 14.0674C7.04639 14.3988 6.14405 14.5611 5.23633 14.5439C3.70751 14.5425 2.49154 14.2239 1.58887 13.5879C1.15327 13.2911 0.785749 12.9044 0.511719 12.4541C0.237695 12.0038 0 11.2927 0 10.7852H3.14844C3.16723 11.0013 3.26623 11.2254 3.38477 11.4072C3.50328 11.5889 3.65755 11.7446 3.83789 11.8652C4.25956 12.1231 4.74513 12.2431 5.24219 12.2432C5.70928 12.2432 6.18679 12.1386 6.59863 11.9033C6.75293 11.8212 6.88278 11.6995 6.97461 11.5508C7.06639 11.4021 7.11682 11.2313 7.12109 11.0566C7.12038 10.9167 7.08733 10.7788 7.02344 10.6543C6.95947 10.5297 6.86636 10.422 6.75293 10.3398C6.4194 10.117 6.03438 9.9913 5.64258 9.91699L3.64355 9.51855C2.5166 9.29288 1.67855 8.9024 1.12988 8.34668C0.858327 8.06523 0.646426 7.73154 0.506836 7.36621C0.367329 7.00095 0.302685 6.61142 0.317383 6.2207C0.301192 5.53239 0.514406 4.85798 0.922852 4.30371C1.36506 3.74025 1.95552 3.31128 2.62793 3.06445C3.45327 2.75841 4.32891 2.60983 5.20898 2.62793ZM56.8496 2.62793C58.3078 2.62939 59.4562 2.93783 60.2939 3.55273C60.702 3.84561 61.0436 4.22157 61.2969 4.65527C61.5502 5.0891 61.7353 5.91682 61.7354 6.38672H58.8398C58.7929 6.13302 58.6602 5.7656 58.4912 5.57129C58.3153 5.36048 58.0931 5.19264 57.8418 5.08203C57.5393 4.95256 57.2118 4.89026 56.8828 4.89844C56.4441 4.88411 56.0209 4.97771 55.6396 5.19531C55.4867 5.27395 55.3467 5.40709 55.2568 5.55371C55.167 5.7003 55.1189 5.86907 55.1182 6.04102C55.1171 6.17466 55.147 6.3069 55.2041 6.42773C55.2612 6.5485 55.3444 6.65527 55.4482 6.73926C55.7874 6.97964 56.1748 7.11498 56.5908 7.19434L58.6797 7.61719C59.8021 7.84707 60.6385 8.21765 61.1885 8.72949C61.4615 8.9867 61.6761 9.29999 61.8174 9.64746C61.9587 9.99501 62.0176 10.3721 62.0176 10.748C62.0175 11.4621 61.7891 12.1644 61.3516 12.7344C60.8728 13.3307 60.2451 13.7906 59.5322 14.0674C58.6871 14.3988 57.7846 14.5611 56.877 14.5439C55.3482 14.5425 54.1321 14.2238 53.2295 13.5879C52.7939 13.2911 52.4264 12.9043 52.1523 12.4541C51.8783 12.0038 51.6406 11.2927 51.6406 10.7852H54.7891C54.8079 11.0013 54.9069 11.2254 55.0254 11.4072C55.1439 11.5889 55.2982 11.7447 55.4785 11.8652C55.9002 12.1231 56.3857 12.2431 56.8828 12.2432C57.3499 12.2432 57.8274 12.1387 58.2393 11.9033C58.3935 11.8212 58.5234 11.6995 58.6152 11.5508C58.707 11.4021 58.7574 11.2313 58.7617 11.0566C58.761 10.9167 58.727 10.7788 58.6631 10.6543C58.5991 10.5298 58.5069 10.422 58.3936 10.3398C58.0601 10.117 57.675 9.99131 57.2832 9.91699L55.2832 9.51855C54.1565 9.29287 53.3191 8.9023 52.7705 8.34668C52.4989 8.06522 52.2871 7.73158 52.1475 7.36621C52.0079 7.00093 51.9433 6.61145 51.958 6.2207C51.9418 5.53241 52.1541 4.85797 52.5625 4.30371C53.0047 3.7401 53.596 3.31132 54.2686 3.06445C55.0938 2.75846 55.9696 2.60984 56.8496 2.62793ZM27.1719 8.98047C26.9966 9.06668 26.8165 9.13504 26.6289 9.18945C25.9208 9.39205 25.1734 9.37822 24.4688 9.59766C23.5338 9.91073 23.0914 10.5793 23.3027 11.3535C23.3875 11.618 23.5489 11.8519 23.7666 12.0244C24.1877 12.3581 24.802 12.4023 25.3066 12.2529C26.4003 11.9355 27.084 10.9093 27.1855 9.7627C27.2127 9.50718 27.213 9.24482 27.1748 8.99023L27.1719 8.98047Z" fill="white"/>
<path d="M136.697 10.5595L136.681 7.79159H137.076L141.717 2.86236H144.432L139.138 8.4741H138.782L136.697 10.5595ZM134.611 14.5105V0.210938H136.879V14.5105H134.611ZM141.967 14.5105L137.796 8.97461L139.358 7.38967L144.75 14.5105H141.967Z" fill="white"/>
<path d="M126.566 14.5101V2.86192H128.758V4.71228H128.879C129.092 4.08538 129.466 3.59246 130.002 3.23351C130.543 2.8695 131.154 2.6875 131.837 2.6875C131.978 2.6875 132.145 2.69256 132.337 2.70267C132.535 2.71278 132.689 2.72542 132.8 2.74058V4.90945C132.709 4.88417 132.547 4.85636 132.315 4.82603C132.082 4.79064 131.85 4.77294 131.617 4.77294C131.081 4.77294 130.603 4.8867 130.184 5.1142C129.769 5.33665 129.441 5.64757 129.198 6.04696C128.955 6.4413 128.834 6.89125 128.834 7.39681V14.5101H126.566Z" fill="white"/>
<path d="M119.327 14.7439C118.235 14.7439 117.282 14.4936 116.468 13.9931C115.654 13.4926 115.022 12.7924 114.572 11.8925C114.122 10.9926 113.897 9.94105 113.897 8.73781C113.897 7.52952 114.122 6.4729 114.572 5.56794C115.022 4.66298 115.654 3.96025 116.468 3.45974C117.282 2.95924 118.235 2.70898 119.327 2.70898C120.419 2.70898 121.372 2.95924 122.186 3.45974C123 3.96025 123.632 4.66298 124.082 5.56794C124.532 6.4729 124.757 7.52952 124.757 8.73781C124.757 9.94105 124.532 10.9926 124.082 11.8925C123.632 12.7924 123 13.4926 122.186 13.9931C121.372 14.4936 120.419 14.7439 119.327 14.7439ZM119.335 12.8405C120.043 12.8405 120.629 12.6534 121.094 12.2793C121.559 11.9052 121.903 11.4072 122.125 10.7853C122.353 10.1635 122.467 9.47846 122.467 8.73023C122.467 7.98705 122.353 7.30454 122.125 6.6827C121.903 6.05581 121.559 5.55277 121.094 5.1736C120.629 4.79443 120.043 4.60484 119.335 4.60484C118.622 4.60484 118.03 4.79443 117.56 5.1736C117.095 5.55277 116.749 6.05581 116.521 6.6827C116.299 7.30454 116.188 7.98705 116.188 8.73023C116.188 9.47846 116.299 10.1635 116.521 10.7853C116.749 11.4072 117.095 11.9052 117.56 12.2793C118.03 12.6534 118.622 12.8405 119.335 12.8405Z" fill="white"/>
<path d="M100.856 14.5114L97.4285 2.86328H99.7717L102.054 11.4174H102.168L104.458 2.86328H106.802L109.077 11.3795H109.19L111.458 2.86328H113.801L110.381 14.5114H108.068L105.702 6.10141H105.528L103.162 14.5114H100.856Z" fill="white"/>
<path d="M95.9721 2.86242V4.68244H89.6096V2.86242H95.9721ZM91.3159 0.210938H93.5833V11.0904C93.5833 11.5303 93.6491 11.8614 93.7805 12.0839C93.912 12.3013 94.0813 12.4504 94.2886 12.5313C94.5009 12.6071 94.731 12.645 94.9787 12.645C95.1607 12.645 95.3199 12.6324 95.4564 12.6071C95.593 12.5819 95.6991 12.5616 95.775 12.5465L96.1845 14.4196C96.053 14.4701 95.866 14.5207 95.6233 14.5712C95.3806 14.6269 95.0773 14.6572 94.7133 14.6622C94.1167 14.6724 93.5606 14.5662 93.0449 14.3437C92.5292 14.1213 92.1122 13.7775 91.7936 13.3124C91.4751 12.8473 91.3159 12.2633 91.3159 11.5606V0.210938Z" fill="white"/>
<path d="M84.0431 14.6193C82.9116 14.6193 81.9379 14.3752 81.1205 13.8918C80.308 13.4033 79.68 12.7179 79.2364 11.8357C78.7978 10.9485 78.5728 9.90092 78.5728 8.71662C78.5728 7.55112 78.8002 6.44849 79.2389 5.55129C79.6825 4.6541 80.3005 3.95379 81.0931 3.45036C81.8906 2.94694 82.8212 2.70117 83.8739 2.70117C84.5318 2.70117 85.1653 2.80239 85.7734 3.01672C86.3815 3.23105 86.9273 3.5675 87.4108 4.02606C87.8943 4.48463 88.2756 5.08027 88.5547 5.81298C88.8338 6.5407 88.9683 7.4869 88.9683 8.52864V9.31817H79.851V7.64512H86.7876C86.7876 7.05696 86.6631 6.4759 86.4239 6.02232C86.1846 5.56376 85.8482 5.20239 85.4145 4.93821C84.9859 4.67404 84.4824 4.54195 83.9043 4.54195C83.2762 4.54195 82.7279 4.69647 82.2594 5.0055C81.7959 5.30955 81.437 5.7083 81.1828 6.20176C80.9336 6.69023 80.8065 7.27744 80.8065 7.85065V9.15906C80.8065 9.92666 80.9411 10.5796 81.2102 11.1179C81.4844 11.6563 81.8657 12.0675 82.3541 12.3516C82.8426 12.6307 83.4133 12.7703 84.0663 12.7703C84.4899 12.7703 84.8762 12.7104 85.2251 12.5908C85.5741 12.4662 85.8756 12.2818 86.1298 12.0376C86.384 11.7933 86.5802 11.4817 86.7148 11.1228H88.9683C88.7988 11.7459 88.3553 12.683 87.9167 13.1516C87.4831 13.6151 86.9373 13.9765 86.2793 14.2357C85.6264 14.4899 84.8805 14.6193 84.0431 14.6193Z" fill="white"/>
<path d="M69.8817 7.59272V14.5088H67.6143V2.86065H69.7907V4.75651H69.9348C70.2027 4.13973 70.6224 3.64427 71.1936 3.27016C71.77 2.89604 72.4955 2.70898 73.3701 2.70898C74.1638 2.70898 74.859 2.87582 75.4555 3.20949C76.0521 3.53811 76.5147 4.0285 76.8433 4.68068C77.1719 5.33285 77.3362 6.13922 77.3362 7.09979V14.5088H75.0688V7.3728C75.0688 6.52851 74.8489 5.86875 74.409 5.39352C73.9692 4.91324 73.365 4.67309 72.5966 4.67309C72.0708 4.67309 71.6031 4.78685 71.1936 5.01435C70.7892 5.24185 70.4682 5.57552 70.2305 6.01536C69.998 6.45015 69.8817 6.97593 69.8817 7.59272Z" fill="white"/>
<path d="M64.5246 14.791C64.1106 14.791 63.756 14.6453 63.4608 14.354C63.1695 14.0627 63.0258 13.71 63.0296 13.2961C63.0258 12.8897 63.1695 12.5428 63.4608 12.2553C63.756 11.964 64.1106 11.8184 64.5246 11.8184C64.9155 11.8184 65.2605 11.964 65.5595 12.2553C65.8623 12.5428 66.0157 12.8897 66.0195 13.2961C66.0157 13.572 65.9428 13.8231 65.801 14.0493C65.663 14.2754 65.4809 14.4556 65.2548 14.5898C65.0325 14.7239 64.7891 14.791 64.5246 14.791Z" fill="white"/>
</svg>