<svg width="144" height="144" viewBox="0 0 144 144" fill="none" xmlns="http://www.w3.org/2000/svg">
<circle cx="72.0003" cy="71.9998" r="49.2308" fill="white"/>
<circle cx="72.0003" cy="71.9998" r="53.2308" stroke="white" stroke-opacity="0.1" stroke-width="8"/>
<mask id="path-3-outside-1_1062_517" maskUnits="userSpaceOnUse" x="0" y="0" width="144" height="144" fill="black">
<rect fill="white" width="144" height="144"/>
<path d="M72 8C107.346 8 136 36.6538 136 72C136 107.346 107.346 136 72 136C36.6538 136 8 107.346 8 72C8 36.6538 36.6538 8 72 8ZM81.2227 75.1992C74.09 75.6044 69.6229 73.969 62.4902 74.3711C60.8517 74.4578 59.2261 74.7111 57.6396 75.127C50.9245 76.8655 47.0763 81.4037 47.4023 87.623C47.8229 95.3511 55.6076 100.11 63.4014 99.666C76.0946 98.9404 85.4668 87.4023 86.5088 74.3496C86.3808 74.3889 86.2256 74.4286 86.0977 74.4648C84.5014 74.87 82.8682 75.1158 81.2227 75.1992ZM96.4238 55.9395C96.0034 48.2113 88.2186 43.4521 80.4248 43.8965C67.7316 44.6221 58.3594 56.1602 57.3174 69.2129C57.4453 69.1736 57.6006 69.134 57.7285 69.0947C59.3248 68.6895 60.958 68.4437 62.6035 68.3604C69.7362 67.9612 74.2032 69.5965 81.3359 69.1943C82.9745 69.1076 84.6001 68.8544 86.1865 68.4385C92.9016 66.6969 96.765 62.1587 96.4238 55.9395Z"/>
</mask>
<path d="M72 8C107.346 8 136 36.6538 136 72C136 107.346 107.346 136 72 136C36.6538 136 8 107.346 8 72C8 36.6538 36.6538 8 72 8ZM81.2227 75.1992C74.09 75.6044 69.6229 73.969 62.4902 74.3711C60.8517 74.4578 59.2261 74.7111 57.6396 75.127C50.9245 76.8655 47.0763 81.4037 47.4023 87.623C47.8229 95.3511 55.6076 100.11 63.4014 99.666C76.0946 98.9404 85.4668 87.4023 86.5088 74.3496C86.3808 74.3889 86.2256 74.4286 86.0977 74.4648C84.5014 74.87 82.8682 75.1158 81.2227 75.1992ZM96.4238 55.9395C96.0034 48.2113 88.2186 43.4521 80.4248 43.8965C67.7316 44.6221 58.3594 56.1602 57.3174 69.2129C57.4453 69.1736 57.6006 69.134 57.7285 69.0947C59.3248 68.6895 60.958 68.4437 62.6035 68.3604C69.7362 67.9612 74.2032 69.5965 81.3359 69.1943C82.9745 69.1076 84.6001 68.8544 86.1865 68.4385C92.9016 66.6969 96.765 62.1587 96.4238 55.9395Z" fill="url(#paint0_linear_1062_517)"/>
<path d="M81.2227 75.1992L80.8178 67.2095L80.7934 67.2107L80.769 67.2121L81.2227 75.1992ZM62.4902 74.3711L62.9129 82.3599L62.9267 82.3592L62.9405 82.3584L62.4902 74.3711ZM57.6396 75.127L59.6448 82.8716L59.6566 82.8685L59.6683 82.8655L57.6396 75.127ZM47.4023 87.623L39.4133 88.0418L39.4137 88.0498L39.4142 88.0577L47.4023 87.623ZM63.4014 99.666L63.8568 107.653L63.858 107.653L63.4014 99.666ZM86.5088 74.3496L94.4834 74.9863L95.4209 63.2438L84.1601 66.7021L86.5088 74.3496ZM86.0977 74.4648L88.066 82.2189L88.1733 82.1917L88.2799 82.1615L86.0977 74.4648ZM96.4238 55.9395L88.4356 56.3741L88.4358 56.3776L96.4238 55.9395ZM80.4248 43.8965L79.9694 35.9095L79.9682 35.9095L80.4248 43.8965ZM57.3174 69.2129L49.3428 68.5763L48.4053 80.3189L59.6662 76.8603L57.3174 69.2129ZM57.7285 69.0947L55.7602 61.3406L55.5686 61.3893L55.3797 61.4473L57.7285 69.0947ZM62.6035 68.3604L63.0084 76.3501L63.0294 76.349L63.0505 76.3479L62.6035 68.3604ZM81.3359 69.1943L80.9133 61.2055L80.8994 61.2062L80.8856 61.207L81.3359 69.1943ZM86.1865 68.4385L84.1781 60.6947L84.168 60.6973L84.1579 60.7L86.1865 68.4385ZM72 8V16C102.928 16 128 41.0721 128 72H136H144C144 32.2355 111.765 0 72 0V8ZM136 72H128C128 102.928 102.928 128 72 128V136V144C111.765 144 144 111.765 144 72H136ZM72 136V128C41.0721 128 16 102.928 16 72H8H0C0 111.765 32.2355 144 72 144V136ZM8 72H16C16 41.0721 41.0721 16 72 16V8V0C32.2355 0 0 32.2355 0 72H8ZM81.2227 75.1992L80.769 67.2121C77.9239 67.3737 75.6094 67.1398 72.7012 66.831C69.8113 66.5241 66.3264 66.1421 62.0399 66.3838L62.4902 74.3711L62.9405 82.3584C65.7867 82.1979 68.1017 82.4325 71.0117 82.7416C73.9034 83.0486 77.3887 83.4299 81.6763 83.1863L81.2227 75.1992ZM62.4902 74.3711L62.0676 66.3823C59.887 66.4976 57.7233 66.8347 55.611 67.3884L57.6396 75.127L59.6683 82.8655C60.7289 82.5874 61.8163 82.4179 62.9129 82.3599L62.4902 74.3711ZM57.6396 75.127L55.6345 67.3823C51.0286 68.5748 46.7764 70.8948 43.7153 74.5967C40.5842 78.3833 39.1532 83.0796 39.4133 88.0418L47.4023 87.623L55.3914 87.2043C55.3255 85.9472 55.6555 85.2647 56.0458 84.7927C56.5061 84.2361 57.5356 83.4177 59.6448 82.8716L57.6396 75.127ZM47.4023 87.623L39.4142 88.0577C40.1637 101.833 53.4683 108.245 63.8568 107.653L63.4014 99.666L62.946 91.679C60.736 91.805 58.6537 91.1649 57.2529 90.1752C55.9467 89.2525 55.4474 88.2336 55.3905 87.1884L47.4023 87.623ZM63.4014 99.666L63.858 107.653C81.5454 106.642 93.2105 90.9313 94.4834 74.9863L86.5088 74.3496L78.5342 73.713C77.723 83.8732 70.6437 91.2389 62.9448 91.6791L63.4014 99.666ZM86.5088 74.3496L84.1601 66.7021C84.1983 66.6904 84.2218 66.6838 84.223 66.6834C84.2245 66.683 84.2174 66.685 84.1928 66.6917C84.1808 66.695 84.1678 66.6986 84.1501 66.7034C84.134 66.7078 84.1122 66.7137 84.0904 66.7197C84.0476 66.7313 83.9847 66.7486 83.9155 66.7682L86.0977 74.4648L88.2799 82.1615C88.2746 82.163 88.279 82.1617 88.3054 82.1545C88.3181 82.151 88.3312 82.1474 88.3503 82.1422C88.3678 82.1375 88.3902 82.1314 88.4136 82.125C88.4941 82.103 88.6667 82.0557 88.8574 81.9971L86.5088 74.3496ZM86.0977 74.4648L84.1293 66.7108C83.0465 66.9856 81.9371 67.1528 80.8178 67.2095L81.2227 75.1992L81.6275 83.189C83.7993 83.0789 85.9562 82.7545 88.066 82.2189L86.0977 74.4648ZM96.4238 55.9395L104.412 55.5048C103.663 41.7296 90.3578 35.3171 79.9694 35.9095L80.4248 43.8965L80.8802 51.8835C83.0902 51.7575 85.1726 52.3976 86.5734 53.3872C87.8795 54.31 88.3788 55.3289 88.4356 56.3741L96.4238 55.9395ZM80.4248 43.8965L79.9682 35.9095C62.2807 36.9207 50.6157 52.6312 49.3428 68.5763L57.3174 69.2129L65.292 69.8495C66.1031 59.6893 73.1824 52.3236 80.8814 51.8834L80.4248 43.8965ZM57.3174 69.2129L59.6662 76.8603C59.6279 76.8721 59.6056 76.8784 59.6112 76.8768C59.618 76.8748 59.6295 76.8716 59.6693 76.8605C59.7003 76.8519 59.7597 76.8354 59.8219 76.8176C59.8854 76.7995 59.9751 76.7735 60.0774 76.7421L57.7285 69.0947L55.3797 61.4473C55.4179 61.4356 55.4403 61.4293 55.4347 61.4309C55.4278 61.4328 55.4164 61.436 55.3766 61.4471C55.3456 61.4557 55.2863 61.4722 55.224 61.49C55.1605 61.5081 55.0708 61.5341 54.9686 61.5655L57.3174 69.2129ZM57.7285 69.0947L59.6968 76.8488C60.7797 76.5739 61.8891 76.4068 63.0084 76.3501L62.6035 68.3604L62.1987 60.3706C60.0268 60.4807 57.8699 60.8051 55.7602 61.3406L57.7285 69.0947ZM62.6035 68.3604L63.0505 76.3479C65.8974 76.1886 68.213 76.4238 71.123 76.7335C74.0147 77.0413 77.4994 77.4233 81.7862 77.1816L81.3359 69.1943L80.8856 61.207C78.0397 61.3675 75.7246 61.1329 72.8164 60.8234C69.9266 60.5158 66.4423 60.133 62.1566 60.3728L62.6035 68.3604ZM81.3359 69.1943L81.7586 77.1832C83.9392 77.0678 86.1029 76.7307 88.2152 76.177L86.1865 68.4385L84.1579 60.7C83.0973 60.978 82.0098 61.1475 80.9133 61.2055L81.3359 69.1943ZM86.1865 68.4385L88.1949 76.1823C92.7967 74.9888 97.0512 72.6698 100.114 68.9688C103.25 65.1806 104.685 60.477 104.412 55.5013L96.4238 55.9395L88.4358 56.3776C88.5041 57.6211 88.1781 58.2963 87.7883 58.7673C87.3262 59.3257 86.2914 60.1466 84.1781 60.6947L86.1865 68.4385Z" fill="white" fill-opacity="0.1" mask="url(#path-3-outside-1_1062_517)"/>
<defs>
<linearGradient id="paint0_linear_1062_517" x1="78.9774" y1="62.6165" x2="46.2556" y2="145.865" gradientUnits="userSpaceOnUse">
<stop stop-color="#7140FD"/>
<stop offset="1" stop-color="#BD34F8"/>
</linearGradient>
</defs>
</svg>
