<svg
  xmlns="http://www.w3.org/2000/svg"
  width="12"
  height="12"
  fill="none"
  viewBox="0 0 12 12"
>
  <path
    fill="currentColor"
    fill-rule="evenodd"
    d="M4.55 2.004V1h-1.1v1.162c-.743.16-1.345.422-1.812.83C.693 3.82.45 5.106.45 6.75c0 1.644.243 2.931 1.188 3.758C2.556 11.31 4 11.55 6 11.55s3.444-.239 4.362-1.042c.945-.827 1.188-2.114 1.188-3.758 0-1.644-.243-2.931-1.188-3.758-.466-.408-1.07-.67-1.812-.83V1h-1.1v1.004A17.133 17.133 0 0 0 6 1.95c-.52 0-1.004.016-1.45.054ZM1.726 4.948c.132-.516.343-.871.636-1.128.582-.509 1.639-.77 3.638-.77 2 0 3.056.261 3.638.77.294.257.504.612.636 1.128C9.492 4.682 8.188 4.45 6 4.45s-3.49.232-4.274.498ZM1.56 6.224c-.006.166-.01.34-.01.526 0 1.606.257 2.444.813 2.93.581.509 1.638.77 3.637.77 2 0 3.056-.261 3.638-.77.555-.486.812-1.324.812-2.93 0-.185-.003-.36-.01-.526a2.183 2.183 0 0 0-.44-.207c-.604-.22-1.783-.467-4-.467s-3.396.247-4 .467c-.22.08-.357.154-.44.207Z"
    clip-rule="evenodd"
  />
</svg>
