<svg
  xmlns="http://www.w3.org/2000/svg"
  width="12"
  height="12"
  fill="none"
  viewBox="0 0 12 12"
>
  <g clip-path="url(#prefix__clip0_409_48)">
    <path
      fill="currentColor"
      fill-rule="evenodd"
      d="M4.75.45a1.3 1.3 0 0 0-1.3 1.3.2.2 0 0 1-.2.2C1.707 1.95.437 3.207.47 4.766.502 6.233.578 7.39.744 8.295c.165.903.43 1.613.887 2.135.467.536 1.078.811 1.8.955.706.141 1.564.165 2.57.165 1.004 0 1.863-.024 2.569-.165.722-.144 1.333-.42 1.8-.955.456-.522.721-1.232.887-2.135.166-.905.241-2.062.273-3.529.034-1.559-1.237-2.816-2.78-2.816a.2.2 0 0 1-.2-.2 1.3 1.3 0 0 0-1.3-1.3h-2.5Zm-.2 1.3c0-.11.09-.2.2-.2h2.5c.11 0 .2.09.2.2a1.3 1.3 0 0 0 1.3 1.3c.942 0 1.7.766 1.68 1.692-.031 1.455-.106 2.54-.255 3.354-.15.816-.365 1.303-.634 1.611-.258.295-.616.486-1.187.6-.585.117-1.342.143-2.354.143-1.011 0-1.768-.026-2.354-.143-.57-.114-.929-.305-1.186-.6-.27-.308-.485-.795-.634-1.61-.15-.815-.224-1.9-.256-3.355-.02-.926.738-1.692 1.68-1.692a1.3 1.3 0 0 0 1.3-1.3Zm0 4.75a1.45 1.45 0 1 1 2.9 0 1.45 1.45 0 0 1-2.9 0ZM6 3.95a2.55 2.55 0 1 0 0 5.1 2.55 2.55 0 0 0 0-5.1Z"
      clip-rule="evenodd"
    />
  </g>
  <defs>
    <clipPath id="prefix__clip0_409_48">
      <path fill="#fff" d="M0 0h12v12H0z" />
    </clipPath>
  </defs>
</svg>
