<svg
  xmlns="http://www.w3.org/2000/svg"
  width="12"
  height="12"
  fill="none"
  viewBox="0 0 12 12"
>
  <g clip-path="url(#prefix__clip0_637_26)">
    <path
      fill="currentColor"
      fill-rule="evenodd"
      d="M6 .45c-1.996 0-3.464.236-4.389 1.161-.925.925-1.16 2.393-1.16 4.39 0 1.995.235 3.463 1.16 4.388.925.925 2.393 1.161 4.39 1.161 1.995 0 3.463-.236 4.388-1.16.925-.926 1.161-2.394 1.161-4.39 0-1.996-.236-3.464-1.16-4.389C9.463.686 7.995.451 6 .451Zm4.345 3.734c-.126-.874-.366-1.428-.734-1.795-.575-.575-1.607-.839-3.61-.839-2.005 0-3.037.264-3.612.84-.367.366-.608.92-.733 1.794a3.52 3.52 0 0 1 .098-.05C2.62 3.7 3.972 3.45 6 3.45c2.028 0 3.381.25 4.246.683l.099.051ZM1.55 6c0 2.004.264 3.036.84 3.611.574.575 1.606.84 3.61.84 2.004 0 3.036-.265 3.611-.84.575-.575.84-1.607.84-3.61a.748.748 0 0 0-.127-.43c-.092-.138-.26-.3-.57-.454C9.12 4.8 7.972 4.55 6 4.55s-3.119.25-3.754.567c-.31.155-.478.316-.57.454A.748.748 0 0 0 1.55 6Z"
      clip-rule="evenodd"
    />
  </g>
  <defs>
    <clipPath id="prefix__clip0_637_26">
      <path fill="#fff" d="M0 0h12v12H0z" />
    </clipPath>
  </defs>
</svg>
