<svg
  xmlns="http://www.w3.org/2000/svg"
  width="12"
  height="12"
  fill="none"
  viewBox="0 0 12 12"
>
  <path
    fill="currentColor"
    fill-rule="evenodd"
    d="M3.857.556C4.427.482 5.133.45 6 .45c.867 0 1.573.032 2.143.106.566.075 1.035.196 1.407.4.39.212.657.508.815.888.087.208.135.43.16.66.104.024.204.058.3.106.277.138.456.36.56.623.097.24.132.516.149.789.016.274.016.6.016.964V5c0 .5-.027.975-.19 1.368-.186.444-.519.73-.984.899-.429.156-.986.22-1.67.251-.533.025-1.18.03-1.956.032v2.7a.75.75 0 1 1-1.5 0V7.2A.75.75 0 0 1 6 6.45c1.13 0 1.99 0 2.655-.03.674-.032 1.086-.093 1.345-.187.222-.08.295-.17.344-.288.07-.17.106-.445.106-.945 0-.38 0-.674-.014-.912a4.208 4.208 0 0 0-.008-.105 1.763 1.763 0 0 1-.878 1.062c-.372.203-.841.325-1.407.399-.57.075-1.276.106-2.143.106-.867 0-1.573-.031-2.143-.106-.566-.074-1.035-.196-1.406-.399a1.763 1.763 0 0 1-.816-.888C1.486 3.799 1.45 3.4 1.45 3s.036-.798.185-1.156c.158-.38.426-.676.816-.889.371-.203.84-.324 1.406-.399Zm-1.206 1.71c-.066.158-.1.384-.1.734s.034.577.1.734a.667.667 0 0 0 .327.346c.2.11.517.207 1.022.273.502.066 1.153.097 2 .097.848 0 1.499-.03 2-.097.506-.066.822-.163 1.022-.273.182-.1.27-.21.327-.346.066-.157.101-.384.101-.734s-.035-.576-.1-.734a.667.667 0 0 0-.328-.346c-.2-.11-.516-.207-1.022-.273-.501-.066-1.152-.097-2-.097-.847 0-1.498.031-2 .097-.505.066-.822.164-1.022.273-.181.1-.27.21-.327.346Z"
    clip-rule="evenodd"
  />
</svg>
