<svg
  xmlns="http://www.w3.org/2000/svg"
  width="12"
  height="12"
  fill="none"
  viewBox="0 0 12 12"
>
  <path
    fill="currentColor"
    fill-rule="evenodd"
    d="M4.657 2.45h2.686a1.698 1.698 0 0 0-.085-.204 1.206 1.206 0 0 0-.407-.476c-.181-.12-.447-.22-.851-.22-.404 0-.67.1-.851.22a1.206 1.206 0 0 0-.407.476 1.697 1.697 0 0 0-.085.204Zm3.826 0a2.952 2.952 0 0 0-.241-.696 2.305 2.305 0 0 0-.78-.9C7.08.602 6.595.45 6 .45S4.92.6 4.539.855a2.305 2.305 0 0 0-.78.899 2.952 2.952 0 0 0-.242.696H1v1.1h.95c0 1.728.032 3.077.127 4.125.096 1.048.259 1.851.556 2.446.315.63.774 1.01 1.38 1.213.564.188 1.241.216 1.987.216s1.423-.028 1.986-.216c.607-.202 1.066-.582 1.38-1.213.298-.595.461-1.398.557-2.446.095-1.048.126-2.397.127-4.125H11v-1.1H8.483Zm.467 1.1h-5.9c0 1.723.032 3.03.123 4.025.092 1.014.241 1.649.444 2.054.185.37.414.552.744.662.374.124.885.159 1.639.159s1.265-.035 1.639-.16c.33-.11.56-.292.744-.661.203-.405.352-1.04.444-2.054.09-.995.122-2.302.123-4.025ZM4.45 5v3.5h1.1V5h-1.1Zm2 3.5V5h1.1v3.5h-1.1Z"
    clip-rule="evenodd"
  />
</svg>
