<svg
  xmlns="http://www.w3.org/2000/svg"
  width="12"
  height="12"
  fill="none"
  viewBox="0 0 12 12"
>
  <g clip-path="url(#prefix__clip0_1907_880)">
    <path
      fill="currentColor"
      fill-rule="evenodd"
      d="M4.5.45c-.752 0-1.406.03-1.946.165-.561.14-1.03.401-1.374.874C.852 1.94.68 2.53.58 3.245.481 3.965.45 4.871.45 6s.031 2.036.13 2.755c.099.715.272 1.304.6 1.756.344.473.813.734 1.374.874.54.135 1.194.165 1.946.165.753 0 1.406-.03 1.946-.165.561-.14 1.03-.402 1.374-.874.328-.451.501-1.041.6-1.756.05-.357.082-.759.102-1.211.525-.015.984-.059 1.369-.173.55-.163.963-.473 1.226-1 .24-.48.338-1.108.385-1.868V4.5H12v-2h-.45v-1h-1.1v1H10v2h.4c-.047.7-.136 1.118-.267 1.379-.111.223-.26.35-.555.437-.246.073-.575.111-1.03.126.002-.143.002-.29.002-.442 0-1.129-.03-2.036-.13-2.755-.099-.715-.272-1.305-.6-1.756-.344-.473-.813-.734-1.374-.874C5.906.48 5.253.45 4.5.45ZM1.594 4.192c.019-.296.043-.56.076-.797.089-.644.228-1.023.4-1.26.156-.214.375-.359.751-.453.398-.1.932-.132 1.68-.132.747 0 1.28.033 1.678.132.377.094.595.239.751.454.172.236.311.615.4 1.26.033.236.058.5.076.796-.567-.13-1.469-.242-2.906-.242s-2.34.112-2.906.242Zm-.04 1.15c-.002.208-.004.427-.004.658 0 1.121.032 1.964.12 2.604.089.645.228 1.024.4 1.26.156.215.375.36.751.454.398.1.932.132 1.68.132.747 0 1.28-.033 1.678-.132.377-.094.595-.24.751-.454.172-.236.311-.615.4-1.26.089-.64.12-1.483.12-2.604 0-.231-.001-.45-.004-.658a3.003 3.003 0 0 0-.204-.058C6.8 5.174 5.974 5.05 4.5 5.05c-1.473 0-2.3.123-2.741.234-.082.02-.15.04-.205.058Z"
      clip-rule="evenodd"
    />
  </g>
  <defs>
    <clipPath id="prefix__clip0_1907_880">
      <path fill="#fff" d="M0 0h12v12H0z" />
    </clipPath>
  </defs>
</svg>
