<svg
  xmlns="http://www.w3.org/2000/svg"
  width="12"
  height="12"
  fill="none"
  viewBox="0 0 12 12"
>
  <path
    fill="#09101C"
    fill-rule="evenodd"
    d="M6 2.55c1.076 0 1.892.042 2.517.148.625.107 1.008.27 1.258.477.483.398.675 1.127.675 2.825 0 1.698-.191 2.427-.675 2.825-.25.206-.633.37-1.258.477-.625.106-1.441.148-2.517.148-1.076 0-1.892-.042-2.517-.148-.625-.107-1.008-.27-1.259-.477C1.741 8.427 1.55 7.698 1.55 6c0-1.698.191-2.427.674-2.825.25-.207.634-.37 1.259-.477C4.108 2.592 4.924 2.55 6 2.55ZM11.55 6c0-1.635-.142-2.906-1.076-3.675-.458-.377-1.054-.588-1.772-.711C7.982 1.491 7.09 1.45 6 1.45s-1.983.041-2.702.164c-.719.123-1.315.334-1.773.711C.592 3.094.45 4.365.45 6c0 1.635.142 2.906 1.075 3.675.458.377 1.054.588 1.773.71.719.123 1.61.165 2.702.165 1.09 0 1.983-.042 2.702-.164.718-.123 1.314-.334 1.772-.711.934-.77 1.076-2.04 1.076-3.675Zm-4.996-.727C6.5 5.38 6.5 5.52 6.5 5.8v.4c0 .28 0 .42.054.527a.5.5 0 0 0 .219.218C6.88 7 7.02 7 7.3 7h.9c.28 0 .42 0 .527-.055a.5.5 0 0 0 .218-.218C9 6.62 9 6.48 9 6.2v-.4c0-.28 0-.42-.055-.527a.5.5 0 0 0-.218-.219C8.62 5 8.48 5 8.2 5h-.9c-.28 0-.42 0-.527.054a.5.5 0 0 0-.219.219Z"
    clip-rule="evenodd"
  />
</svg>
