<svg
  xmlns="http://www.w3.org/2000/svg"
  width="12"
  height="12"
  fill="none"
  viewBox="0 0 12 12"
>
  <g clip-path="url(#prefix__clip0_637_14)">
    <path
      fill="#09101C"
      fill-rule="evenodd"
      d="M6 .45c-1.008 0-1.814.031-2.454.105-.634.073-1.146.192-1.542.39-.418.21-.704.505-.87.895C.98 2.203.95 2.607.95 3c0 .393.03.797.184 1.16.166.39.452.686.87.894.396.199.908.318 1.542.39.64.075 1.446.106 2.454.106 1.008 0 1.813-.031 2.453-.105.635-.073 1.146-.192 1.543-.39.417-.21.704-.505.87-.895.154-.363.184-.767.184-1.16 0-.393-.03-.797-.184-1.16-.166-.39-.453-.686-.87-.894-.397-.199-.908-.318-1.543-.39C7.813.48 7.008.45 6 .45ZM2.05 3c0-.357.032-.578.097-.73.053-.126.141-.237.349-.34.228-.115.592-.215 1.176-.282C4.251 1.58 5.008 1.55 6 1.55c.992 0 1.749.031 2.327.098.585.067.948.167 1.177.281.207.104.296.215.349.34.065.153.097.374.097.731s-.032.578-.097.73c-.053.126-.142.237-.35.34-.228.115-.591.215-1.176.282-.578.067-1.335.098-2.327.098s-1.75-.031-2.328-.098c-.584-.067-.948-.167-1.176-.281-.208-.104-.296-.215-.35-.34-.064-.153-.096-.374-.096-.731ZM6 6.45c-1.008 0-1.814.031-2.454.105-.634.073-1.146.192-1.542.39-.418.21-.704.505-.87.895C.98 8.203.95 8.607.95 9c0 .393.03.797.184 1.16.166.39.452.686.87.894.396.199.908.318 1.542.39.64.075 1.446.106 2.454.106 1.008 0 1.813-.031 2.453-.105.635-.073 1.146-.192 1.543-.39.417-.21.704-.505.87-.895.154-.363.184-.767.184-1.16 0-.393-.03-.797-.184-1.16-.166-.39-.453-.686-.87-.894-.397-.199-.908-.318-1.543-.39C7.813 6.48 7.008 6.45 6 6.45ZM2.05 9c0-.357.032-.578.097-.73.053-.126.141-.237.349-.34.228-.115.592-.215 1.176-.282C4.251 7.58 5.008 7.55 6 7.55c.992 0 1.749.031 2.327.098.585.067.948.167 1.177.281.207.104.296.215.349.34.065.153.097.374.097.731s-.032.578-.097.73c-.053.126-.142.237-.35.34-.228.115-.591.215-1.176.282-.578.067-1.335.098-2.327.098s-1.75-.031-2.328-.098c-.584-.067-.948-.167-1.176-.282-.208-.103-.296-.214-.35-.34-.064-.152-.096-.373-.096-.73Z"
      clip-rule="evenodd"
    />
  </g>
  <defs>
    <clipPath id="prefix__clip0_637_14">
      <path fill="#fff" d="M0 0h12v12H0z" />
    </clipPath>
  </defs>
</svg>
