<svg
  xmlns="http://www.w3.org/2000/svg"
  width="12"
  height="12"
  fill="none"
  viewBox="0 0 12 12"
>
  <path
    fill="#09101C"
    fill-rule="evenodd"
    d="M4.236 2.111c.515-.514 1.18-.66 1.764-.66.585 0 1.25.146 1.764.66.474.474.741 1.18.781 2.136.277.105.523.25.733.449.354.337.542.776.645 1.276.1.491.127 1.085.127 1.778 0 .693-.027 1.287-.127 1.778-.103.5-.29.939-.645 1.277-.352.334-.808.514-1.336.614-.525.1-1.17.131-1.942.131-.773 0-1.417-.03-1.942-.13-.528-.101-.984-.28-1.336-.615-.355-.338-.542-.777-.645-1.277-.1-.491-.127-1.085-.127-1.778 0-.693.027-1.287.127-1.778.103-.5.29-.939.645-1.276.21-.2.456-.344.733-.45.04-.955.308-1.661.781-2.135Zm2.75.778c.189.189.373.522.439 1.118C7.01 3.965 6.535 3.95 6 3.95c-.536 0-1.01.015-1.425.057.066-.596.25-.93.44-1.118.235-.235.57-.339.985-.339.415 0 .75.104.986.34ZM3.155 6.193c-.077.375-.105.875-.105 1.557 0 .682.028 1.182.105 1.558.075.367.188.57.326.7.14.134.368.252.783.33.419.08.978.112 1.736.112s1.317-.031 1.736-.111c.415-.08.642-.197.783-.33.138-.132.25-.334.326-.701.077-.376.105-.876.105-1.558s-.028-1.182-.105-1.557c-.075-.368-.188-.57-.326-.7-.14-.135-.368-.252-.783-.331-.419-.08-.978-.112-1.736-.112s-1.317.032-1.736.112c-.415.079-.642.196-.783.33-.138.131-.25.333-.326.7ZM7 6.95H5v1.1h2v-1.1Z"
    clip-rule="evenodd"
  />
</svg>
