<svg
  xmlns="http://www.w3.org/2000/svg"
  width="12"
  height="12"
  fill="none"
  viewBox="0 0 12 12"
>
  <g clip-path="url(#prefix__clip0_570_23)">
    <path
      fill="currentColor"
      fill-rule="evenodd"
      d="m6.72 1.924.046-.043c.16-.075.624-.215 1.474.276.85.49.96.962.976 1.138a3.365 3.365 0 0 1-.035.128.69.69 0 0 1-.033.062l-.39.675a11.29 11.29 0 0 0-1.227-.8 11.41 11.41 0 0 0-1.283-.653l.388-.672a.693.693 0 0 1 .036-.06.454.454 0 0 1 .048-.05Zm-1.567.479.53-.918c.067-.116.123-.208.276-.354.05-.05.095-.09.136-.124A.772.772 0 0 1 6.229.92c.488-.256 1.356-.412 2.56.284 1.206.696 1.505 1.525 1.528 2.076a.775.775 0 0 1-.01.16 2.21 2.21 0 0 1-.038.18c-.05.205-.102.299-.169.415l-.535.927c.032.047.062.094.09.141.18.309.254.628.223.957-.03.316-.152.6-.298.85-.145.252-.329.5-.587.684-.27.191-.584.286-.94.285a2.11 2.11 0 0 1-.168-.008l-.912 1.58c-.608 1.053-1.532 1.413-2.276 1.503a3.773 3.773 0 0 1-1.294-.074l-.026-.007-.008-.002-.003-.001h-.001l.15-.53-.383.396-.001-.002-.002-.002-.007-.006-.018-.019a3.446 3.446 0 0 1-.242-.284 3.772 3.772 0 0 1-.469-.8c-.294-.69-.444-1.67.164-2.722l.906-1.57a2.133 2.133 0 0 1-.105-.163 1.572 1.572 0 0 1-.224-.957c.03-.315.153-.599.298-.85.145-.252.329-.5.587-.683.27-.192.584-.287.941-.285.063 0 .128.003.193.01Zm-.88 3.723L3.51 7.451c-.393.679-.302 1.28-.105 1.74a2.673 2.673 0 0 0 .399.65l.107.016c.169.022.4.035.654.004.496-.06 1.064-.282 1.456-.96l.766-1.327c-.39-.161-.822-.383-1.306-.663a11.41 11.41 0 0 1-1.207-.785Zm-.758 4.215-.151.528-.133-.037-.098-.096.382-.395Zm.87-6.43c.104-.182.193-.281.271-.337a.477.477 0 0 1 .3-.081c.344.001.944.196 2.025.82 1.081.624 1.55 1.046 1.723 1.344a.477.477 0 0 1 .08.3c-.01.096-.051.222-.156.404-.105.181-.194.28-.272.336a.477.477 0 0 1-.299.082c-.345-.002-.945-.196-2.026-.82-1.081-.625-1.55-1.047-1.723-1.345a.477.477 0 0 1-.079-.3c.009-.095.05-.222.155-.403Z"
      clip-rule="evenodd"
    />
  </g>
  <defs>
    <clipPath id="prefix__clip0_570_23">
      <path fill="#fff" d="M0 0h12v12H0z" />
    </clipPath>
  </defs>
</svg>
