<svg
  xmlns="http://www.w3.org/2000/svg"
  width="12"
  height="12"
  fill="none"
  viewBox="0 0 12 12"
>
  <g clip-path="url(#prefix__clip0_6993_25)">
    <path
      fill="currentColor"
      fill-rule="evenodd"
      d="M4.721 1.122c-1.064.285-1.826.774-2.353 1.373a4.032 4.032 0 0 0-.917 1.89 5.412 5.412 0 0 0-.068 1.604 5.412 5.412 0 0 0 .117.69l.003.012.001.004v.002s.001.001.531-.145l-.53.146.145.527.528-.142 3.426-.918.986 3.677a4.524 4.524 0 0 0-.186.054c-.218.069-.431.16-.783.311l-.029.012c-.415.179-.587.251-.756.303a3.45 3.45 0 0 1-1.75.073c-.173-.038-.35-.096-.779-.239l-1.133-.378-.348 1.044 1.133.378.032.01c.388.13.623.208.86.26a4.55 4.55 0 0 0 2.308-.096c.232-.072.46-.17.836-.33l.03-.014c.39-.166.55-.234.71-.284a3.451 3.451 0 0 1 1.644-.105c.164.03.332.077.74.194l1.73.494.302-1.058-1.73-.494-.03-.009c-.369-.105-.592-.169-.817-.21a4.55 4.55 0 0 0-.887-.07L6.667 5.88l3.238-.867.528-.142-.138-.528-.532.138.532-.139V4.34l-.002-.004-.003-.013-.012-.041a5.426 5.426 0 0 0-.231-.614 5.412 5.412 0 0 0-.862-1.355 4.032 4.032 0 0 0-1.739-1.179C6.69.879 5.786.836 4.721 1.122Zm4.316 2.984L2.476 5.865c-.034-.34-.041-.791.054-1.263.096-.475.293-.96.663-1.38.368-.418.933-.802 1.813-1.038.88-.236 1.561-.185 2.089-.008.53.18.944.5 1.265.864.318.36.537.755.677 1.066Z"
      clip-rule="evenodd"
    />
  </g>
  <defs>
    <clipPath id="prefix__clip0_6993_25">
      <path fill="#fff" d="M0 0h12v12H0z" />
    </clipPath>
  </defs>
</svg>
