<svg width="20" height="20" viewBox="0 0 20 20" fill="none" xmlns="http://www.w3.org/2000/svg">
<g clip-path="url(#clip0_3847_110090)">
<path fill-rule="evenodd" clip-rule="evenodd" d="M0 10C0 2.5 2.5 0 10 0C17.5 0 20 2.5 20 10C20 17.5 17.5 20 10 20C2.5 20 0 17.5 0 10ZM7.39258 9.38427C7.57851 7.05657 9.25081 4.99902 11.5157 4.86961C12.9064 4.79035 14.2954 5.63904 14.3705 7.01721C14.4314 8.12633 13.742 8.93566 12.5438 9.24623C12.2607 9.3204 11.9707 9.36557 11.6783 9.38103C11.0415 9.41691 10.5238 9.36182 10.006 9.30672H10.006C9.48894 9.25169 8.97177 9.19665 8.33583 9.23221C8.0422 9.24708 7.75081 9.29097 7.46597 9.36324C7.45456 9.36674 7.44192 9.37025 7.42928 9.37375L7.42908 9.37381C7.4165 9.37729 7.40394 9.38078 7.39258 9.38427ZM12.6063 10.6144C12.4204 12.942 10.7481 14.9996 8.48319 15.129C7.0925 15.2083 5.70345 14.3596 5.62842 12.9814C5.57025 11.8723 6.25689 11.063 7.45512 10.7529C7.73822 10.6788 8.02824 10.6336 8.32063 10.6181C8.95657 10.5823 9.47374 10.6372 9.99084 10.6921C10.5086 10.7471 11.0263 10.802 11.6631 10.7659C11.9567 10.751 12.2481 10.7071 12.5329 10.6348L12.5599 10.6274C12.5757 10.6232 12.592 10.6188 12.6063 10.6144Z" fill="#A1ABBD"/>
</g>
<defs>
<clipPath id="clip0_3847_110090">
<rect width="20" height="20" fill="white"/>
</clipPath>
</defs>
</svg>
