<svg
  xmlns="http://www.w3.org/2000/svg"
  width="20"
  height="20"
  fill="none"
  viewBox="0 0 20 20"
>
  <path
    fill="currentColor"
    fill-rule="evenodd"
    d="M10.6 5.5a3.9 3.9 0 1 1 7.8 0 3.9 3.9 0 0 1-7.8 0ZM14.5.4a5.1 5.1 0 1 0 0 10.2 5.1 5.1 0 0 0 0-10.2ZM7.162 2.642a7.027 7.027 0 0 1 2.203-.248 5.962 5.962 0 0 0-.744 1.902 3.213 3.213 0 0 0-.187-.167c-.294-.242-.538-.346-.707-.39a6.86 6.86 0 0 0-.505.134c-.124.124-.284.336-.417.693-.305.813-.48 2.393.243 5.353l2.72-.729c.285.364.61.694.969.984l-.873.233 1.338 4.994a3.794 3.794 0 0 1 1.609.674c.66.48 1.509.622 2.29.382l1.722-.53.353 1.146-1.723.53a3.795 3.795 0 0 1-3.348-.558 2.595 2.595 0 0 0-2.534-.293l-1.228.518-.041.017c-.475.2-.767.323-1.07.404a4.601 4.601 0 0 1-1.94.098c-.31-.051-.613-.145-1.105-.296l-.043-.013-1.32-.407.352-1.146 1.32.406c.55.169.771.236.99.271.478.079.967.055 1.435-.071.214-.058.428-.147.957-.37l1.228-.517c.277-.116.563-.198.853-.246l-1.254-4.682-5.699 1.527-.622.167-.122-.633.589-.114-.59.113v-.008l-.004-.019a4.582 4.582 0 0 1-.047-.307 10.857 10.857 0 0 1-.075-.85c-.036-.703-.021-1.666.188-2.689.422-2.06 1.653-4.41 4.84-5.263ZM5.757 4.555c-.312 1.11-.354 2.856.325 5.623l-2.723.73a9.66 9.66 0 0 1 .14-2.762c.27-1.316.89-2.686 2.258-3.591ZM15.1 4.9H17v1.2h-1.9V8h-1.2V6.1H12V4.9h1.9V3h1.2v1.9Z"
    clip-rule="evenodd"
  />
</svg>
