<svg
  xmlns="http://www.w3.org/2000/svg"
  width="20"
  height="20"
  fill="none"
  viewBox="0 0 20 20"
>
  <path
    fill="currentColor"
    fill-rule="evenodd"
    d="M3.1 10c0-1.619.063-2.852.247-3.8.182-.942.474-1.547.89-1.963.415-.416 1.021-.708 1.963-.89.948-.184 2.18-.247 3.8-.247 1.619 0 2.852.063 3.8.247.942.182 1.547.474 1.963.89.416.416.708 1.021.89 1.963.184.948.247 2.181.247 3.8 0 1.619-.063 2.852-.247 3.8-.182.942-.474 1.547-.89 1.963-.416.416-1.021.708-1.963.89-.948.184-2.181.247-3.8.247-1.62 0-2.852-.063-3.8-.247-.942-.182-1.548-.474-1.963-.89-.416-.416-.708-1.021-.89-1.963-.184-.948-.247-2.181-.247-3.8ZM10 1.9c-1.631 0-2.96.062-4.028.269-1.074.208-1.937.573-2.584 1.22-.647.646-1.011 1.51-1.22 2.583C1.963 7.039 1.9 8.369 1.9 10c0 1.631.062 2.96.269 4.028.208 1.074.572 1.937 1.22 2.584.646.647 1.509 1.011 2.583 1.22 1.067.206 2.397.268 4.028.268 1.63 0 2.96-.062 4.028-.269 1.074-.208 1.937-.572 2.584-1.22.646-.646 1.011-1.51 1.22-2.583.206-1.067.268-2.397.268-4.028 0-1.631-.062-2.96-.269-4.028-.208-1.074-.573-1.937-1.22-2.584-.646-.646-1.51-1.011-2.583-1.22C12.961 1.963 11.631 1.9 10 1.9Zm1.256 9.982c-.312.793-1.13 1.274-2.17 1.274-1.34 0-2.224-.767-2.224-1.924 0-.624.273-1.144.793-1.469.468-.273 1.092-.442 2.12-.585l1.377-.169V8.84c0-.975-.377-1.391-1.209-1.391-.767 0-1.222.403-1.274 1.144H7.07c.104-1.391 1.196-2.249 2.873-2.249 1.924 0 2.782.819 2.782 2.704v1.937c0 .884.065 1.56.195 2.015h-1.56a9.11 9.11 0 0 1-.104-1.118ZM9.722 10.14c-.858.143-1.248.455-1.248 1.014 0 .546.416.897 1.105.897.962 0 1.612-.689 1.612-1.716v-.416l-1.469.221Z"
    clip-rule="evenodd"
  />
</svg>
