<svg
  xmlns="http://www.w3.org/2000/svg"
  width="20"
  height="20"
  fill="none"
  viewBox="0 0 20 20"
>
  <path
    fill="#09101C"
    d="M14.357 10c.023 2.422 2.12 3.227 2.143 3.238-.018.056-.335 1.148-1.105 2.275-.665.975-1.356 1.946-2.444 1.966-1.069.02-1.413-.635-2.635-.635-1.222 0-1.604.615-2.616.655-1.05.04-1.85-1.054-2.52-2.025-1.371-1.987-2.42-5.613-1.012-8.062.699-1.215 1.948-1.985 3.303-2.005 1.031-.02 2.005.695 2.635.695.63 0 1.813-.86 3.056-.733.521.022 1.982.21 2.92 1.587-.075.047-1.743 1.02-1.725 3.044Zm-2.009-5.945c.558-.677.933-1.618.83-2.555-.803.032-1.775.537-2.351 1.213-.517.598-.97 1.556-.847 2.475.895.069 1.81-.457 2.368-1.133Z"
  />
</svg>
