<svg
  xmlns="http://www.w3.org/2000/svg"
  width="20"
  height="20"
  fill="none"
  viewBox="0 0 20 20"
>
  <path
    fill="currentColor"
    fill-rule="evenodd"
    d="M7.96 2.9H10c2.098 0 3.324.57 3.983 1.462.618.838.617 1.82.617 2.353v.07c0 .532 0 1.515-.617 2.353-.18.244-.403.464-.674.654.712.25 1.227.607 1.59 1.043.702.845.701 1.846.7 2.382v.066c.001.536.002 1.537-.7 2.382-.729.877-2.073 1.435-4.4 1.435H7.96c-.439 0-.826 0-1.138-.042-.339-.046-.677-.15-.953-.427-.277-.276-.382-.615-.427-.954-.042-.312-.042-.7-.042-1.139V5.462c0-.439 0-.827.042-1.14.045-.338.15-.677.427-.953.276-.277.614-.381.953-.427.312-.042.7-.042 1.138-.042ZM10 4.3H7.998c-.494 0-.783.002-.99.03a.72.72 0 0 0-.147.03.722.722 0 0 0-.032.15c-.027.206-.029.496-.029.99v3.7H10c1.87 0 2.568-.503 2.857-.894.323-.438.343-.989.343-1.556 0-.567-.02-1.118-.343-1.556-.289-.39-.988-.894-2.857-.894Zm-3.131.045-.004.006c.002-.005.004-.007.004-.006Zm-.018.02-.006.004s.001-.002.006-.004ZM10.5 10.8H6.8v3.7c0 .494.002.784.03.99a.724.724 0 0 0 .031.15c.021.007.065.02.148.03.206.028.495.03.989.03H10.5c2.148 0 2.981-.52 3.322-.93.357-.43.378-.958.378-1.52s-.021-1.09-.378-1.52c-.34-.41-1.174-.93-3.322-.93Zm-3.655 4.831.006.004c-.005-.002-.007-.004-.006-.004Zm.02.018a.02.02 0 0 1 .004.006s-.002-.001-.004-.006Z"
    clip-rule="evenodd"
  />
</svg>
