<svg
  xmlns="http://www.w3.org/2000/svg"
  width="20"
  height="20"
  fill="none"
  viewBox="0 0 20 20"
>
  <path
    fill="currentColor"
    fill-rule="evenodd"
    d="M7.1 4.005V2.5H5.9v1.666c-1.027.192-1.855.516-2.485 1.072-.655.577-1.03 1.347-1.243 2.294-.21.936-.273 2.085-.273 3.468s.062 2.532.273 3.468c.213.947.589 1.717 1.243 2.294.646.57 1.501.897 2.565 1.086 1.062.19 2.387.252 4.02.252 1.632 0 2.957-.062 4.019-.252 1.063-.19 1.919-.515 2.565-1.086.654-.577 1.03-1.347 1.243-2.294.21-.936.272-2.085.272-3.468s-.061-2.532-.272-3.468c-.213-.947-.589-1.717-1.243-2.294-.63-.556-1.458-.88-2.484-1.072V2.5h-1.2v1.505c-.836-.077-1.798-.105-2.9-.105-1.103 0-2.065.028-2.9.105ZM3.298 8.013a6.54 6.54 0 0 1 .044-.217c.178-.787.459-1.298.867-1.659.416-.367 1.03-.635 1.981-.804.954-.17 2.192-.233 3.81-.233 1.617 0 2.855.063 3.808.233.952.17 1.566.437 1.982.804.408.36.69.872.866 1.659.016.07.031.143.045.217a8.893 8.893 0 0 0-.376-.097C15.2 7.652 13.276 7.4 10 7.4c-3.276 0-5.201.252-6.325.516a8.921 8.921 0 0 0-.377.097ZM3.144 9.33A26.822 26.822 0 0 0 3.099 11c0 1.367.064 2.405.244 3.204.177.787.458 1.298.866 1.659.416.367 1.03.634 1.982.804.953.17 2.19.233 3.808.233 1.618 0 2.856-.063 3.81-.233.951-.17 1.565-.437 1.981-.804.408-.36.69-.872.866-1.659.18-.799.243-1.837.243-3.204 0-.623-.013-1.177-.044-1.672a5.477 5.477 0 0 0-.805-.244C15.05 8.848 13.224 8.6 10 8.6c-3.224 0-5.049.248-6.05.484-.383.09-.64.177-.806.245Z"
    clip-rule="evenodd"
  />
</svg>
