<svg
  xmlns="http://www.w3.org/2000/svg"
  width="20"
  height="20"
  fill="none"
  viewBox="0 0 20 20"
>
  <path
    fill="currentColor"
    fill-rule="evenodd"
    d="m4.905 9.426 1-8 1.19.149-1 8-1.19-.15Zm-3.83-3.502 2.5 2.5.85-.848L2.347 5.5l2.076-2.076-.848-.848-2.5 2.5L.65 5.5l.425.424Zm9.85 0-2.5 2.5-.85-.848L9.652 5.5 7.576 3.424l.848-.848 2.5 2.5.424.424-.424.424ZM11 3.1c1.367 0 2.405.063 3.204.243.787.177 1.298.458 1.658.866.368.417.635 1.03.805 1.982.17.954.232 2.191.232 3.809 0 1.619-.063 2.852-.246 3.8-.183.942-.474 1.547-.89 1.963-.416.416-1.022.708-1.964.89-.948.184-2.18.247-3.8.247-1.617 0-2.855-.063-3.808-.233-.952-.17-1.566-.437-1.982-.804-.408-.36-.689-.872-.866-1.659-.18-.799-.243-1.837-.243-3.204H1.9c0 1.383.062 2.532.272 3.468.214.947.589 1.717 1.243 2.294.646.57 1.502.897 2.565 1.086 1.062.19 2.387.252 4.02.252 1.63 0 2.96-.062 4.028-.269 1.073-.208 1.937-.573 2.583-1.22.647-.646 1.012-1.51 1.22-2.583.207-1.068.268-2.397.268-4.028 0-1.633-.062-2.957-.251-4.02-.19-1.063-.516-1.918-1.086-2.565-.577-.654-1.347-1.03-2.295-1.243-.935-.21-2.084-.272-3.467-.272v1.2Z"
    clip-rule="evenodd"
  />
</svg>
