<svg
  xmlns="http://www.w3.org/2000/svg"
  width="20"
  height="20"
  fill="none"
  viewBox="0 0 20 20"
>
  <path
    fill="#000"
    fill-rule="evenodd"
    d="M8.335 5.028A14.84 14.84 0 0 0 8.56 3H7.358a13.435 13.435 0 0 1-.2 1.8c-.183.942-.475 1.547-.89 1.963-.417.416-1.022.708-1.964.89-.512.1-1.106.163-1.8.201v1.202a14.84 14.84 0 0 0 2.028-.225c1.074-.208 1.937-.573 2.584-1.22.646-.646 1.011-1.51 1.22-2.583Zm3.33 0A14.844 14.844 0 0 1 11.44 3h1.202c.038.694.102 1.288.2 1.8.183.942.475 1.547.89 1.963.417.416 1.022.708 1.964.89.512.1 1.107.163 1.8.201v1.202a14.84 14.84 0 0 1-2.028-.225c-1.074-.208-1.937-.573-2.584-1.22-.646-.646-1.011-1.51-1.22-2.583ZM11.44 17.5c.04-.761.11-1.435.225-2.028.208-1.074.573-1.937 1.22-2.584.646-.646 1.51-1.011 2.583-1.22a14.846 14.846 0 0 1 2.028-.224v1.202a13.43 13.43 0 0 0-1.8.2c-.942.184-1.547.475-1.963.89-.416.417-.708 1.022-.89 1.964-.1.512-.163 1.107-.201 1.8H11.44Zm-3.105-2.028c.115.593.185 1.267.225 2.028H7.358a13.433 13.433 0 0 0-.2-1.8c-.183-.942-.475-1.547-.89-1.963-.417-.416-1.022-.707-1.964-.89-.512-.1-1.106-.163-1.8-.201v-1.202c.761.04 1.435.11 2.028.225 1.074.208 1.937.573 2.584 1.22.646.646 1.011 1.51 1.22 2.583Z"
    clip-rule="evenodd"
  />
</svg>
