<svg
  xmlns="http://www.w3.org/2000/svg"
  width="20"
  height="20"
  fill="none"
  viewBox="0 0 20 20"
>
  <path
    fill="#09101C"
    fill-rule="evenodd"
    d="M8 1.4h-.032c-.348 0-.657 0-.901.027-.248.028-.561.094-.804.336-.242.243-.308.556-.336.804a4.7 4.7 0 0 0-.023.399 8.659 8.659 0 0 0-1.051.146c-.842.177-1.52.508-2.003 1.136-.465.606-.688 1.412-.807 2.402-.12.995-.142 2.263-.142 3.85 0 1.587.022 2.855.142 3.85.119.99.342 1.796.807 2.402.483.628 1.16.96 2.002 1.136.825.174 1.867.212 3.149.212.61 0 1.167-.009 1.671-.037a5.993 5.993 0 0 1-.678-1.174 39.18 39.18 0 0 1-.993.011c-1.264 0-2.182-.04-2.867-.179.098-1.088.408-1.688.776-2.032.455-.425 1.135-.59 2.091-.59.18 0 .35.007.511.02.026-.41.092-.806.195-1.189a7.644 7.644 0 0 0-.706-.03c-1.044 0-2.114.169-2.91.911-.587.549-.953 1.34-1.106 2.408a1.488 1.488 0 0 1-.183-.198c-.268-.349-.457-.895-.568-1.814-.11-.914-.133-2.113-.133-3.707 0-1.594.024-2.793.133-3.707.11-.92.3-1.465.568-1.814.25-.326.627-.552 1.298-.693.253-.053.539-.093.863-.12.071.37.206.731.413 1.042.342.513.891.892 1.624.892.733 0 1.282-.379 1.624-.892.207-.31.342-.672.413-1.043.325.028.612.068.865.121.67.141 1.048.367 1.298.693.268.349.458.895.568 1.814.064.537.099 1.171.117 1.927a5.984 5.984 0 0 1 1.195-.206 20.808 20.808 0 0 0-.12-1.864c-.12-.99-.343-1.796-.808-2.402-.483-.628-1.16-.96-2.002-1.136a8.663 8.663 0 0 0-1.054-.146 4.666 4.666 0 0 0-.023-.4c-.028-.247-.094-.56-.336-.803-.243-.242-.556-.308-.804-.336a8.891 8.891 0 0 0-.9-.027H8Zm1.116 10.45a6.023 6.023 0 0 1 1.441-1.873 2.6 2.6 0 1 0-1.442 1.873ZM7.1 3.5c0-.39 0-.631.02-.8.003-.03.006-.052.01-.07.018-.004.04-.007.07-.01.169-.02.41-.02.8-.02.39 0 .631 0 .8.02.03.003.052.006.07.01.004.018.007.04.01.07.02.169.02.41.02.8 0 .411-.105.788-.274 1.042-.158.237-.359.358-.626.358s-.468-.121-.626-.358C7.204 4.288 7.1 3.911 7.1 3.5Zm.901 4.6a1.4 1.4 0 1 0 0 2.8 1.4 1.4 0 0 0 0-2.8Zm6.499 2.5a3.9 3.9 0 1 0 0 7.8 3.9 3.9 0 0 0 0-7.8Zm-5.1 3.9a5.1 5.1 0 1 1 10.2 0 5.1 5.1 0 0 1-10.2 0Zm7.522-1.148-2.5 3-.385.463-.426-.426-1.5-1.5.778-.778 1.074 1.074 2.115-2.537.845.704Z"
    clip-rule="evenodd"
  />
</svg>
