<svg
  xmlns="http://www.w3.org/2000/svg"
  width="20"
  height="20"
  fill="none"
  viewBox="0 0 20 20"
>
  <path
    fill="#09101C"
    fill-rule="evenodd"
    d="M10 1.9c-1.495 0-2.701.03-3.65.197-.96.168-1.738.489-2.302 1.133-.552.631-.824 1.49-.97 2.564-.047.338-.081.706-.107 1.106H2v1.2h.92c-.015.58-.02 1.211-.02 1.9 0 .689.005 1.321.02 1.9H2v1.2h.97c.027.4.061.768.107 1.106.147 1.074.419 1.933.971 2.564.564.644 1.341.965 2.301 1.134.95.166 2.156.196 3.651.196 1.495 0 2.701-.03 3.65-.197.96-.168 1.738-.489 2.301-1.133.553-.631.825-1.49.972-2.564.147-1.077.177-2.459.177-4.206 0-1.747-.03-3.13-.177-4.206-.147-1.074-.419-1.933-.971-2.564-.564-.644-1.341-.965-2.301-1.133C12.7 1.93 11.495 1.9 10 1.9ZM5 13.1h-.827c.024.344.054.657.093.944.135.989.363 1.567.686 1.936.311.356.784.598 1.605.742.11.019.224.036.343.051V3.227c-.12.015-.234.032-.343.052-.821.144-1.294.385-1.605.741-.323.369-.55.948-.686 1.936-.039.287-.07.6-.093.944H5v1.2h-.88A73.98 73.98 0 0 0 4.1 10c0 .703.005 1.333.02 1.9H5v1.2Zm3.1-9.969V16.87c.551.024 1.18.031 1.9.031 1.505 0 2.611-.032 3.443-.178.821-.145 1.294-.386 1.606-.742.322-.369.55-.947.685-1.936.134-.986.166-2.291.166-4.044 0-1.753-.032-3.058-.166-4.044-.135-.988-.363-1.567-.685-1.936-.312-.356-.785-.597-1.606-.741C12.611 3.133 11.505 3.1 10 3.1c-.72 0-1.349.007-1.9.031Z"
    clip-rule="evenodd"
  />
</svg>
