<svg
  xmlns="http://www.w3.org/2000/svg"
  width="20"
  height="20"
  fill="none"
  viewBox="0 0 20 20"
>
  <path
    fill="currentColor"
    fill-rule="evenodd"
    d="M3.284 5.401C3.152 6.065 3.1 6.911 3.1 8c0 1.088.052 1.935.184 2.599.13.66.333 1.098.603 1.404.388.438 1.014.712 2.124.83.011.414.034.82.074 1.213-1.363-.118-2.399-.458-3.097-1.249-.459-.519-.726-1.18-.881-1.965C1.952 10.052 1.9 9.112 1.9 8c0-1.112.052-2.052.207-2.832.155-.784.422-1.446.88-1.965C3.912 2.158 5.422 1.9 7.5 1.9c2.078 0 3.59.258 4.512 1.303.426.482.687 1.087.846 1.8a24.548 24.548 0 0 0-1.233.013c-.127-.452-.298-.777-.512-1.019C10.577 3.391 9.588 3.1 7.5 3.1s-3.078.291-3.613.897c-.27.306-.472.744-.603 1.404ZM8.1 12c0-1.088.052-1.935.184-2.599.13-.66.333-1.098.603-1.404.536-.606 1.525-.897 3.613-.897s3.078.291 3.613.897c.27.306.472.744.603 1.404.132.664.184 1.51.184 2.599 0 1.088-.052 1.935-.184 2.599-.13.66-.333 1.098-.603 1.404-.535.605-1.525.897-3.613.897s-3.077-.292-3.613-.897c-.27-.306-.472-.744-.603-1.404-.132-.664-.184-1.511-.184-2.6Zm4.4-6.1c-2.079 0-3.59.258-4.512 1.303-.459.519-.726 1.18-.881 1.964-.155.78-.207 1.72-.207 2.833 0 1.112.052 2.052.207 2.832.155.784.422 1.446.88 1.965.924 1.044 2.434 1.303 4.513 1.303 2.079 0 3.59-.259 4.512-1.303.459-.519.726-1.18.881-1.965.155-.78.207-1.72.207-2.832 0-1.112-.052-2.052-.207-2.833-.155-.783-.422-1.445-.88-1.964C16.088 6.158 14.577 5.9 12.5 5.9Z"
    clip-rule="evenodd"
  />
</svg>
