<svg
  xmlns="http://www.w3.org/2000/svg"
  width="20"
  height="20"
  fill="none"
  viewBox="0 0 20 20"
>
  <path
    fill="currentColor"
    d="M5 13.5c0-1.5.5-2 5-2s5 .5 5 2-.5 2-5 2-5-.5-5-2Z"
    opacity=".12"
  />
  <path
    fill="currentColor"
    fill-rule="evenodd"
    d="M3.1 10c0-1.755.032-3.055.18-4.035.149-.978.4-1.548.77-1.916.367-.368.937-.62 1.915-.768.98-.149 2.28-.181 4.035-.181 1.755 0 3.055.032 4.035.18.978.149 1.547.4 1.916.77.368.368.62.937.768 1.915.149.98.18 2.28.18 4.035 0 1.755-.031 3.055-.18 4.035-.148.977-.4 1.547-.768 1.916-.369.368-.938.62-1.916.768-.98.149-2.28.18-4.035.18-1.755 0-3.055-.031-4.035-.18-.978-.148-1.548-.4-1.916-.768-.368-.369-.62-.938-.768-1.916-.149-.98-.181-2.28-.181-4.035ZM10 1.9c-1.745 0-3.133.03-4.215.194C4.7 2.26 3.832 2.57 3.2 3.201c-.632.631-.942 1.499-1.107 2.584C1.93 6.867 1.9 8.255 1.9 10c0 1.745.03 3.133.194 4.215.165 1.085.475 1.953 1.107 2.584.631.632 1.499.942 2.584 1.107 1.082.164 2.47.194 4.215.194 1.745 0 3.133-.03 4.215-.194 1.085-.165 1.953-.475 2.584-1.107.632-.632.942-1.5 1.107-2.584.164-1.083.194-2.47.194-4.215 0-1.745-.03-3.132-.194-4.215-.165-1.085-.475-1.953-1.107-2.584-.631-.632-1.5-.942-2.584-1.107C13.133 1.93 11.745 1.9 10 1.9Zm0 9.05c-1.132 0-2.029.031-2.736.105-.701.072-1.255.19-1.679.382-.444.202-.756.492-.937.89-.168.37-.198.782-.198 1.173s.03.803.198 1.173c.18.398.493.688.937.89.424.193.978.31 1.679.383.707.073 1.604.104 2.736.104 1.132 0 2.029-.031 2.736-.104.701-.073 1.255-.19 1.68-.383.444-.202.755-.492.936-.89.169-.37.198-.782.198-1.173s-.03-.803-.198-1.173c-.18-.398-.492-.688-.937-.89-.424-.193-.977-.31-1.679-.382-.707-.074-1.604-.105-2.736-.105ZM5.55 13.5c0-.359.033-.572.1-.718.053-.117.147-.233.39-.344.264-.12.679-.221 1.337-.29.652-.067 1.505-.098 2.623-.098 1.118 0 1.971.031 2.623.099.659.068 1.074.17 1.337.29.243.11.337.226.391.343.066.146.1.36.1.718 0 .359-.034.572-.1.718-.054.118-.148.233-.39.344-.264.12-.68.221-1.338.29-.652.067-1.505.098-2.623.098-1.118 0-1.971-.031-2.623-.098-.658-.069-1.073-.17-1.337-.29-.243-.11-.337-.226-.39-.344-.067-.146-.1-.359-.1-.718Z"
    clip-rule="evenodd"
  />
</svg>
