<svg
  xmlns="http://www.w3.org/2000/svg"
  width="20"
  height="20"
  fill="none"
  viewBox="0 0 20 20"
>
  <path
    fill="currentColor"
    fill-rule="evenodd"
    d="M4.1 10c0-1.62.055-2.86.215-3.815.16-.954.417-1.566.776-1.98.35-.404.855-.684 1.648-.862.786-.176 1.81-.24 3.163-.243.006.895.03 1.647.113 2.272.119.883.37 1.604.94 2.174.569.569 1.29.82 2.173.939.739.1 1.653.113 2.772.115V10c0 1.62-.055 2.859-.215 3.815-.16.954-.417 1.566-.776 1.98-.35.404-.855.684-1.648.862-.805.18-1.86.243-3.261.243s-2.456-.063-3.261-.243c-.793-.178-1.298-.458-1.648-.863-.359-.413-.616-1.025-.776-1.98C4.155 12.86 4.1 11.62 4.1 10Zm11.799-2.6c-.053-2.174-1.809-4.3-4.399-4.3h-.398c.006.875.028 1.558.102 2.112.101.75.29 1.176.599 1.485.31.31.735.498 1.485.599.656.088 1.49.101 2.61.104Zm-5.9-5.5c-1.415 0-2.58.062-3.522.272-.954.213-1.723.59-2.293 1.247-.562.65-.874 1.506-1.052 2.567C2.954 7.046 2.9 8.37 2.9 10c0 1.63.054 2.953.232 4.013.178 1.061.49 1.919 1.052 2.567.57.658 1.339 1.034 2.293 1.248.941.21 2.107.272 3.523.272 1.415 0 2.581-.062 3.523-.272.954-.214 1.723-.59 2.293-1.248.562-.648.874-1.506 1.052-2.567.178-1.06.232-2.383.232-4.013V7.5c0-2.792-2.23-5.6-5.6-5.6H10Zm-4 9.7h3v-1.2H6v1.2Zm0 2.5v-1.2h6v1.2H6Z"
    clip-rule="evenodd"
  />
</svg>
