<svg
  xmlns="http://www.w3.org/2000/svg"
  width="20"
  height="20"
  fill="none"
  viewBox="0 0 20 20"
>
  <path
    fill="currentColor"
    fill-rule="evenodd"
    d="M4.726 6.373A6.396 6.396 0 0 1 9.4 3.628v1.001l-1.669.834-.196.099-.087.202-.643 1.5-2.079-.891ZM3.6 10c0-.915.192-1.786.538-2.574l2.195.94-.385.898-.066.154.024.167.5 3.5.044.311.281.14 2 1 .869.435V11.7l1.38-1.84.458-.61-.702-.301-2.828-1.212.557-1.299 1.803-.901.332-.166V3.628a6.367 6.367 0 0 1 3.278 1.28l-1.84 2.208-.35.42.387.388 1.695 1.694-.807 1.614-.323.646.695.199 2.435.696A6.4 6.4 0 0 1 3.6 10Zm12.587 1.644A6.413 6.413 0 0 0 16.4 10c0-1.644-.62-3.143-1.639-4.277l-1.45 1.74 1.613 1.613.306.306-.194.386-.676 1.354 1.827.522ZM2.4 10a7.6 7.6 0 1 1 15.2 0 7.6 7.6 0 0 1-15.2 0Zm5.036-1.16-.318.742.431 3.022.85.425V11.3l.12-.16 1.043-1.39-2.126-.91Z"
    clip-rule="evenodd"
  />
</svg>
