<svg
  xmlns="http://www.w3.org/2000/svg"
  width="20"
  height="20"
  fill="none"
  viewBox="0 0 20 20"
>
  <path
    fill="#09101C"
    fill-rule="evenodd"
    d="M14.079 14.543c1.853-1.593 3.794-4.012 3.519-7.06-.133-1.72-.673-2.864-1.55-3.502-.869-.633-1.923-.662-2.844-.492-.927.17-1.816.56-2.457.893-.303.158-.559.306-.745.42a11.922 11.922 0 0 0-.733-.419c-.635-.333-1.515-.723-2.437-.894-.917-.17-1.967-.14-2.84.491-.878.636-1.433 1.776-1.59 3.5-.277 3.049 1.666 5.469 3.52 7.063a18.648 18.648 0 0 0 3.73 2.472l.068.033.02.009.005.003h.001l.254-.543-.253.544.253.117.253-.117-.253-.544.253.544.002-.002.006-.002.019-.009.068-.033.25-.126a18.64 18.64 0 0 0 3.48-2.346Zm-3.18-8.878 1.378.919.717.478-.77.385-3.036 1.518 2.509 1.075.553.237-.334.5L10.434 13h1.875l-.362.724-.707 1.413c.612-.383 1.34-.889 2.056-1.504 1.772-1.523 3.33-3.594 3.107-6.045l-.001-.008c-.118-1.539-.578-2.278-1.06-2.629-.49-.356-1.154-.424-1.92-.282-.761.14-1.53.47-2.122.778-.147.076-.282.15-.4.218ZM9.817 15.75a17.457 17.457 0 0 1-3.112-2.118c-1.771-1.522-3.33-3.593-3.106-6.044.14-1.539.608-2.282 1.098-2.636.495-.358 1.158-.424 1.917-.283.754.14 1.512.469 2.098.777.112.059.217.116.313.17l1.982 1.322-3.23 1.615-.964.482.991.425 2.948 1.263-1.667 2.5-.518.777h2.125l-.875 1.75Z"
    clip-rule="evenodd"
  />
</svg>
