<svg
  xmlns="http://www.w3.org/2000/svg"
  width="20"
  height="20"
  fill="none"
  viewBox="0 0 20 20"
>
  <path
    fill="#09101C"
    fill-rule="evenodd"
    d="M3.91 8.024a6.416 6.416 0 0 1 4.114-4.113l.333 2.331a4.115 4.115 0 0 0-2.115 2.115l-2.331-.333ZM3.65 9.2a6.463 6.463 0 0 0 0 1.602l2.277-.325a4.144 4.144 0 0 1 0-.952L3.65 9.2Zm2.592 2.444-2.331.333a6.416 6.416 0 0 0 4.113 4.113l.333-2.331a4.115 4.115 0 0 1-2.115-2.115ZM9.2 16.35a6.46 6.46 0 0 0 1.602 0l-.326-2.277a4.15 4.15 0 0 1-.951 0l-.325 2.277Zm2.444-2.592.333 2.331a6.415 6.415 0 0 0 4.113-4.113l-2.332-.333a4.116 4.116 0 0 1-2.114 2.115ZM16.4 10c0 .271-.017.539-.05.801l-2.278-.325a4.151 4.151 0 0 0 0-.952L16.35 9.2c.033.262.05.53.05.801Zm-.31-1.976-2.333.333a4.115 4.115 0 0 0-2.114-2.115l.333-2.331a6.416 6.416 0 0 1 4.113 4.113ZM9.523 5.927 9.199 3.65a6.462 6.462 0 0 1 1.602 0l-.326 2.277a4.14 4.14 0 0 0-.951 0ZM10 2.4a7.6 7.6 0 1 0 0 15.2 7.6 7.6 0 0 0 0-15.2ZM7.1 10a2.9 2.9 0 1 1 5.8 0 2.9 2.9 0 0 1-5.8 0Z"
    clip-rule="evenodd"
  />
</svg>
