<svg
  xmlns="http://www.w3.org/2000/svg"
  width="20"
  height="20"
  fill="none"
  viewBox="0 0 20 20"
>
  <path
    fill="#09101C"
    fill-rule="evenodd"
    d="M3.6 10c0-1.492.063-2.63.238-3.507.174-.87.45-1.432.836-1.819.387-.387.948-.662 1.819-.836C7.369 3.663 8.508 3.6 10 3.6V2.4c-1.508 0-2.744.062-3.743.262-1.004.2-1.818.55-2.431 1.164-.614.613-.964 1.426-1.164 2.431-.2.999-.262 2.235-.262 3.743s.062 2.744.262 3.743c.2 1.004.55 1.818 1.164 2.431.613.613 1.427.963 2.431 1.164.999.2 2.235.262 3.743.262s2.744-.062 3.743-.262c1.004-.2 1.818-.55 2.431-1.164.613-.613.963-1.427 1.164-2.431.2-.999.262-2.235.262-3.743h-1.2c0 1.492-.063 2.63-.238 3.507-.174.87-.45 1.432-.836 1.819-.387.386-.949.662-1.819.836-.876.175-2.015.238-3.507.238s-2.63-.063-3.507-.238c-.87-.174-1.432-.45-1.819-.836-.387-.387-.662-.948-.836-1.819C3.663 12.631 3.6 11.492 3.6 10Zm12.824-5.576L11.448 9.4H14v1.2H9.4V6h1.2v2.551l4.976-4.975.848.848Z"
    clip-rule="evenodd"
  />
</svg>
