<svg
  xmlns="http://www.w3.org/2000/svg"
  width="20"
  height="20"
  fill="none"
  viewBox="0 0 20 20"
>
  <path
    fill="currentColor"
    fill-rule="evenodd"
    d="M4.1 6.5c0-.493.037-.789.127-.993.072-.165.199-.317.524-.455.351-.15.902-.268 1.772-.345C7.385 4.631 8.515 4.6 10 4.6c1.485 0 2.615.031 3.477.107.87.077 1.42.195 1.772.345.325.138.451.29.524.455.09.204.127.5.127.993s-.038.789-.127.993c-.073.165-.199.317-.524.455-.351.15-.902.268-1.772.345-.862.076-1.992.107-3.477.107-1.485 0-2.615-.031-3.477-.107-.87-.077-1.42-.195-1.772-.345-.325-.138-.452-.29-.524-.455-.09-.204-.127-.5-.127-.993ZM10 3.4c-1.494 0-2.667.031-3.582.112-.907.08-1.61.21-2.138.436-.555.237-.936.585-1.152 1.077-.198.451-.228.968-.228 1.475 0 .507.03 1.024.228 1.475.216.492.597.84 1.152 1.077.529.225 1.231.357 2.138.436.915.08 2.088.112 3.582.112 1.494 0 2.666-.031 3.582-.112.907-.08 1.609-.21 2.137-.436.556-.237.937-.585 1.153-1.077.198-.451.228-.968.228-1.475 0-.507-.03-1.024-.228-1.475-.216-.492-.597-.84-1.153-1.077-.528-.225-1.23-.357-2.137-.436-.916-.08-2.088-.112-3.582-.112ZM4.1 13.5c0-.493.037-.789.127-.993.072-.165.199-.316.524-.455.351-.15.902-.268 1.772-.345.862-.076 1.992-.107 3.477-.107 1.485 0 2.615.031 3.477.107.87.077 1.42.195 1.772.345.325.139.451.29.524.455.09.204.127.5.127.993s-.038.789-.127.993c-.073.165-.199.317-.524.455-.351.15-.902.268-1.772.345-.862.076-1.992.107-3.477.107-1.485 0-2.615-.031-3.477-.107-.87-.077-1.42-.195-1.772-.345-.325-.138-.452-.29-.524-.455-.09-.204-.127-.5-.127-.993Zm5.9-3.1c-1.494 0-2.667.031-3.582.112-.907.08-1.61.21-2.138.436-.555.237-.936.585-1.152 1.077-.198.451-.228.968-.228 1.475 0 .507.03 1.024.228 1.475.216.492.597.84 1.152 1.077.529.225 1.231.357 2.138.436.915.08 2.088.112 3.582.112 1.494 0 2.666-.031 3.582-.112.907-.08 1.609-.21 2.137-.436.556-.236.937-.585 1.153-1.077.198-.451.228-.968.228-1.475 0-.507-.03-1.024-.228-1.475-.216-.492-.597-.84-1.153-1.077-.528-.225-1.23-.357-2.137-.436-.916-.08-2.088-.112-3.582-.112Z"
    clip-rule="evenodd"
  />
</svg>
