<svg
  xmlns="http://www.w3.org/2000/svg"
  width="20"
  height="20"
  fill="none"
  viewBox="0 0 20 20"
>
  <path
    fill="#09101C"
    fill-rule="evenodd"
    d="M4.266 5.956C4.132 6.942 4.1 8.246 4.1 10c0 1.753.032 3.058.167 4.044.134.988.362 1.567.685 1.936.311.356.784.597 1.605.741.832.146 1.938.179 3.443.179 1.505 0 2.611-.033 3.443-.179.822-.144 1.294-.385 1.606-.741.322-.369.55-.948.685-1.936.134-.986.166-2.291.166-4.044 0-1.753-.032-3.058-.166-4.044-.135-.989-.363-1.567-.685-1.936-.312-.356-.785-.598-1.606-.742C12.611 3.132 11.505 3.1 10 3.1c-1.505 0-2.611.032-3.443.178-.821.144-1.294.386-1.605.742-.323.369-.55.947-.686 1.936Zm2.084-3.86C7.299 1.93 8.505 1.9 10 1.9s2.701.03 3.65.196c.96.169 1.738.49 2.302 1.134.552.631.824 1.49.97 2.564.148 1.077.178 2.459.178 4.206 0 1.747-.03 3.129-.177 4.206-.147 1.074-.419 1.933-.971 2.564-.564.644-1.341.965-2.301 1.133-.95.167-2.156.197-3.65.197-1.496 0-2.702-.03-3.651-.197-.96-.168-1.738-.49-2.301-1.133-.553-.631-.825-1.49-.971-2.564C2.93 13.129 2.9 11.746 2.9 10c0-1.747.03-3.13.177-4.206.147-1.074.419-1.933.972-2.564.563-.644 1.34-.965 2.3-1.134Zm-.295 3.369C6.004 5.672 6 5.973 6 6.5c0 .526.004.828.055 1.035.023.09.049.135.07.162.022.026.059.06.14.096.188.083.526.145 1.158.176C8.041 8 8.87 8 10 8s1.96 0 2.577-.03c.632-.031.97-.093 1.157-.176a.355.355 0 0 0 .14-.096.405.405 0 0 0 .07-.162c.052-.207.056-.509.056-1.035 0-.527-.004-.828-.055-1.035a.405.405 0 0 0-.07-.162.355.355 0 0 0-.14-.096c-.188-.084-.526-.145-1.158-.177C11.959 5 11.13 5 10 5s-1.96 0-2.577.03c-.632.032-.97.093-1.157.177a.354.354 0 0 0-.14.096.405.405 0 0 0-.07.162ZM9.985 4h.03c1.112 0 1.966 0 2.611.032.633.031 1.14.094 1.515.26.199.09.373.212.51.381.136.169.216.357.264.55.085.341.085.77.085 1.224v.106c0 .454 0 .882-.085 1.224-.048.192-.128.381-.264.55-.137.169-.311.291-.51.38-.375.166-.882.23-1.515.261C11.981 9 11.127 9 10.016 9h-.031c-1.112 0-1.966 0-2.611-.032-.634-.031-1.14-.095-1.515-.261a1.345 1.345 0 0 1-.51-.38 1.393 1.393 0 0 1-.264-.55C5 7.435 5 7.007 5 6.553v-.106c0-.454 0-.883.085-1.225.048-.192.128-.38.264-.549.137-.17.311-.291.51-.38.375-.167.881-.23 1.515-.261C8.019 4 8.873 4 9.984 4Zm2.265 6.75a.75.75 0 1 0 1.5 0 .75.75 0 0 0-1.5 0ZM13 13.5a.75.75 0 1 1 0-1.5.75.75 0 0 1 0 1.5Zm-.75 1.25a.75.75 0 1 0 1.5 0 .75.75 0 0 0-1.5 0ZM10 11.5a.75.75 0 1 1 0-1.5.75.75 0 0 1 0 1.5Zm-.754 1.25a.75.75 0 1 0 1.5 0 .75.75 0 0 0-1.5 0ZM7 11.5A.75.75 0 1 1 7 10a.75.75 0 0 1 0 1.5Zm-.754 1.25a.75.75 0 1 0 1.5 0 .75.75 0 0 0-1.5 0ZM10 15.5a.75.75 0 1 1 0-1.5.75.75 0 0 1 0 1.5Zm-3.75-.75a.75.75 0 1 0 1.5 0 .75.75 0 0 0-1.5 0Z"
    clip-rule="evenodd"
  />
</svg>
