<svg
  xmlns="http://www.w3.org/2000/svg"
  width="20"
  height="20"
  fill="none"
  viewBox="0 0 20 20"
>
  <path
    fill="currentColor"
    fill-rule="evenodd"
    d="M10 4.6c1.617 0 2.857.063 3.814.226.956.163 1.575.418 1.993.762.817.673 1.094 1.877 1.094 4.412 0 2.534-.277 3.739-1.094 4.412-.418.344-1.037.599-1.993.762-.957.163-2.197.226-3.813.226-1.617 0-2.857-.063-3.814-.226-.956-.163-1.575-.418-1.992-.762C3.377 13.739 3.1 12.534 3.1 10c0-2.535.276-3.74 1.094-4.412.417-.344 1.036-.6 1.992-.762.957-.163 2.197-.226 3.814-.226Zm8.1 5.4c0-2.466-.223-4.261-1.53-5.338-.645-.531-1.495-.839-2.554-1.02-1.06-.18-2.382-.242-4.015-.242-1.634 0-2.956.062-4.015.243-1.06.18-1.91.488-2.554 1.019C2.124 5.739 1.9 7.534 1.9 10c0 2.465.223 4.26 1.53 5.338.645.531 1.496.838 2.555 1.019 1.059.18 2.381.243 4.015.243 1.633 0 2.955-.062 4.015-.243 1.059-.18 1.909-.488 2.554-1.019 1.308-1.077 1.53-2.873 1.53-5.338Zm-6.524-.883c-.076.184-.076.417-.076.883s0 .699.076.883a1 1 0 0 0 .541.54c.184.077.417.077.883.077h.5c.466 0 .699 0 .883-.076a1 1 0 0 0 .54-.541C15 10.699 15 10.466 15 10s0-.699-.076-.883a1 1 0 0 0-.541-.54c-.184-.077-.417-.077-.883-.077H13c-.466 0-.699 0-.883.076a1 1 0 0 0-.54.541Z"
    clip-rule="evenodd"
  />
</svg>
