<svg
  xmlns="http://www.w3.org/2000/svg"
  width="20"
  height="20"
  fill="none"
  viewBox="0 0 20 20"
>
  <g clip-path="url(#prefix__clip0_6894_32)">
    <path
      fill="currentColor"
      fill-rule="evenodd"
      d="M8.18 5.087c-.285.216-.519.449-1.058.988-1.233 1.233-2.111 2.2-2.695 3.006-.587.808-.838 1.402-.889 1.891-.048.466.079.917.432 1.464.364.564.94 1.186 1.738 1.983.797.798 1.42 1.374 1.983 1.738.547.354.997.48 1.464.432.488-.05 1.083-.302 1.89-.888.806-.585 1.774-1.463 3.006-2.696.54-.54.773-.774.989-1.058.644-.847 1.084-2.119 1.1-3.183.007-.359-.024-.618-.096-1.224a23.256 23.256 0 0 0-.31-1.989c-.06-.28-.121-.508-.181-.678-.046-.13-.08-.19-.09-.209-.019-.01-.08-.044-.209-.09-.17-.06-.399-.12-.678-.18a23.264 23.264 0 0 0-1.99-.31c-.605-.073-.864-.104-1.223-.098-1.064.017-2.336.457-3.184 1.101Zm-1.907.14.028-.028c.504-.504.796-.796 1.152-1.067 1.051-.8 2.57-1.325 3.891-1.346.447-.007.783.033 1.36.103l.025.003c.74.088 1.487.197 2.098.328.304.065.588.139.826.223.214.075.477.187.66.37.184.184.296.447.372.661.083.238.157.522.222.826.13.61.24 1.358.328 2.098l.003.025c.07.577.11.913.103 1.36-.021 1.32-.547 2.84-1.346 3.89-.27.356-.563.648-1.067 1.152l-.029.029c-1.242 1.243-2.264 2.176-3.148 2.818-.883.64-1.68 1.029-2.473 1.11-.815.085-1.536-.164-2.238-.617-.684-.442-1.387-1.104-2.18-1.897-.794-.793-1.456-1.497-1.898-2.181-.453-.702-.702-1.423-.618-2.238.082-.793.471-1.591 1.111-2.473.642-.885 1.575-1.906 2.818-3.149Zm5.056 2.228a.95.95 0 1 1 1.343 1.343.95.95 0 0 1-1.343-1.343Zm2.121-.778a2.05 2.05 0 1 0-2.9 2.9 2.05 2.05 0 0 0 2.9-2.9Z"
      clip-rule="evenodd"
    />
  </g>
  <defs>
    <clipPath id="prefix__clip0_6894_32">
      <path fill="#fff" d="M0 0h20v20H0z" />
    </clipPath>
  </defs>
</svg>
