<svg
  xmlns="http://www.w3.org/2000/svg"
  width="20"
  height="20"
  fill="none"
  viewBox="0 0 20 20"
>
  <path
    fill="currentColor"
    fill-rule="evenodd"
    d="M13.9 3v1.4h-2.4v1.2h5.363c-.1 1.457-.293 2.808-.575 3.972-.324 1.339-.757 2.387-1.268 3.068-.298.397-.6.777-.908 1.123a66.027 66.027 0 0 1-.188-.187c-.9-.9-1.52-2.12-1.836-3.694l-1.176.236c.351 1.759 1.064 3.207 2.164 4.306l.02.02.162.163-.016.013c-.615.513-1.19.78-1.742.78v1.2c.949 0 1.791-.458 2.51-1.058.048-.04.094-.079.14-.12.81.651 1.83 1.178 3.35 1.178v-1.2c-1.102 0-1.846-.335-2.496-.834.344-.385.67-.797.976-1.206.65-.868 1.133-2.095 1.474-3.506.345-1.42.558-3.072.645-4.824l.031-.63H15.1V3h-1.2Zm-9.374.9H7.474l.11.461L7 4.5l.584-.139v.002l.001.006.006.022.02.089.08.336a421.36 421.36 0 0 1 1.145 4.991 175.5 175.5 0 0 1 .862 4.07c.118.6.217 1.142.287 1.583.068.427.115.799.115 1.04H8.9c0-.134-.031-.418-.1-.852-.067-.42-.163-.946-.28-1.54-.148-.757-.328-1.619-.52-2.508H4c-.192.889-.372 1.751-.52 2.508-.117.594-.213 1.12-.28 1.54-.069.434-.1.718-.1.852H1.9c0-.241.047-.613.115-1.04.07-.441.169-.982.287-1.583.236-1.203.55-2.662.862-4.07a404.329 404.329 0 0 1 1.144-4.99l.08-.337.021-.089.005-.022.002-.006v-.001L5 4.5l-.584-.139.11-.461Zm3.138 6.168.074.332H4.262l.074-.332A402.767 402.767 0 0 1 5.475 5.1h1.05a418.63 418.63 0 0 1 1.14 4.968Z"
    clip-rule="evenodd"
  />
</svg>
