<svg
  xmlns="http://www.w3.org/2000/svg"
  width="20"
  height="20"
  fill="none"
  viewBox="0 0 20 20"
>
  <path
    fill="currentColor"
    fill-rule="evenodd"
    d="M10 2.4c-1.631 0-2.92.028-3.925.155-1 .127-1.803.36-2.4.835-.617.493-.927 1.176-1.09 2.01-.157.816-.185 1.845-.185 3.1 0 1.255.028 2.284.186 3.1.162.834.472 1.517 1.09 2.01.082.065.168.126.258.183a5.26 5.26 0 0 0-.906.29c-.534.235-1.128.666-1.128 1.417 0 .291.033.688.326 1.04.279.334.71.531 1.253.667 1.084.271 3.034.393 6.52.393 3.487 0 5.438-.122 6.521-.393.544-.136.975-.333 1.253-.666.294-.353.327-.75.327-1.04 0-.752-.595-1.183-1.128-1.417a5.26 5.26 0 0 0-.907-.29c.09-.058.177-.119.26-.184.616-.493.927-1.176 1.089-2.01.158-.816.186-1.845.186-3.1 0-1.255-.028-2.284-.186-3.1-.162-.834-.473-1.517-1.09-2.01-.596-.475-1.4-.708-2.399-.835C12.92 2.428 11.631 2.4 10 2.4ZM3.6 8.5c0-1.266.03-2.185.164-2.872.13-.67.344-1.047.66-1.3.337-.269.875-.465 1.801-.582.92-.117 2.14-.146 3.775-.146 1.635 0 2.854.03 3.775.146.926.117 1.464.313 1.8.582.317.253.53.63.66 1.3.134.687.165 1.606.165 2.872 0 1.266-.03 2.185-.164 2.872-.13.67-.344 1.047-.66 1.3-.337.269-.875.465-1.801.582-.92.117-2.14.146-3.775.146-1.636 0-2.855-.03-3.775-.146-.926-.117-1.464-.313-1.8-.582-.317-.253-.531-.63-.661-1.3C3.63 10.685 3.6 9.766 3.6 8.5Zm-.5 7c0-.015 0-.039.046-.088.056-.061.167-.143.365-.23.398-.175.997-.307 1.74-.399C6.725 14.601 8.56 14.6 10 14.6c1.44 0 3.275 0 4.749.183.742.092 1.342.224 1.74.4.197.086.309.168.365.229.046.05.046.073.046.088 0 .209-.03.25-.048.272-.035.041-.166.157-.623.271-.916.229-2.716.357-6.23.357-3.513 0-5.312-.128-6.229-.357-.456-.114-.587-.23-.622-.27-.018-.023-.048-.064-.048-.273Z"
    clip-rule="evenodd"
  />
</svg>
