<svg
  xmlns="http://www.w3.org/2000/svg"
  width="20"
  height="20"
  fill="none"
  viewBox="0 0 20 20"
>
  <path
    fill="currentColor"
    fill-rule="evenodd"
    d="m14.18 15.1 2.86 2.86.92-.92-15-15-.92.92 3.293 3.292a12.171 12.171 0 0 0-.388 2.405c-.06.845-.086 1.202-.125 1.402-.04.2-.115.427-.3.983L3.43 14.31l-.263.79H6.45a3.6 3.6 0 0 0 7.1 0h.63Zm-1.2-1.2L6.33 7.25c-.085.44-.15.935-.188 1.491l-.006.08c-.052.745-.083 1.186-.14 1.471-.056.285-.157.588-.322 1.083l-.015.046-.827 2.479h8.148Zm1.023-3.608a5.7 5.7 0 0 0 .174.633l1.895 1.895-.592-1.778c-.186-.556-.26-.782-.3-.983-.04-.2-.066-.557-.125-1.402-.175-2.504-.857-4.095-1.843-5.055C12.219 2.635 11.012 2.4 10 2.4c-1.001 0-2.191.23-3.178 1.17l.849.848C8.35 3.783 9.185 3.6 10 3.6c.833 0 1.686.19 2.375.862.696.677 1.32 1.936 1.483 4.28l.006.08c.052.744.083 1.185.14 1.47Zm-5.7 5.905a2.4 2.4 0 0 1-.627-1.097h4.648a2.4 2.4 0 0 1-4.021 1.097Z"
    clip-rule="evenodd"
  />
</svg>
