<svg
  xmlns="http://www.w3.org/2000/svg"
  width="20"
  height="20"
  fill="none"
  viewBox="0 0 20 20"
>
  <path
    fill="currentColor"
    fill-rule="evenodd"
    d="m5.4 2.114.823.329 2.29.916.024-.007a8.558 8.558 0 0 1 2.861-.389c1.773.068 3.972.76 5.601 3.204.814 1.22 1.107 2.377 1.053 3.434-.054 1.05-.448 1.949-.928 2.67a7.897 7.897 0 0 1-1.506 1.65c-.201.169-.38.303-.518.4V17.6h-3.533l-.136-.41-.364-1.09H9.432l-.363 1.09-.137.41H5.4v-1.516a4.63 4.63 0 0 0-3.507-4.492l-.039-.01-.454-.114V8.033l.454-.114.039-.01A4.63 4.63 0 0 0 5.4 3.416V2.114Zm8.791 11.372.007-.005.016-.01.017-.01c.03-.02.077-.05.136-.092.118-.082.288-.206.483-.369a6.7 6.7 0 0 0 1.276-1.395c.394-.593.688-1.286.728-2.065.04-.772-.167-1.677-.853-2.707-1.371-2.057-3.172-2.614-4.65-2.671a7.358 7.358 0 0 0-2.447.332 4.182 4.182 0 0 0-.176.06l-.006.003-.222.09-.223-.09-1.695-.678A5.83 5.83 0 0 1 2.6 8.952v1.596a5.83 5.83 0 0 1 4 5.536v.316h1.467l.364-1.09.136-.41H11.932l.137.41.363 1.09H13.9V13.66l.29-.174h.001ZM8.867 5.601c1.19-.27 2.44-.27 3.63 0l-.265 1.17a7.045 7.045 0 0 0-3.1 0l-.265-1.17ZM7 9.5a1 1 0 1 0 0-2 1 1 0 0 0 0 2Z"
    clip-rule="evenodd"
  />
</svg>
