<svg
  xmlns="http://www.w3.org/2000/svg"
  width="20"
  height="20"
  fill="none"
  viewBox="0 0 20 20"
>
  <path
    fill="currentColor"
    fill-rule="evenodd"
    d="M9.166 2.971a4.889 4.889 0 0 1 2.472.212 4.286 4.286 0 0 1 1.955 1.395c.489.634.757 1.39.757 2.172h-1.2c0-.503-.172-1.004-.507-1.44a3.087 3.087 0 0 0-1.41-.998 3.688 3.688 0 0 0-1.863-.158 3.359 3.359 0 0 0-1.629.751c-.435.378-.72.848-.834 1.345a2.25 2.25 0 0 0 .17 1.485 2.8 2.8 0 0 0 1.14 1.198A3.572 3.572 0 0 0 10 9.4h5v1.2h-1.842c.353.33.642.717.848 1.148a3.45 3.45 0 0 1 .257 2.27 3.742 3.742 0 0 1-1.218 1.983 4.558 4.558 0 0 1-2.211 1.028 4.888 4.888 0 0 1-2.472-.212 4.285 4.285 0 0 1-1.955-1.395 3.551 3.551 0 0 1-.757-2.172h1.2c0 .503.172 1.004.507 1.44.337.436.824.787 1.41.998.587.21 1.236.266 1.863.158a3.36 3.36 0 0 0 1.629-.751c.435-.378.72-.848.834-1.345a2.25 2.25 0 0 0-.17-1.485 2.8 2.8 0 0 0-1.14-1.198A3.572 3.572 0 0 0 10 10.6H5V9.4h1.843a3.835 3.835 0 0 1-.849-1.148 3.45 3.45 0 0 1-.257-2.27 3.742 3.742 0 0 1 1.218-1.983A4.558 4.558 0 0 1 9.166 2.97Z"
    clip-rule="evenodd"
  />
</svg>
