<svg
  xmlns="http://www.w3.org/2000/svg"
  width="20"
  height="20"
  fill="none"
  viewBox="0 0 20 20"
>
  <path
    fill="#09101C"
    fill-rule="evenodd"
    d="M8.91 2.157c.372-.141.761-.257 1.09-.257.329 0 .719.116 1.09.257.39.148.834.353 1.297.587a44.83 44.83 0 0 1 2.892 1.637l.043.026c.536.326 1 .608 1.323.884.348.297.64.677.64 1.209s-.292.912-.64 1.21c-.244.208-.568.42-.943.651l.206.11.01.006h.001c.157.084.293.156.4.22.111.065.227.141.329.24.606.593.64 1.58.075 2.212-.154.173-.382.314-.63.468l-.062.04-.33.204.207.11.01.006c.158.084.294.156.402.22a1.7 1.7 0 0 1 .328.24c.606.593.64 1.58.075 2.212-.154.173-.382.314-.63.468l-.062.04a55.074 55.074 0 0 1-3.24 1.89c-.545.288-1.07.544-1.53.73-.436.176-.891.323-1.26.323-.37 0-.826-.147-1.261-.323-.46-.186-.986-.442-1.53-.73a55.075 55.075 0 0 1-3.24-1.89l-.063-.04c-.248-.154-.475-.295-.63-.468a1.612 1.612 0 0 1 .075-2.211 1.7 1.7 0 0 1 .329-.241c.108-.064.243-.136.4-.22l.012-.006.206-.11-.33-.205-.062-.039c-.248-.154-.475-.295-.63-.468a1.612 1.612 0 0 1 .075-2.211 1.7 1.7 0 0 1 .329-.241c.108-.064.243-.136.4-.22l.012-.006.205-.11c-.374-.232-.699-.443-.943-.652-.348-.297-.64-.676-.64-1.209 0-.532.292-.912.64-1.21.324-.275.788-.557 1.324-.883l.042-.026c.92-.56 1.964-1.167 2.892-1.637.463-.234.907-.44 1.297-.587ZM5.495 12.583l-.838.446c-.172.092-.283.152-.365.2a.658.658 0 0 0-.101.068.412.412 0 0 0-.019.552s.004.005.019.017c.015.013.038.03.074.055.076.052.18.117.34.217a53.912 53.912 0 0 0 3.166 1.848 16.11 16.11 0 0 0 1.419.678c.43.174.695.236.81.236.115 0 .38-.062.81-.236.407-.164.893-.4 1.42-.678a53.907 53.907 0 0 0 3.505-2.065 1.12 1.12 0 0 0 .075-.055l.018-.017a.412.412 0 0 0-.018-.553s-.02-.018-.102-.067a10.654 10.654 0 0 0-.365-.2l-.837-.446c-.569.335-1.157.669-1.716.964-.544.288-1.07.544-1.53.73-.435.176-.89.323-1.26.323s-.825-.147-1.26-.323c-.46-.186-.986-.442-1.53-.73a42.979 42.979 0 0 1-1.715-.964Zm6.892-2.327a38.886 38.886 0 0 0 2.119-1.173l.837.446c.172.092.283.152.365.2.082.049.101.067.101.067.148.144.156.4.02.553l-.02.017a1.12 1.12 0 0 1-.074.055 53.907 53.907 0 0 1-3.505 2.065 16.11 16.11 0 0 1-1.42.678c-.43.174-.695.236-.81.236-.115 0-.38-.062-.81-.236a16.11 16.11 0 0 1-1.42-.678 53.912 53.912 0 0 1-3.505-2.065 1.093 1.093 0 0 1-.074-.055c-.015-.012-.02-.017-.019-.017a.412.412 0 0 1 .019-.553s.019-.018.1-.067c.083-.048.194-.108.366-.2l.838-.446c.705.416 1.443.83 2.118 1.173.463.234.907.44 1.297.588.372.14.761.256 1.09.256.329 0 .719-.116 1.09-.256.39-.149.834-.354 1.297-.588ZM8.155 3.815a43.694 43.694 0 0 0-2.81 1.59c-.591.36-.97.593-1.21.798-.22.187-.22.264-.22.295v.004c0 .03 0 .108.22.295.24.205.619.438 1.21.797a43.694 43.694 0 0 0 2.81 1.591c.444.225.846.41 1.18.536.355.135.57.179.665.179.096 0 .31-.044.665-.179.335-.127.737-.311 1.18-.536a43.706 43.706 0 0 0 2.81-1.59c.591-.36.97-.593 1.21-.798.22-.187.22-.264.22-.295v-.004c0-.03 0-.108-.22-.295-.24-.205-.619-.438-1.21-.797a43.706 43.706 0 0 0-2.81-1.591c-.444-.225-.846-.41-1.18-.536-.354-.135-.57-.179-.665-.179-.095 0-.31.044-.664.179a12.68 12.68 0 0 0-1.181.536Z"
    clip-rule="evenodd"
  />
</svg>
