<svg
  xmlns="http://www.w3.org/2000/svg"
  width="20"
  height="20"
  fill="none"
  viewBox="0 0 20 20"
>
  <path
    fill="currentColor"
    fill-rule="evenodd"
    d="M10.9 8.887 7.048 9.92c-.724-2.96-.548-4.54-.243-5.354.133-.356.293-.568.417-.692a6.864 6.864 0 0 1 .504-.135c.17.045.414.149.708.39.67.553 1.612 1.833 2.466 4.76Zm.966-.258 2.723-.73a9.658 9.658 0 0 0-1.502-2.322c-.891-1.005-2.114-1.881-3.751-1.981.825.805 1.734 2.296 2.53 5.033ZM5.757 4.555c-.312 1.11-.354 2.856.325 5.623l-2.723.73a9.66 9.66 0 0 1 .14-2.762c.27-1.316.89-2.686 2.258-3.591Zm10.218 3.549-.567.197.567-.197.21.61-.622.166-5.699 1.527 1.338 4.994a3.791 3.791 0 0 1 1.609.674c.66.48 1.509.622 2.29.382l1.722-.53.353 1.146-1.723.53a3.795 3.795 0 0 1-3.348-.558 2.595 2.595 0 0 0-2.534-.293l-1.228.518-.041.017c-.475.2-.767.323-1.07.404a4.6 4.6 0 0 1-1.94.098c-.31-.051-.613-.145-1.105-.296l-.043-.013-1.32-.407.352-1.146 1.32.406c.55.169.771.236.99.271.478.079.967.055 1.435-.071.214-.058.428-.147.957-.37l1.228-.517c.277-.116.563-.198.853-.246l-1.254-4.682-5.699 1.527-.622.167-.122-.633.589-.114-.59.113v-.008l-.004-.02a7.542 7.542 0 0 1-.046-.307 10.857 10.857 0 0 1-.076-.848c-.036-.704-.021-1.667.188-2.69.422-2.06 1.653-4.41 4.84-5.263 3.186-.854 5.427.566 6.822 2.139a10.86 10.86 0 0 1 1.508 2.234 10.886 10.886 0 0 1 .473 1.063l.006.018.002.005v.002Z"
    clip-rule="evenodd"
  />
</svg>
