<svg
  xmlns="http://www.w3.org/2000/svg"
  width="20"
  height="20"
  fill="none"
  viewBox="0 0 20 20"
>
  <path
    fill="currentColor"
    fill-rule="evenodd"
    d="M13.157 10.715c.25.385.466.764.645 1.13 1.066-.633 1.915-1.261 2.553-1.85l-.663-1.149a15.54 15.54 0 0 1-2.535 1.87Zm1.09 2.26c.09.316.145.62.159.91.025.544-.098 1.097-.502 1.502l-1.768 1.767c-.762.762-1.95.665-3.106.18-1.2-.504-2.61-1.512-4.107-3.008C3.428 12.83 2.42 11.42 1.916 10.22c-.486-1.157-.583-2.345.179-3.106L3.85 5.358l.013-.012c.405-.405.957-.528 1.502-.502.544.025 1.147.2 1.762.474.5.222 1.027.518 1.565.878a17.33 17.33 0 0 1 1.132-.713c1.602-.925 3.219-1.527 4.553-1.737.665-.105 1.293-.118 1.825-.002.532.116 1.035.378 1.32.874h.001l1.25 2.165c.539.933.138 2.055-.63 3.046-.788 1.016-2.102 2.102-3.897 3.147ZM9.718 6.954c.227-.146.462-.29.705-.43 1.507-.871 2.985-1.41 4.14-1.592.58-.091 1.046-.088 1.383-.015.336.074.478.2.537.302.059.102.097.287-.008.615-.105.328-.335.734-.704 1.19-.714.882-1.87 1.86-3.314 2.712a16.895 16.895 0 0 0-1.383-1.561c-.444-.444-.9-.853-1.356-1.22Zm7.49 2.121c.681-.887.675-1.43.525-1.691l-.355-.615a6.053 6.053 0 0 1-.674 1.01 8.496 8.496 0 0 1-.144.173l.648 1.123ZM4.711 6.194c.084-.083.253-.168.597-.152.344.017.795.134 1.332.372 1.068.475 2.356 1.378 3.587 2.609 1.23 1.23 2.133 2.518 2.608 3.587.238.536.356.987.372 1.331.016.344-.068.514-.152.597-.083.083-.253.168-.596.152-.344-.016-.796-.134-1.332-.372-1.069-.475-2.357-1.378-3.587-2.608-1.231-1.231-2.133-2.519-2.608-3.588-.239-.536-.356-.987-.373-1.331-.015-.336.065-.506.147-.591l.005-.006ZM3.445 7.46l-.501.502c-.213.213-.36.736.068 1.77l.917-.917a8.383 8.383 0 0 1-.094-.205 6.059 6.059 0 0 1-.39-1.15Zm2.327 6.017c-.958-.958-1.676-1.85-2.172-2.636l.937-.937a15.74 15.74 0 0 0 2.154 2.654c.338.338.683.656 1.03.95l-.926.926c-.33-.287-.672-.606-1.023-.957Zm1.965 1.713c.23.17.455.323.671.46l.937-.937a13.325 13.325 0 0 1-.674-.458l-.934.935Zm3.55 1.116c-.213.213-.736.36-1.77-.069l.918-.917c.069.033.137.064.205.094.392.175.78.309 1.15.39l-.503.502Z"
    clip-rule="evenodd"
  />
</svg>
