<svg
  xmlns="http://www.w3.org/2000/svg"
  width="20"
  height="20"
  fill="none"
  viewBox="0 0 20 20"
>
  <path
    fill="currentColor"
    fill-rule="evenodd"
    d="M9.5 2c5.33 0 6.962.673 7.377 4.5H2.123C2.538 2.673 4.17 2 9.5 2ZM2 9.5v-.08.16-.08Zm8 2c-4.5 0-5 .5-5 2s.5 2 5 2 5-.5 5-2-.5-2-5-2Z"
    clip-rule="evenodd"
    opacity=".12"
  />
  <path
    fill="currentColor"
    fill-rule="evenodd"
    d="M3.15 7.363C3.11 8.105 3.1 8.975 3.1 10c0 1.755.032 3.055.18 4.035.149.978.4 1.547.77 1.916.367.368.937.62 1.915.768.98.149 2.28.18 4.035.18 1.755 0 3.055-.031 4.035-.18.978-.148 1.547-.4 1.916-.768.368-.369.62-.939.768-1.916.149-.98.18-2.28.18-4.035 0-1.025-.01-1.895-.049-2.637a7.65 7.65 0 0 0-.98-.277C14.798 6.848 12.969 6.6 10 6.6c-2.968 0-4.798.248-5.87.486-.456.101-.773.2-.98.277Zm.116-1.297c.176-.05.376-.1.604-.152C5.048 5.653 6.969 5.4 10 5.4c3.032 0 4.952.253 6.13.514.228.051.428.102.604.152a8.593 8.593 0 0 0-.015-.101c-.148-.978-.4-1.547-.768-1.916-.369-.368-.938-.62-1.916-.768-.98-.149-2.28-.181-4.035-.181-1.755 0-3.055.032-4.035.18-.978.149-1.548.4-1.916.77-.368.367-.62.937-.768 1.915l-.015.101Zm2.519-3.972C6.867 1.93 8.255 1.9 10 1.9c1.745 0 3.133.03 4.215.194 1.085.165 1.953.475 2.584 1.107.632.631.942 1.5 1.107 2.584.164 1.083.194 2.47.194 4.215 0 1.745-.03 3.132-.194 4.215-.165 1.085-.475 1.952-1.107 2.584-.631.632-1.5.942-2.584 1.107-1.082.164-2.47.194-4.215.194-1.745 0-3.133-.03-4.215-.194C4.7 17.74 3.832 17.43 3.2 16.799c-.632-.631-.942-1.5-1.107-2.584C1.93 13.133 1.9 11.745 1.9 10c0-1.745.03-3.133.194-4.215C2.26 4.7 2.57 3.832 3.201 3.2c.631-.632 1.499-.942 2.584-1.107Zm1.479 8.96c.707-.073 1.604-.104 2.736-.104 1.132 0 2.029.031 2.736.105.701.072 1.255.19 1.68.382.444.202.755.492.936.89.169.37.198.782.198 1.173s-.03.803-.198 1.173c-.18.398-.492.688-.937.89-.424.193-.977.31-1.679.383-.707.073-1.604.104-2.736.104-1.132 0-2.029-.031-2.736-.104-.701-.073-1.255-.19-1.679-.383-.444-.202-.756-.492-.937-.89-.168-.37-.198-.782-.198-1.173s.03-.803.198-1.173c.18-.398.493-.688.937-.89.424-.193.978-.31 1.679-.382Zm-1.615 1.728c-.066.146-.099.36-.099.718 0 .359.033.572.1.718.053.118.147.233.39.344.264.12.679.221 1.337.29.652.067 1.505.098 2.623.098 1.118 0 1.971-.031 2.623-.098.659-.069 1.074-.17 1.337-.29.243-.11.337-.226.391-.344.066-.146.1-.359.1-.718s-.034-.572-.1-.718c-.054-.117-.148-.233-.39-.344-.264-.12-.68-.221-1.338-.29-.652-.067-1.505-.098-2.623-.098-1.118 0-1.971.031-2.623.099-.658.068-1.073.17-1.337.29-.243.11-.337.226-.39.343Z"
    clip-rule="evenodd"
  />
</svg>
