<svg width="12" height="12" viewBox="0 0 12 12" fill="none" xmlns="http://www.w3.org/2000/svg">
<path fill-rule="evenodd" clip-rule="evenodd" d="M6.00033 1.06699C6.00033 1.28791 5.82124 1.46699 5.60033 1.46699L2.80033 1.46699C2.06395 1.46699 1.46699 2.06395 1.46699 2.80033L1.46699 9.20033C1.46699 9.9367 2.06395 10.5337 2.80033 10.5337H9.20033C9.9367 10.5337 10.5337 9.9367 10.5337 9.20033V6.40033C10.5337 6.17941 10.7127 6.00033 10.9337 6.00033C11.1546 6.00033 11.3337 6.17941 11.3337 6.40033V9.20033C11.3337 10.3785 10.3785 11.3337 9.20033 11.3337H2.80033C1.62212 11.3337 0.666992 10.3785 0.666992 9.20033V2.80033C0.666992 1.62212 1.62212 0.666992 2.80033 0.666992H5.60033C5.82124 0.666992 6.00033 0.846079 6.00033 1.06699ZM10.3567 0.668137C10.9304 0.665134 10.9333 0.665119 11.0322 0.706123C11.1509 0.755053 11.2453 0.849114 11.2946 0.96763C11.3014 0.983931 11.3071 0.997483 11.3118 1.01136C11.3535 1.13393 11.3206 1.2818 11.3319 3.5735C11.3319 3.70194 11.2809 3.82511 11.1901 3.91593C11.0993 4.00675 10.9761 4.05777 10.8477 4.05777C10.7193 4.05777 10.5962 4.00675 10.5054 3.91593C10.4145 3.82511 10.3635 3.70194 10.3635 3.5735V2.32165L4.83279 7.85248C4.78813 7.89874 4.7347 7.93563 4.67563 7.96101C4.61655 7.98639 4.55302 7.99975 4.48873 8.00031C4.42444 8.00087 4.36068 7.98861 4.30117 7.96426C4.24167 7.93991 4.1876 7.90395 4.14214 7.85849C4.09668 7.81302 4.06073 7.75895 4.03638 7.69943C4.01204 7.63991 3.99978 7.57615 4.00034 7.51185C4.0009 7.44754 4.01426 7.384 4.03964 7.32491C4.06501 7.26583 4.1019 7.21239 4.14814 7.16772L9.67889 1.63641H8.42676C8.29834 1.63641 8.17519 1.58539 8.08438 1.49457C7.99358 1.40375 7.94257 1.28057 7.94257 1.15214C7.94257 1.0237 7.99358 0.900524 8.08438 0.809705C8.17519 0.718887 8.29834 0.667865 8.42676 0.667865C9.40761 0.673105 9.99539 0.670028 10.3567 0.668137Z" fill="#4360DF"/>
</svg>
