<svg width="120" height="45" viewBox="0 0 120 45" fill="none" xmlns="http://www.w3.org/2000/svg">
<path fill-rule="evenodd" clip-rule="evenodd" d="M22.667 0C10.1481 0 0 10.0736 0 22.5C0 34.9264 10.1481 45 22.667 45C35.1859 45 45.3349 34.9264 45.3349 22.5C45.3349 10.0736 35.1859 0 22.667 0Z" fill="#4360DF"/>
<path d="M22.7854 21.5139C23.9287 21.6312 25.0711 21.7485 26.4762 21.6714C30.2822 21.4616 32.5881 19.5299 32.4244 16.6426C32.2573 13.7048 29.19 11.8951 26.1211 12.0647C21.1192 12.3395 17.4406 16.682 17.0271 21.6432C17.7065 21.4865 18.4217 21.3917 19.0954 21.3548C20.5006 21.2776 21.643 21.3949 22.7854 21.5131V21.5139ZM12.9811 27.936C13.1384 30.6288 16.0444 32.2882 18.9519 32.1323C23.6919 31.8799 27.176 27.8998 27.5676 23.3516C26.9238 23.4963 26.2468 23.5823 25.6079 23.6168C24.2773 23.6875 23.1949 23.579 22.1117 23.4722C21.0292 23.3637 19.9468 23.256 18.6154 23.3275C15.0098 23.5196 12.8262 25.2898 12.9803 27.9368L12.9811 27.936Z" fill="white"/>
<path d="M54.1562 26.2366H57.4384C57.4384 26.7871 57.5949 27.1824 57.9087 27.4227C58.2225 27.6629 58.6246 27.7827 59.1168 27.7827C59.5222 27.7827 59.8546 27.7087 60.1108 27.5601C60.3744 27.405 60.5057 27.1543 60.5057 26.8079C60.5057 26.603 60.449 26.4375 60.3354 26.3097C60.2284 26.1763 60.0606 26.0598 59.8327 25.961C59.5486 25.8344 59.2557 25.728 58.9562 25.6428C58.5995 25.5367 58.1722 25.4025 57.6735 25.241C57.2458 25.1069 56.8216 24.9619 56.4014 24.8063C56.0311 24.663 55.6823 24.4705 55.3644 24.2341C55.0701 24.0139 54.8291 23.7314 54.659 23.4072C54.4952 23.0826 54.4133 22.68 54.4133 22.1995C54.4133 21.649 54.5235 21.1725 54.7449 20.7691C54.9663 20.3659 55.2857 20.0237 55.6741 19.7735C56.0738 19.5123 56.5514 19.3187 57.1068 19.1909C57.7095 19.0516 58.3268 18.9841 58.9457 18.99C59.7646 18.99 60.47 19.0816 61.0619 19.2656C61.6538 19.4488 62.1379 19.6996 62.5157 20.0178C62.8935 20.3352 63.1717 20.7096 63.3492 21.1404C63.5349 21.5711 63.6273 22.0339 63.6273 22.5281H60.3241C60.3241 22.0974 60.2106 21.7615 59.9819 21.5221C59.7614 21.281 59.4225 21.1612 58.9668 21.1612C58.6181 21.1612 58.3181 21.2392 58.0692 21.3943C57.8195 21.5429 57.6946 21.7687 57.6946 22.0725C57.6946 22.2774 57.7514 22.4437 57.8657 22.5707C57.9873 22.6912 58.1617 22.7997 58.3895 22.8994C58.6173 22.9982 58.8995 23.1003 59.2344 23.2063C59.5692 23.3052 59.9536 23.4249 60.389 23.5663C60.8592 23.6933 61.2971 23.8347 61.7033 23.9898C62.1095 24.1457 62.4654 24.3362 62.7719 24.562C63.0857 24.7813 63.3314 25.0602 63.5098 25.3993C63.6954 25.7312 63.7879 26.1546 63.7879 26.6705C63.7879 27.278 63.6598 27.7971 63.4027 28.2279C63.1463 28.6515 62.7906 29.0077 62.3657 29.2661C61.9384 29.5345 61.4398 29.7249 60.8698 29.8382C60.2998 29.9587 59.7006 30.0182 59.0738 30.0182C57.513 30.0182 56.3017 29.6968 55.439 29.0539C54.5844 28.4046 54.1562 27.4661 54.1562 26.2366ZM64.6214 21.7446V19.2761H66.2787V16.1719H69.6135V19.2761H72.0184V21.7446H69.6135V25.4837C69.6135 25.8726 69.6492 26.1828 69.7206 26.4158C69.7919 26.6424 69.8908 26.8224 70.0198 26.9566C70.1552 27.0836 70.3157 27.1687 70.5006 27.2105C70.6935 27.2459 70.9068 27.2636 71.1419 27.2636C71.2846 27.2636 71.4662 27.2604 71.6876 27.2531C71.9081 27.2395 72.1011 27.2178 72.2641 27.1888V29.7321C72.0152 29.7747 71.7014 29.8133 71.3235 29.8487C70.8865 29.8868 70.4479 29.9045 70.0092 29.9017C69.6168 29.9017 69.2041 29.8736 68.7687 29.8173C68.3371 29.7619 67.9239 29.6097 67.5606 29.3721C67.1908 29.1311 66.8844 28.7646 66.6419 28.2704C66.3995 27.769 66.2787 27.0836 66.2787 26.2149V21.7446H64.6214ZM73.2265 24.4985C73.2265 23.715 73.3514 22.9878 73.6003 22.3168C73.8368 21.6782 74.1964 21.0914 74.6592 20.5891C75.1098 20.1061 75.6506 19.7142 76.2517 19.4352C76.8673 19.1503 77.5393 19.0054 78.2187 19.0109C79.0092 19.0109 79.6944 19.1772 80.2708 19.5091C80.8546 19.841 81.2933 20.2612 81.586 20.7699V19.2753H84.9314V29.7321H81.586V28.2592C81.3217 28.7397 80.8976 29.1496 80.313 29.4887C79.7292 29.8278 79.0311 29.9973 78.2187 29.9973C77.5198 29.9973 76.8646 29.8559 76.2517 29.573C75.6505 29.2938 75.1097 28.9016 74.6592 28.4183C74.1979 27.9113 73.8385 27.3216 73.6003 26.681C73.346 25.9812 73.2194 25.2422 73.2265 24.4985ZM76.5508 24.4985C76.5508 24.8593 76.6117 25.2056 76.7325 25.5367C76.8606 25.8621 77.0325 26.1442 77.2457 26.3845C77.4671 26.6175 77.7306 26.8079 78.0371 26.9566C78.3435 27.098 78.6857 27.1688 79.0627 27.1688C79.4406 27.1688 79.7827 27.098 80.0892 26.9566C80.3879 26.8189 80.6565 26.6245 80.8798 26.3845C81.1011 26.1442 81.2722 25.8621 81.393 25.5367C81.5211 25.2121 81.586 24.8657 81.586 24.4985C81.586 24.1385 81.5211 23.7994 81.393 23.482C81.276 23.1705 81.102 22.8831 80.8798 22.6342C80.6653 22.3864 80.3992 22.1877 80.0998 22.0516C79.774 21.9062 79.4199 21.8338 79.0627 21.8395C78.6849 21.8395 78.3435 21.9102 78.0371 22.0516C77.7353 22.1893 77.4658 22.3877 77.2457 22.6342C77.0317 22.8817 76.8606 23.1646 76.7325 23.482C76.6108 23.7994 76.5508 24.1385 76.5508 24.4985ZM86.7273 21.7446V19.2761H88.3838V16.1719H91.7195V19.2761H94.1244V21.7446H91.7195V25.4837C91.7195 25.8726 91.7552 26.1828 91.8257 26.4158C91.8971 26.6424 91.9968 26.8224 92.1257 26.9566C92.2611 27.0836 92.4208 27.1687 92.6065 27.2105C92.7987 27.2459 93.0127 27.2636 93.2479 27.2636C93.3906 27.2636 93.5722 27.2604 93.7927 27.2531C94.0141 27.2395 94.2062 27.2178 94.37 27.1888V29.7321C94.1211 29.7747 93.8073 29.8133 93.4295 29.8487C92.9922 29.8868 92.5533 29.9045 92.1144 29.9017C91.7227 29.9017 91.3092 29.8736 90.8746 29.8173C90.443 29.7619 90.0298 29.6096 89.6665 29.3721C89.296 29.1311 88.9895 28.7646 88.7479 28.2704C88.5054 27.769 88.3838 27.0836 88.3838 26.2149V21.7446H86.7273ZM96.0273 25.4837V19.2761H99.3517V24.6359C99.3517 25.3848 99.4871 25.9963 99.7579 26.4696C100.029 26.9357 100.513 27.1688 101.212 27.1688C101.91 27.1688 102.423 26.9317 102.751 26.4584C103.085 25.9787 103.253 25.3318 103.253 24.5202V19.2761H106.599V29.7321H103.253V28.2383C102.961 28.7896 102.515 29.2203 101.917 29.5304C101.318 29.8414 100.602 29.9965 99.7684 29.9965C99.0411 29.9965 98.4427 29.884 97.9725 29.6582C97.5382 29.4542 97.1523 29.1618 96.8398 28.8C96.5038 28.3964 96.2758 27.9156 96.1765 27.4018C96.0768 26.8714 96.0273 26.2326 96.0273 25.4837ZM108.758 26.2366H112.04C112.04 26.7871 112.197 27.1824 112.51 27.4227C112.823 27.6629 113.226 27.7827 113.718 27.7827C114.124 27.7827 114.455 27.7087 114.712 27.5601C114.976 27.405 115.107 27.1543 115.107 26.8079C115.107 26.603 115.051 26.4375 114.936 26.3097C114.83 26.1763 114.662 26.0598 114.434 25.961C114.15 25.8345 113.857 25.7282 113.558 25.6428C113.201 25.5367 112.774 25.4025 112.275 25.241C111.847 25.1069 111.423 24.962 111.003 24.8063C110.633 24.6631 110.284 24.4706 109.966 24.2341C109.672 24.0139 109.431 23.7314 109.261 23.4072C109.097 23.0826 109.015 22.68 109.015 22.1995C109.015 21.649 109.125 21.1725 109.346 20.7691C109.568 20.3659 109.887 20.0238 110.276 19.7735C110.675 19.5123 111.152 19.3187 111.708 19.1909C112.311 19.0515 112.928 18.9841 113.547 18.99C114.366 18.99 115.072 19.0816 115.664 19.2656C116.255 19.4488 116.739 19.6996 117.117 20.0178C117.495 20.3352 117.772 20.7096 117.951 21.1404C118.138 21.5793 118.233 22.0516 118.229 22.5281H114.926C114.926 22.0974 114.812 21.7615 114.584 21.5221C114.363 21.281 114.024 21.1612 113.568 21.1612C113.219 21.1612 112.92 21.2392 112.67 21.3943C112.421 21.5429 112.296 21.7687 112.296 22.0725C112.296 22.2774 112.353 22.4437 112.467 22.5707C112.588 22.6912 112.763 22.7997 112.991 22.8994C113.219 22.9982 113.5 23.1003 113.835 23.2063C114.171 23.3052 114.555 23.4249 114.99 23.5663C115.46 23.6933 115.899 23.8347 116.305 23.9898C116.711 24.1457 117.067 24.3362 117.374 24.562C117.687 24.7813 117.933 25.0602 118.111 25.3993C118.296 25.7312 118.389 26.1546 118.389 26.6705C118.389 27.278 118.261 27.7971 118.004 28.2279C117.748 28.6516 117.392 29.0077 116.967 29.2661C116.54 29.5345 116.041 29.7249 115.471 29.8382C114.901 29.9587 114.302 30.0182 113.675 30.0182C112.115 30.0182 110.903 29.6968 110.041 29.0539C109.186 28.4046 108.758 27.4661 108.758 26.2366Z" fill="black"/>
</svg>
