<svg width="20" height="20" fill="none" xmlns="http://www.w3.org/2000/svg"><g clip-path="url(#a)"><path fill-rule="evenodd" clip-rule="evenodd" d="M-.002 10c0-7.5 2.5-10 10-10s10 2.5 10 10-2.5 10-10 10-10-2.5-10-10Zm7.393-.616C7.577 7.057 9.249 5 11.514 4.87c1.39-.08 2.78.769 2.854 2.147.061 1.11-.628 1.919-1.826 2.23-.283.073-.573.119-.866.134-.636.036-1.154-.02-1.672-.074-.517-.055-1.034-.11-1.67-.075a4.453 4.453 0 0 0-.907.142l-.036.01Zm5.213 1.23c-.186 2.328-1.858 4.386-4.123 4.515-1.39.08-2.78-.77-2.855-2.148-.058-1.109.629-1.918 1.827-2.228.283-.074.573-.12.866-.135.636-.036 1.153.02 1.67.074.518.055 1.035.11 1.672.074.294-.015.585-.059.87-.131l.027-.008c.016-.004.032-.008.046-.013Z" fill="#647084"/></g><defs><clipPath id="a"><path fill="#fff" transform="translate(-.002)" d="M0 0h20v20H0z"/></clipPath></defs></svg>