<svg width="1146" height="144" viewBox="0 0 1146 144" fill="none" xmlns="http://www.w3.org/2000/svg">
<path d="M343.611 36.3291C347.698 36.3291 351.928 36.8246 355.962 37.8428C359.711 38.7657 363.266 40.3469 366.462 42.5127C369.499 44.5976 371.99 47.3842 373.722 50.6357C375.558 54.302 376.743 58.3961 376.743 62.4824V114.538H356.186L356.122 103.85C354.88 106.269 352.491 108.452 350.442 110.24C348.242 112.121 345.701 113.562 342.957 114.485C339.699 115.558 336.256 116.047 332.861 116.047C328.335 116.047 323.846 115.212 319.692 113.424C315.968 111.803 312.796 109.133 310.564 105.74C308.227 101.914 307.211 97.4373 307.211 92.9736C307.211 89.2644 307.916 85.5529 309.589 82.2061C311.097 79.3377 313.313 76.9021 316.027 75.1309C318.875 73.2913 322.007 71.9337 325.296 71.1123C328.881 70.1856 332.534 69.546 336.221 69.2012C340.721 68.7342 344.162 68.3869 346.907 67.9766C349.062 67.6544 351.1 67.181 352.975 66.1221C353.575 65.7141 354.259 65.0122 354.584 64.3633C354.909 63.7142 355.055 62.6564 355.098 61.9385C355.178 60.5629 354.883 59.2043 354.366 57.9268C353.85 56.6492 353.056 55.5024 352.042 54.5693C349.627 52.6886 346.494 51.8447 343.494 51.8447C340.212 51.8448 337.065 52.6847 334.353 54.499C332.174 56.0495 330.095 58.2705 329.592 61.4766H309.977C309.977 56.1664 312.534 51.0621 315.942 47.0547C319.052 43.535 322.971 40.8256 327.362 39.1592C332.554 37.1956 338.142 36.329 343.611 36.3291ZM208.141 36.3389C217.895 36.3483 225.575 38.4095 231.179 42.5225C233.908 44.4816 236.195 46.9942 237.89 49.8955C239.584 52.7969 240.821 58.3331 240.821 61.4766H221.458C221.144 59.7791 220.253 57.3228 219.122 56.0234C217.946 54.6132 216.459 53.4937 214.778 52.7539C212.755 51.8879 210.568 51.4687 208.367 51.5234C205.432 51.4273 202.601 52.0545 200.05 53.5107C199.027 54.0366 198.094 54.9257 197.492 55.9062C196.891 56.8869 196.57 58.0147 196.565 59.165C196.558 60.0592 196.754 60.9435 197.136 61.752C197.518 62.5604 198.077 63.2729 198.772 63.835C201.041 65.4431 203.632 66.3462 206.415 66.877L220.382 69.707C227.891 71.2448 233.486 73.7259 237.165 77.1504C238.992 78.8711 240.426 80.9654 241.371 83.29C242.316 85.6147 242.708 88.1327 242.708 90.6475C242.708 95.4253 241.183 100.125 238.255 103.938C235.052 107.928 230.854 111.003 226.085 112.854C220.432 115.072 214.397 116.153 208.325 116.038C198.099 116.029 189.967 113.896 183.929 109.642C181.015 107.656 178.559 105.071 176.727 102.06C174.894 99.0478 173.301 94.2933 173.301 90.8984H194.361C194.487 92.3443 195.148 93.8407 195.94 95.0566C196.733 96.2726 197.764 97.3161 198.971 98.123C201.792 99.8484 205.041 100.647 208.367 100.647C211.492 100.647 214.684 99.9521 217.438 98.3779C218.47 97.8289 219.338 97.0151 219.952 96.0205C220.566 95.0259 220.905 93.8854 220.934 92.7168C220.929 91.78 220.704 90.8569 220.276 90.0234C219.849 89.1901 219.23 88.4695 218.472 87.9199C216.24 86.4285 213.663 85.5869 211.042 85.0898L197.669 82.4287C190.131 80.9193 184.527 78.3067 180.857 74.5898C179.041 72.7073 177.623 70.4769 176.689 68.0332C175.756 65.5894 175.325 62.9815 175.424 60.3672C175.316 55.7634 176.739 51.2541 179.471 47.5469C182.429 43.777 186.379 40.9052 190.877 39.2539C196.397 37.2068 202.254 36.2179 208.141 36.3389ZM282.441 37.8379H295.519V53.9316H282.441V91.1504C282.441 92.6592 282.676 94.3127 283.348 95.749C283.898 96.788 284.801 97.5964 285.895 98.0273C287.105 98.4855 287.974 98.7567 289.608 98.9453C291.117 99.1968 298.662 99.0082 299.165 98.9453V116.046H287.534C282.505 115.92 278.315 115.509 274 113.862C270.292 112.426 267.133 109.855 264.972 106.518C262.707 102.736 261.82 98.3173 261.82 93.9795V53.9316H250.756V37.8379H261.82V20.2344H282.441V37.8379ZM416.477 37.8379H429.554V53.9316H416.477V91.1504C416.477 92.6592 416.711 94.3127 417.383 95.749C417.933 96.788 418.836 97.5964 419.93 98.0273C421.14 98.4855 422.009 98.7567 423.644 98.9453C425.152 99.1968 432.697 99.0082 433.2 98.9453V116.046H421.569C416.54 115.92 412.35 115.509 408.035 113.862C404.327 112.426 401.168 109.855 399.007 106.518C396.742 102.736 395.856 98.3173 395.855 93.9795V53.9316H384.791V37.8379H395.855V20.2344H416.477V37.8379ZM461.867 83.1006C461.676 87.0384 462.986 90.9025 465.532 93.9121C466.771 95.2438 468.285 96.2898 469.969 96.9766C471.653 97.6633 473.467 97.9744 475.283 97.8887C477.805 97.8965 480.289 97.2792 482.514 96.0918C484.79 94.8734 486.678 93.0389 487.962 90.7988C489.431 88.1414 490.032 85.1141 490.032 82.0957V37.8379H510.653V114.537H490.912V100.957C489.228 105.409 486.094 109.24 482.137 111.884C477.757 114.728 472.555 116.046 467.399 116.046C462.622 116.046 457.896 114.884 453.764 112.479C449.809 110.101 446.624 106.631 444.594 102.487C442.285 97.629 441.246 92.2187 441.246 86.875V37.8379H461.867V83.1006ZM553.541 36.3389C563.296 36.3483 570.976 38.4092 576.58 42.5225C579.31 44.4815 581.596 46.9942 583.29 49.8955C584.985 52.7969 586.222 58.3331 586.222 61.4766H566.858C566.544 59.7791 565.653 57.3228 564.522 56.0234C563.346 54.6132 561.86 53.4937 560.179 52.7539C558.155 51.8879 555.968 51.4687 553.768 51.5234C550.832 51.4273 548.001 52.0545 545.45 53.5107C544.427 54.0366 543.494 54.9257 542.893 55.9062C542.291 56.8869 541.971 58.0147 541.966 59.165C541.959 60.0592 542.154 60.9435 542.536 61.752C542.918 62.5605 543.478 63.2729 544.174 63.835C546.442 65.4429 549.033 66.3462 551.815 66.877L565.782 69.707C573.292 71.2448 578.886 73.7259 582.565 77.1504C584.392 78.8711 585.826 80.9654 586.771 83.29C587.716 85.6147 588.108 88.1327 588.108 90.6475C588.108 95.4253 586.583 100.125 583.655 103.938C580.452 107.928 576.255 111.003 571.485 112.854C565.832 115.072 559.797 116.153 553.726 116.038C543.499 116.029 535.367 113.896 529.329 109.642C526.416 107.656 523.96 105.071 522.127 102.06C520.294 99.0478 518.701 94.2933 518.701 90.8984H539.762C539.887 92.3443 540.548 93.8407 541.341 95.0566C542.134 96.2726 543.164 97.3161 544.371 98.123C547.192 99.8484 550.442 100.647 553.768 100.647C556.892 100.647 560.084 99.952 562.839 98.3779C563.871 97.8289 564.738 97.0151 565.353 96.0205C565.967 95.0259 566.305 93.8854 566.334 92.7168C566.33 91.78 566.105 90.8569 565.677 90.0234C565.249 89.1901 564.631 88.4695 563.872 87.9199C561.641 86.4285 559.064 85.5869 556.442 85.0898L543.069 82.4287C535.532 80.9193 529.928 78.3068 526.258 74.5898C524.441 72.7073 523.024 70.4769 522.09 68.0332C521.156 65.5894 520.726 62.9815 520.824 60.3672C520.716 55.7634 522.139 51.2541 524.871 47.5469C527.829 43.777 531.779 40.9052 536.277 39.2539C541.798 37.2068 547.654 36.2179 553.541 36.3389ZM355.039 78.8242C353.866 79.4015 352.661 79.8614 351.405 80.2256C346.669 81.5808 341.67 81.4881 336.957 82.9561C330.702 85.0504 327.744 89.5228 329.159 94.7021C329.726 96.4717 330.806 98.0325 332.263 99.1865C335.079 101.418 339.185 101.715 342.561 100.716C349.877 98.5932 354.448 91.7304 355.127 84.0605C355.309 82.3512 355.312 80.5987 355.057 78.8955L355.039 78.8242Z" fill="black"/>
<circle cx="72.0003" cy="71.9998" r="49.2308" fill="white"/>
<circle cx="72.0003" cy="71.9998" r="53.2308" stroke="white" stroke-opacity="0.1" stroke-width="8"/>
<mask id="path-4-outside-1_1062_608" maskUnits="userSpaceOnUse" x="0" y="0" width="144" height="144" fill="black">
<rect fill="white" width="144" height="144"/>
<path d="M72 8C107.346 8 136 36.6538 136 72C136 107.346 107.346 136 72 136C36.6538 136 8 107.346 8 72C8 36.6538 36.6538 8 72 8ZM81.2227 75.1992C74.09 75.6044 69.6229 73.969 62.4902 74.3711C60.8517 74.4578 59.2261 74.7111 57.6396 75.127C50.9245 76.8655 47.0763 81.4037 47.4023 87.623C47.8229 95.3511 55.6076 100.11 63.4014 99.666C76.0946 98.9404 85.4668 87.4023 86.5088 74.3496C86.3808 74.3889 86.2256 74.4286 86.0977 74.4648C84.5014 74.87 82.8682 75.1158 81.2227 75.1992ZM96.4238 55.9395C96.0034 48.2113 88.2186 43.4521 80.4248 43.8965C67.7316 44.6221 58.3594 56.1602 57.3174 69.2129C57.4453 69.1736 57.6006 69.134 57.7285 69.0947C59.3248 68.6895 60.958 68.4437 62.6035 68.3604C69.7362 67.9612 74.2032 69.5965 81.3359 69.1943C82.9745 69.1076 84.6001 68.8544 86.1865 68.4385C92.9016 66.6969 96.765 62.1587 96.4238 55.9395Z"/>
</mask>
<path d="M72 8C107.346 8 136 36.6538 136 72C136 107.346 107.346 136 72 136C36.6538 136 8 107.346 8 72C8 36.6538 36.6538 8 72 8ZM81.2227 75.1992C74.09 75.6044 69.6229 73.969 62.4902 74.3711C60.8517 74.4578 59.2261 74.7111 57.6396 75.127C50.9245 76.8655 47.0763 81.4037 47.4023 87.623C47.8229 95.3511 55.6076 100.11 63.4014 99.666C76.0946 98.9404 85.4668 87.4023 86.5088 74.3496C86.3808 74.3889 86.2256 74.4286 86.0977 74.4648C84.5014 74.87 82.8682 75.1158 81.2227 75.1992ZM96.4238 55.9395C96.0034 48.2113 88.2186 43.4521 80.4248 43.8965C67.7316 44.6221 58.3594 56.1602 57.3174 69.2129C57.4453 69.1736 57.6006 69.134 57.7285 69.0947C59.3248 68.6895 60.958 68.4437 62.6035 68.3604C69.7362 67.9612 74.2032 69.5965 81.3359 69.1943C82.9745 69.1076 84.6001 68.8544 86.1865 68.4385C92.9016 66.6969 96.765 62.1587 96.4238 55.9395Z" fill="url(#paint0_linear_1062_608)"/>
<path d="M81.2227 75.1992L80.8178 67.2095L80.7934 67.2107L80.769 67.2121L81.2227 75.1992ZM62.4902 74.3711L62.9129 82.3599L62.9267 82.3592L62.9405 82.3584L62.4902 74.3711ZM57.6396 75.127L59.6448 82.8716L59.6566 82.8685L59.6683 82.8655L57.6396 75.127ZM47.4023 87.623L39.4133 88.0418L39.4137 88.0498L39.4142 88.0577L47.4023 87.623ZM63.4014 99.666L63.8568 107.653L63.858 107.653L63.4014 99.666ZM86.5088 74.3496L94.4834 74.9863L95.4209 63.2438L84.1601 66.7021L86.5088 74.3496ZM86.0977 74.4648L88.066 82.2189L88.1733 82.1917L88.2799 82.1615L86.0977 74.4648ZM96.4238 55.9395L88.4356 56.3741L88.4358 56.3776L96.4238 55.9395ZM80.4248 43.8965L79.9694 35.9095L79.9682 35.9095L80.4248 43.8965ZM57.3174 69.2129L49.3428 68.5763L48.4053 80.3189L59.6662 76.8603L57.3174 69.2129ZM57.7285 69.0947L55.7602 61.3406L55.5686 61.3893L55.3797 61.4473L57.7285 69.0947ZM62.6035 68.3604L63.0084 76.3501L63.0294 76.349L63.0505 76.3479L62.6035 68.3604ZM81.3359 69.1943L80.9133 61.2055L80.8994 61.2062L80.8856 61.207L81.3359 69.1943ZM86.1865 68.4385L84.1781 60.6947L84.168 60.6973L84.1579 60.7L86.1865 68.4385ZM72 8V16C102.928 16 128 41.0721 128 72H136H144C144 32.2355 111.765 0 72 0V8ZM136 72H128C128 102.928 102.928 128 72 128V136V144C111.765 144 144 111.765 144 72H136ZM72 136V128C41.0721 128 16 102.928 16 72H8H0C0 111.765 32.2355 144 72 144V136ZM8 72H16C16 41.0721 41.0721 16 72 16V8V0C32.2355 0 0 32.2355 0 72H8ZM81.2227 75.1992L80.769 67.2121C77.9239 67.3737 75.6094 67.1398 72.7012 66.831C69.8113 66.5241 66.3264 66.1421 62.0399 66.3838L62.4902 74.3711L62.9405 82.3584C65.7867 82.1979 68.1017 82.4325 71.0117 82.7416C73.9034 83.0486 77.3887 83.4299 81.6763 83.1863L81.2227 75.1992ZM62.4902 74.3711L62.0676 66.3823C59.887 66.4976 57.7233 66.8347 55.611 67.3884L57.6396 75.127L59.6683 82.8655C60.7289 82.5874 61.8163 82.4179 62.9129 82.3599L62.4902 74.3711ZM57.6396 75.127L55.6345 67.3823C51.0286 68.5748 46.7764 70.8948 43.7153 74.5967C40.5842 78.3833 39.1532 83.0796 39.4133 88.0418L47.4023 87.623L55.3914 87.2043C55.3255 85.9472 55.6555 85.2647 56.0458 84.7927C56.5061 84.2361 57.5356 83.4177 59.6448 82.8716L57.6396 75.127ZM47.4023 87.623L39.4142 88.0577C40.1637 101.833 53.4683 108.245 63.8568 107.653L63.4014 99.666L62.946 91.679C60.736 91.805 58.6537 91.1649 57.2529 90.1752C55.9467 89.2525 55.4474 88.2336 55.3905 87.1884L47.4023 87.623ZM63.4014 99.666L63.858 107.653C81.5454 106.642 93.2105 90.9313 94.4834 74.9863L86.5088 74.3496L78.5342 73.713C77.723 83.8732 70.6437 91.2389 62.9448 91.6791L63.4014 99.666ZM86.5088 74.3496L84.1601 66.7021C84.1983 66.6904 84.2218 66.6838 84.223 66.6834C84.2245 66.683 84.2174 66.685 84.1928 66.6917C84.1808 66.695 84.1678 66.6986 84.1501 66.7034C84.134 66.7078 84.1122 66.7137 84.0904 66.7197C84.0476 66.7313 83.9847 66.7486 83.9155 66.7682L86.0977 74.4648L88.2799 82.1615C88.2746 82.163 88.279 82.1617 88.3054 82.1545C88.3181 82.151 88.3312 82.1474 88.3503 82.1422C88.3678 82.1375 88.3902 82.1314 88.4136 82.125C88.4941 82.103 88.6667 82.0557 88.8574 81.9971L86.5088 74.3496ZM86.0977 74.4648L84.1293 66.7108C83.0465 66.9856 81.9371 67.1528 80.8178 67.2095L81.2227 75.1992L81.6275 83.189C83.7993 83.0789 85.9562 82.7545 88.066 82.2189L86.0977 74.4648ZM96.4238 55.9395L104.412 55.5048C103.663 41.7296 90.3578 35.3171 79.9694 35.9095L80.4248 43.8965L80.8802 51.8835C83.0902 51.7575 85.1726 52.3976 86.5734 53.3872C87.8795 54.31 88.3788 55.3289 88.4356 56.3741L96.4238 55.9395ZM80.4248 43.8965L79.9682 35.9095C62.2807 36.9207 50.6157 52.6312 49.3428 68.5763L57.3174 69.2129L65.292 69.8495C66.1031 59.6893 73.1824 52.3236 80.8814 51.8834L80.4248 43.8965ZM57.3174 69.2129L59.6662 76.8603C59.6279 76.8721 59.6056 76.8784 59.6112 76.8768C59.618 76.8748 59.6295 76.8716 59.6693 76.8605C59.7003 76.8519 59.7597 76.8354 59.8219 76.8176C59.8854 76.7995 59.9751 76.7735 60.0774 76.7421L57.7285 69.0947L55.3797 61.4473C55.4179 61.4356 55.4403 61.4293 55.4347 61.4309C55.4278 61.4328 55.4164 61.436 55.3766 61.4471C55.3456 61.4557 55.2863 61.4722 55.224 61.49C55.1605 61.5081 55.0708 61.5341 54.9686 61.5655L57.3174 69.2129ZM57.7285 69.0947L59.6968 76.8488C60.7797 76.5739 61.8891 76.4068 63.0084 76.3501L62.6035 68.3604L62.1987 60.3706C60.0268 60.4807 57.8699 60.8051 55.7602 61.3406L57.7285 69.0947ZM62.6035 68.3604L63.0505 76.3479C65.8974 76.1886 68.213 76.4238 71.123 76.7335C74.0147 77.0413 77.4994 77.4233 81.7862 77.1816L81.3359 69.1943L80.8856 61.207C78.0397 61.3675 75.7246 61.1329 72.8164 60.8234C69.9266 60.5158 66.4423 60.133 62.1566 60.3728L62.6035 68.3604ZM81.3359 69.1943L81.7586 77.1832C83.9392 77.0678 86.1029 76.7307 88.2152 76.177L86.1865 68.4385L84.1579 60.7C83.0973 60.978 82.0098 61.1475 80.9133 61.2055L81.3359 69.1943ZM86.1865 68.4385L88.1949 76.1823C92.7967 74.9888 97.0512 72.6698 100.114 68.9688C103.25 65.1806 104.685 60.477 104.412 55.5013L96.4238 55.9395L88.4358 56.3776C88.5041 57.6211 88.1781 58.2963 87.7883 58.7673C87.3262 59.3257 86.2914 60.1466 84.1781 60.6947L86.1865 68.4385Z" fill="white" fill-opacity="0.1" mask="url(#path-4-outside-1_1062_608)"/>
<path d="M1091.65 89.3909L1091.55 70.8768H1094.19L1125.23 37.9065H1143.39L1107.99 75.4419H1105.6L1091.65 89.3909ZM1077.7 115.818V20.1719H1092.87V115.818H1077.7ZM1126.9 115.818L1099.01 78.7896L1109.46 68.1884L1145.52 115.818H1126.9Z" fill="black"/>
<path d="M1023.89 115.818V37.9064H1038.55V50.2829H1039.36C1040.78 46.0898 1043.28 42.7927 1046.86 40.3918C1050.48 37.9571 1054.57 36.7397 1059.14 36.7397C1060.09 36.7397 1061.2 36.7736 1062.49 36.8412C1063.81 36.9088 1064.84 36.9934 1065.58 37.0948V51.6017C1064.97 51.4326 1063.89 51.2467 1062.34 51.0438C1060.78 50.8071 1059.22 50.6887 1057.67 50.6887C1054.08 50.6887 1050.89 51.4496 1048.08 52.9713C1045.31 54.4592 1043.11 56.5388 1041.49 59.2102C1039.86 61.8479 1039.05 64.8575 1039.05 68.239V115.818H1023.89Z" fill="black"/>
<path d="M975.461 117.39C968.156 117.39 961.782 115.716 956.338 112.369C950.894 109.021 946.667 104.337 943.657 98.3182C940.647 92.299 939.143 85.2654 939.143 77.2173C939.143 69.1353 940.647 62.0678 943.657 56.0148C946.667 49.9618 950.894 45.2615 956.338 41.9137C961.782 38.566 968.156 36.8921 975.461 36.8921C982.765 36.8921 989.139 38.566 994.583 41.9137C1000.03 45.2615 1004.25 49.9618 1007.26 56.0148C1010.27 62.0678 1011.78 69.1353 1011.78 77.2173C1011.78 85.2654 1010.27 92.299 1007.26 98.3182C1004.25 104.337 1000.03 109.021 994.583 112.369C989.139 115.716 982.765 117.39 975.461 117.39ZM975.511 104.659C980.246 104.659 984.168 103.407 987.279 100.905C990.39 98.4028 992.69 95.0719 994.178 90.9126C995.699 86.7533 996.46 82.1712 996.46 77.1665C996.46 72.1956 995.699 67.6305 994.178 63.4712C992.69 59.278 990.39 55.9134 987.279 53.3772C984.168 50.841 980.246 49.573 975.511 49.573C970.743 49.573 966.787 50.841 963.642 53.3772C960.531 55.9134 958.215 59.278 956.693 63.4712C955.205 67.6305 954.461 72.1956 954.461 77.1665C954.461 82.1712 955.205 86.7533 956.693 90.9126C958.215 95.0719 960.531 98.4028 963.642 100.905C966.787 103.407 970.743 104.659 975.511 104.659Z" fill="black"/>
<path d="M851.923 115.818L828.996 37.9067H844.67L859.937 95.1228H860.698L876.017 37.9067H891.69L906.907 94.8692H907.668L922.835 37.9067H938.508L915.632 115.818H900.161L884.335 59.5657H883.169L867.343 115.818H851.923Z" fill="black"/>
<path d="M819.245 37.9069V50.0805H776.688V37.9069H819.245ZM788.1 20.1719H803.267V92.9418C803.267 95.8838 803.706 98.0987 804.585 99.5866C805.465 101.041 806.597 102.038 807.984 102.579C809.404 103.087 810.943 103.34 812.6 103.34C813.817 103.34 814.882 103.256 815.795 103.087C816.708 102.917 817.418 102.782 817.926 102.681L820.665 115.209C819.786 115.548 818.534 115.886 816.911 116.224C815.288 116.596 813.259 116.799 810.824 116.833C806.834 116.9 803.114 116.19 799.665 114.702C796.216 113.214 793.426 110.915 791.296 107.804C789.165 104.693 788.1 100.787 788.1 96.0867V20.1719Z" fill="black"/>
<path d="M739.47 116.55C731.902 116.55 725.39 114.917 719.922 111.683C714.488 108.416 710.287 103.832 707.32 97.9308C704.386 91.9964 702.881 84.9896 702.881 77.0682C702.881 69.2725 704.402 61.8973 707.336 55.8962C710.303 49.8951 714.438 45.2109 719.738 41.8436C725.073 38.4764 731.297 36.8325 738.339 36.8325C742.74 36.8325 746.977 37.5095 751.044 38.9431C755.111 40.3767 758.762 42.6271 761.996 45.6943C765.23 48.7616 767.78 52.7456 769.647 57.6465C771.514 62.5141 772.413 68.8429 772.413 75.8108V81.0918H711.431V69.9012H757.828C757.828 65.9671 756.995 62.0807 755.395 59.0468C753.794 55.9795 751.544 53.5624 748.644 51.7955C745.776 50.0285 742.409 49.145 738.542 49.145C734.341 49.145 730.674 50.1785 727.54 52.2455C724.439 54.2792 722.039 56.9464 720.339 60.247C718.672 63.5142 717.822 67.4419 717.822 71.2759V80.0275C717.822 85.1618 718.722 89.5293 720.522 93.1299C722.356 96.7306 724.906 99.481 728.173 101.381C731.441 103.248 735.258 104.182 739.625 104.182C742.459 104.182 745.043 103.782 747.377 102.982C749.711 102.148 751.728 100.915 753.428 99.281C755.128 97.6474 756.441 95.563 757.341 93.1625H772.413C771.28 97.33 768.314 103.598 765.38 106.732C762.48 109.833 758.829 112.25 754.428 113.984C750.061 115.684 745.071 116.55 739.47 116.55Z" fill="black"/>
<path d="M644.742 69.558V115.818H629.576V37.9066H644.134V50.5874H645.098C646.89 46.4619 649.696 43.148 653.518 40.6456C657.373 38.1433 662.225 36.8921 668.075 36.8921C673.384 36.8921 678.034 38.008 682.024 40.2398C686.014 42.4379 689.109 45.718 691.307 50.0802C693.505 54.4424 694.604 59.836 694.604 66.261V115.818H679.437V68.087C679.437 62.4398 677.966 58.0269 675.024 54.8482C672.082 51.6357 668.041 50.0295 662.901 50.0295C659.385 50.0295 656.257 50.7903 653.518 52.312C650.812 53.8337 648.665 56.0656 647.076 59.0075C645.52 61.9157 644.742 65.4325 644.742 69.558Z" fill="black"/>
<path d="M604.894 117.698C602.125 117.698 599.754 116.723 597.779 114.775C595.831 112.826 594.869 110.467 594.895 107.698C594.869 104.981 595.831 102.66 597.779 100.737C599.754 98.7887 602.125 97.8145 604.894 97.8145C607.509 97.8145 609.817 98.7887 611.817 100.737C613.842 102.66 614.868 104.981 614.894 107.698C614.868 109.544 614.381 111.224 613.432 112.736C612.509 114.249 611.291 115.454 609.779 116.352C608.291 117.249 606.663 117.698 604.894 117.698Z" fill="black"/>
<defs>
<linearGradient id="paint0_linear_1062_608" x1="78.9774" y1="62.6165" x2="46.2556" y2="145.865" gradientUnits="userSpaceOnUse">
<stop stop-color="#7140FD"/>
<stop offset="1" stop-color="#BD34F8"/>
</linearGradient>
</defs>
</svg>
