<svg
  width="20"
  height="20"
  viewBox="0 0 20 20"
  fill="none"
  xmlns="http://www.w3.org/2000/svg"
>
  <path
    d="M5.5 7.5C5.5 5.01472 7.51472 3 10 3V3C12.4853 3 14.5 5.01472 14.5 7.5V8.25C14.5 9.06139 14.7632 9.85089 15.25 10.5L15.7 11.1C15.8947 11.3596 16 11.6754 16 12V12C16 12.8284 15.3284 13.5 14.5 13.5H5.5C4.67157 13.5 4 12.8284 4 12V12C4 11.6754 4.10527 11.3596 4.3 11.1L4.75 10.5C5.23683 9.85089 5.5 9.06139 5.5 8.25V7.5Z"
    stroke="#09101C"
    stroke-width="1.3"
    stroke-linejoin="round"
  />
  <path
    d="M7.87845 16.1213C8.15703 16.3999 8.48775 16.6209 8.85172 16.7716C9.2157 16.9224 9.60581 17 9.99977 17C10.3937 17 10.7838 16.9224 11.1478 16.7716C11.5118 16.6209 11.8425 16.3999 12.1211 16.1213"
    stroke="#09101C"
    stroke-width="1.3"
    stroke-linejoin="round"
  />
</svg>
