<svg
  width="20"
  height="20"
  viewBox="0 0 20 20"
  fill="none"
  xmlns="http://www.w3.org/2000/svg"
>
  <path
    d="M7.52515 12C7.85015 12.325 8.23599 12.5828 8.66063 12.7587C9.08527 12.9346 9.54039 13.0251 10 13.0251C10.4596 13.0251 10.9148 12.9346 11.3394 12.7587C11.7641 12.5828 12.1499 12.325 12.4749 12"
    stroke="#09101C"
    stroke-width="1.3"
  />
  <circle cx="8" cy="8.5" r="1" fill="#09101C" />
  <circle cx="12" cy="8.5" r="1" fill="#09101C" />
  <path d="M15.5 2V7" stroke="#09101C" stroke-width="1.3" />
  <path d="M13 4.5H18" stroke="#09101C" stroke-width="1.3" />
  <path
    d="M11.747 3.48C10.3118 3.09542 8.78968 3.19518 7.41689 3.76381C6.04409 4.33244 4.89728 5.33817 4.15433 6.625C3.41138 7.91183 3.1138 9.40786 3.30775 10.8811C3.5017 12.3542 4.17633 13.7223 5.22703 14.773C6.27772 15.8237 7.64575 16.4983 9.11895 16.6923C10.5921 16.8862 12.0882 16.5886 13.375 15.8457C14.6618 15.1027 15.6676 13.9559 16.2362 12.5831C16.8048 11.2103 16.9046 9.68825 16.52 8.25297"
    stroke="#09101C"
    stroke-width="1.3"
  />
</svg>
