<svg
  width="20"
  height="20"
  viewBox="0 0 20 20"
  fill="none"
  xmlns="http://www.w3.org/2000/svg"
>
  <path
    d="M4 9C4 5.68629 6.68629 3 10 3V3C13.3137 3 16 5.68629 16 9V14.6667C16 15.9553 14.9553 17 13.6667 17H6.33333C5.04467 17 4 15.9553 4 14.6667V9Z"
    stroke="#09101C"
    stroke-width="1.3"
  />
  <path
    d="M4 9C4 5.68629 6.68629 3 10 3V3C13.3137 3 16 5.68629 16 9V9H4V9Z"
    stroke="#09101C"
    stroke-width="1.3"
  />
  <path d="M14 5L16 3" stroke="#09101C" stroke-width="1.3" />
  <path d="M6 5L4 3" stroke="#09101C" stroke-width="1.3" />
  <circle cx="8" cy="6.5" r="1" fill="#09101C" />
  <circle cx="12" cy="6.5" r="1" fill="#09101C" />
</svg>
