<svg
  width="20"
  height="20"
  viewBox="0 0 20 20"
  fill="none"
  xmlns="http://www.w3.org/2000/svg"
>
  <path
    fill-rule="evenodd"
    clip-rule="evenodd"
    d="M13.5452 3.17218C11.2812 2.20192 8.71857 2.20192 6.45463 3.17218L4.20598 4.13589C3.8383 4.29347 3.5999 4.655 3.5999 5.05503V10.4C3.5999 11.3088 3.89465 12.193 4.4399 12.92L5.24562 13.9943C6.03021 15.0404 6.9595 15.9697 8.00562 16.7543L9.40002 17.8001V15H10.6V17.7999L11.9942 16.7543C13.0403 15.9697 13.9696 15.0404 14.7542 13.9943L15.5599 12.92C16.1052 12.193 16.3999 11.3088 16.3999 10.4V5.05503C16.3999 4.655 16.1615 4.29347 15.7938 4.13589L13.5452 3.17218ZM5.98193 2.06921C8.54772 0.96958 11.4521 0.969581 14.0179 2.06921L16.2665 3.03291C17.0754 3.37959 17.5999 4.17497 17.5999 5.05503V10.4C17.5999 11.5684 17.2209 12.7053 16.5199 13.64L15.7142 14.7143C14.8614 15.8514 13.8513 16.8615 12.7142 17.7143L10.8399 19.12C10.3421 19.4933 9.65768 19.4933 9.1599 19.12L7.28562 17.7143C6.14853 16.8615 5.13843 15.8514 4.28562 14.7143L3.4799 13.64C2.77886 12.7053 2.3999 11.5684 2.3999 10.4V5.05503C2.3999 4.17497 2.92438 3.37959 3.73328 3.03291L5.98193 2.06921ZM9.00002 7.5C7.89545 8.60457 6.10459 8.60457 5.00002 7.5C6.10459 6.39543 7.89545 6.39543 9.00002 7.5ZM14.9998 7.5C13.8952 8.60457 12.1043 8.60457 10.9998 7.5C12.1043 6.39543 13.8952 6.39543 14.9998 7.5ZM5.949 11.1015L7.51374 12.8622C7.67641 13.0453 7.90959 13.15 8.15446 13.15C8.46193 13.15 8.74583 12.9852 8.89845 12.7183L9.11586 12.338C8.54409 12.0849 8.07953 11.5711 7.94289 10.7968C7.9142 10.6343 7.89978 10.4695 7.89978 10.3045V9.37506H9.09978V10.3045C9.09978 10.3996 9.10809 10.4946 9.12463 10.5883C9.29739 11.5673 10.7022 11.5673 10.8749 10.5883C10.8915 10.4946 10.8998 10.3996 10.8998 10.3045V9.37506H12.0998V10.3045C12.0998 10.4695 12.0854 10.6343 12.0567 10.7968C11.9201 11.571 11.4557 12.0846 10.8841 12.3379L11.1016 12.7183C11.2542 12.9853 11.5381 13.15 11.8456 13.15C12.0904 13.15 12.3236 13.0453 12.4862 12.8623L14.051 11.1013L14.948 11.8984L13.3832 13.6594C12.9929 14.0986 12.4333 14.3499 11.8457 14.35C11.1077 14.3501 10.4261 13.9547 10.0598 13.3139L10 13.2093L9.9402 13.3139C9.57392 13.9546 8.89252 14.3499 8.15456 14.35C7.56685 14.35 7.00718 14.0987 6.61677 13.6594L5.05203 11.8987L5.949 11.1015ZM8.45751 6.22677C8.04967 5.85601 7.49445 5.69254 6.95078 5.78315L5.09866 6.09184L4.90138 4.90816L6.7535 4.59948C7.65962 4.44846 8.58499 4.72091 9.26471 5.33884L9.77863 5.80604L8.97142 6.69396L8.45751 6.22677ZM13.0493 5.78315C12.5056 5.69254 11.9504 5.85601 11.5425 6.22677L11.0286 6.69396L10.2214 5.80604L10.7353 5.33884C11.4151 4.72091 12.3404 4.44846 13.2466 4.59948L15.0987 4.90816L14.9014 6.09184L13.0493 5.78315Z"
    fill="#0D1625"
  />
</svg>
