<svg
  width="20"
  height="20"
  viewBox="0 0 20 20"
  fill="none"
  xmlns="http://www.w3.org/2000/svg"
>
  <path
    fill-rule="evenodd"
    clip-rule="evenodd"
    d="M10.071 3.70675C11.3011 2.4766 13.2956 2.4766 14.5257 3.70675C15.7559 4.9369 15.7559 6.93137 14.5257 8.16153L12.0509 10.6364L11.3437 11.3435L9.3992 13.2881C8.6572 14.03 7.45419 14.03 6.71219 13.2881C5.9702 12.5461 5.9702 11.343 6.71219 10.601L12.0189 5.29429L12.9382 6.21353L7.63143 11.5203C7.39712 11.7546 7.39712 12.1345 7.63143 12.3688C7.86575 12.6031 8.24565 12.6031 8.47996 12.3688L10.4245 10.4243L11.1316 9.71716L13.6065 7.24229C14.329 6.51982 14.329 5.34846 13.6065 4.62599C12.884 3.90352 11.7127 3.90352 10.9902 4.62599L5.68689 9.92929C4.37863 11.2375 4.37864 13.3587 5.68689 14.6669C6.79989 15.7799 8.60441 15.7799 9.7174 14.6669L14.3136 10.0707L15.2328 10.99L10.6366 15.5861C9.01596 17.2068 6.38833 17.2068 4.76765 15.5861C2.95172 13.7702 2.95171 10.826 4.76765 9.01005L10.071 3.70675Z"
    fill="#09101C"
  />
</svg>
