<svg
  width="20"
  height="20"
  viewBox="0 0 20 20"
  fill="none"
  xmlns="http://www.w3.org/2000/svg"
>
  <path
    fill-rule="evenodd"
    clip-rule="evenodd"
    d="M10.0001 2.35C7.98426 2.35 6.3501 3.98416 6.3501 6V9C6.3501 11.0158 7.98426 12.65 10.0001 12.65C12.0159 12.65 13.6501 11.0158 13.6501 9V6C13.6501 3.98416 12.0159 2.35 10.0001 2.35ZM7.6501 6C7.6501 4.70213 8.70223 3.65 10.0001 3.65C11.298 3.65 12.3501 4.70213 12.3501 6V9C12.3501 10.2979 11.298 11.35 10.0001 11.35C8.70223 11.35 7.6501 10.2979 7.6501 9V6ZM5.1501 7.5V9C5.1501 11.6786 7.32152 13.85 10.0001 13.85C12.6787 13.85 14.8501 11.6786 14.8501 9V7.5H16.1501V9C16.1501 12.177 13.7411 14.7914 10.6501 15.1161V16.35H12.0001V17.65H8.0001V16.35H9.3501V15.1161C6.2591 14.7914 3.8501 12.177 3.8501 9V7.5H5.1501Z"
    fill="#09101C"
  />
</svg>
