<svg
  width="20"
  height="20"
  viewBox="0 0 20 20"
  fill="none"
  xmlns="http://www.w3.org/2000/svg"
>
  <path
    fill-rule="evenodd"
    clip-rule="evenodd"
    d="M3.9001 10C3.9001 6.63106 6.63116 3.9 10.0001 3.9C11.4504 3.9 12.7826 4.40615 13.8294 5.25146L5.25155 13.8293C4.40625 12.7825 3.9001 11.4503 3.9001 10ZM6.1708 14.7486C7.21768 15.5939 8.54978 16.1 10.0001 16.1C13.369 16.1 16.1001 13.3689 16.1001 10C16.1001 8.54969 15.594 7.21758 14.7487 6.1707L6.1708 14.7486ZM10.0001 2.6C5.91319 2.6 2.6001 5.91309 2.6001 10C2.6001 14.0869 5.91319 17.4 10.0001 17.4C14.087 17.4 17.4001 14.0869 17.4001 10C17.4001 5.91309 14.087 2.6 10.0001 2.6Z"
    fill="#09101C"
  />
</svg>
