<svg
  width="20"
  height="20"
  viewBox="0 0 20 20"
  fill="none"
  xmlns="http://www.w3.org/2000/svg"
>
  <path
    fill-rule="evenodd"
    clip-rule="evenodd"
    d="M5.25 4.5C5.25 4.08579 5.58579 3.75 6 3.75H10.5C12.2949 3.75 13.75 5.20507 13.75 7C13.75 7.86829 13.4095 8.65705 12.8547 9.24004C13.9868 9.8855 14.75 11.1036 14.75 12.5C14.75 14.5711 13.0711 16.25 11 16.25H6C5.58579 16.25 5.25 15.9142 5.25 15.5V9.5V4.5ZM6.75 8.75L10.5 8.75C11.4665 8.75 12.25 7.9665 12.25 7C12.25 6.0335 11.4665 5.25 10.5 5.25L6.75 5.25V8.75ZM6.75 10.25V14.75H11C12.2426 14.75 13.25 13.7426 13.25 12.5C13.25 11.2574 12.2426 10.25 11 10.25L10.5 10.25L6.75 10.25Z"
    fill="#09101C"
  />
</svg>
