<svg
  width="20"
  height="20"
  viewBox="0 0 20 20"
  fill="none"
  xmlns="http://www.w3.org/2000/svg"
>
  <path
    fill-rule="evenodd"
    clip-rule="evenodd"
    d="M3.89998 10C3.89998 6.63106 6.63104 3.9 9.99998 3.9C13.3689 3.9 16.1 6.63106 16.1 10C16.1 13.3689 13.3689 16.1 9.99998 16.1C6.63104 16.1 3.89998 13.3689 3.89998 10ZM9.99998 2.6C5.91307 2.6 2.59998 5.91309 2.59998 10C2.59998 14.0869 5.91307 17.4 9.99998 17.4C14.0869 17.4 17.4 14.0869 17.4 10C17.4 5.91309 14.0869 2.6 9.99998 2.6ZM13.1306 7.65764C13.1859 7.43614 13.121 7.20182 12.9596 7.04038C12.7981 6.87893 12.5638 6.81403 12.3423 6.86941L8.34232 7.86941L7.96397 7.964L7.86938 8.34235L6.86938 12.3424C6.81401 12.5639 6.87891 12.7982 7.04035 12.9596C7.2018 13.1211 7.43612 13.186 7.65762 13.1306L11.6577 12.1306L12.0361 12.036L12.1306 11.6576L13.1306 7.65764ZM9.03598 9.036L11.6067 8.39333L10.964 10.964L8.39331 11.6067L9.03598 9.036Z"
    fill="#09101C"
  />
</svg>
