<svg
  width="20"
  height="20"
  viewBox="0 0 20 20"
  fill="none"
  xmlns="http://www.w3.org/2000/svg"
>
  <path
    fill-rule="evenodd"
    clip-rule="evenodd"
    d="M9.89152 2.84999L10.0001 2.85L10.1087 2.84999C11.3998 2.84988 12.168 2.84981 12.8191 3.00611C14.885 3.50209 16.498 5.11512 16.994 7.18103C17.1503 7.83209 17.1502 8.60033 17.1501 9.89141L17.1501 10L17.1501 10.1086C17.1502 11.3997 17.1503 12.1679 16.994 12.819C16.498 14.8849 14.885 16.4979 12.8191 16.9939C12.168 17.1502 11.3998 17.1501 10.1087 17.15L10.0001 17.15L9.89152 17.15C8.60044 17.1501 7.8322 17.1502 7.18114 16.9939C5.11523 16.4979 3.5022 14.8849 3.00622 12.819C2.84992 12.1679 2.84999 11.3997 2.8501 10.1086L2.85011 10L2.8501 9.89141C2.84999 8.60033 2.84992 7.83209 3.00622 7.18103C3.5022 5.11512 5.11523 3.50209 7.18114 3.00611C7.8322 2.84981 8.60044 2.84988 9.89152 2.84999ZM10.0001 4.15C8.56804 4.15 7.9664 4.15453 7.48462 4.27019C5.89405 4.65205 4.65216 5.89394 4.2703 7.48451C4.15464 7.96629 4.15011 8.56793 4.15011 10C4.15011 11.4321 4.15464 12.0337 4.2703 12.5155C4.65216 14.1061 5.89405 15.3479 7.48462 15.7298C7.9664 15.8455 8.56804 15.85 10.0001 15.85C11.4322 15.85 12.0338 15.8455 12.5156 15.7298C14.1062 15.3479 15.3481 14.1061 15.7299 12.5155C15.8456 12.0337 15.8501 11.4321 15.8501 10C15.8501 8.56793 15.8456 7.96629 15.7299 7.48451C15.3481 5.89394 14.1062 4.65205 12.5156 4.27019C12.0338 4.15453 11.4322 4.15 10.0001 4.15ZM9.35011 10.65H7.00011V9.35H9.35011V7H10.6501V9.35H13.0001V10.65H10.6501V13H9.35011V10.65Z"
    fill="#09101C"
  />
</svg>
