<svg
  width="20"
  height="20"
  viewBox="0 0 20 20"
  fill="none"
  xmlns="http://www.w3.org/2000/svg"
>
  <path
    d="M3 8.55573C3 6.8681 4.3681 5.5 6.05573 5.5V5.5C6.63444 5.5 7.16348 5.17303 7.42229 4.65542L7.5 4.5C7.80643 3.88713 8.43283 3.5 9.11803 3.5H10.882C11.5672 3.5 12.1936 3.88713 12.5 4.5L12.5777 4.65542C12.8365 5.17303 13.3656 5.5 13.9443 5.5V5.5C15.6319 5.5 17 6.8681 17 8.55573V11C17 12.3956 17 13.0933 16.8278 13.6611C16.44 14.9395 15.4395 15.94 14.1611 16.3278C13.5933 16.5 12.8956 16.5 11.5 16.5H8.5C7.10444 16.5 6.40666 16.5 5.83886 16.3278C4.56046 15.94 3.56004 14.9395 3.17224 13.6611C3 13.0933 3 12.3956 3 11V8.55573Z"
    stroke="#09101C"
    stroke-width="1.3"
  />
  <circle cx="10" cy="10.5" r="3" stroke="#09101C" stroke-width="1.3" />
</svg>
