<svg
  width="20"
  height="20"
  viewBox="0 0 20 20"
  fill="none"
  xmlns="http://www.w3.org/2000/svg"
>
  <path
    fill-rule="evenodd"
    clip-rule="evenodd"
    d="M8.30015 2.85H8.27192H8.27191C7.45577 2.84999 6.80363 2.84999 6.27683 2.89303C5.73637 2.93719 5.27086 3.02987 4.84309 3.24783C4.1563 3.59776 3.59792 4.15614 3.24798 4.84294C3.03002 5.27071 2.93734 5.73622 2.89318 6.27668C2.85014 6.80348 2.85015 7.45563 2.85015 8.27177L2.85015 8.3V11.7L2.85015 11.7282C2.85015 11.7741 2.85015 11.8195 2.85016 11.8644C2.85007 11.9466 2.8501 12.0312 2.85012 12.1182L2.85015 12.25L2.85012 12.3818C2.84979 13.418 2.84958 14.1009 3.04386 14.6733C3.19483 15.118 3.42787 15.5232 3.72537 15.8713C3.85742 16.0258 4.00217 16.1691 4.15809 16.2995C4.49955 16.5852 4.89454 16.8095 5.3269 16.9563C5.89923 17.1506 6.58215 17.1504 7.61836 17.15L7.75015 17.15H8.19224C8.21862 17.15 8.24518 17.15 8.27191 17.15H8.27192H8.30015H11.7002H11.7284H11.7284C11.7551 17.15 11.7817 17.15 11.8081 17.15H12.2502L12.3819 17.15C13.4182 17.1504 14.1011 17.1506 14.6734 16.9563C15.1182 16.8053 15.5234 16.5723 15.8715 16.2748C16.0249 16.1436 16.1672 16 16.2969 15.8453C16.5839 15.5031 16.8092 15.107 16.9564 14.6733C17.1507 14.1009 17.1505 13.418 17.1502 12.3818L17.1502 12.25L17.1502 12.1182C17.1502 12.0311 17.1502 11.9465 17.1501 11.8643C17.1502 11.8195 17.1502 11.7741 17.1502 11.7282V11.7282V11.7V8.3V8.27177V8.27176C17.1502 7.45562 17.1502 6.80348 17.1071 6.27668C17.063 5.73622 16.9703 5.27071 16.7523 4.84294C16.4024 4.15614 15.844 3.59776 15.1572 3.24783C14.7294 3.02987 14.2639 2.93719 13.7235 2.89303C13.1967 2.84999 12.5445 2.84999 11.7284 2.85H11.7002H8.30015ZM15.8501 8.20714C15.8501 7.40531 15.8482 6.83299 15.8114 6.38254C15.7738 5.92248 15.703 5.64709 15.594 5.43312C15.3687 4.99094 15.0092 4.63144 14.567 4.40614C14.3531 4.29712 14.0777 4.2263 13.6176 4.18871C13.15 4.15051 12.551 4.15 11.7002 4.15H8.30015C7.44935 4.15 6.85034 4.15051 6.38269 4.18871C5.92263 4.2263 5.64724 4.29712 5.43327 4.40614C4.99109 4.63144 4.63159 4.99094 4.40629 5.43312C4.29727 5.64709 4.22645 5.92248 4.18887 6.38254C4.15206 6.83298 4.15024 7.40531 4.15016 8.20714C4.49343 7.91827 4.89119 7.69161 5.3269 7.54371C5.89923 7.34943 6.58214 7.34964 7.61835 7.34997H7.61836L7.75015 7.35H12.2502L12.3819 7.34997C13.4182 7.34964 14.1011 7.34942 14.6734 7.54371C15.1091 7.69161 15.5069 7.91827 15.8501 8.20714ZM4.6579 14.959C4.56176 14.8376 4.47735 14.7063 4.40629 14.5669C4.29727 14.3529 4.22645 14.0775 4.18887 13.6175C4.15586 13.2135 4.15099 12.7115 4.15027 12.0338C4.15163 10.979 4.16599 10.5653 4.27487 10.2446C4.50971 9.5528 5.05295 9.00956 5.74477 8.77471C6.08655 8.6587 6.53381 8.65 7.75015 8.65H12.2502C13.4665 8.65 13.9138 8.6587 14.2555 8.77471C14.9474 9.00956 15.4906 9.5528 15.7254 10.2446C15.8343 10.5653 15.8487 10.979 15.85 12.0338C15.8493 12.7115 15.8444 13.2135 15.8114 13.6175C15.7738 14.0775 15.703 14.3529 15.594 14.5669C15.5095 14.7327 15.4062 14.8869 15.2867 15.0267C15.1896 15.1403 15.0818 15.2445 14.9649 15.3377C14.8419 15.4357 14.7087 15.5217 14.567 15.5939C14.3531 15.7029 14.0777 15.7737 13.6176 15.8113C13.1595 15.8487 12.5754 15.85 11.7521 15.85C11.7349 15.85 11.7176 15.85 11.7002 15.85H8.30015C8.28274 15.85 8.26544 15.85 8.24824 15.85C7.42489 15.85 6.84077 15.8487 6.38269 15.8113C5.92263 15.7737 5.64724 15.7029 5.43327 15.5939C5.26746 15.5094 5.11327 15.406 4.97342 15.2865C4.85796 15.1878 4.75228 15.0781 4.6579 14.959Z"
    fill="#09101C"
  />
</svg>
