<svg
  width="20"
  height="20"
  viewBox="0 0 20 20"
  fill="none"
  xmlns="http://www.w3.org/2000/svg"
>
  <path
    fill-rule="evenodd"
    clip-rule="evenodd"
    d="M17.4001 10C17.4001 5.91309 14.087 2.6 10.0001 2.6C5.91319 2.6 2.6001 5.9131 2.6001 10V10.2797C2.6001 11.5127 2.94618 12.7195 3.59698 13.7635L3.09628 16.1335C3.05084 16.3486 3.11719 16.572 3.27262 16.7275C3.42806 16.8829 3.65153 16.9493 3.8666 16.9038L6.2366 16.4031C7.28064 17.0539 8.48744 17.4 9.7204 17.4H10.0001C14.087 17.4 17.4001 14.0869 17.4001 10ZM10.0001 3.9C13.369 3.9 16.1001 6.63106 16.1001 10C16.1001 13.3689 13.369 16.1 10.0001 16.1H9.7204C8.67684 16.1 7.65664 15.7911 6.78835 15.2122C6.60303 15.0887 6.37576 15.045 6.15785 15.0911L4.57454 15.4256L4.90904 13.8422C4.95508 13.6243 4.9114 13.3971 4.78785 13.2117C4.20899 12.3435 3.9001 11.3233 3.9001 10.2797V10C3.9001 6.63107 6.63116 3.9 10.0001 3.9Z"
    fill="#09101C"
  />
  <circle cx="7.5" cy="10" r="1.5" stroke="#09101C" stroke-width="1.3" />
  <path d="M8.5 10H13.5V12" stroke="#09101C" stroke-width="1.3" />
  <path d="M11.5 10V11.5" stroke="#09101C" stroke-width="1.3" />
</svg>
