<svg
  width="20"
  height="20"
  viewBox="0 0 20 20"
  fill="none"
  xmlns="http://www.w3.org/2000/svg"
>
  <path
    fill-rule="evenodd"
    clip-rule="evenodd"
    d="M5.5068 7.9178L6.5068 1.9178L7.4932 2.0822L6.4932 8.0822L5.5068 7.9178ZM4.14652 2.14645L1.64652 4.64645L1.29297 5L1.64652 5.35355L4.14652 7.85355L4.85363 7.14645L2.70718 5L4.85363 2.85355L4.14652 2.14645ZM17.1501 7.5C17.1501 4.93188 15.0682 2.85 12.5001 2.85V4.15C14.3502 4.15 15.8501 5.64985 15.8501 7.5V10.1C15.8501 11.2308 15.8496 12.0399 15.7977 12.6743C15.7465 13.3011 15.6485 13.6999 15.4849 14.0209C15.1638 14.6512 14.6513 15.1637 14.0209 15.4849C13.7 15.6484 13.3011 15.7464 12.6743 15.7977C12.0399 15.8495 11.2309 15.85 10.1001 15.85H9.90008C8.76925 15.85 7.96021 15.8495 7.32581 15.7977C6.699 15.7464 6.30013 15.6484 5.97921 15.4849C5.34886 15.1637 4.83638 14.6512 4.5152 14.0209C4.35169 13.6999 4.25363 13.3011 4.20241 12.6743C4.15058 12.0399 4.15008 11.2308 4.15008 10.1V9H2.85008V10.1L2.85008 10.1289C2.85007 11.2245 2.85007 12.0866 2.90673 12.7801C2.96451 13.4873 3.08444 14.0763 3.35689 14.6111C3.80271 15.486 4.51407 16.1974 5.38902 16.6432C5.92375 16.9156 6.51275 17.0356 7.21995 17.0933C7.91348 17.15 8.77554 17.15 9.87116 17.15H9.90008H10.1001H10.129C11.2246 17.15 12.0867 17.15 12.7802 17.0933C13.4874 17.0356 14.0764 16.9156 14.6111 16.6432C15.4861 16.1974 16.1974 15.486 16.6433 14.6111C16.9157 14.0763 17.0356 13.4873 17.0934 12.7801C17.1501 12.0866 17.1501 11.2245 17.1501 10.1289V10.1V7.5ZM8.85355 7.85355L11.3536 5.35355L11.7071 5L11.3536 4.64645L8.85355 2.14645L8.14645 2.85355L10.2929 5L8.14645 7.14645L8.85355 7.85355Z"
    fill="#09101C"
  />
</svg>
