<svg
  width="20"
  height="20"
  viewBox="0 0 20 20"
  fill="none"
  xmlns="http://www.w3.org/2000/svg"
>
  <path
    fill-rule="evenodd"
    clip-rule="evenodd"
    d="M15.763 4.237L15.7151 4.18904C15.4334 3.9071 15.2261 3.6997 15.0079 3.55388C14.1167 2.95841 12.9546 2.95841 12.0634 3.55388C11.8451 3.6997 11.6379 3.9071 11.3562 4.18904L11.3083 4.237L10.2311 5.31413C10.3751 5.4252 10.5411 5.5912 10.7779 5.82799L11.1668 6.2169L12.2275 5.15624C12.5781 4.80564 12.6885 4.6997 12.7856 4.63479C13.2396 4.33144 13.8317 4.33144 14.2857 4.63479C14.3828 4.6997 14.4932 4.80564 14.8438 5.15624C15.1944 5.50683 15.3003 5.61723 15.3652 5.71436C15.6686 6.16837 15.6686 6.7604 15.3652 7.2144C15.3003 7.31154 15.1944 7.42194 14.8438 7.77253L13.7831 8.83319L14.172 9.2221C14.4088 9.45889 14.5748 9.62489 14.6859 9.7689L15.763 8.69177L15.811 8.64384L15.811 8.64383C16.0929 8.36211 16.3003 8.15488 16.4461 7.93664C17.0416 7.04545 17.0416 5.88331 16.4461 4.99212C16.3003 4.77388 16.0929 4.56665 15.811 4.28493L15.763 4.237ZM12.9346 11.5202L12.0154 10.601L8.9455 13.6708C8.62307 13.9933 8.52528 14.0864 8.42011 14.1549C8.31514 14.2232 8.20116 14.2766 8.08147 14.3135C7.96157 14.3505 7.82737 14.3659 7.37325 14.4072L5.41476 14.5853L5.5928 12.6268C5.63409 12.1727 5.64955 12.0385 5.68652 11.9186C5.72343 11.7989 5.77681 11.6849 5.84514 11.5799C5.91358 11.4748 6.00677 11.377 6.32921 11.0545L9.39907 7.98466L8.47983 7.06542L5.40997 10.1353L5.36861 10.1766C5.10506 10.44 4.90751 10.6374 4.75559 10.8708C4.62147 11.0768 4.51668 11.3006 4.44423 11.5355C4.36217 11.8017 4.337 12.0798 4.30342 12.4509L4.29814 12.5091L4.04948 15.2444C4.03201 15.4365 4.10079 15.6264 4.23719 15.7628C4.3736 15.8992 4.56354 15.968 4.75566 15.9505L7.49094 15.7019L7.54918 15.6966C7.92024 15.663 8.19836 15.6379 8.4645 15.5558C8.69946 15.4834 8.92319 15.3786 9.12925 15.2444C9.36267 15.0925 9.56006 14.895 9.82341 14.6314L9.86474 14.5901L12.9346 11.5202Z"
    fill="#09101C"
  />
  <path
    d="M8.76267 7.34834L12.6518 11.2374C12.816 11.4017 12.8982 11.4839 12.9801 11.5386C13.3164 11.7633 13.7549 11.7633 14.0912 11.5386C14.1731 11.4839 14.2552 11.4017 14.4195 11.2374C14.5838 11.0732 14.6659 10.991 14.7207 10.9091C14.9454 10.5728 14.9454 10.1343 14.7207 9.79798C14.6659 9.71608 14.5838 9.63394 14.4195 9.46966L10.5304 5.58058C10.3662 5.4163 10.284 5.33416 10.2021 5.27944C9.86583 5.05473 9.42728 5.05473 9.09099 5.27944C9.00909 5.33416 8.92695 5.4163 8.76267 5.58058C8.59839 5.74486 8.51625 5.827 8.46153 5.90889C8.23683 6.24519 8.23683 6.68373 8.46153 7.02003C8.51625 7.10192 8.59839 7.18406 8.76267 7.34834Z"
    stroke="#09101C"
    stroke-width="1.3"
    stroke-linejoin="round"
  />
</svg>
