<svg
  width="20"
  height="20"
  viewBox="0 0 20 20"
  fill="none"
  xmlns="http://www.w3.org/2000/svg"
>
  <path
    fill-rule="evenodd"
    clip-rule="evenodd"
    d="M15.6333 4.15C9.29124 4.15 4.14998 9.29126 4.14998 15.6333C4.14998 15.753 4.24698 15.85 4.36664 15.85H5.86949C6.19244 10.4859 10.4858 6.19246 15.85 5.86951V4.36667C15.85 4.24701 15.753 4.15 15.6333 4.15ZM9.37912 15.85H7.17222C7.49124 11.2041 11.2041 7.49126 15.85 7.17224V9.37915C12.4198 9.68825 9.68823 12.4199 9.37912 15.85ZM10.6857 15.85H13.3541C13.4292 14.5059 14.5059 13.4292 15.85 13.3542V10.6857C13.1384 10.9855 10.9854 13.1384 10.6857 15.85ZM2.84998 15.6333C2.84998 8.57329 8.57327 2.85 15.6333 2.85C16.4709 2.85 17.15 3.52904 17.15 4.36667V13.5C17.15 14.1351 16.6351 14.65 16 14.65C15.2544 14.65 14.65 15.2544 14.65 16C14.65 16.6351 14.1351 17.15 13.5 17.15H4.36664C3.52901 17.15 2.84998 16.471 2.84998 15.6333Z"
    fill="#09101C"
  />
</svg>
