<svg
  width="20"
  height="20"
  viewBox="0 0 20 20"
  fill="none"
  xmlns="http://www.w3.org/2000/svg"
>
  <path
    d="M13 17H7L10 9L13 17Z"
    stroke="black"
    stroke-width="1.3"
    stroke-linejoin="round"
  />
  <path
    d="M10 9V7"
    stroke="black"
    stroke-width="1.3"
    stroke-linecap="square"
    stroke-linejoin="round"
  />
  <path
    d="M5 3C4.38503 3.43785 3.88056 4.03224 3.5316 4.73018C3.18263 5.42812 3 6.2079 3 7C3 7.7921 3.18263 8.57188 3.5316 9.26982C3.88056 9.96776 4.38503 10.5622 5 11"
    stroke="black"
    stroke-width="1.3"
    stroke-linecap="square"
    stroke-linejoin="round"
  />
  <path
    d="M7 5C6.35899 5.53429 6 6.25227 6 7C6 7.74773 6.35899 8.46571 7 9"
    stroke="black"
    stroke-width="1.3"
    stroke-linecap="square"
    stroke-linejoin="round"
  />
  <path
    d="M15 11C15.615 10.5622 16.1194 9.96776 16.4684 9.26982C16.8174 8.57188 17 7.7921 17 7C17 6.2079 16.8174 5.42812 16.4684 4.73018C16.1194 4.03224 15.615 3.43785 15 3"
    stroke="black"
    stroke-width="1.3"
    stroke-linecap="square"
    stroke-linejoin="round"
  />
  <path
    d="M13 9C13.641 8.46571 14 7.74773 14 7C14 6.25227 13.641 5.53429 13 5"
    stroke="black"
    stroke-width="1.3"
    stroke-linecap="square"
    stroke-linejoin="round"
  />
</svg>
