<svg
  width="20"
  height="20"
  viewBox="0 0 20 20"
  fill="none"
  xmlns="http://www.w3.org/2000/svg"
>
  <path
    fill-rule="evenodd"
    clip-rule="evenodd"
    d="M16.65 7.77177V7.8V12.2V12.2282V12.2282V12.2283V12.2283V12.2283C16.65 13.0444 16.65 13.6965 16.607 14.2233C16.5628 14.7638 16.4701 15.2293 16.2522 15.6571C15.9022 16.3439 15.3439 16.9022 14.6571 17.2522C14.2293 17.4701 13.7638 17.5628 13.2233 17.607C12.6965 17.65 12.0444 17.65 11.2283 17.65H11.2283H11.2283H11.2282H11.2282H11.2H8.8H8.77177C7.95563 17.65 7.30348 17.65 6.77667 17.607C6.23622 17.5628 5.77071 17.4701 5.34293 17.2522C4.65614 16.9022 4.09776 16.3439 3.74783 15.6571C3.52986 15.2293 3.43719 14.7638 3.39303 14.2233C3.35768 13.7906 3.35137 13.2733 3.35024 12.65H3C2.64101 12.65 2.35 12.359 2.35 12C2.35 11.641 2.64101 11.35 3 11.35H3.35L3.35 8.65H3C2.64101 8.65 2.35 8.35898 2.35 8C2.35 7.64102 2.64101 7.35 3 7.35H3.35024C3.35137 6.7267 3.35768 6.2094 3.39303 5.77667C3.43719 5.23622 3.52987 4.7707 3.74783 4.34293C4.09776 3.65614 4.65614 3.09776 5.34293 2.74782C5.77071 2.52986 6.23622 2.43719 6.77668 2.39303C7.30348 2.34999 7.95563 2.34999 8.77177 2.35H8.8H11.2H11.2282C12.0444 2.34999 12.6965 2.34999 13.2233 2.39303C13.7638 2.43719 14.2293 2.52986 14.6571 2.74783C15.3439 3.09776 15.9022 3.65614 16.2522 4.34293C16.4701 4.77071 16.5628 5.23622 16.607 5.77667C16.65 6.30347 16.65 6.9556 16.65 7.77172V7.77173V7.77174V7.77175V7.77177ZM4.65 11.35L4.65 8.65H5C5.35899 8.65 5.65 8.35898 5.65 8C5.65 7.64102 5.35899 7.35 5 7.35H4.65029C4.6515 6.7306 4.65762 6.26308 4.68871 5.88253C4.7263 5.42248 4.79711 5.14708 4.90613 4.93312C5.13144 4.49094 5.49094 4.13144 5.93312 3.90613C6.14709 3.79711 6.42248 3.7263 6.88254 3.68871C7.35018 3.6505 7.9492 3.65 8.8 3.65L11.2 3.65C12.0508 3.65 12.6498 3.6505 13.1175 3.68871C13.5775 3.7263 13.8529 3.79711 14.0669 3.90613C14.5091 4.13144 14.8686 4.49094 15.0939 4.93312C15.2029 5.14708 15.2737 5.42248 15.3113 5.88254C15.3495 6.35018 15.35 6.94919 15.35 7.8V12.2C15.35 13.0508 15.3495 13.6498 15.3113 14.1175C15.2737 14.5775 15.2029 14.8529 15.0939 15.0669C14.8686 15.5091 14.5091 15.8686 14.0669 16.0939C13.8529 16.2029 13.5775 16.2737 13.1175 16.3113C12.6498 16.3495 12.0508 16.35 11.2 16.35H8.8C7.9492 16.35 7.35018 16.3495 6.88254 16.3113C6.42248 16.2737 6.14709 16.2029 5.93312 16.0939C5.49094 15.8686 5.13144 15.5091 4.90613 15.0669C4.79711 14.8529 4.7263 14.5775 4.68871 14.1175C4.65762 13.7369 4.6515 13.2694 4.65029 12.65H5C5.35899 12.65 5.65 12.359 5.65 12C5.65 11.641 5.35899 11.35 5 11.35H4.65ZM6.3501 13.25C6.3501 11.6484 7.64847 10.35 9.2501 10.35H10.7501C12.3517 10.35 13.6501 11.6484 13.6501 13.25C13.6501 14.0232 13.0233 14.65 12.2501 14.65H7.7501C6.9769 14.65 6.3501 14.0232 6.3501 13.25ZM9.2501 11.65C8.36644 11.65 7.6501 12.3663 7.6501 13.25C7.6501 13.3052 7.69487 13.35 7.7501 13.35H12.2501C12.3053 13.35 12.3501 13.3052 12.3501 13.25C12.3501 12.3663 11.6338 11.65 10.7501 11.65H9.2501ZM9.1501 7.5C9.1501 7.03056 9.53066 6.65 10.0001 6.65C10.4695 6.65 10.8501 7.03056 10.8501 7.5C10.8501 7.96944 10.4695 8.35 10.0001 8.35C9.53066 8.35 9.1501 7.96944 9.1501 7.5ZM10.0001 5.35C8.81269 5.35 7.8501 6.31259 7.8501 7.5C7.8501 8.68741 8.81269 9.65 10.0001 9.65C11.1875 9.65 12.1501 8.68741 12.1501 7.5C12.1501 6.31259 11.1875 5.35 10.0001 5.35Z"
    fill="#09101C"
  />
</svg>
