<svg
  width="20"
  height="20"
  viewBox="0 0 20 20"
  fill="none"
  xmlns="http://www.w3.org/2000/svg"
>
  <path
    d="M12.5 5.75V5.75C12.5 5.51783 12.5 5.40175 12.4904 5.30397C12.3968 4.35441 11.6456 3.60315 10.696 3.50963C10.5983 3.5 10.4822 3.5 10.25 3.5H8.3C6.61984 3.5 5.77976 3.5 5.13803 3.82698C4.57354 4.1146 4.1146 4.57354 3.82698 5.13803C3.5 5.77976 3.5 6.61984 3.5 8.3V10.25C3.5 10.4822 3.5 10.5983 3.50963 10.696C3.60315 11.6456 4.35441 12.3968 5.30397 12.4904C5.40175 12.5 5.51783 12.5 5.75 12.5V12.5"
    stroke="#1B273D"
    stroke-opacity="0.3"
    stroke-width="1.3"
  />
  <rect
    x="7.5"
    y="7.5"
    width="9"
    height="9"
    rx="3"
    stroke="#09101C"
    stroke-width="1.3"
  />
</svg>
