<svg
  width="20"
  height="20"
  viewBox="0 0 20 20"
  fill="none"
  xmlns="http://www.w3.org/2000/svg"
>
  <path
    d="M11 4L12.0072 6.01448C12.3424 6.68483 12.51 7.02001 12.7603 7.16986C12.9795 7.30103 13.2405 7.34339 13.4899 7.28825C13.7748 7.22525 14.0397 6.96027 14.5697 6.43031L16 5M9 4L7.99276 6.01448C7.65758 6.68483 7.49 7.02001 7.23966 7.16986C7.02052 7.30103 6.7595 7.34339 6.51013 7.28825C6.22525 7.22525 5.96027 6.96027 5.43031 6.43031L4 5M2.375 5.625L2.5 6.5L3 10L3.21501 11.5051C3.49335 13.4535 3.63252 14.4276 4.1028 15.1604C4.51723 15.8062 5.10865 16.3191 5.80654 16.6381C6.59847 17 7.58254 17 9.55069 17H10.4493C12.4175 17 13.4015 17 14.1935 16.6381C14.8913 16.3191 15.4828 15.8062 15.8972 15.1604C16.3675 14.4276 16.5066 13.4535 16.785 11.5051L17 10L17.5 6.5L17.625 5.625"
    stroke="#09101C"
    stroke-width="1.3"
  />
  <path
    d="M3.5 13C3.5 13 5 14 10 14C15 14 16.5 13 16.5 13"
    stroke="#09101C"
    stroke-width="1.3"
  />
  <circle cx="10" cy="3.5" r="1.5" stroke="#09101C" stroke-width="1.3" />
  <circle cx="3" cy="4.5" r="1.5" stroke="#09101C" stroke-width="1.3" />
  <circle cx="17" cy="4.5" r="1.5" stroke="#09101C" stroke-width="1.3" />
</svg>
