<svg
  width="20"
  height="20"
  viewBox="0 0 20 20"
  fill="none"
  xmlns="http://www.w3.org/2000/svg"
>
  <path
    fill-rule="evenodd"
    clip-rule="evenodd"
    d="M3.8501 8.98087C4.00477 9 4.20604 9 4.5001 9C4.79416 9 4.99543 9 5.1501 8.98087L5.1501 16L3.8501 16L3.8501 8.98087ZM3.8501 5.51913C4.00477 5.5 4.20604 5.5 4.5001 5.5C4.79416 5.5 4.99543 5.5 5.1501 5.51913L5.1501 3.5L3.8501 3.5L3.8501 5.51913Z"
    fill="#1B273D"
    fill-opacity="0.3"
  />
  <path
    fill-rule="evenodd"
    clip-rule="evenodd"
    d="M9.3501 13.9809C9.50477 14 9.70604 14 10.0001 14C10.2942 14 10.4954 14 10.6501 13.9809L10.6501 16.5L9.3501 16.5L9.3501 13.9809ZM9.3501 10.5191C9.50477 10.5 9.70604 10.5 10.0001 10.5C10.2942 10.5 10.4954 10.5 10.6501 10.5191L10.6501 4L9.3501 4L9.3501 10.5191Z"
    fill="#1B273D"
    fill-opacity="0.3"
  />
  <path
    fill-rule="evenodd"
    clip-rule="evenodd"
    d="M14.8501 8.98087C15.0048 9 15.206 9 15.5001 9C15.7942 9 15.9954 9 16.1501 8.98087L16.1501 16L14.8501 16L14.8501 8.98087ZM14.8501 5.51913C15.0048 5.5 15.206 5.5 15.5001 5.5C15.7942 5.5 15.9954 5.5 16.1501 5.51913L16.1501 3.5L14.8501 3.5L14.8501 5.51913Z"
    fill="#1B273D"
    fill-opacity="0.3"
  />
  <path
    d="M4.5 9C3.67157 9 3 8.32843 3 7.5V7.5C3 6.67157 3.67157 6 4.5 6V6C5.32843 6 6 6.67157 6 7.5V7.5C6 8.32843 5.32843 9 4.5 9V9Z"
    stroke="#09101C"
    stroke-width="1.3"
  />
  <path
    d="M10 14C9.17157 14 8.5 13.3284 8.5 12.5V12.5C8.5 11.6716 9.17157 11 10 11V11C10.8284 11 11.5 11.6716 11.5 12.5V12.5C11.5 13.3284 10.8284 14 10 14V14Z"
    stroke="#09101C"
    stroke-width="1.3"
  />
  <path
    d="M15.5 9C14.6716 9 14 8.32843 14 7.5V7.5C14 6.67157 14.6716 6 15.5 6V6C16.3284 6 17 6.67157 17 7.5V7.5C17 8.32843 16.3284 9 15.5 9V9Z"
    stroke="#09101C"
    stroke-width="1.3"
  />
</svg>
