<svg
  width="20"
  height="20"
  viewBox="0 0 20 20"
  fill="none"
  xmlns="http://www.w3.org/2000/svg"
>
  <path
    d="M7.52524 4.02513L7.77399 4.62565H7.77399L7.52524 4.02513ZM9.65194 3.54222L10.2791 3.71317L10.5158 2.84472L9.61695 2.89316L9.65194 3.54222ZM4.02524 7.52513L4.62576 7.77387L4.02524 7.52513ZM4.02524 12.4749L4.62576 12.2261L4.02524 12.4749ZM15.975 12.4749L16.5755 12.7236L15.975 12.4749ZM16.4579 10.3482L17.107 10.3832L17.1554 9.48433L16.2869 9.72106L16.4579 10.3482ZM12.8788 10.1213L13.1275 9.5208L12.8788 10.1213ZM9.8788 7.12132L9.27827 7.37006L9.8788 7.12132ZM7.77399 4.62565C8.38833 4.37118 9.03534 4.2264 9.68692 4.19128L9.61695 2.89316C8.81978 2.93613 8.0281 3.11328 7.2765 3.4246L7.77399 4.62565ZM4.62576 7.77387C5.21617 6.3485 6.34862 5.21605 7.77399 4.62565L7.2765 3.4246C5.53259 4.14695 4.14707 5.53248 3.42472 7.27638L4.62576 7.77387ZM4.62576 12.2261C4.03536 10.8008 4.03536 9.19924 4.62576 7.77387L3.42472 7.27638C2.70237 9.02029 2.70237 10.9797 3.42472 12.7236L4.62576 12.2261ZM7.77399 15.3744C6.34862 14.7839 5.21617 13.6515 4.62576 12.2261L3.42472 12.7236C4.14707 14.4675 5.53259 15.853 7.2765 16.5754L7.77399 15.3744ZM12.2262 15.3744C10.8009 15.9648 9.19935 15.9648 7.77399 15.3744L7.2765 16.5754C9.0204 17.2977 10.9798 17.2977 12.7237 16.5754L12.2262 15.3744ZM15.3745 12.2261C14.7841 13.6515 13.6516 14.7839 12.2262 15.3744L12.7237 16.5754C14.4676 15.853 15.8532 14.4675 16.5755 12.7236L15.3745 12.2261ZM15.8088 10.3132C15.7737 10.9648 15.6289 11.6118 15.3745 12.2261L16.5755 12.7236C16.8868 11.972 17.064 11.1803 17.107 10.3832L15.8088 10.3132ZM16.2869 9.72106C15.2464 10.0047 14.1347 9.93796 13.1275 9.5208L12.6301 10.7218C13.9048 11.2498 15.3118 11.3343 16.6288 10.9753L16.2869 9.72106ZM13.1275 9.5208C11.9285 9.02416 10.976 8.07157 10.4793 6.87258L9.27827 7.37006C9.90685 8.88759 11.1125 10.0933 12.6301 10.7218L13.1275 9.5208ZM10.4793 6.87258C10.0622 5.86546 9.99539 4.75376 10.2791 3.71317L9.02482 3.37127C8.66579 4.68832 8.75027 6.09534 9.27827 7.37006L10.4793 6.87258Z"
    fill="black"
  />
</svg>
