<svg
  width="20"
  height="20"
  viewBox="0 0 20 20"
  fill="none"
  xmlns="http://www.w3.org/2000/svg"
>
  <path
    fill-rule="evenodd"
    clip-rule="evenodd"
    d="M8.8001 2.35H8.77186H8.77186C7.95572 2.34999 7.30358 2.34999 6.77677 2.39303C6.23632 2.43719 5.7708 2.52987 5.34303 2.74783C4.65624 3.09776 4.09786 3.65614 3.74792 4.34294C3.52996 4.77071 3.43729 5.23622 3.39313 5.77668C3.35009 6.30348 3.35009 6.95562 3.3501 7.77176V7.77177V7.8V12.2V12.2282C3.35009 13.0444 3.35009 13.6965 3.39313 14.2233C3.43729 14.7638 3.52996 15.2293 3.74792 15.6571C4.09786 16.3439 4.65624 16.9022 5.34303 17.2522C5.7708 17.4701 6.23632 17.5628 6.77677 17.607C7.30358 17.65 7.95572 17.65 8.77186 17.65H8.77187H8.8001H11.2001H11.2283H11.2283C12.0445 17.65 12.6966 17.65 13.2234 17.607C13.7639 17.5628 14.2294 17.4701 14.6572 17.2522C15.344 16.9022 15.9023 16.3439 16.2523 15.6571C16.4702 15.2293 16.5629 14.7638 16.6071 14.2233C16.6501 13.6965 16.6501 13.0444 16.6501 12.2282V12.2282V12.2V7.8V7.77177V7.77176C16.6501 6.95562 16.6501 6.30348 16.6071 5.77668C16.5629 5.23622 16.4702 4.77071 16.2523 4.34294C15.9023 3.65614 15.344 3.09776 14.6572 2.74783C14.2294 2.52987 13.7639 2.43719 13.2234 2.39303C12.6966 2.34999 12.0445 2.34999 11.2283 2.35H11.2283H11.2001H8.8001ZM5.93322 3.90614C6.14718 3.79712 6.42257 3.7263 6.88263 3.68871C7.35028 3.65051 7.94929 3.65 8.8001 3.65H11.2001C12.0509 3.65 12.6499 3.65051 13.1176 3.68871C13.5776 3.7263 13.853 3.79712 14.067 3.90614C14.5092 4.13144 14.8687 4.49094 15.094 4.93312C15.203 5.14709 15.2738 5.42248 15.3114 5.88254C15.3496 6.35018 15.3501 6.9492 15.3501 7.8V12.2C15.3501 13.0508 15.3496 13.6498 15.3114 14.1175C15.2738 14.5775 15.203 14.8529 15.094 15.0669C14.8687 15.5091 14.5092 15.8686 14.067 16.0939C13.853 16.2029 13.5776 16.2737 13.1176 16.3113C12.6499 16.3495 12.0509 16.35 11.2001 16.35H8.8001C7.94929 16.35 7.35028 16.3495 6.88263 16.3113C6.42257 16.2737 6.14718 16.2029 5.93322 16.0939C5.49104 15.8686 5.13153 15.5091 4.90623 15.0669C4.79721 14.8529 4.7264 14.5775 4.68881 14.1175C4.6506 13.6498 4.6501 13.0508 4.6501 12.2V7.8C4.6501 6.9492 4.6506 6.35019 4.68881 5.88254C4.7264 5.42248 4.79721 5.14709 4.90623 4.93312C5.13153 4.49094 5.49104 4.13144 5.93322 3.90614ZM8.5001 15.15H11.5001V13.85H8.5001V15.15Z"
    fill="#09101C"
  />
</svg>
