<svg
  width="20"
  height="20"
  viewBox="0 0 20 20"
  fill="none"
  xmlns="http://www.w3.org/2000/svg"
>
  <path
    fill-rule="evenodd"
    clip-rule="evenodd"
    d="M7.34996 4.5C7.34996 3.03645 8.5364 1.85 9.99996 1.85C11.4635 1.85 12.65 3.03645 12.65 4.5V4.98845C13.5981 5.08647 14.4372 5.22457 15.1274 5.36262C15.7687 5.49087 16.2832 5.61943 16.6397 5.71665C16.818 5.76528 16.9569 5.80611 17.0525 5.83519C17.1003 5.84974 17.1373 5.86135 17.1629 5.86954L17.1929 5.8792L17.2014 5.88199L17.204 5.88285L17.2049 5.88315L17.2052 5.88326C17.2054 5.88331 17.2055 5.88336 17 6.5C16.7944 7.11664 16.7945 7.11668 16.7946 7.11671L16.7942 7.11656L16.7896 7.11506L16.7677 7.108C16.7474 7.10154 16.716 7.09167 16.674 7.07887C16.5899 7.05327 16.4631 7.01597 16.2977 6.97085C16.1232 6.92325 15.9058 6.867 15.65 6.8066V11.7V11.7282V11.7282V11.7283V11.7283V11.7283C15.65 12.5444 15.65 13.1965 15.6069 13.7233C15.5628 14.2638 15.4701 14.7293 15.2521 15.1571C14.9022 15.8439 14.3438 16.4022 13.657 16.7522C13.2293 16.9701 12.7637 17.0628 12.2233 17.107C11.6965 17.15 11.0444 17.15 10.2283 17.15H10.2283H10.2283H10.2283H10.2282H10.2H9.79996H9.77173H9.77166H9.77165H9.77164H9.77163C8.95553 17.15 8.30342 17.15 7.77663 17.107C7.23618 17.0628 6.77066 16.9701 6.34289 16.7522C5.6561 16.4022 5.09772 15.8439 4.74778 15.1571C4.52982 14.7293 4.43715 14.2638 4.39299 13.7233C4.34995 13.1965 4.34995 12.5444 4.34996 11.7282L4.34996 11.7V6.8066C4.09417 6.867 3.87674 6.92325 3.70223 6.97085C3.53678 7.01597 3.41005 7.05327 3.32593 7.07887C3.28388 7.09167 3.25249 7.10154 3.23225 7.108L3.21033 7.11506L3.20576 7.11656L3.2053 7.11671C3.2054 7.11668 3.20551 7.11664 2.99996 6.5C2.79441 5.88336 2.79454 5.88331 2.79469 5.88326L2.79503 5.88315L2.79593 5.88285L2.79854 5.88199L2.80704 5.8792L2.837 5.86954C2.86266 5.86135 2.89963 5.84974 2.94742 5.83519C3.04299 5.80611 3.18189 5.76528 3.36018 5.71665C3.71668 5.61943 4.23127 5.49087 4.87248 5.36262C5.56274 5.22457 6.40179 5.08647 7.34996 4.98845V4.5ZM5.64996 6.53875V11.7C5.64996 12.5508 5.65046 13.1498 5.68867 13.6175C5.72626 14.0775 5.79707 14.3529 5.90609 14.5669C6.1314 15.0091 6.4909 15.3686 6.93308 15.5939C7.14704 15.7029 7.42243 15.7737 7.88249 15.8113C8.35014 15.8495 8.94915 15.85 9.79996 15.85H10.2C11.0508 15.85 11.6498 15.8495 12.1174 15.8113C12.5775 15.7737 12.8529 15.7029 13.0668 15.5939C13.509 15.3686 13.8685 15.0091 14.0938 14.5669C14.2028 14.3529 14.2737 14.0775 14.3112 13.6175C14.3495 13.1498 14.35 12.5508 14.35 11.7V6.53875C13.1861 6.33198 11.6831 6.15 9.99996 6.15C8.31682 6.15 6.81382 6.33198 5.64996 6.53875ZM9.99996 4.85H11.35V4.5C11.35 3.75442 10.7455 3.15 9.99996 3.15C9.25437 3.15 8.64996 3.75442 8.64996 4.5V4.85H9.99996ZM7.84996 9V13H9.14996V9H7.84996ZM10.85 13V9H12.15V13H10.85Z"
    fill="#09101C"
  />
</svg>
