<svg
  width="20"
  height="20"
  viewBox="0 0 20 20"
  fill="none"
  xmlns="http://www.w3.org/2000/svg"
>
  <path
    fill-rule="evenodd"
    clip-rule="evenodd"
    d="M6.67316 3.35H6.7001H13.3001H13.327H13.3271C13.8642 3.34999 14.3065 3.34998 14.6666 3.37941C15.0403 3.40994 15.3824 3.47537 15.7032 3.63883C16.2018 3.8929 16.6072 4.29829 16.8613 4.79692C17.0247 5.11774 17.0902 5.45977 17.1207 5.83347C17.1501 6.19358 17.1501 6.63591 17.1501 7.17306V7.2V10.8V10.8269C17.1501 11.3641 17.1501 11.8064 17.1207 12.1665C17.0902 12.5402 17.0247 12.8823 16.8613 13.2031C16.6072 13.7017 16.2018 14.1071 15.7032 14.3612C15.3824 14.5246 15.0403 14.5901 14.6666 14.6206C14.3065 14.65 13.8642 14.65 13.327 14.65H13.3001H12.1501V16.35H13.5001V17.65H6.5001V16.35H7.8501V14.65H6.7001H6.67316C6.136 14.65 5.69368 14.65 5.33357 14.6206C4.95987 14.5901 4.61784 14.5246 4.29702 14.3612C3.79839 14.1071 3.393 13.7017 3.13893 13.2031C2.97547 12.8823 2.91004 12.5402 2.87951 12.1665C2.85008 11.8064 2.85009 11.3641 2.8501 10.8269V10.8V7.2V7.17306V7.17306C2.85009 6.6359 2.85008 6.19358 2.87951 5.83347C2.91004 5.45977 2.97547 5.11774 3.13893 4.79692C3.393 4.29829 3.79839 3.8929 4.29702 3.63883C4.61784 3.47537 4.95987 3.40994 5.33357 3.37941C5.69368 3.34998 6.13599 3.34999 6.67313 3.35H6.67316ZM10.8501 16.35V14.65H9.1501V16.35H10.8501ZM5.43943 4.67509C5.14613 4.69905 4.99422 4.74262 4.88721 4.79714C4.63319 4.92657 4.42667 5.13309 4.29724 5.38711C4.24272 5.49412 4.19915 5.64603 4.17519 5.93933C4.1506 6.24023 4.1501 6.62922 4.1501 7.2V10.35H15.8501V7.2C15.8501 6.62922 15.8496 6.24023 15.825 5.93933C15.801 5.64603 15.7575 5.49412 15.703 5.38711C15.5735 5.13309 15.367 4.92657 15.113 4.79714C15.006 4.74262 14.8541 4.69905 14.5608 4.67509C14.2599 4.6505 13.8709 4.65 13.3001 4.65H6.7001C6.12932 4.65 5.74033 4.6505 5.43943 4.67509ZM4.17519 12.0607C4.16533 11.94 4.15934 11.8051 4.1557 11.65H15.8445C15.8409 11.8051 15.8349 11.94 15.825 12.0607C15.801 12.354 15.7575 12.5059 15.703 12.6129C15.5735 12.8669 15.367 13.0734 15.113 13.2029C15.006 13.2574 14.8541 13.3009 14.5608 13.3249C14.2599 13.3495 13.8709 13.35 13.3001 13.35H6.7001C6.12932 13.35 5.74033 13.3495 5.43943 13.3249C5.14613 13.3009 4.99422 13.2574 4.88721 13.2029C4.63319 13.0734 4.42667 12.8669 4.29724 12.6129C4.24272 12.5059 4.19915 12.354 4.17519 12.0607Z"
    fill="#09101C"
  />
</svg>
