<svg
  width="20"
  height="20"
  viewBox="0 0 20 20"
  fill="none"
  xmlns="http://www.w3.org/2000/svg"
>
  <path
    fill-rule="evenodd"
    clip-rule="evenodd"
    d="M15.7631 4.23708L15.7152 4.18912L15.7152 4.18911C15.4334 3.90718 15.2262 3.69979 15.008 3.55396C14.1168 2.95849 12.9546 2.95849 12.0635 3.55396C11.8452 3.69979 11.638 3.90718 11.3563 4.18912L11.3083 4.23708L5.41004 10.1354L5.36868 10.1767L5.36868 10.1767C5.10512 10.44 4.90758 10.6374 4.75565 10.8709C4.62153 11.0769 4.51674 11.3007 4.4443 11.5356C4.36224 11.8018 4.33707 12.0799 4.30349 12.4509L4.29821 12.5092L4.04955 15.2445C4.03208 15.4366 4.10085 15.6265 4.23726 15.7629C4.37366 15.8993 4.56361 15.9681 4.75573 15.9506L7.49101 15.702L7.54924 15.6967H7.54925C7.92031 15.6631 8.19843 15.6379 8.46457 15.5559C8.69952 15.4834 8.92325 15.3786 9.12932 15.2445C9.36274 15.0926 9.56013 14.8951 9.82348 14.6315L9.86481 14.5901L15.7631 8.69185L15.8111 8.64392L15.8111 8.6439C16.093 8.36219 16.3004 8.15496 16.4462 7.93673C17.0417 7.04554 17.0417 5.88339 16.4462 4.9922C16.3004 4.77396 16.093 4.56673 15.8111 4.28501L15.7631 4.23708ZM14.2857 4.63487C14.3829 4.69978 14.4933 4.80573 14.8439 5.15632C15.1945 5.50691 15.3004 5.61731 15.3653 5.71445C15.6687 6.16845 15.6687 6.76048 15.3653 7.21449C15.3004 7.31162 15.1945 7.42202 14.8439 7.77261L13.5357 9.08082L10.9194 6.46452L12.2276 5.15632C12.5782 4.80573 12.6886 4.69978 12.7857 4.63487C13.2397 4.33152 13.8317 4.33152 14.2857 4.63487ZM10.0001 7.38376L6.32928 11.0546C6.00684 11.377 5.91365 11.4748 5.8452 11.58C5.77688 11.685 5.7235 11.7989 5.68659 11.9186C5.64962 12.0385 5.63415 12.1727 5.59287 12.6269L5.41483 14.5854L7.37331 14.4073C7.82744 14.366 7.96163 14.3506 8.08153 14.3136C8.20123 14.2767 8.3152 14.2233 8.42018 14.155C8.52534 14.0865 8.62313 13.9933 8.94557 13.6709L12.6164 10.0001L10.0001 7.38376Z"
    fill="#09101C"
  />
</svg>
