<svg
  width="20"
  height="20"
  viewBox="0 0 20 20"
  fill="none"
  xmlns="http://www.w3.org/2000/svg"
>
  <path d="M6 7L10 10L14 7" stroke="#09101C" stroke-width="1.3" />
  <path
    d="M11 4L9 4C7.13623 4 6.20435 4 5.46927 4.30448C4.48915 4.71046 3.71046 5.48915 3.30448 6.46927C3 7.20435 3 8.13623 3 10C3 11.8638 3 12.7956 3.30448 13.5307C3.71046 14.5108 4.48915 15.2895 5.46927 15.6955C6.20435 16 7.13623 16 9 16H11C12.8638 16 13.7956 16 14.5307 15.6955C15.5108 15.2895 16.2895 14.5108 16.6955 13.5307C17 12.7956 17 11.8638 17 10C17 8.13623 17 7.20435 16.6955 6.46927C16.2895 5.48915 15.5108 4.71046 14.5307 4.30448C13.7956 4 12.8638 4 11 4Z"
    stroke="#09101C"
    stroke-width="1.3"
  />
</svg>
