<svg
  width="20"
  height="20"
  viewBox="0 0 20 20"
  fill="none"
  xmlns="http://www.w3.org/2000/svg"
>
  <path
    d="M8.14286 3.5V3.5C6.61076 3.5 5.84472 3.5 5.24912 3.77323C4.59636 4.07268 4.07268 4.59636 3.77323 5.24912C3.5 5.84472 3.5 6.61076 3.5 8.14286V8.14286M11.8571 3.5V3.5C13.3892 3.5 14.1553 3.5 14.7509 3.77323C15.4036 4.07268 15.9273 4.59636 16.2268 5.24912C16.5 5.84472 16.5 6.61076 16.5 8.14286V8.14286M16.5 11.8571V11.8571C16.5 13.3892 16.5 14.1553 16.2268 14.7509C15.9273 15.4036 15.4036 15.9273 14.7509 16.2268C14.1553 16.5 13.3892 16.5 11.8571 16.5V16.5M8.14286 16.5V16.5C6.61076 16.5 5.84472 16.5 5.24912 16.2268C4.59636 15.9273 4.07268 15.4036 3.77323 14.7509C3.5 14.1553 3.5 13.3892 3.5 11.8571V11.8571"
    stroke="#09101C"
    stroke-width="1.3"
  />
  <path d="M7 6.5V9" stroke="#09101C" stroke-width="1.3" />
  <path
    d="M10 6.5V9.58579C10 9.851 10.1054 10.1054 10.2929 10.2929L11 11"
    stroke="#09101C"
    stroke-width="1.3"
  />
  <path
    d="M7 13C7 13 8 14 10 14C12 14 13 13 13 13"
    stroke="#09101C"
    stroke-width="1.3"
  />
  <path d="M13 6.5V9" stroke="#09101C" stroke-width="1.3" />
</svg>
