<svg
  width="20"
  height="20"
  viewBox="0 0 20 20"
  fill="none"
  xmlns="http://www.w3.org/2000/svg"
>
  <path
    d="M11 3V3C11.6403 3 12.2544 3.25435 12.7071 3.70711L15.2929 6.29289C15.7456 6.74565 16 7.35971 16 8V8V12.2C16 13.8802 16 14.7202 15.673 15.362C15.3854 15.9265 14.9265 16.3854 14.362 16.673C13.7202 17 12.8802 17 11.2 17H8.8C7.11984 17 6.27976 17 5.63803 16.673C5.07354 16.3854 4.6146 15.9265 4.32698 15.362C4 14.7202 4 13.8802 4 12.2V7.8C4 6.11984 4 5.27976 4.32698 4.63803C4.6146 4.07354 5.07354 3.6146 5.63803 3.32698C6.27976 3 7.11984 3 8.8 3H11Z"
    stroke="#09101C"
    stroke-width="1.3"
    stroke-linejoin="round"
  />
  <path
    d="M16 7H12.6C12.0399 7 11.7599 7 11.546 6.89101C11.3578 6.79513 11.2049 6.64215 11.109 6.45399C11 6.24008 11 5.96005 11 5.4V3"
    stroke="#09101C"
    stroke-width="1.3"
  />
  <path
    d="M7 9.5H11"
    stroke="#09101C"
    stroke-width="1.3"
    stroke-linejoin="round"
  />
  <path
    d="M7 12.5H13"
    stroke="#09101C"
    stroke-width="1.3"
    stroke-linejoin="round"
  />
</svg>
