<svg
  width="20"
  height="20"
  viewBox="0 0 20 20"
  fill="none"
  xmlns="http://www.w3.org/2000/svg"
>
  <path
    fill-rule="evenodd"
    clip-rule="evenodd"
    d="M5.6501 3.35V3H4.3501V4V11V17H5.6501V11.65H8.35979C8.43329 12.2143 8.91581 12.65 9.5001 12.65H15.0001C15.3591 12.65 15.6501 12.359 15.6501 12V5C15.6501 4.64101 15.3591 4.35 15.0001 4.35H11.6404C11.5669 3.78575 11.0844 3.35 10.5001 3.35H5.6501ZM5.6501 4.65V10.35H8.5001C9.08439 10.35 9.5669 10.7857 9.6404 11.35H14.3501V5.65H11.5001C10.9158 5.65 10.4333 5.21425 10.3598 4.65H5.6501Z"
    fill="#09101C"
  />
</svg>
