<svg
  width="20"
  height="20"
  viewBox="0 0 20 20"
  fill="none"
  xmlns="http://www.w3.org/2000/svg"
>
  <path
    fill-rule="evenodd"
    clip-rule="evenodd"
    d="M6.53282 4.35H6.53795H13.4622H13.4674C13.4975 4.35 13.5197 4.35 13.5395 4.35029C14.9722 4.37159 16.1285 5.52789 16.1498 6.96061C16.1501 6.98038 16.1501 7.00248 16.1501 7.03257V7.03264V7.03272V7.03786L16.1501 7.07613C16.1469 7.78423 15.9822 8.48227 15.6683 9.117L15.6512 9.15126L14.9615 10.5306L14.9424 10.5689C14.8194 10.8151 14.7271 10.9998 14.6065 11.1689C14.4999 11.3184 14.3781 11.4564 14.243 11.5808C14.0901 11.7214 13.9183 11.8359 13.6892 11.9885L13.6536 12.0122L13.4498 12.1481C13.292 12.2533 13.2738 12.2677 13.2624 12.2783C13.2049 12.3315 13.1669 12.4025 13.1545 12.4799C13.152 12.4953 13.1501 12.5184 13.1501 12.708V15.5C13.1501 17.2397 11.7398 18.65 10.0001 18.65C8.2604 18.65 6.8501 17.2397 6.8501 15.5V12.708C6.8501 12.5184 6.84817 12.4953 6.8457 12.4799C6.83332 12.4025 6.79533 12.3315 6.73783 12.2783C6.72636 12.2677 6.70823 12.2533 6.55042 12.1481L6.34662 12.0122L6.31097 11.9885L6.31096 11.9885C6.08191 11.8359 5.91014 11.7214 5.75724 11.5808C5.62213 11.4564 5.50029 11.3184 5.39371 11.1689C5.27309 10.9998 5.18084 10.8151 5.05783 10.5689L5.03868 10.5306L4.349 9.15126L4.33193 9.117C4.01803 8.48227 3.85325 7.78423 3.85014 7.07613L3.8501 7.03786V7.03272C3.8501 7.00256 3.8501 6.98041 3.85039 6.96061C3.87169 5.52789 5.02798 4.37159 6.46071 4.35029C6.48051 4.35 6.50266 4.35 6.53282 4.35ZM6.53795 5.65C6.50047 5.65 6.48885 5.65002 6.48003 5.65015C5.75015 5.661 5.1611 6.25006 5.15025 6.97993C5.15012 6.98875 5.1501 7.00037 5.1501 7.03786L5.15013 7.07043C5.15054 7.16394 5.15486 7.25721 5.16305 7.35H14.8371C14.8453 7.25721 14.8497 7.16394 14.8501 7.07043L14.8501 7.03786C14.8501 7.00037 14.8501 6.98875 14.8499 6.97993C14.8391 6.25006 14.25 5.661 13.5202 5.65015C13.5114 5.65002 13.4997 5.65 13.4622 5.65H6.53795ZM14.4484 8.65H5.55182L6.20143 9.94922C6.35172 10.2498 6.39781 10.3379 6.45221 10.4142C6.50651 10.4904 6.56857 10.5607 6.63741 10.624C6.70637 10.6875 6.78812 10.7441 7.06773 10.9306L7.27153 11.0664L7.29819 11.0842L7.29819 11.0842C7.41136 11.1595 7.52324 11.2339 7.62083 11.3242C7.89192 11.5751 8.07098 11.9097 8.12936 12.2744C8.15038 12.4057 8.15025 12.5401 8.15012 12.676L8.1501 12.708V15.5C8.1501 16.5217 8.97837 17.35 10.0001 17.35C11.0218 17.35 11.8501 16.5217 11.8501 15.5V12.708L11.8501 12.676C11.8499 12.5401 11.8498 12.4057 11.8708 12.2744C11.9292 11.9097 12.1083 11.5751 12.3794 11.3242C12.477 11.2339 12.5888 11.1595 12.702 11.0842L12.702 11.0842L12.7287 11.0664L12.9325 10.9306C13.2121 10.7441 13.2938 10.6875 13.3628 10.624C13.4316 10.5607 13.4937 10.4904 13.548 10.4142C13.6024 10.3379 13.6485 10.2498 13.7988 9.94922L14.4484 8.65ZM9.3501 14V12H10.6501V14H9.3501Z"
    fill="#09101C"
  />
</svg>
