<svg
  width="20"
  height="20"
  viewBox="0 0 20 20"
  fill="none"
  xmlns="http://www.w3.org/2000/svg"
>
  <path
    fill-rule="evenodd"
    clip-rule="evenodd"
    d="M7.07267 2.93232C8.47052 2.35331 10.0087 2.20182 11.4926 2.49699C12.9766 2.79217 14.3397 3.52076 15.4096 4.59063L14.4903 5.50987C13.6023 4.62181 12.4708 4.01703 11.239 3.77201C10.0072 3.527 8.73047 3.65275 7.57016 4.13337C6.40984 4.61398 5.41811 5.42788 4.72036 6.47213C4.14108 7.33909 3.78603 8.3325 3.68217 9.36352L4.7002 8.6L5.3002 9.4L3.3002 10.9L3.0002 11.125L2.7002 10.9L0.700195 9.4L1.3002 8.6L2.37337 9.40488C2.47506 8.10154 2.90948 6.84238 3.63945 5.74989C4.48004 4.49185 5.67481 3.51133 7.07267 2.93232ZM12.9277 17.0677C11.5299 17.6467 9.99171 17.7982 8.50776 17.503C7.0238 17.2078 5.6607 16.4792 4.59083 15.4094L5.51007 14.4901C6.39813 15.3782 7.52959 15.983 8.76137 16.228C9.99315 16.473 11.2699 16.3473 12.4302 15.8666C13.5905 15.386 14.5823 14.5721 15.28 13.5279C15.7533 12.8195 16.0769 12.0268 16.2362 11.198L15.3002 11.9L14.7002 11.1L16.7002 9.6L17.0002 9.375L17.3002 9.6L19.3002 11.1L18.7002 11.9L17.5768 11.0574C17.418 12.1952 17.0042 13.2874 16.3609 14.2501C15.5203 15.5081 14.3256 16.4887 12.9277 17.0677ZM8.1502 10C8.1502 8.97827 8.97847 8.15 10.0002 8.15C11.0219 8.15 11.8502 8.97827 11.8502 10C11.8502 11.0217 11.0219 11.85 10.0002 11.85C8.97847 11.85 8.1502 11.0217 8.1502 10ZM10.0002 6.85C8.2605 6.85 6.8502 8.2603 6.8502 10C6.8502 11.7397 8.2605 13.15 10.0002 13.15C11.7399 13.15 13.1502 11.7397 13.1502 10C13.1502 8.2603 11.7399 6.85 10.0002 6.85Z"
    fill="black"
  />
</svg>
