<svg
  width="20"
  height="20"
  viewBox="0 0 20 20"
  fill="none"
  xmlns="http://www.w3.org/2000/svg"
>
  <path
    fill-rule="evenodd"
    clip-rule="evenodd"
    d="M6.84669 3.35L6.7575 3.34999C6.05636 3.34984 5.59516 3.34974 5.19778 3.43928C4.53181 3.58934 3.93652 3.91862 3.46448 4.37455C3.43263 4.40531 3.40133 4.43665 3.37062 4.46855C2.9168 4.93993 2.58902 5.53366 2.4394 6.19765C2.34986 6.59504 2.34996 7.05624 2.35011 7.75738L2.35012 7.84657V8.71646C2.35012 8.73481 2.35012 8.75325 2.35012 8.77177L2.35012 8.8V11.2L2.35012 11.2282C2.35012 12.0444 2.35011 12.6965 2.39315 13.2233C2.43731 13.7638 2.52999 14.2293 2.74795 14.6571C3.09789 15.3439 3.65627 15.9022 4.34306 16.2522C4.77083 16.4701 5.23634 16.5628 5.7768 16.607C6.3036 16.65 6.95574 16.65 7.77188 16.65H7.77189H7.80012H12.2001H12.2284H12.2284C12.2446 16.65 12.2608 16.65 12.277 16.65H12.8001L12.9266 16.65H12.9266C13.9213 16.6503 14.5766 16.6505 15.128 16.4714C15.6142 16.3134 16.0544 16.0578 16.426 15.7272C16.5511 15.6159 16.6684 15.4962 16.7771 15.3688C17.0836 15.0095 17.3215 14.5894 17.4715 14.1279C17.6507 13.5765 17.6505 12.9211 17.6501 11.9265V11.9265L17.6501 11.8L17.6502 11.6915C17.6502 11.615 17.6503 11.541 17.6501 11.4692C17.6501 11.3905 17.6501 11.3102 17.6501 11.2282V11.2282V11.2V8.8V8.77177V8.77176C17.6501 7.95562 17.6501 7.30348 17.6071 6.77668C17.5629 6.23622 17.4703 5.77071 17.2523 5.34294C16.9024 4.65614 16.344 4.09776 15.6572 3.74783C15.2294 3.52987 14.7639 3.43719 14.2234 3.39303C13.6966 3.34999 13.0445 3.34999 12.2284 3.35L12.2001 3.35H10.0001H7.80012L7.77189 3.35C7.60473 3.35 7.44446 3.35 7.29073 3.35037C7.20129 3.34996 7.10599 3.34998 7.0037 3.34999L6.94071 3.35H6.84669ZM3.65012 8.8C3.65012 7.9492 3.65063 7.35019 3.68884 6.88254C3.72642 6.42248 3.79724 6.14709 3.90626 5.93312C4.13156 5.49094 4.49106 5.13144 4.93324 4.90614C5.14721 4.79712 5.4226 4.7263 5.88266 4.68871C6.24466 4.65914 6.68537 4.65215 7.26065 4.65051C7.62118 4.65211 7.78837 4.65852 7.93256 4.6829C8.75306 4.82166 9.43899 5.38399 9.73597 6.16134C9.80159 6.33313 9.84648 6.54616 9.96275 7.12748L9.97335 7.18057C10.0372 7.50022 10.0844 7.73676 10.1642 7.94573C10.4991 8.82231 11.2726 9.45643 12.1979 9.6129C12.4184 9.6502 12.6596 9.65012 12.9856 9.65001L13.0397 9.65H14.2001C14.9952 9.65 15.2386 9.65802 15.4173 9.71607C15.8283 9.84961 16.1505 10.1718 16.284 10.5828C16.337 10.7459 16.3483 10.9628 16.3499 11.6037C16.3489 12.2462 16.3433 12.7275 16.3114 13.1175C16.2738 13.5775 16.203 13.8529 16.094 14.0669C16.0024 14.2467 15.8885 14.4129 15.756 14.5619C15.6695 14.6591 15.575 14.749 15.4736 14.8307C15.3482 14.9316 15.212 15.02 15.067 15.0939C14.853 15.2029 14.5776 15.2737 14.1176 15.3113C13.6499 15.3495 13.0509 15.35 12.2001 15.35H7.80012C6.94932 15.35 6.35031 15.3495 5.88266 15.3113C5.4226 15.2737 5.14721 15.2029 4.93324 15.0939C4.49106 14.8686 4.13156 14.5091 3.90626 14.0669C3.79724 13.8529 3.72642 13.5775 3.68884 13.1175C3.65063 12.6498 3.65012 12.0508 3.65012 11.2V8.8ZM16.3501 8.71961C16.1841 8.62132 16.0063 8.54054 15.819 8.4797C15.4176 8.34927 14.9469 8.34956 14.3087 8.34996L14.2001 8.35H13.0397C12.6362 8.35 12.5132 8.34776 12.4146 8.3311C11.9433 8.25139 11.5492 7.92835 11.3786 7.48179C11.343 7.38843 11.3166 7.26821 11.2375 6.87252L11.2252 6.81076C11.1257 6.31317 11.06 5.98448 10.9504 5.6974C10.8025 5.3104 10.5926 4.95771 10.3336 4.65H12.2001C13.0509 4.65 13.6499 4.65051 14.1176 4.68871C14.5776 4.7263 14.853 4.79712 15.067 4.90614C15.5092 5.13144 15.8687 5.49094 16.094 5.93312C16.203 6.14709 16.2738 6.42248 16.3114 6.88254C16.3484 7.33532 16.3501 7.91124 16.3501 8.71961Z"
    fill="#09101C"
  />
</svg>
