<svg
  width="20"
  height="20"
  viewBox="0 0 20 20"
  fill="none"
  xmlns="http://www.w3.org/2000/svg"
>
  <g clip-path="url(#clip0_948_86)">
    <path
      d="M4.34287 14.047C4.22567 14.3965 3.89831 14.632 3.52974 14.632C2.93829 14.632 2.52436 14.0474 2.72077 13.4895L5.29591 6.17484C5.5063 5.57723 6.0709 5.17743 6.70447 5.17743C7.33779 5.17743 7.90224 5.57693 8.11281 6.17423L10.6917 13.4893C10.8883 14.0472 10.4744 14.632 9.88289 14.632C9.51454 14.632 9.18733 14.3967 9.07 14.0476L6.75291 7.15135C6.74589 7.13044 6.72629 7.11635 6.70423 7.11635C6.68216 7.11635 6.66256 7.13045 6.65554 7.15138L4.34287 14.047ZM4.20671 11.6128C4.20671 11.2329 4.51467 10.9249 4.89456 10.9249H8.50465C8.88454 10.9249 9.1925 11.2329 9.1925 11.6128C9.1925 11.9927 8.88454 12.3007 8.50465 12.3007H4.89456C4.51467 12.3007 4.20671 11.9927 4.20671 11.6128Z"
      fill="#09101C"
    />
    <path
      d="M13.8204 14.8226C13.3711 14.8226 12.9633 14.7379 12.597 14.5687C12.2308 14.3963 11.94 14.1486 11.7245 13.8254C11.5091 13.4992 11.4014 13.1052 11.4014 12.6436C11.4014 12.2373 11.4814 11.908 11.6414 11.6557C11.8015 11.4002 12.0154 11.2002 12.2831 11.0555C12.5509 10.9109 12.8463 10.8032 13.1695 10.7324C13.4957 10.6585 13.8235 10.6 14.1528 10.5569C14.5837 10.5015 14.933 10.46 15.2007 10.4323C15.4716 10.4015 15.6685 10.3507 15.7916 10.28C15.9178 10.2092 15.9809 10.0861 15.9809 9.91064V9.8737C15.9809 9.41821 15.8563 9.06428 15.607 8.81191C15.3608 8.55955 14.9868 8.43336 14.4852 8.43336C13.9651 8.43336 13.5573 8.54724 13.2618 8.77498C13.1312 8.87565 13.0177 8.97933 12.9214 9.08601C12.729 9.29916 12.4316 9.43048 12.1612 9.33389C11.8595 9.22613 11.705 8.88052 11.8872 8.61703C12.0202 8.42481 12.1722 8.26202 12.3431 8.12868C12.654 7.88554 12.9925 7.71627 13.3588 7.62086C13.7281 7.52238 14.0912 7.47314 14.4482 7.47314C14.676 7.47314 14.9376 7.50084 15.233 7.55623C15.5316 7.60855 15.8193 7.71781 16.0963 7.884C16.3764 8.0502 16.6088 8.30103 16.7934 8.63649C16.9781 8.97195 17.0704 9.42129 17.0704 9.9845V14.1116C17.0704 14.4125 16.8265 14.6564 16.5257 14.6564H16.461C16.1959 14.6564 15.9809 14.4414 15.9809 14.1763V13.7302C15.9809 13.7114 15.9657 13.6961 15.9469 13.6961C15.9338 13.6961 15.922 13.7036 15.9161 13.7153C15.8414 13.8637 15.7214 14.022 15.5562 14.1901C15.3838 14.3655 15.1546 14.5148 14.8683 14.6379C14.5821 14.761 14.2328 14.8226 13.8204 14.8226ZM13.9866 13.8439C14.4175 13.8439 14.7806 13.7592 15.0761 13.59C15.3746 13.4207 15.5993 13.2022 15.7501 12.9344C15.904 12.6667 15.9809 12.3851 15.9809 12.0896V11.4372C15.9809 11.3204 15.7882 11.2119 15.6762 11.2448C15.5223 11.2879 15.3438 11.3264 15.1407 11.3602C14.9407 11.391 14.7452 11.4187 14.5544 11.4433C14.3667 11.4649 14.2143 11.4833 14.0974 11.4987C13.8142 11.5356 13.5496 11.5957 13.3034 11.6787C13.0602 11.7588 12.8633 11.8803 12.7124 12.0434C12.5647 12.2035 12.4909 12.422 12.4909 12.699C12.4909 13.0775 12.6309 13.3638 12.911 13.5577C13.1941 13.7485 13.5526 13.8439 13.9866 13.8439Z"
      fill="#09101C"
    />
  </g>
  <defs>
    <clipPath id="clip0_948_86">
      <rect width="20" height="20" fill="white" />
    </clipPath>
  </defs>
</svg>
