<svg
  width="20"
  height="20"
  viewBox="0 0 20 20"
  fill="none"
  xmlns="http://www.w3.org/2000/svg"
>
  <path
    fill-rule="evenodd"
    clip-rule="evenodd"
    d="M14.9309 9.65L11.5405 13.0404L12.4597 13.9596L16.9597 9.45962L17.4193 9L16.9597 8.54038L12.4597 4.04038L11.5405 4.95962L14.9309 8.35L10.4001 8.35H10.3712H10.3712C9.27555 8.35 8.4135 8.34999 7.71997 8.40666C7.01277 8.46444 6.42377 8.58436 5.88904 8.85682C5.01409 9.30263 4.30273 10.014 3.85692 10.8889C3.58446 11.4237 3.46453 12.0127 3.40675 12.7199C3.35009 13.4134 3.35009 14.2755 3.3501 15.3711V15.3711V15.4V15.5H4.6501V15.4C4.6501 14.2692 4.6506 13.4601 4.70244 12.8257C4.75365 12.1989 4.85171 11.8001 5.01523 11.4791C5.3364 10.8488 5.84889 10.3363 6.47923 10.0151C6.80015 9.85161 7.19902 9.75355 7.82584 9.70234C8.46024 9.65051 9.26927 9.65 10.4001 9.65H14.9309Z"
    fill="#09101C"
  />
</svg>
