<svg
  width="20"
  height="20"
  viewBox="0 0 20 20"
  fill="none"
  xmlns="http://www.w3.org/2000/svg"
>
  <path
    d="M4 7.5C4 6.10218 4 5.40326 4.22836 4.85195C4.53284 4.11687 5.11687 3.53284 5.85195 3.22836C6.40326 3 7.10218 3 8.5 3V3C9.89782 3 10.5967 3 11.1481 3.22836C11.8831 3.53284 12.4672 4.11687 12.7716 4.85195C13 5.40326 13 6.10218 13 7.5V17H4V7.5Z"
    stroke="#09101C"
    stroke-width="1.3"
    stroke-linejoin="round"
  />
  <path
    d="M4 9H13"
    stroke="#09101C"
    stroke-width="1.3"
    stroke-linejoin="round"
  />
  <path
    fill-rule="evenodd"
    clip-rule="evenodd"
    d="M17.65 5.51913V3H16.35V5.51913C16.5047 5.5 16.7059 5.5 17 5.5C17.2941 5.5 17.4953 5.5 17.65 5.51913ZM17.65 9.48087C17.4953 9.5 17.2941 9.5 17 9.5C16.7059 9.5 16.5047 9.5 16.35 9.48087V13C16.35 13.1933 16.1933 13.35 16 13.35C15.8067 13.35 15.65 13.1933 15.65 13V12.2C15.65 11.1783 14.8217 10.35 13.8 10.35H12.5V11.65H13.8C14.1038 11.65 14.35 11.8962 14.35 12.2V13C14.35 13.9113 15.0887 14.65 16 14.65C16.9113 14.65 17.65 13.9113 17.65 13V9.48087Z"
    fill="#09101C"
  />
  <path
    d="M15.5 7C15.5 6.53406 15.5 6.30109 15.5761 6.11732C15.6776 5.87229 15.8723 5.67761 16.1173 5.57612C16.3011 5.5 16.5341 5.5 17 5.5V5.5C17.4659 5.5 17.6989 5.5 17.8827 5.57612C18.1277 5.67761 18.3224 5.87229 18.4239 6.11732C18.5 6.30109 18.5 6.53406 18.5 7V8C18.5 8.46594 18.5 8.69891 18.4239 8.88268C18.3224 9.12771 18.1277 9.32239 17.8827 9.42388C17.6989 9.5 17.4659 9.5 17 9.5V9.5C16.5341 9.5 16.3011 9.5 16.1173 9.42388C15.8723 9.32239 15.6776 9.12771 15.5761 8.88268C15.5 8.69891 15.5 8.46594 15.5 8V7Z"
    stroke="#09101C"
    stroke-width="1.3"
  />
</svg>
