<svg
  width="20"
  height="20"
  viewBox="0 0 20 20"
  fill="none"
  xmlns="http://www.w3.org/2000/svg"
>
  <rect
    x="3.5"
    y="3.5"
    width="13"
    height="13"
    rx="4"
    stroke="#09101C"
    stroke-width="1.3"
  />
  <path
    d="M8.20412 9.31155L8.21511 9.34658H8.25183H8.9823H9.04064L9.03171 9.28893C9.00114 9.09144 8.93653 8.91033 8.83769 8.74608C8.73918 8.58237 8.61335 8.44092 8.46049 8.32189C8.30878 8.20275 8.13544 8.11139 7.94095 8.04759C7.74603 7.98238 7.53647 7.95 7.31264 7.95C7.04773 7.95 6.80158 7.9967 6.57474 8.09064C6.34787 8.18333 6.15002 8.3192 5.98155 8.49796C5.81282 8.67574 5.68191 8.89147 5.58836 9.14424L5.58828 9.14446C5.49574 9.39805 5.44997 9.68474 5.44997 10.0038C5.44997 10.4206 5.5278 10.7837 5.68544 11.0912L5.68556 11.0915C5.84423 11.3972 6.0651 11.6343 6.34801 11.8016L6.34825 11.8017C6.63263 11.9678 6.96172 12.05 7.3339 12.05C7.66791 12.05 7.96586 11.9833 8.22648 11.8486L8.22665 11.8485C8.48735 11.7124 8.69266 11.5184 8.84173 11.2669C8.99135 11.0146 9.06516 10.7171 9.06516 10.3764V9.90875V9.85875H9.01516H7.40926H7.35926V9.90875V10.4601V10.5101H7.40926H8.26915C8.25995 10.6601 8.22257 10.7914 8.15815 10.9049C8.08326 11.0356 7.97655 11.1366 7.8367 11.2084L7.83654 11.2085C7.69815 11.2801 7.53244 11.3169 7.33776 11.3169C7.12446 11.3169 6.93941 11.2664 6.78085 11.1669C6.62258 11.0662 6.49782 10.9189 6.40727 10.7224C6.31703 10.5266 6.27079 10.2851 6.27079 9.9962C6.27079 9.70987 6.317 9.47035 6.40719 9.27585C6.49908 9.0792 6.62391 8.93249 6.7809 8.83312C6.93844 8.7334 7.1184 8.68308 7.3223 8.68308C7.43654 8.68308 7.54111 8.69774 7.63634 8.72656L7.63634 8.72657L7.63689 8.72673C7.73202 8.75432 7.81533 8.79545 7.8874 8.84981L7.88772 8.85004C7.96167 8.9049 8.02472 8.97108 8.07699 9.04881L8.07699 9.04882L8.0775 9.04955C8.13102 9.12613 8.17331 9.21333 8.20412 9.31155ZM7.85953 11.2529C7.71266 11.3289 7.53874 11.3669 7.33776 11.3669C7.11617 11.3669 6.92164 11.3143 6.75415 11.2091C6.58667 11.1027 6.45591 10.9474 6.36186 10.7433C6.26781 10.5393 6.22079 10.2902 6.22079 9.9962C6.22079 9.70469 6.26781 9.45754 6.36186 9.25475L7.85953 11.2529ZM10.7689 8.05323V8.00323H10.7189H10.002H9.952V8.05323V11.9468V11.9968H10.002H10.7189H10.7689V11.9468V8.05323ZM11.9146 11.9468V11.9968H11.9646H12.6815H12.7315V11.9468V10.3428H14.3261H14.3761V10.2928V9.70152V9.65152H14.3261H12.7315V8.69449H14.5H14.55V8.64449V8.05323V8.00323H14.5H11.9646H11.9146V8.05323V11.9468Z"
    fill="#09101C"
    stroke="#09101C"
    stroke-width="0.1"
  />
</svg>
