<svg
  width="20"
  height="20"
  viewBox="0 0 20 20"
  fill="none"
  xmlns="http://www.w3.org/2000/svg"
>
  <path
    fill-rule="evenodd"
    clip-rule="evenodd"
    d="M9.28046 4.25131C9.55532 3.98973 9.79738 3.9 10.0001 3.9C10.2028 3.9 10.4449 3.98973 10.7197 4.25131C10.9979 4.51607 11.2781 4.92991 11.5274 5.49102C11.9645 6.47433 12.268 7.82189 12.3358 9.35H7.66443C7.73223 7.82189 8.03573 6.47433 8.47275 5.49102C8.72214 4.92991 9.00225 4.51607 9.28046 4.25131ZM6.36327 9.35C6.4317 7.66957 6.76356 6.13583 7.2848 4.96304C7.37069 4.7698 7.4628 4.5839 7.56117 4.4071C5.59532 5.26557 4.16946 7.13011 3.93432 9.35H6.36327ZM3.93432 10.65H6.36327C6.4317 12.3304 6.76356 13.8642 7.2848 15.037C7.37069 15.2302 7.4628 15.4161 7.56117 15.5929C5.59532 14.7344 4.16946 12.8699 3.93432 10.65ZM7.66443 10.65H12.3358C12.268 12.1781 11.9645 13.5257 11.5274 14.509C11.2781 15.0701 10.9979 15.4839 10.7197 15.7487C10.4449 16.0103 10.2028 16.1 10.0001 16.1C9.79738 16.1 9.55532 16.0103 9.28046 15.7487C9.00225 15.4839 8.72214 15.0701 8.47275 14.509C8.03573 13.5257 7.73223 12.1781 7.66443 10.65ZM13.6369 10.65C13.5685 12.3304 13.2366 13.8642 12.7154 15.037C12.6295 15.2302 12.5374 15.4161 12.439 15.5929C14.4049 14.7344 15.8307 12.8699 16.0659 10.65H13.6369ZM16.0659 9.35C15.8307 7.13012 14.4049 5.26557 12.439 4.40711C12.5374 4.5839 12.6295 4.7698 12.7154 4.96304C13.2366 6.13583 13.5685 7.66957 13.6369 9.35H16.0659ZM17.4001 10C17.4001 14.0869 14.087 17.4 10.0001 17.4C5.91319 17.4 2.6001 14.0869 2.6001 10C2.6001 5.91309 5.91319 2.6 10.0001 2.6C14.087 2.6 17.4001 5.91309 17.4001 10Z"
    fill="#09101C"
  />
</svg>
