<svg
  width="20"
  height="20"
  viewBox="0 0 20 20"
  fill="none"
  xmlns="http://www.w3.org/2000/svg"
>
  <path
    fill-rule="evenodd"
    clip-rule="evenodd"
    d="M6.35 16.65V16L6.35 13.65H5H4.35L4.35 12.35H5H6.35L6.35 7.65H5H4.35L4.35 6.35H5H6.35L6.35 4V3.35L7.65 3.35V4L7.65 6.35L12.35 6.35V4V3.35L13.65 3.35V4V6.35H15H15.65V7.65H15H13.65L13.65 12.35H15H15.65V13.65H15H13.65V16V16.65H12.35V16V13.65H7.65L7.65 16V16.65H6.35ZM12.35 12.35V7.65L7.65 7.65L7.65 12.35L12.35 12.35Z"
    fill="#09101C"
  />
</svg>
