<svg
  width="20"
  height="20"
  viewBox="0 0 20 20"
  fill="none"
  xmlns="http://www.w3.org/2000/svg"
>
  <path
    fill-rule="evenodd"
    clip-rule="evenodd"
    d="M4.30814 7.80191C4.92674 6.20111 6.20119 4.92666 7.80198 4.30805L8.4424 6.69813C7.67812 7.05932 7.0594 7.67805 6.69821 8.44233L4.30814 7.80191ZM3.97242 9.05781C3.9248 9.36491 3.9001 9.67957 3.9001 10C3.9001 10.3204 3.9248 10.6351 3.97242 10.9422L6.3624 10.3018C6.35425 10.2023 6.3501 10.1016 6.3501 10C6.3501 9.89838 6.35425 9.79773 6.3624 9.69821L3.97242 9.05781ZM4.30814 12.1981C4.92674 13.7989 6.20118 15.0733 7.80197 15.6919L8.44239 13.3019C7.67812 12.9407 7.0594 12.3219 6.69821 11.5577L4.30814 12.1981ZM10.0001 16.1C9.67965 16.1 9.36498 16.0753 9.05787 16.0277L9.69827 13.6377C9.7978 13.6458 9.89846 13.65 10.0001 13.65C10.1016 13.65 10.2022 13.6459 10.3017 13.6377L10.9421 16.0277C10.6351 16.0753 10.3205 16.1 10.0001 16.1ZM12.198 15.692C13.7989 15.0735 15.0734 13.799 15.6921 12.1981L13.302 11.5577C12.9408 12.322 12.322 12.9408 11.5576 13.302L12.198 15.692ZM13.6378 10.3018L16.0278 10.9422C16.0754 10.6351 16.1001 10.3204 16.1001 10C16.1001 9.67957 16.0754 9.3649 16.0278 9.05781L13.6378 9.6982C13.6459 9.79773 13.6501 9.89838 13.6501 10C13.6501 10.1016 13.6459 10.2023 13.6378 10.3018ZM12.198 4.30796C13.7989 4.92654 15.0734 6.20104 15.6921 7.80191L13.302 8.44233C12.9408 7.67798 12.322 7.0592 11.5576 6.69803L12.198 4.30796ZM10.9421 3.97229C10.6351 3.9247 10.3205 3.9 10.0001 3.9C9.67965 3.9 9.36498 3.92471 9.05788 3.97233L9.69827 6.3623C9.7978 6.35415 9.89847 6.35 10.0001 6.35C10.1016 6.35 10.2022 6.35415 10.3017 6.36228L10.9421 3.97229ZM10.0001 2.6C5.91319 2.6 2.6001 5.91309 2.6001 10C2.6001 14.0869 5.91319 17.4 10.0001 17.4C14.087 17.4 17.4001 14.0869 17.4001 10C17.4001 5.91309 14.087 2.6 10.0001 2.6ZM7.6501 10C7.6501 8.70213 8.70223 7.65 10.0001 7.65C11.298 7.65 12.3501 8.70213 12.3501 10C12.3501 11.2979 11.298 12.35 10.0001 12.35C8.70223 12.35 7.6501 11.2979 7.6501 10Z"
    fill="#09101C"
  />
</svg>
