<svg
  width="20"
  height="20"
  viewBox="0 0 20 20"
  fill="none"
  xmlns="http://www.w3.org/2000/svg"
>
  <path
    d="M10 4C14.5 4 17 9 17 10C17 11 14.5 16 10 16C5.5 16 3 11 3 10C3 9 5.5 4 10 4Z"
    stroke="#09101C"
    stroke-width="1.3"
  />
  <path
    fill-rule="evenodd"
    clip-rule="evenodd"
    d="M8.27994 7.36078L3.38848 2.46931L2.46924 3.38855L7.36071 8.28002C7.03798 8.77447 6.85 9.36567 6.85 10C6.85 11.7397 8.2603 13.15 10 13.15C10.6347 13.15 11.2255 12.9623 11.72 12.6394L16.6114 17.5307L17.5306 16.6114L12.6393 11.7201C12.9623 11.2256 13.15 10.6347 13.15 10C13.15 8.2603 11.7397 6.85 10 6.85C9.36549 6.85 8.77435 7.03803 8.27994 7.36078ZM8.31514 9.23446C8.20899 9.46767 8.15 9.72674 8.15 10C8.15 11.0217 8.97827 11.85 10 11.85C10.273 11.85 10.5322 11.7909 10.7654 11.6847L8.31514 9.23446ZM11.6847 10.7655L9.23436 8.31519C9.46765 8.209 9.72679 8.15 10 8.15C11.0217 8.15 11.85 8.97827 11.85 10C11.85 10.273 11.7909 10.5322 11.6847 10.7655Z"
    fill="#09101C"
  />
</svg>
