<svg
  width="20"
  height="20"
  viewBox="0 0 20 20"
  fill="none"
  xmlns="http://www.w3.org/2000/svg"
>
  <path
    d="M7.5157 2.28715C8.31274 2.02822 9.14092 1.9 9.99993 1.9C11.0914 1.9 12.1435 2.11113 13.1558 2.53257L13.1565 2.53289C14.1218 2.94421 14.9786 3.52436 15.7272 4.2728L15.7272 4.27281C16.4757 5.0214 17.0558 5.87872 17.4671 6.84347L17.4644 6.84461L17.4674 6.84401C17.8889 7.85612 18.1 8.90824 18.1 9.99988C18.1 11.0915 17.8889 12.1435 17.4674 13.1557L17.4671 13.1565C17.0558 14.1217 16.4756 14.9786 15.7272 15.7272L15.7272 15.7272C14.9786 16.4757 14.1218 17.0558 13.1565 17.4671L13.1558 17.4674C12.1437 17.8889 11.0916 18.1 9.99993 18.1C9.08259 18.1 8.19631 17.9497 7.34204 17.6491M7.5157 2.28715C7.5157 2.28715 7.51571 2.28715 7.51571 2.28715L7.5466 2.38226L7.5157 2.28715ZM7.5157 2.28715C6.71922 2.54581 5.97316 2.92255 5.27753 3.4181L5.27753 3.41809L5.27697 3.4185C4.61285 3.89855 4.03286 4.46784 3.53705 5.12684C3.42113 5.27961 3.31043 5.43615 3.20511 5.59729L3.20508 5.59734C3.16919 5.65233 3.13415 5.70774 3.09999 5.7636M3.09999 5.7636V4V3.9H2.99999H2H1.9V4V8V8.1H2H5.99998H6.09998V8V7V6.9H5.99998H3.83959M3.09999 5.7636C3.06576 5.81959 3.03242 5.87603 2.99999 5.93294V4.1V4H2.89999H2.1H2V4.1V7.9V8H2.1H5.89998H5.99998V7.9V7.1V7H5.89998H3.7904C3.80655 6.96649 3.82295 6.93316 3.83959 6.9M3.09999 5.7636V5.95954C3.15984 5.85554 3.22285 5.75308 3.28882 5.652C3.39284 5.49285 3.50221 5.33817 3.61682 5.18714L3.25711 11.8673M3.83959 6.9C4.11025 6.36075 4.44527 5.86833 4.84387 5.4222C5.27785 4.93648 5.7659 4.52206 6.30739 4.17816C6.84881 3.8343 7.43279 3.56878 8.05978 3.38118L8.0598 3.38117C8.68577 3.19372 9.33258 3.09999 9.99996 3.09999C10.6316 3.09999 11.2413 3.18199 11.8286 3.34608C12.417 3.51046 12.9663 3.74272 13.4768 4.0431C13.9877 4.34371 14.4534 4.70424 14.8745 5.12539C15.2957 5.54655 15.6562 6.01226 15.9568 6.52314C16.2572 7.03368 16.4899 7.583 16.6538 8.17127C16.8175 8.75871 16.8999 9.36841 16.8999 10C16.8999 10.6371 16.8179 11.2479 16.6539 11.8326C16.4895 12.4183 16.2572 12.9663 15.9568 13.4769C15.6562 13.9877 15.2957 14.4535 14.8745 14.8746C14.4534 15.2958 13.9877 15.6563 13.4768 15.9569C12.9663 16.2573 12.4169 16.49 11.8287 16.6539C11.2412 16.8176 10.6315 16.9 9.99996 16.9C9.22953 16.9 8.48811 16.7765 7.77478 16.5304L7.74217 16.6249M3.83959 6.9H3.7279C4.00631 6.33535 4.35376 5.82066 4.7693 5.35557C5.20935 4.86306 5.70444 4.44263 6.25378 4.09374C6.80312 3.74486 7.39551 3.47555 8.03111 3.28537C8.66659 3.09508 9.32308 2.99999 9.99996 2.99999C10.6404 2.99999 11.2591 3.08314 11.8555 3.24977C12.4519 3.4164 13.0093 3.652 13.5275 3.95691C14.0457 4.26183 14.5181 4.62757 14.9452 5.05468C15.3724 5.4818 15.7381 5.95423 16.043 6.47243C16.3479 6.99063 16.584 7.548 16.7501 8.14443C16.9163 8.74086 16.9999 9.3596 16.9999 10C16.9999 10.6458 16.9168 11.2657 16.7501 11.8596C16.5835 12.4533 16.3479 13.0094 16.043 13.5276C15.7381 14.0458 15.3724 14.5182 14.9452 14.9453C14.5181 15.3724 14.0457 15.7382 13.5275 16.0431C13.0093 16.348 12.4519 16.584 11.8555 16.7502C11.2591 16.9164 10.6404 17 9.99996 17C9.21862 17 8.46617 16.8747 7.74217 16.6249M7.74217 16.6249L7.77478 16.5304C7.06067 16.284 6.41157 15.937 5.82637 15.4907C5.24123 15.0444 4.73427 14.5104 4.30494 13.8885L4.22989 13.9403L4.30493 13.8885C3.8763 13.2677 3.55966 12.5851 3.35419 11.8405L3.32757 11.744L3.23113 11.7707L2.27019 12.0366L2.17423 12.0631L2.20036 12.1592C2.31648 12.5861 2.465 12.9976 2.64731 13.3934L2.64732 13.3934C2.82967 13.7891 3.04444 14.1686 3.29238 14.5327M7.74217 16.6249C7.01817 16.3751 6.35958 16.0231 5.76572 15.5702C5.17198 15.1173 4.65779 14.5756 4.22265 13.9453C3.78928 13.3177 3.46882 12.628 3.26038 11.8765C3.25952 11.8733 3.25865 11.8702 3.25779 11.8671L3.25711 11.8673M3.29238 14.5327C3.78272 15.255 4.37073 15.8823 5.05589 16.415L5.05623 16.4153C5.74702 16.9476 6.50896 17.3589 7.34204 17.6491M3.29238 14.5327C3.29239 14.5327 3.29241 14.5327 3.29242 14.5327L3.37486 14.4766L3.29234 14.5326C3.29235 14.5326 3.29237 14.5327 3.29238 14.5327ZM7.34204 17.6491C7.34208 17.6491 7.34212 17.6491 7.34216 17.6491L7.37506 17.5547M7.34204 17.6491C7.34198 17.6491 7.34192 17.649 7.34186 17.649L7.37506 17.5547M7.37506 17.5547C6.55195 17.268 5.79949 16.8618 5.11727 16.3361C4.44039 15.8098 3.85956 15.1902 3.37508 14.4765C3.13021 14.1169 2.91817 13.7422 2.73814 13.3516M7.37506 17.5547C8.21857 17.8516 9.09368 18 9.99993 18C11.0783 18 12.1173 17.7915 13.1173 17.3751C14.0707 16.9689 14.9169 16.396 15.6565 15.6565C16.396 14.9169 16.9689 14.0707 17.3751 13.1173C17.7915 12.1172 18 11.0783 18 9.99988C18 8.92836 17.7942 7.89565 17.383 6.9015L17.4751 6.88269V6.88245L2.73814 13.3516M2.73814 13.3516C2.57197 12.9908 2.43416 12.6166 2.32369 12.2293L2.32352 12.2293L2.31578 12.2013C2.30938 12.1786 2.30307 12.1558 2.29686 12.1329L3.16141 11.8938C3.16141 11.8937 3.1614 11.8937 3.1614 11.8937L3.25711 11.8673M2.73814 13.3516L3.25711 11.8673M10.1 5.99974V5.89971L9.99999 5.89974L8.99988 5.9L8.89991 5.90002V6V10.7111V10.7526L8.92929 10.7819L12.0778 13.9222L12.1486 13.9928L12.2192 13.9221L12.9223 13.219L12.9929 13.1484L12.9224 13.0777L10.1 10.2473V5.99974Z"
    fill="black"
    stroke="black"
    stroke-width="0.2"
  />
</svg>
