<svg
  width="20"
  height="20"
  viewBox="0 0 20 20"
  fill="none"
  xmlns="http://www.w3.org/2000/svg"
>
  <path
    fill-rule="evenodd"
    clip-rule="evenodd"
    d="M9.9001 2.85H9.87118C8.77556 2.85 7.9135 2.84999 7.21997 2.90666C6.51277 2.96444 5.92377 3.08436 5.38904 3.35682C4.51409 3.80263 3.80273 4.51399 3.35692 5.38894C3.08446 5.92367 2.96453 6.51267 2.90675 7.21988C2.85009 7.9134 2.85009 8.77547 2.8501 9.87108V9.9V10.1V10.1289C2.85009 11.2245 2.85009 12.0866 2.90675 12.7801C2.96453 13.4873 3.08446 14.0763 3.35692 14.6111C3.80273 15.486 4.51409 16.1974 5.38904 16.6432C5.92377 16.9156 6.51277 17.0356 7.21997 17.0933C7.9135 17.15 8.77557 17.15 9.87118 17.15H9.9001H10.1001H10.129C11.2246 17.15 12.0867 17.15 12.7802 17.0933C13.4874 17.0356 14.0764 16.9156 14.6112 16.6432C15.4861 16.1974 16.1975 15.486 16.6433 14.6111C16.9157 14.0763 17.0357 13.4873 17.0934 12.7801C17.1501 12.0866 17.1501 11.2245 17.1501 10.1289V10.1V9.9V9.87108C17.1501 8.77547 17.1501 7.9134 17.0934 7.21988C17.0357 6.51267 16.9157 5.92367 16.6433 5.38894C16.1975 4.51399 15.4861 3.80263 14.6112 3.35682C14.0764 3.08436 13.4874 2.96444 12.7802 2.90666C12.0867 2.84999 11.2246 2.85 10.129 2.85H10.1001H9.9001ZM5.97923 4.51513C6.30015 4.35161 6.69902 4.25355 7.32584 4.20234C7.96024 4.15051 8.76927 4.15 9.9001 4.15H10.1001C11.2309 4.15 12.04 4.15051 12.6744 4.20234C13.3012 4.25355 13.7 4.35161 14.021 4.51513C14.6513 4.8363 15.1638 5.34879 15.485 5.97913C15.6485 6.30005 15.7465 6.69893 15.7978 7.32574C15.8496 7.96014 15.8501 8.76917 15.8501 9.9V10.1C15.8501 11.2308 15.8496 12.0399 15.7978 12.6743C15.7908 12.7591 15.783 12.8398 15.7743 12.9167C14.9167 12.4795 13.9713 12.2868 13.0197 12.3682C12.2118 12.4374 11.4355 12.701 10.7366 13.131C10.3246 12.3072 9.78007 11.547 9.11657 10.8835C7.76949 9.53645 6.02385 8.67956 4.15681 8.42766C4.16342 8.00434 4.1765 7.64318 4.20244 7.32574C4.25365 6.69893 4.35171 6.30005 4.51523 5.97913C4.8364 5.34879 5.34889 4.8363 5.97923 4.51513ZM11.2362 14.3563C11.3913 14.8393 11.5041 15.3368 11.5724 15.8433C11.9958 15.8367 12.3569 15.8236 12.6744 15.7977C13.3012 15.7465 13.7 15.6484 14.021 15.4849C14.5942 15.1928 15.07 14.7425 15.3931 14.1891C14.6861 13.776 13.9055 13.5972 13.1306 13.6635C12.4679 13.7202 11.8197 13.9555 11.2362 14.3563ZM8.19733 11.8028C9.30167 12.9071 10.0183 14.3267 10.2596 15.85L10.1001 15.85H9.9001C8.76927 15.85 7.96024 15.8495 7.32584 15.7977C6.69902 15.7465 6.30015 15.6484 5.97923 15.4849C5.34889 15.1637 4.8364 14.6512 4.51523 14.0209C4.35171 13.7 4.25365 13.3011 4.20244 12.6743C4.1506 12.0399 4.1501 11.2308 4.1501 10.1V9.9L4.15011 9.7405C5.67342 9.9818 7.09299 10.6984 8.19733 11.8028ZM11.1501 8C11.1501 7.53056 11.5307 7.15 12.0001 7.15C12.4695 7.15 12.8501 7.53056 12.8501 8C12.8501 8.46944 12.4695 8.85 12.0001 8.85C11.5307 8.85 11.1501 8.46944 11.1501 8ZM12.0001 5.85C10.8127 5.85 9.8501 6.81259 9.8501 8C9.8501 9.18741 10.8127 10.15 12.0001 10.15C13.1875 10.15 14.1501 9.18741 14.1501 8C14.1501 6.81259 13.1875 5.85 12.0001 5.85Z"
    fill="#09101C"
  />
</svg>
