<svg
  width="20"
  height="20"
  viewBox="0 0 20 20"
  fill="none"
  xmlns="http://www.w3.org/2000/svg"
>
  <path
    fill-rule="evenodd"
    clip-rule="evenodd"
    d="M14.75 4.5C14.75 4.91421 14.4142 5.25 14 5.25H11.552L9.96868 14.75H12C12.4142 14.75 12.75 15.0858 12.75 15.5C12.75 15.9142 12.4142 16.25 12 16.25H6C5.58579 16.25 5.25 15.9142 5.25 15.5C5.25 15.0858 5.58579 14.75 6 14.75H8.44799L10.0313 5.25H8C7.58579 5.25 7.25 4.91421 7.25 4.5C7.25 4.08579 7.58579 3.75 8 3.75H14C14.4142 3.75 14.75 4.08579 14.75 4.5Z"
    fill="#09101C"
  />
</svg>
