<svg
  width="20"
  height="20"
  viewBox="0 0 20 20"
  fill="none"
  xmlns="http://www.w3.org/2000/svg"
>
  <path
    d="M16.6305 15.7966L15.9806 15.7846L16.6305 15.7966ZM16.1397 16.2873L16.1517 16.9372L16.1397 16.2873ZM13.853 14.8488L13.2136 14.9653L13.2136 14.9653L13.853 14.8488ZM13.4508 14.4465L13.3343 15.086L13.3343 15.086L13.4508 14.4465ZM11.8084 12.8041L11.1689 12.9207L11.1689 12.9207L11.8084 12.8041ZM11.4062 12.4019L11.2896 13.0414L11.2896 13.0414L11.4062 12.4019ZM11.9716 13.6996L12.6111 13.583L11.9716 13.6996ZM12.5554 14.2833L12.4388 14.9228L12.5554 14.2833ZM14.6236 16.3152L14.6116 15.6653L14.6236 16.3152ZM14.0163 15.7442L13.3768 15.8608L14.0163 15.7442ZM11.734 9.09401L12.3407 9.32715L11.734 9.09401ZM10.5107 12.2387L10.3942 12.8782L10.5107 12.2387ZM16.5998 14.1354L16.1402 14.595L16.5998 14.1354ZM16.6584 14.2805L17.3083 14.2924L16.6584 14.2805ZM9.43715 11.3908L9.67029 11.9976L9.43715 11.3908ZM9.20401 10.7841C8.00484 11.2449 6.59631 10.9908 5.63119 10.0257L4.71195 10.9449C6.05329 12.2862 8.00918 12.6359 9.67029 11.9976L9.20401 10.7841ZM5.63119 10.0257C4.32294 8.71741 4.32294 6.5963 5.63119 5.28805L4.71195 4.36881C2.89602 6.18475 2.89602 9.12896 4.71195 10.9449L5.63119 10.0257ZM5.63119 5.28805C6.93945 3.97979 9.06055 3.97979 10.3688 5.28805L11.288 4.36881C9.47211 2.55287 6.52789 2.55287 4.71195 4.36881L5.63119 5.28805ZM10.3688 5.28805C11.3339 6.25317 11.588 7.6617 11.1272 8.86087L12.3407 9.32715C12.979 7.66604 12.6294 5.71015 11.288 4.36881L10.3688 5.28805ZM11.3192 9.77397L16.1402 14.595L17.0594 13.6757L12.2384 8.85473L11.3192 9.77397ZM16.0085 14.2685L15.9806 15.7846L17.2803 15.8086L17.3083 14.2924L16.0085 14.2685ZM15.9806 15.7846C15.9821 15.704 16.0471 15.6389 16.1278 15.6374L16.1517 16.9372C16.7703 16.9258 17.269 16.4271 17.2803 15.8086L15.9806 15.7846ZM16.1278 15.6374L14.6116 15.6653L14.6356 16.9651L16.1517 16.9372L16.1278 15.6374ZM14.9381 15.7971L14.5312 15.3901L13.612 16.3094L14.0189 16.7163L14.9381 15.7971ZM14.6557 15.6277L14.4925 14.7322L13.2136 14.9653L13.3768 15.8608L14.6557 15.6277ZM14.4925 14.7322C14.4067 14.2614 14.0382 13.8929 13.5674 13.8071L13.3343 15.086C13.2728 15.0748 13.2248 15.0267 13.2136 14.9653L14.4925 14.7322ZM13.5674 13.8071L12.6719 13.6439L12.4388 14.9228L13.3343 15.086L13.5674 13.8071ZM12.9094 13.7684L12.4866 13.3455L11.5673 14.2647L11.9902 14.6876L12.9094 13.7684ZM12.6111 13.583L12.4479 12.6876L11.1689 12.9207L11.3321 13.8161L12.6111 13.583ZM12.4479 12.6876C12.362 12.2167 11.9936 11.8482 11.5227 11.7624L11.2896 13.0414C11.2282 13.0302 11.1801 12.9821 11.1689 12.9207L12.4479 12.6876ZM11.5227 11.7624L10.6273 11.5992L10.3942 12.8782L11.2896 13.0414L11.5227 11.7624ZM10.8648 11.7237L10.1171 10.976L9.19787 11.8953L9.94555 12.643L10.8648 11.7237ZM12.4866 13.3455C12.5512 13.4102 12.5947 13.493 12.6111 13.583L11.3321 13.8161C11.3631 13.9861 11.4452 14.1426 11.5673 14.2647L12.4866 13.3455ZM12.6719 13.6439C12.7619 13.6603 12.8448 13.7037 12.9094 13.7684L11.9902 14.6876C12.1124 14.8098 12.2689 14.8918 12.4388 14.9228L12.6719 13.6439ZM14.6116 15.6653C14.7338 15.6631 14.8517 15.7106 14.9381 15.7971L14.0189 16.7163C14.1821 16.8795 14.4047 16.9694 14.6356 16.9651L14.6116 15.6653ZM14.5312 15.3901C14.5959 15.4548 14.6393 15.5377 14.6557 15.6277L13.3768 15.8608C13.4078 16.0307 13.4898 16.1872 13.612 16.3094L14.5312 15.3901ZM11.1272 8.86087C11.0105 9.16471 11.0711 9.5259 11.3192 9.77397L12.2384 8.85473C12.3713 8.98756 12.399 9.17543 12.3407 9.32715L11.1272 8.86087ZM10.6273 11.5992C10.7173 11.6156 10.8001 11.6591 10.8648 11.7237L9.94555 12.643C10.0677 12.7651 10.2242 12.8472 10.3942 12.8782L10.6273 11.5992ZM16.1402 14.595C16.0538 14.5086 16.0062 14.3907 16.0085 14.2685L17.3083 14.2924C17.3125 14.0616 17.2227 13.839 17.0594 13.6757L16.1402 14.595ZM9.67029 11.9976C9.51857 12.0559 9.33071 12.0281 9.19787 11.8953L10.1171 10.976C9.86905 10.728 9.50785 10.6673 9.20401 10.7841L9.67029 11.9976Z"
    fill="black"
  />
  <circle
    cx="7.29297"
    cy="6.94975"
    r="1"
    transform="rotate(45 7.29297 6.94975)"
    fill="black"
  />
</svg>
