<svg
  width="20"
  height="20"
  viewBox="0 0 20 20"
  fill="none"
  xmlns="http://www.w3.org/2000/svg"
>
  <path
    d="M3 8.8C3 7.11984 3 6.27976 3.32698 5.63803C3.6146 5.07354 4.07354 4.6146 4.63803 4.32698C5.27976 4 6.11984 4 7.8 4H12.2C13.8802 4 14.7202 4 15.362 4.32698C15.9265 4.6146 16.3854 5.07354 16.673 5.63803C17 6.27976 17 7.11984 17 8.8V11.2C17 12.8802 17 13.7202 16.673 14.362C16.3854 14.9265 15.9265 15.3854 15.362 15.673C14.7202 16 13.8802 16 12.2 16H7.8C6.11984 16 5.27976 16 4.63803 15.673C4.07354 15.3854 3.6146 14.9265 3.32698 14.362C3 13.7202 3 12.8802 3 11.2V8.8Z"
    stroke="#09101C"
    stroke-width="1.3"
  />
  <rect x="5.25" y="6.25" width="2" height="2" rx="0.5" fill="#09101C" />
  <rect x="9" y="6.25" width="2" height="2" rx="0.5" fill="#09101C" />
  <rect x="12.75" y="6.25" width="2" height="2" rx="0.5" fill="#09101C" />
  <rect x="5.25" y="9.25" width="2" height="2" rx="0.5" fill="#09101C" />
  <rect x="9" y="9.25" width="2" height="2" rx="0.5" fill="#09101C" />
  <rect x="12.75" y="9.25" width="2" height="2" rx="0.5" fill="#09101C" />
  <rect x="6" y="12.5" width="8" height="1.5" rx="0.5" fill="#09101C" />
</svg>
