<svg
  width="20"
  height="20"
  viewBox="0 0 20 20"
  fill="none"
  xmlns="http://www.w3.org/2000/svg"
>
  <rect
    x="4"
    y="3"
    width="12"
    height="14"
    rx="4"
    stroke="#09101C"
    stroke-width="1.3"
  />
  <mask
    id="path-2-outside-1_394_103"
    maskUnits="userSpaceOnUse"
    x="6.28723"
    y="4.5"
    width="7"
    height="11"
    fill="black"
  >
    <rect fill="white" x="6.28723" y="4.5" width="7" height="11" />
    <path
      fill-rule="evenodd"
      clip-rule="evenodd"
      d="M9.05548 9.91257C8.04317 9.69918 7.28723 8.78935 7.28723 7.71656C7.28723 6.48811 8.2785 5.5 9.51088 5.5C10.7433 5.5 11.7345 6.48811 11.7345 7.71656C11.7575 8.77079 11.011 9.66766 10.02 9.90087V12.1232H10.0736L11.2524 10.7345H12.3776L10.9844 12.3369L12.458 14.5H11.4131L10.3414 12.9511L10.02 13.3249V14.5H9.05548V9.91257ZM8.17133 7.71656C8.17133 6.99552 8.76073 6.38129 9.51088 6.38129C10.261 6.38129 10.8772 6.99552 10.8504 7.71656C10.8504 8.43763 10.261 9.05186 9.51088 9.05186C8.78753 9.05186 8.17133 8.46433 8.17133 7.71656Z"
    />
  </mask>
  <path
    fill-rule="evenodd"
    clip-rule="evenodd"
    d="M9.05548 9.91257C8.04317 9.69918 7.28723 8.78935 7.28723 7.71656C7.28723 6.48811 8.2785 5.5 9.51088 5.5C10.7433 5.5 11.7345 6.48811 11.7345 7.71656C11.7575 8.77079 11.011 9.66766 10.02 9.90087V12.1232H10.0736L11.2524 10.7345H12.3776L10.9844 12.3369L12.458 14.5H11.4131L10.3414 12.9511L10.02 13.3249V14.5H9.05548V9.91257ZM8.17133 7.71656C8.17133 6.99552 8.76073 6.38129 9.51088 6.38129C10.261 6.38129 10.8772 6.99552 10.8504 7.71656C10.8504 8.43763 10.261 9.05186 9.51088 9.05186C8.78753 9.05186 8.17133 8.46433 8.17133 7.71656Z"
    fill="#09101C"
  />
  <path
    d="M9.05548 9.91257H9.22548V9.77466L9.09054 9.74622L9.05548 9.91257ZM11.7345 7.71656H11.5645L11.5646 7.72027L11.7345 7.71656ZM10.02 9.90087L9.98102 9.73539L9.84996 9.76623V9.90087H10.02ZM10.02 12.1232H9.84996V12.2932H10.02V12.1232ZM10.0736 12.1232V12.2932H10.1522L10.2032 12.2332L10.0736 12.1232ZM11.2524 10.7345V10.5645H11.1737L11.1228 10.6245L11.2524 10.7345ZM12.3776 10.7345L12.5059 10.8461L12.7507 10.5645H12.3776V10.7345ZM10.9844 12.3369L10.8561 12.2253L10.7701 12.3242L10.8439 12.4326L10.9844 12.3369ZM12.458 14.5V14.67H12.7795L12.5985 14.4043L12.458 14.5ZM11.4131 14.5L11.2733 14.5967L11.324 14.67H11.4131V14.5ZM10.3414 12.9511L10.4812 12.8543L10.356 12.6733L10.2125 12.8402L10.3414 12.9511ZM10.02 13.3249L9.89106 13.2141L9.84996 13.2619V13.3249H10.02ZM10.02 14.5V14.67H10.19V14.5H10.02ZM9.05548 14.5H8.88548V14.67H9.05548V14.5ZM10.8504 7.71656L10.6804 7.71025V7.71656H10.8504ZM9.09054 9.74622C8.15661 9.54936 7.45723 8.7087 7.45723 7.71656H7.11723C7.11723 8.86999 7.92972 9.84901 9.02042 10.0789L9.09054 9.74622ZM7.45723 7.71656C7.45723 6.58251 8.37187 5.67 9.51088 5.67V5.33C8.18512 5.33 7.11723 6.39371 7.11723 7.71656H7.45723ZM9.51088 5.67C10.6499 5.67 11.5645 6.58251 11.5645 7.71656H11.9045C11.9045 6.39371 10.8366 5.33 9.51088 5.33V5.67ZM11.5646 7.72027C11.5857 8.6899 10.8983 9.51956 9.98102 9.73539L10.0589 10.0664C11.1238 9.81577 11.9293 8.85169 11.9045 7.71285L11.5646 7.72027ZM9.84996 9.90087V12.1232H10.19V9.90087H9.84996ZM10.02 12.2932H10.0736V11.9532H10.02V12.2932ZM10.2032 12.2332L11.382 10.8445L11.1228 10.6245L9.94395 12.0132L10.2032 12.2332ZM11.2524 10.9045H12.3776V10.5645H11.2524V10.9045ZM12.2493 10.623L10.8561 12.2253L11.1127 12.4484L12.5059 10.8461L12.2493 10.623ZM10.8439 12.4326L12.3175 14.5957L12.5985 14.4043L11.1249 12.2411L10.8439 12.4326ZM12.458 14.33H11.4131V14.67H12.458V14.33ZM11.5529 14.4033L10.4812 12.8543L10.2016 13.0478L11.2733 14.5967L11.5529 14.4033ZM10.2125 12.8402L9.89106 13.2141L10.1489 13.4358L10.4703 13.0619L10.2125 12.8402ZM9.84996 13.3249V14.5H10.19V13.3249H9.84996ZM10.02 14.33H9.05548V14.67H10.02V14.33ZM9.22548 14.5V9.91257H8.88548V14.5H9.22548ZM9.51088 6.21129C8.66515 6.21129 8.00133 6.90333 8.00133 7.71656H8.34133C8.34133 7.0877 8.85632 6.55129 9.51088 6.55129V6.21129ZM11.0203 7.72287C11.0509 6.89901 10.3507 6.21129 9.51088 6.21129V6.55129C10.1713 6.55129 10.7035 7.09202 10.6805 7.71025L11.0203 7.72287ZM9.51088 9.22186C10.3566 9.22186 11.0204 8.52981 11.0204 7.71656H10.6804C10.6804 8.34545 10.1654 8.88186 9.51088 8.88186V9.22186ZM8.00133 7.71656C8.00133 8.56093 8.69637 9.22186 9.51088 9.22186V8.88186C8.87868 8.88186 8.34133 8.36774 8.34133 7.71656H8.00133Z"
    fill="#09101C"
    mask="url(#path-2-outside-1_394_103)"
  />
</svg>
