<svg
  width="20"
  height="20"
  viewBox="0 0 20 20"
  fill="none"
  xmlns="http://www.w3.org/2000/svg"
>
  <path
    fill-rule="evenodd"
    clip-rule="evenodd"
    d="M8.14355 9.84456C6.34389 9.46522 5 7.84773 5 5.94055C5 3.75664 6.76225 2 8.95316 2C11.144 2 12.9063 3.75664 12.9063 5.94055C12.9472 7.81474 11.6201 9.40918 9.85818 9.82377V13.7745H9.95346L12.0491 11.3058H14.0495L11.5728 14.1544L14.1924 18H12.3349L10.4297 15.2463L9.85818 15.911V18H8.14355V9.84456ZM6.57173 5.94055C6.57173 4.65869 7.61956 3.56673 8.95316 3.56673C10.2868 3.56673 11.3822 4.65869 11.3346 5.94055C11.3346 7.22245 10.2868 8.31442 8.95316 8.31442C7.66719 8.31442 6.57173 7.26993 6.57173 5.94055Z"
    fill="#09101C"
  />
</svg>
