<svg
  width="20"
  height="20"
  viewBox="0 0 20 20"
  fill="none"
  xmlns="http://www.w3.org/2000/svg"
>
  <path
    fill-rule="evenodd"
    clip-rule="evenodd"
    d="M7.2001 4.35H7.17316C6.636 4.34999 6.19368 4.34998 5.83357 4.37941C5.45987 4.40994 5.11784 4.47537 4.79702 4.63883C4.29839 4.8929 3.89299 5.2983 3.63893 5.79692C3.47547 6.11774 3.41004 6.45977 3.3795 6.83347C3.35008 7.19358 3.35009 7.6359 3.3501 8.17306L3.3501 8.2V12.3567C2.50912 12.4325 1.8501 13.1393 1.8501 14C1.8501 15.4636 3.03654 16.65 4.5001 16.65H15.5001C16.9637 16.65 18.1501 15.4636 18.1501 14C18.1501 13.1393 17.4911 12.4325 16.6501 12.3567V8.2V8.17306C16.6501 7.63591 16.6501 7.19358 16.6207 6.83347C16.5902 6.45977 16.5247 6.11774 16.3613 5.79692C16.1072 5.2983 15.7018 4.8929 15.2032 4.63883C14.8824 4.47537 14.5403 4.40994 14.1666 4.37941C13.8065 4.34998 13.3642 4.34999 12.827 4.35H12.8001H7.2001ZM16.5001 13.65H16.0001H4.0001H3.5001C3.3068 13.65 3.1501 13.8067 3.1501 14C3.1501 14.7456 3.75451 15.35 4.5001 15.35H15.5001C16.2457 15.35 16.8501 14.7456 16.8501 14C16.8501 13.8067 16.6934 13.65 16.5001 13.65ZM15.3501 12.35V8.2C15.3501 7.62922 15.3496 7.24023 15.325 6.93933C15.301 6.64603 15.2575 6.49412 15.203 6.38711C15.0735 6.13309 14.867 5.92657 14.613 5.79714C14.506 5.74262 14.3541 5.69905 14.0608 5.67509C13.7599 5.65051 13.3709 5.65 12.8001 5.65H7.2001C6.62932 5.65 6.24033 5.65051 5.93943 5.67509C5.64612 5.69905 5.49422 5.74262 5.38721 5.79714C5.13319 5.92657 4.92667 6.13309 4.79724 6.38711C4.74272 6.49412 4.69915 6.64603 4.67519 6.93933C4.6506 7.24023 4.6501 7.62922 4.6501 8.2V12.35H15.3501Z"
    fill="#09101C"
  />
</svg>
