<svg
  width="20"
  height="20"
  viewBox="0 0 20 20"
  fill="none"
  xmlns="http://www.w3.org/2000/svg"
>
  <path
    fill-rule="evenodd"
    clip-rule="evenodd"
    d="M9.53995 4.59063L8.12574 6.00485L9.04498 6.92408L10.4592 5.50987C11.5722 4.39688 13.3767 4.39688 14.4897 5.50987C15.6027 6.62287 15.6027 8.42739 14.4897 9.54038L13.0755 10.9546L13.9947 11.8738L15.4089 10.4596C17.0296 8.83894 17.0296 6.21131 15.4089 4.59063C13.7883 2.96996 11.1606 2.96996 9.53995 4.59063ZM12.5806 8.3383L8.33795 12.5809L7.41871 11.6617L11.6613 7.41906L12.5806 8.3383ZM4.59051 15.4094C2.96983 13.7887 2.96983 11.1611 4.59051 9.54038L6.00472 8.12617L6.92396 9.04541L5.50975 10.4596C4.39675 11.5726 4.39675 13.3771 5.50975 14.4901C6.62274 15.6031 8.42726 15.6031 9.54025 14.4901L10.9545 13.0759L11.8737 13.9952L10.4595 15.4094C8.83882 17.03 6.21118 17.03 4.59051 15.4094Z"
    fill="#09101C"
  />
</svg>
