<svg
  width="20"
  height="20"
  viewBox="0 0 20 20"
  fill="none"
  xmlns="http://www.w3.org/2000/svg"
>
  <path
    d="M10 2.25C10.4142 2.25 10.75 2.58579 10.75 3C10.75 3.41421 10.4142 3.75 10 3.75V2.25ZM3.75 10C3.75 13.4518 6.54822 16.25 10 16.25V17.75C5.71979 17.75 2.25 14.2802 2.25 10H3.75ZM10 3.75C6.54822 3.75 3.75 6.54822 3.75 10H2.25C2.25 5.71979 5.71979 2.25 10 2.25V3.75Z"
    fill="#09101C"
  />
  <path
    d="M10 3C13.866 3 17 6.13401 17 10C17 13.866 13.866 17 10 17"
    stroke="url(#paint0_linear_1036_13)"
    stroke-width="1.5"
  />
  <defs>
    <linearGradient
      id="paint0_linear_1036_13"
      x1="9.41667"
      y1="17"
      x2="4.75"
      y2="8.83333"
      gradientUnits="userSpaceOnUse"
    >
      <stop />
      <stop offset="1" stop-color="#15161A" stop-opacity="0" />
    </linearGradient>
  </defs>
</svg>
