<svg
  width="20"
  height="20"
  viewBox="0 0 20 20"
  fill="none"
  xmlns="http://www.w3.org/2000/svg"
>
  <path
    fill-rule="evenodd"
    clip-rule="evenodd"
    d="M10.0001 1.35C7.98426 1.35 6.3501 2.98416 6.3501 5V6.44161C5.98494 6.49714 5.65401 6.58938 5.34303 6.74783C4.65624 7.09776 4.09786 7.65614 3.74792 8.34294C3.52996 8.77071 3.43729 9.23622 3.39313 9.77668C3.35009 10.3035 3.35009 10.9556 3.3501 11.7718V11.8V12.2V12.2282C3.35009 13.0444 3.35009 13.6965 3.39313 14.2233C3.43729 14.7638 3.52996 15.2293 3.74792 15.6571C4.09786 16.3439 4.65624 16.9022 5.34303 17.2522C5.7708 17.4701 6.23632 17.5628 6.77677 17.607C7.30358 17.65 7.95572 17.65 8.77187 17.65H8.8001H11.2001H11.2283C12.0445 17.65 12.6966 17.65 13.2234 17.607C13.7639 17.5628 14.2294 17.4701 14.6572 17.2522C15.344 16.9022 15.9023 16.3439 16.2523 15.6571C16.4702 15.2293 16.5629 14.7638 16.6071 14.2233C16.6501 13.6965 16.6501 13.0444 16.6501 12.2283V12.2282V12.2282V12.2V11.8V11.7718V11.7718V11.7717C16.6501 10.9556 16.6501 10.3035 16.6071 9.77668C16.5629 9.23622 16.4702 8.77071 16.2523 8.34294C15.9023 7.65614 15.344 7.09776 14.6572 6.74783C14.3462 6.58938 14.0153 6.49714 13.6501 6.44161V5C13.6501 2.98416 12.0159 1.35 10.0001 1.35ZM11.2001 7.65H8.8001C7.94929 7.65 7.35028 7.65051 6.88263 7.68871C6.42257 7.7263 6.14718 7.79712 5.93322 7.90614C5.49104 8.13144 5.13153 8.49094 4.90623 8.93312C4.79721 9.14709 4.7264 9.42248 4.68881 9.88254C4.6506 10.3502 4.6501 10.9492 4.6501 11.8V12.2C4.6501 13.0508 4.6506 13.6498 4.68881 14.1175C4.7264 14.5775 4.79721 14.8529 4.90623 15.0669C5.13153 15.5091 5.49104 15.8686 5.93322 16.0939C6.14718 16.2029 6.42257 16.2737 6.88263 16.3113C7.35028 16.3495 7.94929 16.35 8.8001 16.35H11.2001C12.0509 16.35 12.6499 16.3495 13.1176 16.3113C13.5776 16.2737 13.853 16.2029 14.067 16.0939C14.5092 15.8686 14.8687 15.5091 15.094 15.0669C15.203 14.8529 15.2738 14.5775 15.3114 14.1175C15.3496 13.6498 15.3501 13.0508 15.3501 12.2V11.8C15.3501 10.9492 15.3496 10.3502 15.3114 9.88254C15.2738 9.42248 15.203 9.14709 15.094 8.93312C14.8687 8.49094 14.5092 8.13144 14.067 7.90614C13.853 7.79712 13.5776 7.7263 13.1176 7.68871C12.6499 7.65051 12.0509 7.65 11.2001 7.65ZM11.2769 6.35H12.3501V5C12.3501 3.70213 11.298 2.65 10.0001 2.65C8.70223 2.65 7.6501 3.70213 7.6501 5V6.35H8.72329C8.73941 6.35 8.75561 6.35 8.77186 6.35H8.8001H11.2001H11.2283C11.2446 6.35 11.2608 6.35 11.2769 6.35ZM9.3501 13.5V10.5H10.6501V13.5H9.3501Z"
    fill="#09101C"
  />
</svg>
