<svg
  width="20"
  height="20"
  viewBox="0 0 20 20"
  fill="none"
  xmlns="http://www.w3.org/2000/svg"
>
  <path
    d="M9.5 4L8.3 4C6.61984 4 5.77976 4 5.13803 4.32698C4.57354 4.6146 4.1146 5.07354 3.82698 5.63803C3.5 6.27976 3.5 7.11984 3.5 8.8L3.5 11.2C3.5 12.8802 3.5 13.7202 3.82698 14.362C4.1146 14.9265 4.57354 15.3854 5.13803 15.673C5.77976 16 6.61984 16 8.3 16L9.5 16"
    stroke="#1B273D"
    stroke-opacity="0.3"
    stroke-width="1.3"
  />
  <path
    fill-rule="evenodd"
    clip-rule="evenodd"
    d="M15.4308 9.35L12.5404 6.45962L13.4596 5.54038L17.4596 9.54038L17.9192 10L17.4596 10.4596L13.4596 14.4596L12.5404 13.5404L15.4308 10.65L7 10.65V9.35L15.4308 9.35Z"
    fill="#09101C"
  />
</svg>
