<svg
  width="20"
  height="20"
  viewBox="0 0 20 20"
  fill="none"
  xmlns="http://www.w3.org/2000/svg"
>
  <path
    fill-rule="evenodd"
    clip-rule="evenodd"
    d="M6.14985 6C6.14985 4.97827 6.97813 4.15 7.99985 4.15C9.02158 4.15 9.84985 4.97827 9.84985 6C9.84985 7.02173 9.02158 7.85 7.99985 7.85C6.97813 7.85 6.14985 7.02173 6.14985 6ZM7.99985 2.85C6.26016 2.85 4.84985 4.2603 4.84985 6C4.84985 7.7397 6.26016 9.15 7.99985 9.15C9.73955 9.15 11.1499 7.7397 11.1499 6C11.1499 4.2603 9.73955 2.85 7.99985 2.85ZM6.7501 10.35C4.32004 10.35 2.3501 12.3199 2.3501 14.75C2.3501 15.7993 3.20076 16.65 4.2501 16.65H11.7501C12.7994 16.65 13.6501 15.7993 13.6501 14.75C13.6501 12.3199 11.6802 10.35 9.2501 10.35H6.7501ZM3.6501 14.75C3.6501 13.0379 5.03801 11.65 6.7501 11.65H9.2501C10.9622 11.65 12.3501 13.0379 12.3501 14.75C12.3501 15.0814 12.0815 15.35 11.7501 15.35H4.2501C3.91873 15.35 3.6501 15.0814 3.6501 14.75Z"
    fill="#09101C"
  />
  <path
    d="M13.5 11H13.7502C15.8212 11 17.5001 12.6789 17.5001 14.75V14.75C17.5001 15.4404 16.9405 16 16.2501 16H14.5"
    stroke="#09101C"
    stroke-width="1.3"
    stroke-linejoin="round"
  />
  <path
    d="M11.8094 8C12.9625 8 13.8973 7.10457 13.8973 6C13.8973 4.89543 12.9625 4 11.8094 4"
    stroke="#09101C"
    stroke-width="1.3"
    stroke-linejoin="round"
  />
</svg>
