<svg
  width="20"
  height="20"
  viewBox="0 0 20 20"
  fill="none"
  xmlns="http://www.w3.org/2000/svg"
>
  <path
    fill-rule="evenodd"
    clip-rule="evenodd"
    d="M11.9154 2.85215C10.3419 2.43053 8.67324 2.5399 7.16825 3.16329C5.66326 3.78668 4.40602 4.88925 3.59152 6.3C2.77702 7.71075 2.45079 9.35084 2.66342 10.9659C2.87604 12.5809 3.61565 14.0807 4.76752 15.2326C5.91939 16.3845 7.41916 17.1241 9.03421 17.3367C10.6493 17.5493 12.2894 17.2231 13.7001 16.4086L13.0501 15.2828C11.8872 15.9542 10.5352 16.2231 9.2039 16.0478C7.87257 15.8725 6.63627 15.2629 5.68676 14.3134C4.73724 13.3638 4.12757 12.1275 3.95229 10.7962C3.77702 9.46488 4.04594 8.11291 4.71735 6.95C5.38876 5.78708 6.42514 4.87821 7.66574 4.36433C8.90634 3.85046 10.2818 3.7603 11.5789 4.10785C12.876 4.4554 14.0221 5.22123 14.8396 6.28655C15.657 7.35188 16.1001 8.65718 16.1001 10C16.1001 10.3239 16.071 10.7787 16.031 11.2457C15.9778 11.8662 15.4462 12.35 14.7919 12.35C14.1613 12.35 13.6501 11.8388 13.6501 11.2083V10.0027L13.6501 10L13.6501 9.99733V6.5H12.3501V7.20704C11.7152 6.67224 10.8953 6.35 10.0001 6.35C7.98427 6.35 6.35011 7.98416 6.35011 10C6.35011 12.0158 7.98427 13.65 10.0001 13.65C11.0677 13.65 12.0282 13.1917 12.6956 12.4611C13.1221 13.1733 13.9013 13.65 14.7919 13.65C16.0893 13.65 17.2127 12.6809 17.3262 11.3567C17.3669 10.883 17.4001 10.3823 17.4001 10C17.4001 8.37101 16.8626 6.78753 15.8709 5.49516C14.8793 4.2028 13.4889 3.27376 11.9154 2.85215ZM10.0001 7.65C8.70224 7.65 7.65011 8.70213 7.65011 10C7.65011 11.2979 8.70224 12.35 10.0001 12.35C11.298 12.35 12.3501 11.2979 12.3501 10C12.3501 8.70213 11.298 7.65 10.0001 7.65Z"
    fill="#09101C"
  />
</svg>
