<svg
  width="20"
  height="20"
  viewBox="0 0 20 20"
  fill="none"
  xmlns="http://www.w3.org/2000/svg"
>
  <path
    d="M16.75 10C16.75 6.27208 13.7279 3.25 10 3.25V3.25C6.27208 3.25 3.25 6.27208 3.25 10V10.2797C3.25 11.4516 3.59688 12.5972 4.24692 13.5723V13.5723C4.27349 13.6122 4.28288 13.661 4.27298 13.7079L3.73214 16.2679L6.29211 15.727C6.33897 15.7171 6.38785 15.7265 6.4277 15.7531V15.7531C7.40276 16.4031 8.54842 16.75 9.7203 16.75H10C13.7279 16.75 16.75 13.7279 16.75 10V10Z"
    stroke="#09101C"
    stroke-width="1.3"
    stroke-linejoin="round"
  />
  <path
    d="M7.5 8.5H12.5"
    stroke="#09101C"
    stroke-width="1.3"
    stroke-linejoin="round"
  />
  <path
    d="M7.5 11.5H11.5"
    stroke="#09101C"
    stroke-width="1.3"
    stroke-linejoin="round"
  />
</svg>
