<svg
  width="20"
  height="20"
  viewBox="0 0 20 20"
  fill="none"
  xmlns="http://www.w3.org/2000/svg"
>
  <path
    fill-rule="evenodd"
    clip-rule="evenodd"
    d="M12.5003 3.15C13.4411 3.15 14.1141 3.15035 14.6447 3.18655C15.1694 3.22236 15.5071 3.29104 15.7823 3.405C16.6031 3.74501 17.2553 4.39717 17.5953 5.21801C17.7092 5.49315 17.7779 5.83089 17.8137 6.35562C17.8499 6.88619 17.8503 7.55922 17.8503 8.5V10.5C17.8503 11.7596 17.1551 12.8568 16.1275 13.429C16.1229 13.5343 16.1174 13.6355 16.1107 13.7329C16.0804 14.1771 16.0256 14.5676 15.9194 14.9295C17.7935 14.3296 19.1503 12.5732 19.1503 10.5V8.47595V8.47591C19.1503 7.56438 19.1503 6.84712 19.1107 6.26713C19.0704 5.67621 18.9868 5.18047 18.7963 4.72052C18.3244 3.58114 17.4191 2.67591 16.2798 2.20396C15.8198 2.01345 15.3241 1.92989 14.7331 1.88957C14.1531 1.85 13.4358 1.85 12.5243 1.85H12.5243H8.50028C6.42705 1.85 4.67073 3.2068 4.0708 5.08089C4.4327 4.97463 4.82316 4.91988 5.26741 4.88957C5.36476 4.88293 5.46597 4.8774 5.57132 4.8728C6.14344 3.84518 7.24068 3.15 8.50028 3.15H12.5003Z"
    fill="#09101C"
  />
  <path
    fill-rule="evenodd"
    clip-rule="evenodd"
    d="M7.4761 4.85H9.52409C10.4357 4.85 11.153 4.84999 11.733 4.88957C12.3239 4.92989 12.8196 5.01345 13.2796 5.20396C14.419 5.67591 15.3242 6.58114 15.7961 7.72052C15.9867 8.18047 16.0702 8.67621 16.1105 9.26713C16.1501 9.84714 16.1501 10.5644 16.1501 11.476V11.524C16.1501 12.4356 16.1501 13.1529 16.1105 13.7329C16.0702 14.3238 15.9867 14.8195 15.7961 15.2795C15.3242 16.4189 14.419 17.3241 13.2796 17.796C12.8196 17.9866 12.3239 18.0701 11.733 18.1104C11.153 18.15 10.4357 18.15 9.52408 18.15H7.47611C6.56454 18.15 5.84723 18.15 5.26723 18.1104C4.67631 18.0701 4.18056 17.9866 3.72062 17.796C2.58124 17.3241 1.676 16.4189 1.20406 15.2795C1.01354 14.8195 0.929984 14.3238 0.889666 13.7329C0.850092 13.1529 0.850095 12.4356 0.850098 11.524V11.476C0.850095 10.5644 0.850092 9.84714 0.889666 9.26713C0.929984 8.67621 1.01354 8.18047 1.20406 7.72052C1.676 6.58114 2.58124 5.67591 3.72062 5.20396C4.18056 5.01345 4.67631 4.92989 5.26723 4.88957C5.84723 4.84999 6.56453 4.85 7.4761 4.85ZM5.35572 6.18655C4.83099 6.22236 4.49325 6.29104 4.21811 6.405C3.39726 6.74501 2.74511 7.39717 2.4051 8.21801C2.29113 8.49315 2.22245 8.83089 2.18665 9.35562C2.15045 9.88619 2.1501 10.5592 2.1501 11.5C2.1501 12.4408 2.15045 13.1138 2.18665 13.6444C2.22245 14.1691 2.29113 14.5068 2.4051 14.782C2.74511 15.6028 3.39726 16.255 4.21811 16.595C4.49325 16.709 4.83099 16.7776 5.35572 16.8134C5.88629 16.8496 6.55932 16.85 7.5001 16.85H9.5001C10.4409 16.85 11.1139 16.8496 11.6445 16.8134C12.1692 16.7776 12.5069 16.709 12.7821 16.595C13.6029 16.255 14.2551 15.6028 14.5951 14.782C14.7091 14.5068 14.7777 14.1691 14.8135 13.6444C14.8497 13.1138 14.8501 12.4408 14.8501 11.5C14.8501 10.5592 14.8497 9.88619 14.8135 9.35562C14.7777 8.83089 14.7091 8.49315 14.5951 8.21801C14.2551 7.39717 13.6029 6.74501 12.7821 6.405C12.5069 6.29104 12.1692 6.22236 11.6445 6.18655C11.1139 6.15035 10.4409 6.15 9.5001 6.15H7.5001C6.55932 6.15 5.88629 6.15035 5.35572 6.18655Z"
    fill="#09101C"
  />
  <path
    fill-rule="evenodd"
    clip-rule="evenodd"
    d="M6.0001 9.15C5.53066 9.15 5.1501 9.53056 5.1501 10C5.1501 10.4694 5.53066 10.85 6.0001 10.85C6.46954 10.85 6.8501 10.4694 6.8501 10C6.8501 9.53056 6.46954 9.15 6.0001 9.15ZM3.8501 10C3.8501 8.81259 4.81269 7.85 6.0001 7.85C7.18751 7.85 8.1501 8.81259 8.1501 10C8.1501 11.1874 7.18751 12.15 6.0001 12.15C4.81269 12.15 3.8501 11.1874 3.8501 10Z"
    fill="#09101C"
  />
</svg>
