<svg
  width="20"
  height="20"
  viewBox="0 0 20 20"
  fill="none"
  xmlns="http://www.w3.org/2000/svg"
>
  <path
    fill-rule="evenodd"
    clip-rule="evenodd"
    d="M5.65433 4.73501C6.56863 3.30105 8.1732 2.35 9.9999 2.35C12.8442 2.35 15.1499 4.65573 15.1499 7.5V8.25C15.1499 8.92075 15.3675 9.5734 15.7699 10.11L16.2199 10.71C16.499 11.0822 16.6499 11.5348 16.6499 12C16.6499 13.0121 15.9506 13.8609 15.0087 14.0894L17.5318 16.6125L16.6126 17.5318L13.2308 14.15H5.4999C4.31249 14.15 3.3499 13.1874 3.3499 12C3.3499 11.5348 3.50078 11.0822 3.7799 10.71L4.2299 10.11C4.63235 9.5734 4.8499 8.92075 4.8499 8.25V7.5C4.8499 6.97569 4.92825 6.46968 5.07388 5.99305L2.47046 3.38962L3.3897 2.47038L5.65433 4.73501ZM6.17142 7.09058C6.15719 7.22511 6.1499 7.3617 6.1499 7.5V8.25C6.1499 9.20203 5.84112 10.1284 5.2699 10.89L4.8199 11.49C4.70955 11.6371 4.6499 11.8161 4.6499 12C4.6499 12.4694 5.03046 12.85 5.4999 12.85H11.9308L6.17142 7.09058ZM13.7693 12.85L6.60392 5.68461C7.25262 4.47367 8.53007 3.65 9.9999 3.65C12.1262 3.65 13.8499 5.3737 13.8499 7.5V8.25C13.8499 9.20203 14.1587 10.1284 14.7299 10.89L15.1799 11.49C15.2903 11.6371 15.3499 11.8161 15.3499 12C15.3499 12.4694 14.9693 12.85 14.4999 12.85H13.7693ZM11.3965 17.3722C10.9536 17.5556 10.479 17.65 9.99968 17.65C9.52035 17.65 9.04572 17.5556 8.60288 17.3722C8.16004 17.1887 7.75767 16.9199 7.41874 16.5809L8.33797 15.6617C8.55619 15.8799 8.81525 16.053 9.10037 16.1711C9.38549 16.2892 9.69107 16.35 9.99968 16.35C10.3083 16.35 10.6139 16.2892 10.899 16.1711C11.1841 16.053 11.4432 15.8799 11.6614 15.6617L12.5806 16.5809C12.2417 16.9199 11.8393 17.1887 11.3965 17.3722Z"
    fill="#09101C"
  />
</svg>
