<svg
  width="20"
  height="20"
  viewBox="0 0 20 20"
  fill="none"
  xmlns="http://www.w3.org/2000/svg"
>
  <path
    d="M3.88564 12.4C3.38085 11.5257 3.12845 11.0885 3.02966 10.6237C2.94225 10.2125 2.94225 9.78749 3.02966 9.37626C3.12845 8.91149 3.38085 8.47433 3.88564 7.6L4.86436 5.90481C5.36915 5.03048 5.62155 4.59331 5.97466 4.27537C6.28709 3.99406 6.65516 3.78156 7.055 3.65164C7.5069 3.50481 8.01169 3.50481 9.02128 3.50481L10.9787 3.50481C11.9883 3.50481 12.4931 3.50481 12.945 3.65164C13.3448 3.78156 13.7129 3.99406 14.0253 4.27537C14.3784 4.59331 14.6308 5.03048 15.1356 5.90481L16.1144 7.6C16.6192 8.47433 16.8716 8.91149 16.9703 9.37626C17.0578 9.78749 17.0578 10.2125 16.9703 10.6237C16.8716 11.0885 16.6192 11.5257 16.1144 12.4L15.1356 14.0952C14.6308 14.9695 14.3784 15.4067 14.0253 15.7246C13.7129 16.0059 13.3448 16.2184 12.945 16.3484C12.4931 16.4952 11.9883 16.4952 10.9787 16.4952L9.02128 16.4952C8.01169 16.4952 7.5069 16.4952 7.055 16.3484C6.65516 16.2184 6.28709 16.0059 5.97466 15.7246C5.62155 15.4067 5.36915 14.9695 4.86436 14.0952L3.88564 12.4Z"
    stroke="#09101C"
    stroke-width="1.3"
  />
  <path
    d="M6 15.5V15.5C6 13.8431 7.34315 12.5 9 12.5H11C12.6569 12.5 14 13.8431 14 15.5V15.5"
    stroke="#09101C"
    stroke-width="1.3"
    stroke-linejoin="round"
  />
  <circle
    cx="10"
    cy="8"
    r="2"
    stroke="#09101C"
    stroke-width="1.3"
    stroke-linejoin="round"
  />
</svg>
