<svg
  width="20"
  height="20"
  viewBox="0 0 20 20"
  fill="none"
  xmlns="http://www.w3.org/2000/svg"
>
  <path
    fill-rule="evenodd"
    clip-rule="evenodd"
    d="M3.6501 5.5C3.6501 4.47827 4.47837 3.65 5.5001 3.65C6.52182 3.65 7.3501 4.47827 7.3501 5.5C7.3501 6.52173 6.52182 7.35 5.5001 7.35C4.47837 7.35 3.6501 6.52173 3.6501 5.5ZM5.5001 2.35C3.7604 2.35 2.3501 3.7603 2.3501 5.5C2.3501 7.01691 3.42232 8.28339 4.85022 8.58289V11.4171C3.42232 11.7166 2.3501 12.9831 2.3501 14.5C2.3501 16.2397 3.7604 17.65 5.5001 17.65C7.23979 17.65 8.6501 16.2397 8.6501 14.5C8.6501 12.9832 7.57799 11.7168 6.15022 11.4172L6.15022 8.58284C7.36814 8.32728 8.32726 7.36822 8.58289 6.15032C9.46733 6.1514 10.1342 6.15832 10.6745 6.20246C11.3013 6.25367 11.7002 6.35174 12.0211 6.51525C12.6514 6.83643 13.1639 7.34891 13.4851 7.97926C13.6486 8.30017 13.7467 8.69905 13.7979 9.32586C13.842 9.86606 13.8489 10.5329 13.85 11.4172C12.4222 11.7167 11.3501 12.9832 11.3501 14.5C11.3501 16.2397 12.7604 17.65 14.5001 17.65C16.2398 17.65 17.6501 16.2397 17.6501 14.5C17.6501 12.9831 16.5779 11.7167 15.1501 11.4171C15.1491 10.5335 15.1422 9.81476 15.0936 9.22C15.0358 8.5128 14.9159 7.9238 14.6434 7.38907C14.1976 6.51411 13.4862 5.80275 12.6113 5.35694C12.0765 5.08449 11.4875 4.96456 10.7803 4.90678C10.1855 4.85818 9.46677 4.85127 8.58302 4.85029C8.28359 3.42231 7.01707 2.35 5.5001 2.35ZM5.5001 12.65C4.47837 12.65 3.6501 13.4783 3.6501 14.5C3.6501 15.5217 4.47837 16.35 5.5001 16.35C6.52182 16.35 7.3501 15.5217 7.3501 14.5C7.3501 13.4783 6.52182 12.65 5.5001 12.65ZM12.6501 14.5C12.6501 13.4783 13.4784 12.65 14.5001 12.65C15.5218 12.65 16.3501 13.4783 16.3501 14.5C16.3501 15.5217 15.5218 16.35 14.5001 16.35C13.4784 16.35 12.6501 15.5217 12.6501 14.5Z"
    fill="#09101C"
  />
</svg>
