<svg
  width="20"
  height="20"
  viewBox="0 0 20 20"
  fill="none"
  xmlns="http://www.w3.org/2000/svg"
>
  <path
    fill-rule="evenodd"
    clip-rule="evenodd"
    d="M15 7.5C16.3807 7.5 17.5 6.38071 17.5 5C17.5 3.61929 16.3807 2.5 15 2.5C13.6193 2.5 12.5 3.61929 12.5 5C12.5 6.38071 13.6193 7.5 15 7.5ZM9.99985 3.35H9.97586C9.06429 3.35 8.34699 3.35 7.76698 3.38957C7.17606 3.42989 6.68032 3.51345 6.22038 3.70396C5.081 4.17591 4.17576 5.08114 3.70381 6.22052C3.5133 6.68047 3.42974 7.17621 3.38942 7.76713C3.34985 8.34713 3.34985 9.06443 3.34985 9.976V9.97601V10V10.024V10.024C3.34985 10.9356 3.34985 11.6529 3.38942 12.2329C3.42974 12.8238 3.5133 13.3195 3.70381 13.7795C4.17576 14.9189 5.081 15.8241 6.22038 16.296C6.68032 16.4866 7.17606 16.5701 7.76698 16.6104C8.34698 16.65 9.06426 16.65 9.9758 16.65H9.99985H10.0239C10.9354 16.65 11.6527 16.65 12.2327 16.6104C12.8236 16.5701 13.3194 16.4866 13.7793 16.296C14.9187 15.8241 15.8239 14.9189 16.2959 13.7795C16.4864 13.3195 16.57 12.8238 16.6103 12.2329C16.6499 11.6529 16.6499 10.9356 16.6499 10.0241V10V9.57143H15.3499V10C15.3499 10.9408 15.3495 11.6138 15.3133 12.1444C15.2775 12.6691 15.2088 13.0068 15.0949 13.282C14.7548 14.1028 14.1027 14.755 13.2818 15.095C13.0067 15.209 12.669 15.2776 12.1442 15.3134C11.6137 15.3496 10.9406 15.35 9.99985 15.35C9.05908 15.35 8.38605 15.3496 7.85548 15.3134C7.33075 15.2776 6.993 15.209 6.71786 15.095C5.89702 14.755 5.24486 14.1028 4.90486 13.282C4.79089 13.0068 4.72221 12.6691 4.68641 12.1444C4.65021 11.6138 4.64985 10.9408 4.64985 10C4.64985 9.05922 4.65021 8.38619 4.68641 7.85562C4.72221 7.33089 4.79089 6.99315 4.90486 6.71801C5.24486 5.89717 5.89702 5.24501 6.71786 4.905C6.993 4.79104 7.33074 4.72236 7.85548 4.68655C8.38605 4.65035 9.05908 4.65 9.99985 4.65H10.4284V3.35H9.99985Z"
    fill="#09101C"
  />
</svg>
