<svg
  width="20"
  height="20"
  viewBox="0 0 20 20"
  fill="none"
  xmlns="http://www.w3.org/2000/svg"
>
  <path
    d="M15 15L8.5 15"
    stroke="#09101C"
    stroke-width="1.5"
    stroke-linecap="square"
    stroke-linejoin="round"
  />
  <path
    d="M15 5L8.5 5"
    stroke="#09101C"
    stroke-width="1.5"
    stroke-linecap="square"
    stroke-linejoin="round"
  />
  <path
    d="M3.90508 4.05859V4.10859H3.95508H4.7376V6.5V6.55H4.7876H5.50049H5.55049V6.5V2.95996V2.90996H5.50049H4.92188H4.87187V2.95996C4.87187 2.98351 4.86465 3.02501 4.84696 3.08776C4.81771 3.18775 4.7755 3.26469 4.72203 3.32106L4.722 3.32108C4.6418 3.40574 4.53717 3.46315 4.40572 3.49219L4.40566 3.49221C4.32249 3.51069 4.17264 3.52524 3.95286 3.53501L3.90508 3.53713V3.58496V4.05859Z"
    fill="#09101C"
    stroke="#09101C"
    stroke-width="0.1"
  />
  <path
    d="M3.71335 11.8L3.71466 11.7487C3.72133 11.4888 3.77713 11.2501 3.88268 11.0335C3.98769 10.785 4.231 10.529 4.6023 10.264L4.63135 10.3047M3.71335 11.8L5.84961 8.50537C5.62826 8.29704 5.3304 8.19287 4.95605 8.19287C4.48242 8.19287 4.15283 8.36947 3.96729 8.72266L3.92304 8.69937C3.92303 8.69938 3.92303 8.69939 3.92302 8.6994C3.82072 8.8938 3.76531 9.14522 3.75375 9.45075L3.75178 9.50264H3.80371H4.47998H4.52797L4.52994 9.45468C4.53801 9.25763 4.56383 9.12133 4.60314 9.03978L4.55811 9.01807M3.71335 11.8H3.76465H6.18896H6.23896V11.75V11.1372V11.0872H6.18896H4.73819C4.76781 11.049 4.80084 11.014 4.83732 10.9822C4.90063 10.9284 5.01855 10.8401 5.19253 10.7165L5.19253 10.7165L5.4708 10.5188C5.47081 10.5188 5.47082 10.5188 5.47083 10.5188C5.70682 10.3516 5.87998 10.1977 5.98701 10.0567C6.15006 9.84435 6.23164 9.60088 6.23164 9.32812C6.23164 8.97446 6.11658 8.68629 5.88379 8.46887L3.71335 11.8ZM4.63135 10.3047L4.60225 10.264C4.92326 10.0343 5.12685 9.87254 5.21753 9.77722C5.35505 9.63038 5.42119 9.47296 5.42119 9.30371C5.42119 9.16375 5.38265 9.05115 5.30832 8.96225C5.23668 8.87656 5.13323 8.83125 4.99023 8.83125C4.89048 8.83125 4.81037 8.84987 4.74754 8.8843C4.68526 8.91843 4.63715 8.9696 4.6031 9.03987L4.55811 9.01807M4.63135 10.3047C4.95199 10.0752 5.15951 9.91081 5.25391 9.81152C5.39876 9.6569 5.47119 9.48763 5.47119 9.30371C5.47119 9.15397 5.42969 9.02946 5.34668 8.93018C5.26367 8.83089 5.14486 8.78125 4.99023 8.78125C4.77865 8.78125 4.6346 8.86019 4.55811 9.01807M4.63135 10.3047C4.26188 10.5684 4.02751 10.8182 3.92822 11.0542C3.83245 11.2503 3.77857 11.4656 3.76657 11.7L3.80603 9.40264H3.80371V9.45264L3.85368 9.45453C3.8537 9.4539 3.85372 9.45327 3.85375 9.45264H4.47998C4.48812 9.25407 4.51416 9.10921 4.55811 9.01807M5.16357 10.6758L5.44189 10.478C5.67627 10.312 5.84473 10.1615 5.94727 10.0264L5.16357 10.6758ZM5.16357 10.6758C4.98942 10.7995 4.86979 10.889 4.80469 10.9443L5.16357 10.6758Z"
    fill="#09101C"
    stroke="#09101C"
    stroke-width="0.1"
  />
  <path
    d="M4.49219 16.2651L4.53707 16.2431C4.49587 16.1592 4.47383 16.0502 4.47383 15.9136V15.8636H4.42383H3.74023H3.68817L3.69028 15.9156C3.70188 16.2023 3.76001 16.439 3.86805 16.6225L3.8682 16.6228C4.07536 16.9698 4.44347 17.1379 4.95605 17.1379C5.37216 17.1379 5.69436 17.022 5.91337 16.7823M4.49219 16.2651L4.53699 16.2429C4.57521 16.3201 4.62801 16.3763 4.6953 16.4137C4.76305 16.4513 4.84839 16.4715 4.95361 16.4715C5.07776 16.4715 5.18451 16.4298 5.27622 16.3455C5.3659 16.2629 5.41387 16.1427 5.41387 15.9771C5.41387 15.8673 5.39162 15.7799 5.35033 15.7119C5.30932 15.6443 5.24739 15.5925 5.16155 15.5569L5.18066 15.5107M4.49219 16.2651C4.44661 16.1724 4.42383 16.0552 4.42383 15.9136L4.67285 15.4448C4.90397 15.4448 5.07324 15.4668 5.18066 15.5107M4.49219 16.2651C4.57682 16.436 4.73063 16.5215 4.95361 16.5215C5.09033 16.5215 5.20915 16.4751 5.31006 16.3823C5.4126 16.2879 5.46387 16.1528 5.46387 15.9771C5.46387 15.7443 5.36947 15.5889 5.18066 15.5107M5.18066 15.5107L5.16173 15.557C5.06373 15.5169 4.90263 15.4948 4.67285 15.4948H4.62285V15.4448V14.9468V14.8975L4.67213 14.8968C4.89817 14.8935 5.04664 14.8713 5.12579 14.8353L5.12627 14.8351L5.12627 14.8351C5.19437 14.805 5.24379 14.7605 5.27679 14.7014C5.31017 14.6417 5.32842 14.5641 5.32842 14.4658C5.32842 14.3413 5.29201 14.2444 5.2224 14.1705L5.22205 14.1701L5.22205 14.1701C5.15561 14.0982 5.05967 14.0593 4.92676 14.0593C4.77366 14.0593 4.66939 14.1071 4.60314 14.1953C4.53516 14.288 4.5 14.4152 4.50312 14.5821L4.50407 14.633H4.45312H3.80371H3.75182L3.75375 14.5812C3.76043 14.4008 3.79135 14.2291 3.84671 14.0664L3.84772 14.0634L3.84781 14.0635C3.90775 13.9179 4.00155 13.7845 4.12797 13.6631L4.12892 13.6622L4.12893 13.6623C4.22541 13.5744 4.33959 13.5076 4.47076 13.4616C4.60297 13.4152 4.76275 13.3929 4.94873 13.3929C5.29602 13.3929 5.58104 13.4832 5.79883 13.6683C6.01947 13.8528 6.1291 14.1018 6.1291 14.4097C6.1291 14.6287 6.06375 14.8164 5.9314 14.9697L5.93123 14.9699C5.88177 15.0266 5.83016 15.0734 5.77628 15.1096C5.78119 15.1123 5.78612 15.1152 5.79105 15.1181C5.84062 15.1478 5.8959 15.1911 5.95666 15.2469L5.95684 15.247C6.14628 15.4226 6.23896 15.6615 6.23896 15.9575C6.23896 16.2699 6.12984 16.5455 5.91337 16.7823M5.91337 16.7823L5.87646 16.7485M5.91337 16.7823C5.91337 16.7823 5.91337 16.7823 5.91338 16.7823L5.87646 16.7485M5.87646 16.7485C5.66976 16.9748 5.36296 17.0879 4.95605 17.0879C4.45475 17.0879 4.10645 16.9243 3.91113 16.5972L5.72582 15.14C5.77975 15.1647 5.84543 15.2126 5.92285 15.2837C6.10026 15.4481 6.18896 15.6727 6.18896 15.9575C6.18896 16.257 6.0848 16.5207 5.87646 16.7485ZM3.80621 14.533C3.81617 14.3755 3.84545 14.2254 3.89404 14.0825C3.95101 13.9442 4.04053 13.8164 4.1626 13.6992C4.25374 13.6162 4.36198 13.5527 4.4873 13.5088C4.61263 13.4648 4.76644 13.4429 4.94873 13.4429C5.28727 13.4429 5.5599 13.5308 5.7666 13.7065C5.97493 13.8807 6.0791 14.1151 6.0791 14.4097C6.0791 14.618 6.01725 14.7938 5.89355 14.937L3.80621 14.533ZM3.80621 14.533H3.80371V14.583L3.85368 14.5849C3.8537 14.5842 3.85372 14.5836 3.85375 14.583H4.40312C4.40312 14.5833 4.40313 14.5836 4.40313 14.5839L4.45312 14.583V14.5411C4.45611 14.3864 4.49274 14.2612 4.56299 14.1655C4.64111 14.0614 4.76237 14.0093 4.92676 14.0093C5.06999 14.0093 5.18066 14.0516 5.25879 14.1362L3.80621 14.533Z"
    fill="#09101C"
    stroke="#09101C"
    stroke-width="0.1"
  />
  <path
    d="M15 10L8.5 10"
    stroke="#09101C"
    stroke-width="1.5"
    stroke-linecap="square"
    stroke-linejoin="round"
  />
</svg>
