<svg
  width="20"
  height="20"
  viewBox="0 0 20 20"
  fill="none"
  xmlns="http://www.w3.org/2000/svg"
>
  <rect
    x="3.5"
    y="3.5"
    width="13"
    height="13"
    rx="4"
    stroke="#09101C"
    stroke-width="1.3"
  />
  <path
    fill-rule="evenodd"
    clip-rule="evenodd"
    d="M7.5001 9.15C7.03066 9.15 6.6501 9.53056 6.6501 10C6.6501 10.4694 7.03066 10.85 7.5001 10.85C7.96954 10.85 8.3501 10.4694 8.3501 10C8.3501 9.53056 7.96954 9.15 7.5001 9.15ZM5.3501 10C5.3501 8.81259 6.31269 7.85 7.5001 7.85C8.46095 7.85 9.27459 8.48031 9.55009 9.35H13.5001H14.1501V10V12H12.8501V10.65H12.1501V11.5H10.8501V10.65H9.55009C9.27459 11.5197 8.46095 12.15 7.5001 12.15C6.31269 12.15 5.3501 11.1874 5.3501 10Z"
    fill="#09101C"
  />
</svg>
