<svg
  width="20"
  height="20"
  viewBox="0 0 20 20"
  fill="none"
  xmlns="http://www.w3.org/2000/svg"
>
  <path
    fill-rule="evenodd"
    clip-rule="evenodd"
    d="M8.14998 6C8.14998 4.97827 8.97825 4.15 9.99998 4.15C11.0217 4.15 11.85 4.97827 11.85 6C11.85 7.02173 11.0217 7.85 9.99998 7.85C8.97825 7.85 8.14998 7.02173 8.14998 6ZM9.99998 2.85C8.26028 2.85 6.84998 4.2603 6.84998 6C6.84998 7.7397 8.26028 9.15 9.99998 9.15C11.7397 9.15 13.15 7.7397 13.15 6C13.15 4.2603 11.7397 2.85 9.99998 2.85ZM11.65 13.5C11.65 12.2021 12.7021 11.15 14 11.15C15.2978 11.15 16.35 12.2021 16.35 13.5C16.35 14.7979 15.2978 15.85 14 15.85C12.7021 15.85 11.65 14.7979 11.65 13.5ZM14 9.85C11.9841 9.85 10.35 11.4842 10.35 13.5C10.35 15.5158 11.9841 17.15 14 17.15C16.0158 17.15 17.65 15.5158 17.65 13.5C17.65 11.4842 16.0158 9.85 14 9.85ZM13.35 12V13.5V13.7692L13.5403 13.9596L14.5403 14.9596L15.4596 14.0404L14.65 13.2308V12H13.35ZM7.74998 11.65C6.03789 11.65 4.64998 13.0379 4.64998 14.75C4.64998 15.0814 4.9186 15.35 5.24998 15.35H9.49998V16.65H5.24998C4.20063 16.65 3.34998 15.7993 3.34998 14.75C3.34998 12.3199 5.31992 10.35 7.74998 10.35H9.49998V11.65H7.74998Z"
    fill="#09101C"
  />
</svg>
