<svg
  width="20"
  height="20"
  viewBox="0 0 20 20"
  fill="none"
  xmlns="http://www.w3.org/2000/svg"
>
  <path
    fill-rule="evenodd"
    clip-rule="evenodd"
    d="M10.1214 3.30263L9.16676 2.34799L8.24752 3.26723L9.20216 4.22187L4.46459 8.95945L3.86354 8.3584L2.9443 9.27764L3.54536 9.87868L4.00498 10.3383L6.3738 12.7071L2.59082 16.4901L3.51006 17.4094L7.29304 13.6264L9.66183 15.9952L10.1214 16.4548L10.7225 17.0558L11.6417 16.1366L11.0407 15.5355L15.7783 10.798L16.7328 11.7525L17.652 10.8333L16.6975 9.87873L16.6975 9.87868L16.2379 9.41906L10.5811 3.76221L10.1214 3.30259L10.1214 3.30263ZM10.1214 5.14111L14.859 9.87873L10.1214 14.6163L5.38383 9.87868L10.1214 5.14111Z"
    fill="#09101C"
  />
</svg>
