<svg
  width="20"
  height="20"
  viewBox="0 0 20 20"
  fill="none"
  xmlns="http://www.w3.org/2000/svg"
>
  <path
    d="M6 6.83019C6 5.41691 6 4.71027 6.2958 4.312C6.55364 3.96484 6.94876 3.74585 7.3798 3.7112C7.87431 3.67144 8.47354 4.04596 9.672 4.795L14.7437 7.9648C15.8235 8.63968 16.3634 8.97712 16.5485 9.40914C16.7102 9.78645 16.7102 10.2135 16.5485 10.5909C16.3634 11.0229 15.8235 11.3603 14.7437 12.0352L9.672 15.205C8.47354 15.954 7.87431 16.3286 7.3798 16.2888C6.94876 16.2542 6.55364 16.0352 6.2958 15.688C6 15.2897 6 14.5831 6 13.1698V6.83019Z"
    fill="#09101C"
  />
</svg>
