<svg
  width="20"
  height="20"
  viewBox="0 0 20 20"
  fill="none"
  xmlns="http://www.w3.org/2000/svg"
>
  <path
    fill-rule="evenodd"
    clip-rule="evenodd"
    d="M6.5001 12.15C5.75451 12.15 5.1501 12.7544 5.1501 13.5C5.1501 14.2456 5.75451 14.85 6.5001 14.85C7.24568 14.85 7.8501 14.2456 7.8501 13.5C7.8501 12.7544 7.24568 12.15 6.5001 12.15ZM3.8501 13.5C3.8501 12.0364 5.03654 10.85 6.5001 10.85C7.63096 10.85 8.59638 11.5584 8.97686 12.5556C9.64185 12.3426 10.3583 12.3426 11.0233 12.5556C11.4038 11.5584 12.3692 10.85 13.5001 10.85C14.9637 10.85 16.1501 12.0364 16.1501 13.5C16.1501 14.9636 14.9637 16.15 13.5001 16.15C12.1702 16.15 11.0691 15.1704 10.8791 13.8933C10.3233 13.63 9.67694 13.63 9.12111 13.8933C8.9311 15.1704 7.83 16.15 6.5001 16.15C5.03654 16.15 3.8501 14.9636 3.8501 13.5ZM13.5001 12.15C12.7545 12.15 12.1501 12.7544 12.1501 13.5C12.1501 14.2456 12.7545 14.85 13.5001 14.85C14.2457 14.85 14.8501 14.2456 14.8501 13.5C14.8501 12.7544 14.2457 12.15 13.5001 12.15Z"
    fill="black"
  />
  <path
    fill-rule="evenodd"
    clip-rule="evenodd"
    d="M6.9609 4.53164C7.06774 4.31797 7.35251 4.27175 7.52144 4.44068L8.54038 5.45962L9.54038 6.45962L10.0437 6.96292L10.4993 6.41612L12.0861 4.51199C12.2415 4.32549 12.535 4.35 12.6573 4.5597L14.8683 8.35H5.05172L6.9609 4.53164ZM3.59828 8.35L5.79815 3.95026C6.30181 2.94294 7.64432 2.72508 8.44068 3.52144L9.45962 4.54038L9.95632 5.03708L11.0874 3.67975C11.8201 2.80053 13.2036 2.91608 13.7802 3.90467L16.3733 8.35H18V9.65H2V8.35H3.59828Z"
    fill="black"
  />
</svg>
