<svg
  width="20"
  height="20"
  viewBox="0 0 20 20"
  fill="none"
  xmlns="http://www.w3.org/2000/svg"
>
  <rect
    x="3.5"
    y="3.5"
    width="5"
    height="5"
    rx="1"
    stroke="#09101C"
    stroke-width="1.3"
  />
  <path
    d="M12.8686 11.8814C13.2646 11.4854 13.4627 11.2873 13.691 11.2132C13.8918 11.1479 14.1082 11.1479 14.309 11.2132C14.5373 11.2873 14.7354 11.4854 15.1314 11.8814L16.1186 12.8686C16.5146 13.2646 16.7127 13.4627 16.7868 13.691C16.8521 13.8918 16.8521 14.1082 16.7868 14.309C16.7127 14.5373 16.5146 14.7354 16.1186 15.1314L15.1314 16.1186C14.7354 16.5146 14.5373 16.7127 14.309 16.7868C14.1082 16.8521 13.8918 16.8521 13.691 16.7868C13.4627 16.7127 13.2646 16.5146 12.8686 16.1186L11.8814 15.1314C11.4854 14.7354 11.2873 14.5373 11.2132 14.309C11.1479 14.1082 11.1479 13.8918 11.2132 13.691C11.2873 13.4627 11.4854 13.2646 11.8814 12.8686L12.8686 11.8814Z"
    stroke="#09101C"
    stroke-width="1.3"
  />
  <rect
    x="11.5"
    y="3.5"
    width="5"
    height="5"
    rx="1"
    stroke="#09101C"
    stroke-width="1.3"
  />
  <rect x="13.1001" y="5.1" width="1.8" height="1.8" rx="0.5" fill="#09101C" />
  <rect
    x="3.5"
    y="11.5"
    width="5"
    height="5"
    rx="2.5"
    stroke="#09101C"
    stroke-width="1.3"
  />
  <rect x="5.1001" y="13.1" width="1.8" height="1.8" rx="0.9" fill="#09101C" />
</svg>
