<svg
  width="20"
  height="20"
  viewBox="0 0 20 20"
  fill="none"
  xmlns="http://www.w3.org/2000/svg"
>
  <path
    d="M9.35022 16.3171V17.6228C5.64374 17.3109 2.6893 14.3565 2.37744 10.65H3.68308C3.98688 13.638 6.36226 16.0133 9.35022 16.3171Z"
    fill="#09101C"
  />
  <path
    d="M10.6504 17.6228C14.3569 17.3109 17.3113 14.3565 17.6232 10.65H16.3175C16.0137 13.638 13.6383 16.0133 10.6504 16.3171V17.6228Z"
    fill="#09101C"
  />
  <path
    d="M10.6504 3.68286C13.6383 3.98666 16.0137 6.36204 16.3175 9.35H17.6232C17.3113 5.64353 14.3569 2.68909 10.6504 2.37723V3.68286Z"
    fill="#09101C"
  />
  <path
    d="M9.35022 2.37723V3.68286C6.36226 3.98666 3.98688 6.36204 3.68308 9.35H2.37744C2.6893 5.64353 5.64374 2.68909 9.35022 2.37723Z"
    fill="#09101C"
  />
</svg>
