<svg
  width="20"
  height="20"
  viewBox="0 0 20 20"
  fill="none"
  xmlns="http://www.w3.org/2000/svg"
>
  <path
    fill-rule="evenodd"
    clip-rule="evenodd"
    d="M10.7233 16.6184C10.2669 16.8409 9.73347 16.8409 9.27706 16.6184C8.93391 16.4511 8.71508 16.1405 8.5483 15.8537C8.37806 15.5611 8.1944 15.1675 7.97469 14.6967L7.97468 14.6967L7.96128 14.668L4.54168 7.34023L4.52825 7.31145L4.52824 7.31144C4.21718 6.64489 3.9662 6.1071 3.8114 5.68929C3.73216 5.47542 3.66753 5.26575 3.63525 5.06665C3.60308 4.86822 3.59598 4.63891 3.6724 4.40932C3.8518 3.87041 4.29576 3.46166 4.84762 3.32729C5.08273 3.27005 5.31067 3.29603 5.50577 3.34445C5.70153 3.39303 5.90517 3.47472 6.11177 3.57132C6.51541 3.76004 7.03069 4.05449 7.66935 4.41945L7.66936 4.41945L7.6969 4.43519L10.0002 5.75136L12.3035 4.43519L12.3311 4.41942C12.9697 4.05447 13.485 3.76003 13.8886 3.57132C14.0952 3.47472 14.2989 3.39303 14.4946 3.34445C14.6897 3.29603 14.9177 3.27005 15.1528 3.32729C15.7046 3.46166 16.1486 3.87041 16.328 4.40932C16.4044 4.63892 16.3973 4.86822 16.3651 5.06665C16.3329 5.26575 16.2682 5.47542 16.189 5.68929C16.0342 6.1071 15.7832 6.64488 15.4722 7.31142L15.4587 7.34023L12.0391 14.668L12.0257 14.6967L12.0257 14.6968C11.806 15.1676 11.6223 15.5611 11.4521 15.8537C11.2853 16.1405 11.0665 16.4511 10.7233 16.6184ZM9.3502 14.5676V6.87721L7.05192 5.56391C6.37927 5.17953 5.91051 4.91229 5.56118 4.74896C5.3884 4.66818 5.27122 4.62568 5.19265 4.60618C5.16471 4.59924 5.14663 4.5965 5.13676 4.5954C5.03434 4.62632 4.95162 4.70248 4.91237 4.802C4.91264 4.81193 4.91389 4.83017 4.9185 4.85859C4.93145 4.9385 4.96416 5.05879 5.03042 5.23763C5.1644 5.59924 5.39209 6.08843 5.71972 6.79048L9.13932 14.1182C9.21739 14.2855 9.28702 14.4345 9.3502 14.5676ZM10.6502 14.5676C10.7134 14.4345 10.783 14.2855 10.8611 14.1182L14.2807 6.79048C14.6083 6.08843 14.836 5.59925 14.97 5.23764C15.0362 5.05879 15.0689 4.93851 15.0819 4.85859C15.0865 4.83017 15.0878 4.81193 15.088 4.80201C15.0488 4.70248 14.9661 4.62632 14.8636 4.5954C14.8538 4.5965 14.8357 4.59924 14.8077 4.60618C14.7292 4.62568 14.612 4.66818 14.4392 4.74896C14.0899 4.91229 13.6211 5.17953 12.9485 5.56391L10.6502 6.87721V14.5676Z"
    fill="#09101C"
  />
</svg>
