<svg
  width="20"
  height="20"
  viewBox="0 0 20 20"
  fill="none"
  xmlns="http://www.w3.org/2000/svg"
>
  <path
    fill-rule="evenodd"
    clip-rule="evenodd"
    d="M8.58329 3.50263L7.54027 2.45962L8.45951 1.54038L10.4595 3.54038L10.8184 3.89924L10.5573 4.33442L9.05726 6.83442L7.94252 6.16558L8.76522 4.79441C8.03539 4.96753 7.34546 5.29329 6.74302 5.75556C5.80867 6.47251 5.13701 7.47773 4.83219 8.61532C4.52737 9.75291 4.60644 10.9593 5.05714 12.0474C5.50783 13.1354 6.30496 14.0444 7.32489 14.6332C8.34483 15.2221 9.53057 15.458 10.6982 15.3042C11.8659 15.1505 12.9501 14.6158 13.7829 13.783C14.6157 12.9502 15.1504 11.866 15.3041 10.6983C15.4578 9.53067 15.222 8.34493 14.6331 7.325L15.759 6.675C16.4909 7.94277 16.7841 9.41663 16.593 10.868C16.4019 12.3194 15.7373 13.6671 14.7022 14.7023C13.667 15.7374 12.3193 16.402 10.8679 16.5931C9.41652 16.7842 7.94266 16.491 6.67489 15.7591C5.40712 15.0271 4.4163 13.8973 3.85609 12.5448C3.29589 11.1924 3.1976 9.69287 3.57649 8.27885C3.95537 6.86484 4.79025 5.61536 5.95163 4.7242C6.73287 4.12474 7.63248 3.70995 8.58329 3.50263Z"
    fill="black"
  />
</svg>
