<svg
  width="20"
  height="20"
  viewBox="0 0 20 20"
  fill="none"
  xmlns="http://www.w3.org/2000/svg"
>
  <path
    fill-rule="evenodd"
    clip-rule="evenodd"
    d="M8.14998 6C8.14998 4.97827 8.97825 4.15 9.99998 4.15C11.0217 4.15 11.85 4.97827 11.85 6C11.85 7.02173 11.0217 7.85 9.99998 7.85C8.97825 7.85 8.14998 7.02173 8.14998 6ZM9.99998 2.85C8.26028 2.85 6.84998 4.2603 6.84998 6C6.84998 7.7397 8.26028 9.15 9.99998 9.15C11.7397 9.15 13.15 7.7397 13.15 6C13.15 4.2603 11.7397 2.85 9.99998 2.85ZM7.74998 11.65C6.03789 11.65 4.64998 13.0379 4.64998 14.75C4.64998 15.0814 4.9186 15.35 5.24998 15.35H9.49998V16.65H5.24998C4.20063 16.65 3.34998 15.7993 3.34998 14.75C3.34998 12.3199 5.31992 10.35 7.74998 10.35H9.49998V11.65H7.74998ZM16.5 14.15H11.5V12.85H16.5V14.15Z"
    fill="#09101C"
  />
</svg>
