<svg
  width="20"
  height="20"
  viewBox="0 0 20 20"
  fill="none"
  xmlns="http://www.w3.org/2000/svg"
>
  <path
    fill-rule="evenodd"
    clip-rule="evenodd"
    d="M5.56904 9.65L8.95943 13.0404L8.04019 13.9596L3.54019 9.45962L3.08057 9L3.54019 8.54038L8.04019 4.04038L8.95942 4.95962L5.56904 8.35L9.59981 8.35H9.62873H9.62875C10.7244 8.35 11.5864 8.34999 12.2799 8.40666C12.9871 8.46444 13.5761 8.58436 14.1109 8.85682C14.9858 9.30263 15.6972 10.014 16.143 10.8889C16.4154 11.4237 16.5354 12.0127 16.5932 12.7199C16.6498 13.4134 16.6498 14.2755 16.6498 15.3711V15.4V15.5H15.3498V15.4C15.3498 14.2692 15.3493 13.4601 15.2975 12.8257C15.2463 12.1989 15.1482 11.8001 14.9847 11.4791C14.6635 10.8488 14.151 10.3363 13.5207 10.0151C13.1998 9.85161 12.8009 9.75355 12.1741 9.70234C11.5397 9.65051 10.7306 9.65 9.59981 9.65H5.56904Z"
    fill="#09101C"
  />
</svg>
