<svg
  width="20"
  height="20"
  viewBox="0 0 20 20"
  fill="none"
  xmlns="http://www.w3.org/2000/svg"
>
  <path
    fill-rule="evenodd"
    clip-rule="evenodd"
    d="M11.4167 3.50263L12.4597 2.45962L11.5405 1.54038L9.54049 3.54038L9.18163 3.89924L9.44274 4.33442L10.9427 6.83442L12.0575 6.16558L11.2348 4.79441C11.9646 4.96753 12.6545 5.29329 13.257 5.75556C14.1913 6.47251 14.863 7.47773 15.1678 8.61532C15.4726 9.75291 15.3936 10.9593 14.9429 12.0474C14.4922 13.1354 13.695 14.0444 12.6751 14.6332C11.6552 15.2221 10.4694 15.458 9.30179 15.3042C8.13415 15.1505 7.04986 14.6158 6.21709 13.783C5.38431 12.9502 4.8496 11.866 4.69588 10.6983C4.54215 9.53067 4.77801 8.34493 5.36687 7.325L4.24104 6.675C3.50909 7.94277 3.21592 9.41663 3.407 10.868C3.59808 12.3194 4.26272 13.6671 5.29785 14.7023C6.33298 15.7374 7.68074 16.402 9.13211 16.5931C10.5835 16.7842 12.0573 16.491 13.3251 15.7591C14.5929 15.0271 15.5837 13.8973 16.1439 12.5448C16.7041 11.1924 16.8024 9.69287 16.4235 8.27885C16.0446 6.86484 15.2098 5.61536 14.0484 4.7242C13.2671 4.12474 12.3675 3.70995 11.4167 3.50263Z"
    fill="black"
  />
</svg>
