<svg
  width="20"
  height="20"
  viewBox="0 0 20 20"
  fill="none"
  xmlns="http://www.w3.org/2000/svg"
>
  <path
    fill-rule="evenodd"
    clip-rule="evenodd"
    d="M10 2.35C8.65716 2.35 7.33796 2.70348 6.17501 3.37491C5.23186 3.91944 4.41843 4.65753 3.78649 5.53741L3.25946 4.30359L2.33984 4.69641L3.32189 6.99545L3.4692 7.3403L3.84151 7.29545L6.32356 6.99641L6.20395 6.00359L4.94637 6.1551C5.455 5.48658 6.09293 4.92341 6.82501 4.50074C7.79033 3.94341 8.88535 3.65 10 3.65C11.1147 3.65 12.2097 3.94341 13.175 4.50074C14.1403 5.05807 14.9419 5.85968 15.4993 6.825L16.6251 6.175C15.9537 5.01205 14.988 4.04633 13.825 3.37491C12.6621 2.70348 11.3429 2.35 10 2.35ZM9.54023 6.04038C9.79407 5.78654 10.2056 5.78654 10.4595 6.04038L15.4092 10.9901C15.6631 11.244 15.6631 11.6555 15.4092 11.9094L10.4595 16.8591C10.2056 17.113 9.79407 17.113 9.54023 16.8591L4.59048 11.9094C4.33664 11.6555 4.33664 11.244 4.59048 10.9901L9.54023 6.04038ZM9.99985 7.41924L5.96934 11.4497L9.99985 15.4803L14.0304 11.4497L9.99985 7.41924Z"
    fill="black"
  />
</svg>
