<svg
  width="20"
  height="20"
  viewBox="0 0 20 20"
  fill="none"
  xmlns="http://www.w3.org/2000/svg"
>
  <path
    fill-rule="evenodd"
    clip-rule="evenodd"
    d="M4.15 9C4.15 6.32142 6.32142 4.15 9 4.15C11.6786 4.15 13.85 6.32142 13.85 9C13.85 11.6786 11.6786 13.85 9 13.85C6.32142 13.85 4.15 11.6786 4.15 9ZM9 2.85C5.60345 2.85 2.85 5.60345 2.85 9C2.85 12.3966 5.60345 15.15 9 15.15C10.4641 15.15 11.8088 14.6384 12.8649 13.7841L16.0404 16.9596L16.9596 16.0404L13.7841 12.8649C14.6384 11.8088 15.15 10.4641 15.15 9C15.15 5.60345 12.3966 2.85 9 2.85Z"
    fill="#09101C"
  />
</svg>
