<svg
  width="20"
  height="20"
  viewBox="0 0 20 20"
  fill="none"
  xmlns="http://www.w3.org/2000/svg"
>
  <path
    d="M1 3.76471C1 3.34237 1.33579 3 1.75 3H8.5C8.91421 3 9.25 3.34237 9.25 3.76471C9.25 4.18704 8.91421 4.52941 8.5 4.52941H1.75C1.33579 4.52941 1 4.18704 1 3.76471Z"
    fill="#09101C"
  />
  <path
    d="M11 3.76471C11 3.34237 11.3358 3 11.75 3H18.25C18.6642 3 19 3.34237 19 3.76471C19 4.18704 18.6642 4.52941 18.25 4.52941H11.75C11.3358 4.52941 11 4.18704 11 3.76471Z"
    fill="#09101C"
  />
  <path
    d="M14 7.58824C14 7.1659 14.3358 6.82353 14.75 6.82353H18.25C18.6642 6.82353 19 7.1659 19 7.58824C19 8.01057 18.6642 8.35294 18.25 8.35294H14.75C14.3358 8.35294 14 8.01057 14 7.58824Z"
    fill="#09101C"
  />
  <path
    d="M6 11.4118C6 10.9894 5.66421 10.6471 5.25 10.6471H1.75C1.33579 10.6471 1 10.9894 1 11.4118C1 11.8341 1.33579 12.1765 1.75 12.1765H5.25C5.66421 12.1765 6 11.8341 6 11.4118Z"
    fill="#09101C"
  />
  <path
    d="M1 7.58824C1 7.1659 1.33579 6.82353 1.75 6.82353H11.5C11.9142 6.82353 12.25 7.1659 12.25 7.58824C12.25 8.01057 11.9142 8.35294 11.5 8.35294H1.75C1.33579 8.35294 1 8.01057 1 7.58824Z"
    fill="#09101C"
  />
  <path
    d="M19 11.4118C19 10.9894 18.6642 10.6471 18.25 10.6471H8.5C8.08579 10.6471 7.75 10.9894 7.75 11.4118C7.75 11.8341 8.08579 12.1765 8.5 12.1765H18.25C18.6642 12.1765 19 11.8341 19 11.4118Z"
    fill="#09101C"
  />
  <path
    d="M1 15.2353C1 14.813 1.33579 14.4706 1.75 14.4706H8.5C8.91421 14.4706 9.25 14.813 9.25 15.2353C9.25 15.6576 8.91421 16 8.5 16H1.75C1.33579 16 1 15.6576 1 15.2353Z"
    fill="#09101C"
  />
  <path
    d="M11 15.2353C11 14.813 11.3358 14.4706 11.75 14.4706H18.25C18.6642 14.4706 19 14.813 19 15.2353C19 15.6576 18.6642 16 18.25 16H11.75C11.3358 16 11 15.6576 11 15.2353Z"
    fill="#09101C"
  />
</svg>
