<svg
  width="20"
  height="20"
  viewBox="0 0 20 20"
  fill="none"
  xmlns="http://www.w3.org/2000/svg"
>
  <path
    fill-rule="evenodd"
    clip-rule="evenodd"
    d="M15.1873 3.60073C14.9076 3.17991 14.4505 2.91046 13.9469 2.86953C13.569 2.83881 13.2249 2.99175 12.937 3.15125C12.6437 3.31368 12.2883 3.55486 11.8637 3.84297L11.8637 3.84298L11.8375 3.86075L4.94442 8.53818L4.91822 8.55596L4.9182 8.55597C4.29102 8.98155 3.78639 9.32396 3.4306 9.60992C3.24873 9.75608 3.08249 9.9056 2.95063 10.062C2.81961 10.2174 2.69315 10.4138 2.6416 10.6545C2.52173 11.2142 2.7005 11.796 3.11397 12.1919C3.29178 12.3621 3.5067 12.4536 3.70236 12.5086C3.89929 12.564 4.1208 12.5943 4.35336 12.6132C4.80835 12.65 5.41821 12.65 6.17618 12.65H6.17621H6.20779H9.12323L10.4137 14.9084L10.4295 14.9359L10.4295 14.936C10.7975 15.5799 11.0941 16.099 11.3476 16.469C11.4773 16.6584 11.6119 16.8331 11.7564 16.9749C11.9003 17.1162 12.0842 17.2551 12.3171 17.3252C12.8622 17.4891 13.4532 17.3605 13.8809 16.9849C14.0636 16.8245 14.1732 16.6216 14.2454 16.4334C14.3179 16.2443 14.3677 16.0295 14.4071 15.8033C14.4839 15.3615 14.538 14.766 14.6052 14.0275L14.608 13.9958L15.3416 5.92628L15.3445 5.89478C15.391 5.38378 15.4299 4.95602 15.43 4.62076C15.43 4.29155 15.3972 3.91649 15.1873 3.60073ZM12.8262 4.76124C12.7456 4.8156 12.6596 4.87394 12.5675 4.93647L5.67437 9.6139C5.01496 10.0613 4.55464 10.3743 4.24499 10.6232C4.09165 10.7464 3.99861 10.8358 3.94448 10.9C3.92547 10.9225 3.91468 10.938 3.90909 10.9467C3.89279 11.0525 3.92582 11.16 3.99868 11.2383C4.00821 11.2424 4.02582 11.2491 4.05422 11.2571C4.13505 11.2799 4.26221 11.3015 4.45828 11.3174C4.85426 11.3495 5.41091 11.35 6.20779 11.35L9.11998 11.35L12.8262 4.76124ZM10.2475 11.9972L11.5425 14.2634C11.9298 14.9413 12.2003 15.4135 12.42 15.7343C12.5287 15.893 12.6088 15.99 12.6672 16.0473C12.6878 16.0676 12.7021 16.0793 12.7102 16.0853C12.8142 16.1104 12.924 16.0865 13.0082 16.0204C13.013 16.0116 13.0212 15.9951 13.0316 15.968C13.0608 15.8917 13.0933 15.7701 13.1263 15.5806C13.1929 15.1976 13.2427 14.6556 13.3134 13.8781L14.047 5.80858C14.0707 5.54755 14.0906 5.3275 14.1049 5.13957L10.2475 11.9972Z"
    fill="#09101C"
  />
</svg>
