<svg
  width="20"
  height="20"
  viewBox="0 0 20 20"
  fill="none"
  xmlns="http://www.w3.org/2000/svg"
>
  <path
    d="M6.8767 4.876L6.39411 5.31145L6.75536 5.7118L7.21553 5.4307L6.8767 4.876ZM8.58527 4.16775L8.73798 4.79956L9.26202 4.67289L9.23442 4.13448L8.58527 4.16775ZM6.56501 4.59382L6.89417 4.03333L6.89417 4.03333L6.56501 4.59382ZM5.61492 4.55993L5.32653 3.97741L5.32653 3.97741L5.61492 4.55993ZM5.05025 5.05025L5.50987 5.50987V5.50987L5.05025 5.05025ZM4.55993 5.61492L5.14245 5.90331V5.90331L4.55993 5.61492ZM4.59382 6.56501L5.15431 6.23585L5.15431 6.23585L4.59382 6.56501ZM4.876 6.8767L5.4307 7.21553L5.7118 6.75536L5.31145 6.39411L4.876 6.8767ZM4.16775 8.58527L4.13448 9.23442L4.67289 9.26202L4.79956 8.73798L4.16775 8.58527ZM3.74835 8.60616L3.58478 7.97708H3.58477L3.74835 8.60616ZM3.05257 9.25401L3.6684 9.46199H3.6684L3.05257 9.25401ZM3.05257 10.746L2.43674 10.954L2.43674 10.954L3.05257 10.746ZM3.74835 11.3938L3.91192 10.7648L3.91192 10.7648L3.74835 11.3938ZM4.16775 11.4147L4.79956 11.262L4.67289 10.738L4.13448 10.7656L4.16775 11.4147ZM4.876 13.1233L5.31145 13.6059L5.7118 13.2446L5.4307 12.7845L4.876 13.1233ZM4.59382 13.435L4.03333 13.1058H4.03333L4.59382 13.435ZM4.55993 14.3851L3.97741 14.6735L3.97741 14.6735L4.55993 14.3851ZM5.05025 14.9497L5.50987 14.4901H5.50987L5.05025 14.9497ZM5.61492 15.4401L5.32653 16.0226H5.32653L5.61492 15.4401ZM6.56501 15.4062L6.23585 14.8457L6.23585 14.8457L6.56501 15.4062ZM6.8767 15.124L7.21553 14.5693L6.75536 14.2882L6.39411 14.6886L6.8767 15.124ZM8.58527 15.8322L9.23442 15.8655L9.26202 15.3271L8.73798 15.2004L8.58527 15.8322ZM8.60616 16.2517L7.97708 16.4152V16.4152L8.60616 16.2517ZM9.25401 16.9474L9.46199 16.3316L9.46199 16.3316L9.25401 16.9474ZM10.746 16.9474L10.538 16.3316L10.538 16.3316L10.746 16.9474ZM11.3938 16.2517L10.7648 16.0881L10.7648 16.0881L11.3938 16.2517ZM11.4147 15.8322L11.262 15.2004L10.738 15.3271L10.7656 15.8655L11.4147 15.8322ZM13.1233 15.124L13.6059 14.6885L13.2446 14.2882L12.7845 14.5693L13.1233 15.124ZM13.435 15.4062L13.7642 14.8457H13.7642L13.435 15.4062ZM14.3851 15.4401L14.6735 16.0226L14.3851 15.4401ZM15.4401 14.3851L14.8575 14.0967L15.4401 14.3851ZM15.4062 13.435L14.8457 13.7642L14.8457 13.7642L15.4062 13.435ZM15.124 13.1233L14.5693 12.7845L14.2882 13.2446L14.6886 13.6059L15.124 13.1233ZM15.8322 11.4147L15.8655 10.7656L15.3271 10.738L15.2004 11.262L15.8322 11.4147ZM16.2517 11.3938L16.0881 10.7648L16.0881 10.7648L16.2517 11.3938ZM16.9474 10.746L16.3316 10.538L16.9474 10.746ZM16.9474 9.25401L16.3316 9.46199L16.3316 9.46199L16.9474 9.25401ZM16.2517 8.60616L16.4152 7.97708H16.4152L16.2517 8.60616ZM15.8322 8.58527L15.2004 8.73798L15.3271 9.26202L15.8655 9.23442L15.8322 8.58527ZM15.124 6.8767L14.6886 6.39411L14.2882 6.75536L14.5693 7.21553L15.124 6.8767ZM15.4062 6.56501L14.8457 6.23584L14.8457 6.23585L15.4062 6.56501ZM15.4401 5.61492L16.0226 5.32653V5.32653L15.4401 5.61492ZM14.9497 5.05025L15.4094 4.59063V4.59063L14.9497 5.05025ZM14.3851 4.55993L14.6735 3.97741V3.97741L14.3851 4.55993ZM13.435 4.59382L13.7642 5.15431L13.7642 5.15431L13.435 4.59382ZM13.1233 4.876L12.7845 5.4307L13.2446 5.7118L13.6059 5.31145L13.1233 4.876ZM11.4147 4.16775L10.7656 4.13448L10.738 4.67289L11.262 4.79956L11.4147 4.16775ZM11.3938 3.74835L10.7648 3.91192L10.7648 3.91192L11.3938 3.74835ZM10.746 3.05257L10.538 3.6684V3.6684L10.746 3.05257ZM9.25401 3.05257L9.04603 2.43674H9.04603L9.25401 3.05257ZM8.60616 3.74835L7.97708 3.58477V3.58478L8.60616 3.74835ZM7.21553 5.4307C7.6812 5.14625 8.19341 4.93119 8.73798 4.79956L8.43255 3.53595C7.7543 3.69989 7.11677 3.96768 6.53786 4.32131L7.21553 5.4307ZM6.23585 5.15431C6.23422 5.15336 6.24377 5.15846 6.26978 5.18231C6.29767 5.20788 6.3359 5.24694 6.39411 5.31145L7.35928 4.44056C7.22854 4.29566 7.08235 4.14384 6.89417 4.03333L6.23585 5.15431ZM5.90331 5.14245C6.00907 5.09009 6.13409 5.09455 6.23585 5.15431L6.89417 4.03333C6.41446 3.75161 5.82509 3.73058 5.32653 3.97741L5.90331 5.14245ZM5.50987 5.50987C5.65415 5.36559 5.74372 5.27636 5.81504 5.21257C5.88346 5.15137 5.90491 5.14166 5.90331 5.14245L5.32653 3.97741C5.0592 4.10976 4.83084 4.35043 4.59063 4.59063L5.50987 5.50987ZM5.14245 5.90331C5.14166 5.90491 5.15137 5.88347 5.21257 5.81504C5.27636 5.74372 5.36559 5.65416 5.50987 5.50987L4.59063 4.59063C4.35043 4.83084 4.10976 5.0592 3.97741 5.32653L5.14245 5.90331ZM5.15431 6.23585C5.09455 6.13409 5.09009 6.00907 5.14245 5.90331L3.97741 5.32653C3.73058 5.82509 3.75161 6.41447 4.03333 6.89417L5.15431 6.23585ZM5.31145 6.39411C5.24694 6.3359 5.20788 6.29767 5.18231 6.26978C5.15846 6.24377 5.15336 6.23422 5.15431 6.23585L4.03333 6.89417C4.14384 7.08235 4.29566 7.22854 4.44056 7.35928L5.31145 6.39411ZM4.79956 8.73798C4.93119 8.19341 5.14625 7.6812 5.4307 7.21553L4.3213 6.53786C3.96768 7.11677 3.69989 7.7543 3.53595 8.43255L4.79956 8.73798ZM3.91192 9.23524C3.9101 9.23571 3.92044 9.23258 3.95562 9.23105C3.99333 9.2294 4.04788 9.22998 4.13448 9.23442L4.20103 7.93612C4.00632 7.92614 3.7958 7.9222 3.58478 7.97708L3.91192 9.23524ZM3.6684 9.46199C3.70616 9.35019 3.79771 9.26494 3.91192 9.23524L3.58477 7.97708C3.04636 8.11707 2.61474 8.51896 2.43674 9.04603L3.6684 9.46199ZM3.65 10C3.65 9.79595 3.65024 9.66953 3.65556 9.57399C3.66067 9.48233 3.66897 9.4603 3.6684 9.46199L2.43674 9.04603C2.3413 9.32864 2.35 9.6603 2.35 10H3.65ZM3.6684 10.538C3.66897 10.5397 3.66067 10.5177 3.65556 10.426C3.65024 10.3305 3.65 10.204 3.65 10H2.35C2.35 10.3397 2.3413 10.6714 2.43674 10.954L3.6684 10.538ZM3.91192 10.7648C3.79771 10.7351 3.70616 10.6498 3.6684 10.538L2.43674 10.954C2.61474 11.481 3.04636 11.8829 3.58477 12.0229L3.91192 10.7648ZM4.13448 10.7656C4.04788 10.77 3.99333 10.7706 3.95562 10.769C3.92044 10.7674 3.9101 10.7643 3.91192 10.7648L3.58477 12.0229C3.79581 12.0778 4.00632 12.0739 4.20103 12.0639L4.13448 10.7656ZM5.4307 12.7845C5.14625 12.3188 4.93119 11.8066 4.79956 11.262L3.53595 11.5674C3.69989 12.2457 3.96768 12.8832 4.32131 13.4621L5.4307 12.7845ZM5.15431 13.7642C5.15336 13.7658 5.15846 13.7562 5.18231 13.7302C5.20788 13.7023 5.24694 13.6641 5.31145 13.6059L4.44056 12.6407C4.29566 12.7715 4.14384 12.9177 4.03333 13.1058L5.15431 13.7642ZM5.14245 14.0967C5.09009 13.9909 5.09455 13.8659 5.15431 13.7642L4.03333 13.1058C3.75161 13.5855 3.73058 14.1749 3.97741 14.6735L5.14245 14.0967ZM5.50987 14.4901C5.36559 14.3458 5.27636 14.2563 5.21257 14.185C5.15137 14.1165 5.14166 14.0951 5.14245 14.0967L3.97741 14.6735C4.10976 14.9408 4.35043 15.1692 4.59063 15.4094L5.50987 14.4901ZM5.90331 14.8575C5.90491 14.8583 5.88347 14.8486 5.81504 14.7874C5.74372 14.7236 5.65416 14.6344 5.50987 14.4901L4.59063 15.4094C4.83084 15.6496 5.0592 15.8902 5.32653 16.0226L5.90331 14.8575ZM6.23585 14.8457C6.13409 14.9054 6.00907 14.9099 5.90331 14.8575L5.32653 16.0226C5.82509 16.2694 6.41446 16.2484 6.89417 15.9667L6.23585 14.8457ZM6.39411 14.6886C6.3359 14.7531 6.29767 14.7921 6.26978 14.8177C6.24377 14.8415 6.23422 14.8466 6.23585 14.8457L6.89417 15.9667C7.08235 15.8562 7.22854 15.7043 7.35928 15.5594L6.39411 14.6886ZM8.73798 15.2004C8.19341 15.0688 7.6812 14.8538 7.21553 14.5693L6.53786 15.6787C7.11677 16.0323 7.7543 16.3001 8.43255 16.4641L8.73798 15.2004ZM9.23524 16.0881C9.23571 16.0899 9.23258 16.0796 9.23105 16.0444C9.2294 16.0067 9.22998 15.9521 9.23442 15.8655L7.93612 15.799C7.92614 15.9937 7.9222 16.2042 7.97708 16.4152L9.23524 16.0881ZM9.46199 16.3316C9.35019 16.2938 9.26494 16.2023 9.23524 16.0881L7.97708 16.4152C8.11707 16.9536 8.51896 17.3853 9.04603 17.5633L9.46199 16.3316ZM10 16.35C9.79595 16.35 9.66953 16.3498 9.57399 16.3444C9.48233 16.3393 9.4603 16.331 9.46199 16.3316L9.04603 17.5633C9.32864 17.6587 9.6603 17.65 10 17.65V16.35ZM10.538 16.3316C10.5397 16.331 10.5177 16.3393 10.426 16.3444C10.3305 16.3498 10.204 16.35 10 16.35V17.65C10.3397 17.65 10.6714 17.6587 10.954 17.5633L10.538 16.3316ZM10.7648 16.0881C10.7351 16.2023 10.6498 16.2938 10.538 16.3316L10.954 17.5633C11.481 17.3853 11.8829 16.9536 12.0229 16.4152L10.7648 16.0881ZM10.7656 15.8655C10.77 15.9521 10.7706 16.0067 10.769 16.0444C10.7674 16.0796 10.7643 16.0899 10.7648 16.0881L12.0229 16.4152C12.0778 16.2042 12.0739 15.9937 12.0639 15.799L10.7656 15.8655ZM12.7845 14.5693C12.3188 14.8538 11.8066 15.0688 11.262 15.2004L11.5674 16.4641C12.2457 16.3001 12.8832 16.0323 13.4621 15.6787L12.7845 14.5693ZM13.7642 14.8457C13.7658 14.8466 13.7562 14.8415 13.7302 14.8177C13.7023 14.7921 13.6641 14.7531 13.6059 14.6885L12.6407 15.5594C12.7715 15.7043 12.9177 15.8562 13.1058 15.9667L13.7642 14.8457ZM14.0967 14.8575C13.9909 14.9099 13.8659 14.9054 13.7642 14.8457L13.1058 15.9667C13.5855 16.2484 14.1749 16.2694 14.6735 16.0226L14.0967 14.8575ZM14.4901 14.4901C14.3458 14.6344 14.2563 14.7236 14.185 14.7874C14.1165 14.8486 14.0951 14.8583 14.0967 14.8575L14.6735 16.0226C14.9408 15.8902 15.1692 15.6496 15.4094 15.4094L14.4901 14.4901ZM14.8575 14.0967C14.8583 14.0951 14.8486 14.1165 14.7874 14.185C14.7236 14.2563 14.6344 14.3458 14.4901 14.4901L15.4094 15.4094C15.6496 15.1692 15.8902 14.9408 16.0226 14.6735L14.8575 14.0967ZM14.8457 13.7642C14.9054 13.8659 14.9099 13.9909 14.8575 14.0967L16.0226 14.6735C16.2694 14.1749 16.2484 13.5855 15.9667 13.1058L14.8457 13.7642ZM14.6886 13.6059C14.7531 13.6641 14.7921 13.7023 14.8177 13.7302C14.8415 13.7562 14.8466 13.7658 14.8457 13.7642L15.9667 13.1058C15.8562 12.9177 15.7043 12.7715 15.5594 12.6407L14.6886 13.6059ZM15.2004 11.262C15.0688 11.8066 14.8538 12.3188 14.5693 12.7845L15.6787 13.4621C16.0323 12.8832 16.3001 12.2457 16.4641 11.5674L15.2004 11.262ZM16.0881 10.7648C16.0899 10.7643 16.0796 10.7674 16.0444 10.769C16.0067 10.7706 15.9521 10.77 15.8655 10.7656L15.799 12.0639C15.9937 12.0739 16.2042 12.0778 16.4152 12.0229L16.0881 10.7648ZM16.3316 10.538C16.2938 10.6498 16.2023 10.7351 16.0881 10.7648L16.4152 12.0229C16.9536 11.8829 17.3853 11.481 17.5633 10.954L16.3316 10.538ZM16.35 10C16.35 10.204 16.3498 10.3305 16.3444 10.426C16.3393 10.5177 16.331 10.5397 16.3316 10.538L17.5633 10.954C17.6587 10.6714 17.65 10.3397 17.65 10H16.35ZM16.3316 9.46199C16.331 9.4603 16.3393 9.48233 16.3444 9.57399C16.3498 9.66953 16.35 9.79595 16.35 10H17.65C17.65 9.6603 17.6587 9.32864 17.5633 9.04603L16.3316 9.46199ZM16.0881 9.23524C16.2023 9.26494 16.2938 9.35019 16.3316 9.46199L17.5633 9.04603C17.3853 8.51896 16.9536 8.11708 16.4152 7.97708L16.0881 9.23524ZM15.8655 9.23442C15.9521 9.22998 16.0067 9.2294 16.0444 9.23105C16.0796 9.23258 16.0899 9.23571 16.0881 9.23524L16.4152 7.97708C16.2042 7.92221 15.9937 7.92614 15.799 7.93612L15.8655 9.23442ZM14.5693 7.21553C14.8538 7.6812 15.0688 8.19341 15.2004 8.73798L16.4641 8.43256C16.3001 7.7543 16.0323 7.11677 15.6787 6.53786L14.5693 7.21553ZM14.8457 6.23585C14.8466 6.23422 14.8415 6.24377 14.8177 6.26978C14.7921 6.29767 14.7531 6.3359 14.6886 6.39411L15.5594 7.35928C15.7043 7.22854 15.8562 7.08235 15.9667 6.89417L14.8457 6.23585ZM14.8575 5.90331C14.9099 6.00907 14.9054 6.13409 14.8457 6.23584L15.9667 6.89417C16.2484 6.41446 16.2694 5.82509 16.0226 5.32653L14.8575 5.90331ZM14.4901 5.50987C14.6344 5.65415 14.7236 5.74372 14.7874 5.81504C14.8486 5.88346 14.8583 5.90491 14.8575 5.90331L16.0226 5.32653C15.8902 5.0592 15.6496 4.83084 15.4094 4.59063L14.4901 5.50987ZM14.0967 5.14245C14.0951 5.14166 14.1165 5.15137 14.185 5.21257C14.2563 5.27636 14.3458 5.36559 14.4901 5.50987L15.4094 4.59063C15.1692 4.35043 14.9408 4.10976 14.6735 3.97741L14.0967 5.14245ZM13.7642 5.15431C13.8659 5.09455 13.9909 5.09009 14.0967 5.14245L14.6735 3.97741C14.1749 3.73058 13.5855 3.75161 13.1058 4.03333L13.7642 5.15431ZM13.6059 5.31145C13.6641 5.24694 13.7023 5.20788 13.7302 5.18231C13.7562 5.15846 13.7658 5.15336 13.7642 5.15431L13.1058 4.03333C12.9177 4.14384 12.7715 4.29566 12.6407 4.44056L13.6059 5.31145ZM11.262 4.79956C11.8066 4.93119 12.3188 5.14625 12.7845 5.4307L13.4621 4.32131C12.8832 3.96768 12.2457 3.69989 11.5674 3.53594L11.262 4.79956ZM10.7648 3.91192C10.7643 3.9101 10.7674 3.92044 10.769 3.95562C10.7706 3.99333 10.77 4.04788 10.7656 4.13448L12.0639 4.20103C12.0739 4.00632 12.0778 3.7958 12.0229 3.58477L10.7648 3.91192ZM10.538 3.6684C10.6498 3.70616 10.7351 3.79771 10.7648 3.91192L12.0229 3.58477C11.8829 3.04636 11.481 2.61474 10.954 2.43674L10.538 3.6684ZM10 3.65C10.204 3.65 10.3305 3.65024 10.426 3.65556C10.5177 3.66067 10.5397 3.66897 10.538 3.6684L10.954 2.43674C10.6714 2.3413 10.3397 2.35 10 2.35V3.65ZM9.46199 3.6684C9.4603 3.66897 9.48233 3.66067 9.57399 3.65556C9.66953 3.65024 9.79595 3.65 10 3.65V2.35C9.6603 2.35 9.32864 2.3413 9.04603 2.43674L9.46199 3.6684ZM9.23524 3.91192C9.26494 3.79771 9.35019 3.70616 9.46199 3.6684L9.04603 2.43674C8.51896 2.61474 8.11707 3.04636 7.97708 3.58477L9.23524 3.91192ZM9.23442 4.13448C9.22998 4.04788 9.2294 3.99333 9.23105 3.95562C9.23258 3.92044 9.23571 3.9101 9.23524 3.91192L7.97708 3.58478C7.9222 3.7958 7.92614 4.00632 7.93612 4.20103L9.23442 4.13448ZM11.85 10C11.85 11.0217 11.0217 11.85 10 11.85V13.15C11.7397 13.15 13.15 11.7397 13.15 10H11.85ZM10 8.15C11.0217 8.15 11.85 8.97827 11.85 10H13.15C13.15 8.2603 11.7397 6.85 10 6.85V8.15ZM8.15 10C8.15 8.97827 8.97827 8.15 10 8.15V6.85C8.2603 6.85 6.85 8.2603 6.85 10H8.15ZM10 11.85C8.97827 11.85 8.15 11.0217 8.15 10H6.85C6.85 11.7397 8.2603 13.15 10 13.15V11.85Z"
    fill="#09101C"
  />
</svg>
