<svg
  width="20"
  height="20"
  viewBox="0 0 20 20"
  fill="none"
  xmlns="http://www.w3.org/2000/svg"
>
  <path
    fill-rule="evenodd"
    clip-rule="evenodd"
    d="M9.3499 5.06924L5.95952 8.45962L5.04028 7.54038L9.54028 3.04038L9.9999 2.58076L10.4595 3.04038L14.9595 7.54038L14.0403 8.45962L10.6499 5.06924V13.5H9.3499V5.06924Z"
    fill="#09101C"
  />
  <path
    d="M4 12V12.2C4 13.8802 4 14.7202 4.32698 15.362C4.6146 15.9265 5.07354 16.3854 5.63803 16.673C6.27976 17 7.11984 17 8.8 17H11.2C12.8802 17 13.7202 17 14.362 16.673C14.9265 16.3854 15.3854 15.9265 15.673 15.362C16 14.7202 16 13.8802 16 12.2V12"
    stroke="#1B273D"
    stroke-opacity="0.3"
    stroke-width="1.3"
  />
</svg>
