<svg
  width="20"
  height="20"
  viewBox="0 0 20 20"
  fill="none"
  xmlns="http://www.w3.org/2000/svg"
>
  <path
    d="M8.59366 10.666C9.26047 9.89976 9.93832 9.24393 10.6391 8.67352C10.6805 8.85715 10.6837 9.06385 10.6431 9.20536C10.5426 9.45723 10.4853 9.73053 10.4484 9.98083V9.43791L9.616 10.1786C9.23584 10.5169 8.87103 10.9028 8.52068 11.2842C8.50111 11.1759 8.49444 11.0575 8.50494 10.9468C8.51985 10.7895 8.56359 10.7008 8.5946 10.6649L8.21648 10.3378L8.59366 10.666ZM10.4329 10.7227C10.433 10.7223 10.4331 10.7219 10.4331 10.7214L11.0538 10.5739C11.7136 10.417 12.2552 10.0238 12.759 9.39659C12.7873 9.44607 12.8242 9.49428 12.8717 9.53782C12.9639 9.62241 13.0688 9.66451 13.1608 9.68235C13.3251 9.71426 13.4726 9.67417 13.5538 9.64714C13.7306 9.58832 13.9174 9.47643 14.065 9.37924C14.2068 9.28586 14.354 9.17729 14.475 9.08478C14.4807 9.10852 14.4859 9.13336 14.4903 9.15909C14.495 9.19652 14.4991 9.22835 14.5027 9.25598C14.5147 9.34875 14.5206 9.39404 14.5206 9.44422V9.70088L13.9392 10.1065C13.6703 10.2941 13.4725 10.4166 13.3168 10.4573C13.2514 10.4744 13.2249 10.4676 13.219 10.4658L13.2188 10.4658C13.216 10.465 13.1875 10.4568 13.1392 10.3932L12.7619 9.89552L12.3589 10.3727C11.7387 11.1069 11.1223 11.4002 10.4984 11.3822C10.4939 11.3717 10.4891 11.3592 10.4841 11.3443C10.4402 11.2139 10.4147 11.0058 10.4298 10.7618L10.4308 10.7464V10.7364C10.4311 10.7339 10.4318 10.7295 10.4329 10.7227ZM14.7169 10.4254L14.6227 9.91685L14.9846 9.94293C15.3385 9.96843 15.6942 9.86682 15.9688 9.77581C16.0826 9.73806 16.1816 9.70283 16.271 9.67101C16.3465 9.64415 16.4152 9.61972 16.4803 9.59823C16.4918 9.66228 16.5 9.74305 16.5 9.83746C16.5 10.0155 16.4708 10.1848 16.4268 10.3004C16.4151 10.3309 16.4049 10.352 16.3971 10.3661C16.2376 10.4039 16.0781 10.4505 15.9311 10.4935L15.9241 10.4955C15.7518 10.546 15.594 10.5921 15.4385 10.628C15.1748 10.6887 14.9649 10.7074 14.7893 10.676C14.7636 10.6184 14.7368 10.5326 14.7169 10.4254ZM16.4358 9.45217C16.4358 9.45213 16.4363 9.45281 16.4372 9.45433C16.4362 9.45296 16.4358 9.4522 16.4358 9.45217ZM16.3807 10.3904C16.3807 10.3902 16.3817 10.3889 16.384 10.3867C16.3819 10.3894 16.3808 10.3905 16.3807 10.3904Z"
    fill="#09101C"
    stroke="#09101C"
  />
  <path
    d="M17.6291 14.3042H6.00452C6.56075 12.6981 7.17257 11.2015 7.85852 9.77799C8.06247 9.34005 8.28491 8.90189 8.50749 8.46393C9.898 7.22295 11.1958 5.68988 12.3267 3.5728C12.6234 2.98871 12.3824 2.03973 11.9931 2.00336C11.0661 1.93029 10.3615 3.06177 9.67558 4.12045C9.08223 4.99655 8.52613 5.94552 7.9699 6.96757C6.54228 8.20855 5.00342 9.08465 3.50174 9.92412C2.92703 10.2526 3.16808 12.0048 3.7428 11.6761C4.6698 11.1651 5.59681 10.6177 6.5053 9.99693C5.93059 11.3474 5.39283 12.771 4.89235 14.2676L2.37077 14.2679C2.16682 14.2679 2 14.5963 2 14.9978C2 15.3993 2.16683 15.7278 2.37077 15.7278H4.44722C4.3545 16.0198 4.26177 16.3119 4.16917 16.6403C3.8725 17.6624 4.66979 18.5749 4.96633 17.5529C5.13316 16.9324 5.31863 16.3483 5.52257 15.7278H17.6292C17.8332 15.7278 18 15.3993 18 14.9978C18 14.6327 17.8332 14.3042 17.6292 14.3042L17.6291 14.3042Z"
    fill="#09101C"
  />
</svg>
