<svg
  width="20"
  height="20"
  viewBox="0 0 20 20"
  fill="none"
  xmlns="http://www.w3.org/2000/svg"
>
  <path
    d="M6.5 13.5L5.05026 14.9497C4.07129 13.9708 3.4046 12.7235 3.13451 11.3656C2.86441 10.0078 3.00303 8.6003 3.53285 7.32122C4.06266 6.04213 4.95987 4.94888 6.11101 4.17971C7.26216 3.41054 8.61553 3 10 3C11.3845 3 12.7379 3.41054 13.889 4.17971C15.0401 4.94888 15.9373 6.04213 16.4672 7.32122C16.997 8.6003 17.1356 10.0078 16.8655 11.3656C16.5954 12.7235 15.9287 13.9708 14.9497 14.9497L13.5 13.5"
    stroke="#09101C"
    stroke-width="1.3"
  />
  <path d="M10 3V5" stroke="black" stroke-width="1.3" />
  <path d="M3 10L5 10" stroke="black" stroke-width="1.3" />
  <path d="M15 10L17 10" stroke="black" stroke-width="1.3" />
  <path d="M5 5L6.41421 6.41421" stroke="black" stroke-width="1.3" />
  <path d="M15.1211 5L13.7069 6.41421" stroke="black" stroke-width="1.3" />
  <path
    d="M10.2192 12H9.78078C9.13021 12 8.65285 11.3886 8.81063 10.7575L9.51493 7.94028C9.64117 7.43531 10.3588 7.43531 10.4851 7.94028L11.1894 10.7575C11.3472 11.3886 10.8698 12 10.2192 12Z"
    stroke="black"
    stroke-width="1.3"
  />
</svg>
