<svg
  width="20"
  height="20"
  viewBox="0 0 20 20"
  fill="none"
  xmlns="http://www.w3.org/2000/svg"
>
  <path
    d="M10.0786 9.73949C10.7799 9.81079 11.4813 9.8821 12.3435 9.8352C14.68 9.70799 16.0955 8.53586 15.995 6.78414C15.8928 5.00189 14.0097 3.90402 12.1255 4.00662C9.05528 4.17403 6.79745 6.80787 6.54281 9.81872C6.95976 9.72504 7.38465 9.66651 7.81251 9.64384C8.67526 9.59681 9.37691 9.66815 10.0786 9.73949Z"
    fill="#09101C"
  />
  <path
    d="M4.00481 13.3944C4.10277 15.0622 5.90657 16.09 7.71154 15.9938C10.653 15.8374 12.8159 13.3722 13.0594 10.5545C12.6597 10.6422 12.2527 10.697 11.843 10.7182C11.0168 10.7623 10.3447 10.6955 9.67252 10.6287C9.00068 10.562 8.3288 10.4952 7.50286 10.5391C5.26453 10.6582 3.90848 11.755 4.00481 13.3944Z"
    fill="#09101C"
  />
</svg>
