<svg
  width="20"
  height="20"
  viewBox="0 0 20 20"
  fill="none"
  xmlns="http://www.w3.org/2000/svg"
>
  <path
    fill-rule="evenodd"
    clip-rule="evenodd"
    d="M10.0001 2.85L9.89152 2.84999C8.60044 2.84988 7.8322 2.84981 7.18114 3.00611C5.11523 3.50209 3.5022 5.11512 3.00622 7.18103C2.84992 7.83209 2.84999 8.60033 2.8501 9.89141L2.85011 10V10.5909L2.85011 10.6567C2.85006 11.4386 2.85004 11.9036 2.90762 12.3041C3.26445 14.7859 5.21422 16.7357 7.69603 17.0925C8.09651 17.1501 8.56146 17.15 9.34342 17.15L9.4092 17.15L9.4774 17.15C10.4261 17.15 10.9753 17.1501 11.4465 17.0823C14.3676 16.6623 16.6624 14.3675 17.0824 11.4464C17.1502 10.9752 17.1502 10.426 17.1501 9.47729L17.1501 9.40909L17.1501 9.34331C17.1502 8.56135 17.1502 8.0964 17.0926 7.69592C16.7358 5.21411 14.786 3.26434 12.3042 2.90751C11.9037 2.84993 11.4388 2.84995 10.6568 2.85L10.591 2.85H10.0001ZM7.48462 4.27019C7.9664 4.15453 8.56804 4.15 10.0001 4.15H10.591C11.458 4.15 11.8228 4.15167 12.1192 4.19428C14.03 4.469 15.5311 5.97015 15.8058 7.88093C15.8475 8.17046 15.85 8.52531 15.8501 9.35C14.9981 9.35008 14.3203 9.35184 13.7672 9.38957C13.1763 9.42989 12.6806 9.51344 12.2206 9.70396C11.0813 10.1759 10.176 11.0811 9.70407 12.2205C9.51356 12.6805 9.43 13.1762 9.38968 13.7671C9.35195 14.3201 9.35019 14.998 9.35011 15.85C8.52542 15.8499 8.17057 15.8474 7.88104 15.8057C5.97026 15.531 4.46912 14.0298 4.19439 12.1191C4.15178 11.8227 4.15011 11.4579 4.15011 10.5909V10C4.15011 8.56793 4.15464 7.96629 4.2703 7.48451C4.65216 5.89394 5.89405 4.65205 7.48462 4.27019ZM10.6501 15.8409C10.9046 15.8334 11.0918 15.8199 11.2615 15.7955C13.6115 15.4577 15.4578 13.6114 15.7957 11.2614C15.82 11.0917 15.8335 10.9045 15.841 10.65C14.9827 10.6502 14.3559 10.6524 13.8557 10.6866C13.331 10.7224 12.9933 10.791 12.7181 10.905C11.8973 11.245 11.2451 11.8972 10.9051 12.718C10.7911 12.9932 10.7225 13.3309 10.6867 13.8556C10.6525 14.3558 10.6503 14.9825 10.6501 15.8409Z"
    fill="#09101C"
  />
</svg>
