<svg
  width="20"
  height="20"
  viewBox="0 0 20 20"
  fill="none"
  xmlns="http://www.w3.org/2000/svg"
>
  <path
    fill-rule="evenodd"
    clip-rule="evenodd"
    d="M6 7C6 4.92893 7.67893 3.25 9.75 3.25H10C12.2091 3.25 14 5.04086 14 7.25V7.5C14 7.91421 13.6642 8.25 13.25 8.25C12.8358 8.25 12.5 7.91421 12.5 7.5V7.25C12.5 5.86929 11.3807 4.75 10 4.75H9.75C8.50736 4.75 7.5 5.75736 7.5 7C7.5 8.24248 8.50709 9.24973 9.74951 9.25C9.74967 9.25 9.74984 9.25 9.75 9.25H10.25C10.2502 9.25 10.2504 9.25 10.2506 9.25L14.25 9.25C14.6642 9.25 15 9.58579 15 10C15 10.4142 14.6642 10.75 14.25 10.75H13.2503C13.721 11.3767 14 12.1558 14 13C14 15.0711 12.3211 16.75 10.25 16.75H10C7.79086 16.75 6 14.9591 6 12.75V12.5C6 12.0858 6.33579 11.75 6.75 11.75C7.16421 11.75 7.5 12.0858 7.5 12.5V12.75C7.5 14.1307 8.61929 15.25 10 15.25H10.25C11.4926 15.25 12.5 14.2426 12.5 13C12.5 11.7575 11.4929 10.7503 10.2505 10.75C10.2503 10.75 10.2502 10.75 10.25 10.75H9.75C9.74979 10.75 9.74958 10.75 9.74936 10.75L5.75 10.75C5.33579 10.75 5 10.4142 5 10C5 9.58579 5.33579 9.25 5.75 9.25H6.74973C6.27896 8.62325 6 7.8442 6 7Z"
    fill="#09101C"
  />
</svg>
