<svg
  width="20"
  height="20"
  viewBox="0 0 20 20"
  fill="none"
  xmlns="http://www.w3.org/2000/svg"
>
  <path
    d="M18.6641 16.768C18.7868 16.768 18.8801 16.8 18.9441 16.864C19.0081 16.9333 19.0401 17.024 19.0401 17.136V17.808H14.8881V17.432C14.8881 17.3573 14.9015 17.28 14.9281 17.2C14.9601 17.12 15.0108 17.0427 15.0801 16.968L16.8241 15.248C17.0908 14.992 17.3121 14.7227 17.4881 14.44C17.6695 14.1573 17.7601 13.88 17.7601 13.608C17.7601 13.352 17.6855 13.1547 17.5361 13.016C17.3921 12.8773 17.2081 12.808 16.9841 12.808C16.7548 12.808 16.5681 12.8693 16.4241 12.992C16.2855 13.1093 16.1815 13.272 16.1121 13.48C16.0535 13.5813 15.9868 13.6533 15.9121 13.696C15.8428 13.7333 15.7308 13.7387 15.5761 13.712L14.9521 13.608C14.9895 13.32 15.0668 13.0693 15.1841 12.856C15.3068 12.6373 15.4588 12.4587 15.6401 12.32C15.8215 12.176 16.0295 12.0693 16.2641 12C16.5041 11.9253 16.7628 11.888 17.0401 11.888C17.3281 11.888 17.5868 11.9307 17.8161 12.016C18.0455 12.096 18.2401 12.2107 18.4001 12.36C18.5601 12.504 18.6828 12.68 18.7681 12.888C18.8588 13.096 18.9041 13.3227 18.9041 13.568C18.9041 13.7813 18.8695 13.9813 18.8001 14.168C18.7361 14.3493 18.6481 14.5227 18.5361 14.688C18.4241 14.8533 18.2961 15.016 18.1521 15.176C18.0081 15.3307 17.8588 15.488 17.7041 15.648L16.4881 16.888C16.6161 16.8507 16.7441 16.8213 16.8721 16.8C17.0001 16.7787 17.1201 16.768 17.2321 16.768H18.6641Z"
    fill="#09101C"
  />
  <path
    d="M18.9441 16.864L19.0177 16.7961L19.0148 16.7933L18.9441 16.864ZM19.0401 17.808V17.908H19.1401V17.808H19.0401ZM14.8881 17.808H14.7881V17.908H14.8881V17.808ZM14.9281 17.2L14.8351 17.1628L14.8333 17.1684L14.9281 17.2ZM15.0801 16.968L15.0098 16.8967L15.0068 16.9L15.0801 16.968ZM16.8241 15.248L16.7549 15.1759L16.7539 15.1768L16.8241 15.248ZM17.4881 14.44L17.4039 14.386L17.4032 14.3871L17.4881 14.44ZM17.5361 13.016L17.4667 13.088L17.4681 13.0893L17.5361 13.016ZM16.4241 12.992L16.4887 13.0683L16.489 13.0681L16.4241 12.992ZM16.1121 13.48L16.1987 13.5301L16.2038 13.5213L16.207 13.5116L16.1121 13.48ZM15.9121 13.696L15.9596 13.7841L15.9617 13.7828L15.9121 13.696ZM15.5761 13.712L15.5931 13.6135L15.5926 13.6134L15.5761 13.712ZM14.9521 13.608L14.853 13.5951L14.8406 13.6908L14.9357 13.7066L14.9521 13.608ZM15.1841 12.856L15.0969 12.8071L15.0965 12.8078L15.1841 12.856ZM15.6401 12.32L15.7009 12.3994L15.7023 12.3983L15.6401 12.32ZM16.2641 12L16.2925 12.0959L16.2938 12.0955L16.2641 12ZM17.8161 12.016L17.7812 12.1097L17.7832 12.1104L17.8161 12.016ZM18.4001 12.36L18.3319 12.4331L18.3332 12.4343L18.4001 12.36ZM18.7681 12.888L18.6756 12.926L18.6765 12.928L18.7681 12.888ZM18.8001 14.168L18.7064 14.1332L18.7058 14.1347L18.8001 14.168ZM18.1521 15.176L18.2253 15.2442L18.2265 15.2429L18.1521 15.176ZM17.7041 15.648L17.7755 15.718L17.776 15.7175L17.7041 15.648ZM16.4881 16.888L16.4167 16.818L16.1489 17.0911L16.5161 16.984L16.4881 16.888ZM16.8721 16.8L16.8886 16.8986L16.8721 16.8ZM18.6641 16.868C18.7699 16.868 18.8341 16.8953 18.8734 16.9347L19.0148 16.7933C18.9262 16.7047 18.8036 16.668 18.6641 16.668V16.868ZM18.8706 16.9318C18.9145 16.9793 18.9401 17.0442 18.9401 17.136H19.1401C19.1401 17.0038 19.1018 16.8873 19.0176 16.7962L18.8706 16.9318ZM18.9401 17.136V17.808H19.1401V17.136H18.9401ZM19.0401 17.708H14.8881V17.908H19.0401V17.708ZM14.9881 17.808V17.432H14.7881V17.808H14.9881ZM14.9881 17.432C14.9881 17.3694 14.9993 17.3027 15.023 17.2316L14.8333 17.1684C14.8036 17.2573 14.7881 17.3453 14.7881 17.432H14.9881ZM15.021 17.2371C15.0477 17.1704 15.0909 17.1033 15.1534 17.036L15.0068 16.9C14.9306 16.982 14.8726 17.0696 14.8353 17.1629L15.021 17.2371ZM15.1503 17.0392L16.8943 15.3192L16.7539 15.1768L15.0099 16.8968L15.1503 17.0392ZM16.8934 15.3201C17.1654 15.059 17.3922 14.7833 17.573 14.4929L17.4032 14.3871C17.2321 14.662 17.0162 14.925 16.7549 15.1759L16.8934 15.3201ZM17.5723 14.494C17.7615 14.199 17.8601 13.9032 17.8601 13.608H17.6601C17.6601 13.8568 17.5774 14.1157 17.404 14.386L17.5723 14.494ZM17.8601 13.608C17.8601 13.3318 17.7789 13.1049 17.6042 12.9427L17.4681 13.0893C17.5921 13.2044 17.6601 13.3722 17.6601 13.608H17.8601ZM17.6055 12.944C17.4406 12.7851 17.2306 12.708 16.9841 12.708V12.908C17.1856 12.908 17.3437 12.9695 17.4668 13.088L17.6055 12.944ZM16.9841 12.708C16.7363 12.708 16.525 12.7747 16.3593 12.9159L16.489 13.0681C16.6112 12.964 16.7733 12.908 16.9841 12.908V12.708ZM16.3595 12.9157C16.2042 13.0471 16.0912 13.2266 16.0173 13.4484L16.207 13.5116C16.2717 13.3174 16.3667 13.1716 16.4887 13.0683L16.3595 12.9157ZM16.0256 13.4299C15.9727 13.5213 15.9173 13.5779 15.8625 13.6092L15.9617 13.7828C16.0563 13.7288 16.1342 13.6414 16.1987 13.5301L16.0256 13.4299ZM15.8647 13.608C15.8269 13.6283 15.7442 13.6395 15.5931 13.6135L15.5591 13.8105C15.7174 13.8378 15.8587 13.8383 15.9595 13.784L15.8647 13.608ZM15.5926 13.6134L14.9686 13.5094L14.9357 13.7066L15.5597 13.8106L15.5926 13.6134ZM15.0513 13.6209C15.0873 13.3429 15.1615 13.1047 15.2717 12.9042L15.0965 12.8078C14.9721 13.034 14.8916 13.2971 14.853 13.5951L15.0513 13.6209ZM15.2713 12.9049C15.388 12.6969 15.5314 12.5291 15.7009 12.3994L15.5794 12.2406C15.3862 12.3883 15.2256 12.5777 15.0969 12.8071L15.2713 12.9049ZM15.7023 12.3983C15.873 12.2627 16.0694 12.1618 16.2925 12.0959L16.2358 11.9041C15.9895 11.9769 15.7699 12.0893 15.5779 12.2417L15.7023 12.3983ZM16.2938 12.0955C16.5233 12.0241 16.7718 11.988 17.0401 11.988V11.788C16.7538 11.788 16.485 11.8266 16.2344 11.9045L16.2938 12.0955ZM17.0401 11.988C17.3183 11.988 17.5649 12.0292 17.7813 12.1097L17.851 11.9223C17.6087 11.8321 17.338 11.788 17.0401 11.788V11.988ZM17.7832 12.1104C18.0009 12.1863 18.1831 12.2942 18.3319 12.4331L18.4684 12.2869C18.2971 12.1271 18.0901 12.0057 17.8491 11.9216L17.7832 12.1104ZM18.3332 12.4343C18.4816 12.5678 18.5957 12.7312 18.6756 12.926L18.8606 12.85C18.7699 12.6288 18.6387 12.4402 18.467 12.2857L18.3332 12.4343ZM18.6765 12.928C18.7612 13.1224 18.8041 13.3353 18.8041 13.568H19.0041C19.0041 13.31 18.9564 13.0696 18.8598 12.848L18.6765 12.928ZM18.8041 13.568C18.8041 13.7703 18.7713 13.9584 18.7064 14.1332L18.8939 14.2028C18.9676 14.0042 19.0041 13.7924 19.0041 13.568H18.8041ZM18.7058 14.1347C18.6448 14.3077 18.5607 14.4734 18.4533 14.6319L18.6189 14.7441C18.7355 14.5719 18.8275 14.391 18.8944 14.2013L18.7058 14.1347ZM18.4533 14.6319C18.3441 14.7932 18.219 14.9522 18.0778 15.1091L18.2265 15.2429C18.3733 15.0798 18.5042 14.9135 18.6189 14.7441L18.4533 14.6319ZM18.0789 15.1079C17.9354 15.262 17.7865 15.4189 17.6322 15.5785L17.776 15.7175C17.9311 15.5571 18.0809 15.3993 18.2253 15.2441L18.0789 15.1079ZM17.6327 15.578L16.4167 16.818L16.5595 16.958L17.7755 15.718L17.6327 15.578ZM16.5161 16.984C16.6404 16.9477 16.7646 16.9193 16.8886 16.8986L16.8557 16.7014C16.7237 16.7234 16.5918 16.7536 16.4601 16.792L16.5161 16.984ZM16.8886 16.8986C17.012 16.8781 17.1264 16.868 17.2321 16.868V16.668C17.1138 16.668 16.9883 16.6793 16.8557 16.7014L16.8886 16.8986ZM17.2321 16.868H18.6641V16.668H17.2321V16.868Z"
    fill="#09101C"
  />
  <path
    d="M13 15.5L7 4.5"
    stroke="#09101C"
    stroke-width="1.5"
    stroke-linecap="round"
    stroke-linejoin="round"
  />
  <path
    d="M7 15.5L13 4.5"
    stroke="#09101C"
    stroke-width="1.5"
    stroke-linecap="round"
    stroke-linejoin="round"
  />
</svg>
