<svg
  width="20"
  height="20"
  viewBox="0 0 20 20"
  fill="none"
  xmlns="http://www.w3.org/2000/svg"
>
  <path
    d="M16.8853 7.78546C16.9563 7.76878 17.0273 7.75452 17.0983 7.74268C17.2286 7.72096 17.3514 7.71 17.4666 7.71H18.8986C19.0304 7.71 19.1386 7.74742 19.2146 7.82935M16.8853 7.78546L19.1786 7.864M16.8853 7.78546L17.9743 6.67501L17.9745 6.67475C18.1294 6.51454 18.2789 6.35698 18.4232 6.20207L18.4232 6.20208L18.4237 6.20145C18.5691 6.03988 18.6986 5.87541 18.812 5.70804C18.9262 5.53942 19.0161 5.3624 19.0816 5.17703M16.8853 7.78546L18.3866 6.168C18.5306 6.008 18.6586 5.84533 18.7706 5.68C18.8826 5.51467 18.9706 5.34133 19.0346 5.16M19.2146 7.82935C19.2148 7.8296 19.2151 7.82984 19.2153 7.83009L19.1786 7.864M19.2146 7.82935C19.2144 7.82912 19.2142 7.82888 19.2139 7.82864L19.1786 7.864M19.2146 7.82935C19.2896 7.90478 19.3246 8.00646 19.3246 8.128V8.8V8.85H19.2746H15.1226H15.0726V8.8V8.424C15.0726 8.34331 15.087 8.26064 15.1151 8.17619L15.1161 8.1734L15.1161 8.17343C15.1508 8.08678 15.2051 8.00434 15.2779 7.92598L15.2794 7.92437L15.2794 7.9244L17.0234 6.2044L17.0239 6.20393L17.0239 6.20393C17.2879 5.9505 17.5065 5.68435 17.6801 5.40557L17.6805 5.405L17.6805 5.405C17.8579 5.1285 17.9446 4.8604 17.9446 4.6C17.9446 4.3541 17.8732 4.17154 17.7365 4.04464L17.7359 4.04402L17.7359 4.04402C17.6023 3.91543 17.4313 3.85 17.2186 3.85C16.9985 3.85 16.8241 3.90865 16.691 4.02206L16.6909 4.02217C16.5605 4.13246 16.461 4.2867 16.394 4.48781L16.3907 4.49758L16.3898 4.49705C16.3283 4.60337 16.256 4.68306 16.1714 4.73141L16.1703 4.73204L16.1703 4.73202C16.0852 4.77782 15.9586 4.78025 15.8022 4.7533L15.8023 4.75332L15.8106 4.704M19.1786 7.864C19.2426 7.928 19.2746 8.016 19.2746 8.128V8.75V8.8H19.2246H15.1726H15.1226V8.75V8.424C15.1226 8.34933 15.1359 8.272 15.1626 8.192C15.1946 8.112 15.2452 8.03467 15.3146 7.96L17.0586 6.24C17.3252 5.984 17.5466 5.71467 17.7226 5.432C17.9039 5.14933 17.9946 4.872 17.9946 4.6C17.9946 4.344 17.9199 4.14667 17.7706 4.008C17.6266 3.86933 17.4426 3.8 17.2186 3.8C16.9892 3.8 16.8026 3.86133 16.6586 3.984C16.5199 4.10133 16.4159 4.264 16.3466 4.472C16.2879 4.57333 16.2212 4.64533 16.1466 4.688C16.0772 4.72533 15.9652 4.73067 15.8106 4.704M15.8106 4.704L15.1866 4.6C15.2239 4.312 15.3012 4.06133 15.4186 3.848L15.8106 4.704ZM19.0346 5.16L19.0814 5.17741C19.0815 5.17728 19.0815 5.17716 19.0816 5.17703M19.0346 5.16C19.1039 4.97333 19.1386 4.77333 19.1386 4.56C19.1386 4.31467 19.0932 4.088 19.0026 3.88M19.0346 5.16L19.0817 5.17664C19.0817 5.17677 19.0816 5.1769 19.0816 5.17703M19.0816 5.17703C19.153 4.98451 19.1886 4.7787 19.1886 4.56C19.1886 4.30855 19.1421 4.07518 19.0486 3.86052C18.9606 3.64625 18.8339 3.46422 18.6683 3.31514C18.5029 3.16083 18.3023 3.04293 18.0675 2.96096C17.8318 2.87334 17.5673 2.83 17.2746 2.83C16.9928 2.83 16.7292 2.86791 16.484 2.94415C16.2439 3.01515 16.0303 3.12456 15.8438 3.27256C15.6567 3.41571 15.5005 3.59967 15.375 3.82354L15.3749 3.82354L15.3747 3.8239C15.2539 4.04366 15.175 4.30054 15.137 4.59357L15.1308 4.64139L15.1783 4.64932L15.8021 4.75327L19.0026 3.88M19.0026 3.88C18.9172 3.672 18.7946 3.496 18.6346 3.352L19.0026 3.88Z"
    fill="#09101C"
    stroke="#09101C"
    stroke-width="0.1"
  />
  <path
    d="M13 15.5L7 4.5"
    stroke="#09101C"
    stroke-width="1.5"
    stroke-linecap="round"
    stroke-linejoin="round"
  />
  <path
    d="M7 15.5L13 4.5"
    stroke="#09101C"
    stroke-width="1.5"
    stroke-linecap="round"
    stroke-linejoin="round"
  />
</svg>
