<svg
  width="20"
  height="20"
  viewBox="0 0 20 20"
  fill="none"
  xmlns="http://www.w3.org/2000/svg"
>
  <path
    fill-rule="evenodd"
    clip-rule="evenodd"
    d="M10.0001 3.35C9.45511 3.35 8.91546 3.45734 8.41196 3.6659C7.90846 3.87446 7.45097 4.18014 7.0656 4.56551C6.68024 4.95087 6.37455 5.40836 6.166 5.91186C6.04384 6.20678 5.9564 6.5141 5.90493 6.82763C5.53673 6.83878 5.03981 6.89382 4.53148 7.07537C4.0038 7.26382 3.44633 7.59552 3.02369 8.16911C2.59874 8.74582 2.3501 9.51288 2.3501 10.5C2.3501 10.859 2.64111 11.15 3.0001 11.15C3.35908 11.15 3.6501 10.859 3.6501 10.5C3.6501 9.73712 3.83895 9.25418 4.07026 8.94027C4.30386 8.62323 4.6214 8.42368 4.96872 8.29963C5.32012 8.17413 5.68362 8.13317 5.96869 8.12638C6.10906 8.12304 6.22491 8.12809 6.3034 8.1337C6.3425 8.13649 6.37193 8.13939 6.39002 8.14138L6.40834 8.14352C6.40977 8.1437 6.41054 8.1438 6.41064 8.14381L6.41002 8.14373L6.40934 8.14363C6.5955 8.16988 6.78393 8.11425 6.92598 7.99105C7.06833 7.86759 7.1501 7.68843 7.1501 7.5C7.1501 7.12573 7.22381 6.75513 7.36704 6.40935C7.51027 6.06357 7.7202 5.74939 7.98484 5.48475C8.24949 5.2201 8.56367 5.01017 8.90945 4.86694C9.25523 4.72372 9.62583 4.65 10.0001 4.65C10.3744 4.65 10.745 4.72372 11.0907 4.86694C11.4365 5.01017 11.7507 5.2201 12.0154 5.48475C12.28 5.74939 12.4899 6.06357 12.6332 6.40935C12.7764 6.75513 12.8501 7.12573 12.8501 7.5C12.8501 7.68843 12.9319 7.86759 13.0742 7.99105C13.216 8.114 13.4039 8.16966 13.5897 8.14379C13.5903 8.14371 13.5909 8.14363 13.5914 8.14355L13.5909 8.14362L13.5919 8.14352L13.6102 8.14138C13.6283 8.13939 13.6577 8.13649 13.6968 8.1337C13.7753 8.12809 13.8911 8.12304 14.0315 8.12638C14.3166 8.13317 14.6801 8.17413 15.0315 8.29963C15.3788 8.42368 15.6963 8.62323 15.9299 8.94027C16.1612 9.25418 16.3501 9.73712 16.3501 10.5C16.3501 11.2613 16.1616 11.789 15.9124 12.1629C15.6604 12.5408 15.3198 12.8009 14.9594 12.9811C14.5965 13.1626 14.2257 13.2566 13.9401 13.3042C13.7989 13.3277 13.6826 13.3392 13.6042 13.3448C13.5651 13.3476 13.5357 13.3489 13.5177 13.3495L13.4997 13.35L13.4981 13.35H7.56933L9.45972 11.4596L8.54048 10.5404L5.54048 13.5404L5.08086 14L5.54048 14.4596L8.54048 17.4596L9.45972 16.5404L7.56933 14.65H13.5001V14C13.5001 14.65 13.5004 14.65 13.5008 14.65H13.5015L13.5033 14.65L13.5078 14.65L13.5206 14.6498C13.5308 14.6496 13.5444 14.6493 13.5611 14.6488C13.5944 14.6477 13.6402 14.6456 13.6968 14.6415C13.8098 14.6334 13.9669 14.6176 14.1538 14.5865C14.5245 14.5247 15.0287 14.3999 15.5408 14.1439C16.0554 13.8866 16.5898 13.4904 16.9941 12.884C17.401 12.2735 17.6501 11.4887 17.6501 10.5C17.6501 9.51288 17.4015 8.74582 16.9765 8.16911C16.5539 7.59552 15.9964 7.26382 15.4687 7.07537C14.9604 6.89382 14.4635 6.83878 14.0953 6.82764C14.0438 6.5141 13.9564 6.20678 13.8342 5.91186C13.6256 5.40836 13.32 4.95087 12.9346 4.56551C12.5492 4.18014 12.0917 3.87446 11.5882 3.6659C11.0847 3.45734 10.5451 3.35 10.0001 3.35ZM6.40834 8.14352L6.40817 8.14347L6.5001 7.5C6.40817 8.14347 6.40847 8.14351 6.40875 8.14355L6.40834 8.14352Z"
    fill="#09101C"
  />
</svg>
