<svg
  width="20"
  height="20"
  viewBox="0 0 20 20"
  fill="none"
  xmlns="http://www.w3.org/2000/svg"
>
  <path
    fill-rule="evenodd"
    clip-rule="evenodd"
    d="M9.26451 4.48331C8.2807 4.61049 7.34312 4.99518 6.54937 5.60425C5.56263 6.3614 4.8533 7.42299 4.53139 8.62437C4.20948 9.82575 4.29298 11.0998 4.76895 12.2489C5.15181 13.1732 5.7714 13.9751 6.55976 14.5771L6.10033 16.2917L7.35603 16.6282L7.72208 15.262C8.24541 15.4913 8.79924 15.6392 9.36432 15.7021L8.99828 17.0682L10.254 17.4046L10.7134 15.69C10.7177 15.6895 10.722 15.6889 10.7263 15.6884C11.9595 15.526 13.1046 14.9613 13.984 14.0818L13.0648 13.1626C12.3877 13.8397 11.5061 14.2745 10.5567 14.3995C9.60727 14.5245 8.64316 14.3327 7.81387 13.8539C6.98458 13.3751 6.33644 12.6361 5.96999 11.7514C5.60354 10.8667 5.53925 9.88579 5.78709 8.96083C6.03493 8.03588 6.58105 7.21855 7.34076 6.63561C8.10046 6.05267 9.03128 5.7367 9.98887 5.7367C10.9465 5.7367 11.8773 6.05267 12.637 6.63561C13.3967 7.21855 13.9428 8.03588 14.1906 8.96083L15.4464 8.62437C15.1244 7.42299 14.4151 6.3614 13.4284 5.60425C13.4248 5.60152 13.4213 5.5988 13.4177 5.59609L13.8771 3.88167L12.6214 3.54521L12.2554 4.91122C11.7347 4.68321 11.1812 4.53448 10.6136 4.47133L10.9796 3.10522L9.72392 2.76875L9.26451 4.48331Z"
    fill="#09101C"
  />
</svg>
