<svg
  width="20"
  height="20"
  viewBox="0 0 20 20"
  fill="none"
  xmlns="http://www.w3.org/2000/svg"
>
  <path
    fill-rule="evenodd"
    clip-rule="evenodd"
    d="M10.0943 1.35C12.0581 1.35 13.65 2.94194 13.65 4.90569V6.44161C14.0152 6.49713 14.3461 6.58938 14.6571 6.74783C15.3439 7.09776 15.9022 7.65614 16.2522 8.34293C16.4701 8.77071 16.5628 9.23622 16.607 9.77668C16.65 10.3035 16.65 10.9556 16.65 11.7717V11.7718V11.7718V11.8V12.2V12.2282V12.2282V12.2283C16.65 13.0444 16.65 13.6965 16.607 14.2233C16.5628 14.7638 16.4701 15.2293 16.2522 15.6571C15.9022 16.3439 15.3439 16.9022 14.6571 17.2522C14.2293 17.4701 13.7638 17.5628 13.2233 17.607C12.6965 17.65 12.0444 17.65 11.2282 17.65H11.2H8.8H8.77177C7.95563 17.65 7.30348 17.65 6.77668 17.607C6.23622 17.5628 5.77071 17.4701 5.34293 17.2522C4.65614 16.9022 4.09776 16.3439 3.74783 15.6571C3.52987 15.2293 3.43719 14.7638 3.39303 14.2233C3.34999 13.6965 3.34999 13.0444 3.35 12.2282L3.35 12.2V11.8L3.35 11.7718C3.34999 10.9556 3.34999 10.3035 3.39303 9.77668C3.43719 9.23622 3.52987 8.77071 3.74783 8.34293C4.09776 7.65614 4.65614 7.09776 5.34293 6.74783C5.77071 6.52987 6.23622 6.43719 6.77668 6.39303C7.30348 6.34999 7.95563 6.34999 8.77177 6.35H8.8H11.2H11.2282C11.6428 6.35 12.015 6.34999 12.35 6.35563V4.90569C12.35 3.65991 11.3401 2.65 10.0943 2.65C9.12339 2.65 8.2614 3.27129 7.95437 4.19238L7.61664 5.20555L6.38336 4.79445L6.72108 3.78129C7.20506 2.32935 8.56383 1.35 10.0943 1.35ZM6.88254 7.68871C6.42248 7.7263 6.14709 7.79711 5.93312 7.90613C5.49094 8.13144 5.13144 8.49094 4.90613 8.93312C4.79711 9.14709 4.7263 9.42248 4.68871 9.88254C4.65051 10.3502 4.65 10.9492 4.65 11.8V12.2C4.65 13.0508 4.65051 13.6498 4.68871 14.1175C4.7263 14.5775 4.79711 14.8529 4.90613 15.0669C5.13144 15.5091 5.49094 15.8686 5.93312 16.0939C6.14709 16.2029 6.42248 16.2737 6.88254 16.3113C7.35018 16.3495 7.9492 16.35 8.8 16.35H11.2C12.0508 16.35 12.6498 16.3495 13.1175 16.3113C13.5775 16.2737 13.8529 16.2029 14.0669 16.0939C14.5091 15.8686 14.8686 15.5091 15.0939 15.0669C15.2029 14.8529 15.2737 14.5775 15.3113 14.1175C15.3495 13.6498 15.35 13.0508 15.35 12.2V11.8C15.35 10.9492 15.3495 10.3502 15.3113 9.88254C15.2737 9.42248 15.2029 9.14709 15.0939 8.93312C14.8686 8.49094 14.5091 8.13144 14.0669 7.90613C13.8529 7.79711 13.5775 7.7263 13.1175 7.68871C12.6498 7.65051 12.0508 7.65 11.2 7.65H8.8C7.9492 7.65 7.35018 7.65051 6.88254 7.68871ZM9.35 13.5V10.5H10.65V13.5H9.35Z"
    fill="#09101C"
  />
</svg>
