<svg
  width="20"
  height="20"
  viewBox="0 0 20 20"
  fill="none"
  xmlns="http://www.w3.org/2000/svg"
>
  <path
    fill-rule="evenodd"
    clip-rule="evenodd"
    d="M7.8001 3.35H7.77186H7.77186C6.95572 3.34999 6.30358 3.34999 5.77677 3.39303C5.23632 3.43719 4.7708 3.52987 4.34303 3.74783C3.65624 4.09776 3.09786 4.65614 2.74792 5.34294C2.52996 5.77071 2.43729 6.23622 2.39313 6.77668C2.35009 7.30348 2.35009 7.95562 2.3501 8.77176V8.77177V8.8V11.2V11.2282V11.2282C2.35009 12.0444 2.35009 12.6965 2.39313 13.2233C2.43729 13.7638 2.52996 14.2293 2.74792 14.6571C3.09786 15.3439 3.65624 15.9022 4.34303 16.2522C4.7708 16.4701 5.23632 16.5628 5.77677 16.607C6.30358 16.65 6.95572 16.65 7.77186 16.65H7.77187H7.8001H9.2001H9.22833H9.22834C10.0445 16.65 10.6966 16.65 11.2234 16.607C11.7639 16.5628 12.2294 16.4701 12.6572 16.2522C13.344 15.9022 13.9023 15.3439 14.2523 14.6571C14.4702 14.2293 14.5629 13.7638 14.6071 13.2233C14.6082 13.209 14.6094 13.1947 14.6105 13.1802C14.6604 13.2323 14.7086 13.2814 14.7554 13.3273C15.0234 13.5905 15.3615 13.8763 15.7825 13.9323C16.3238 14.0044 16.8656 13.8039 17.2298 13.3969C17.5129 13.0804 17.5836 12.6434 17.6159 12.2692C17.6501 11.8715 17.6501 11.3476 17.6501 10.7069V10.6748V8.86274V8.83067C17.6501 8.25214 17.6501 7.77405 17.6176 7.40722C17.5864 7.05501 17.5171 6.64982 17.2548 6.34262C16.9117 5.941 16.3972 5.72786 15.8706 5.7693C15.4679 5.801 15.1324 6.03853 14.8613 6.26551C14.7734 6.33912 14.6801 6.42257 14.5809 6.51496C14.5289 6.08355 14.4342 5.70009 14.2523 5.34294C13.9023 4.65614 13.344 4.09776 12.6572 3.74783C12.2294 3.52987 11.7639 3.43719 11.2234 3.39303C10.6966 3.34999 10.0445 3.34999 9.22834 3.35H9.22833H9.2001H7.8001ZM14.6497 8.26966C14.6501 8.42976 14.6501 8.597 14.6501 8.77176V8.77177V8.8V11.2V11.2282V11.2282C14.6501 11.2387 14.6501 11.2491 14.6501 11.2595L14.6788 11.293C15.1218 11.8098 15.4263 12.1642 15.6662 12.3997C15.8539 12.5841 15.9422 12.6324 15.9614 12.6429C15.9634 12.6439 15.9646 12.6446 15.9652 12.645C16.0725 12.6558 16.1788 12.6164 16.2533 12.5384C16.2534 12.5378 16.2539 12.5365 16.2547 12.5344C16.2625 12.5139 16.2981 12.4197 16.3207 12.1576C16.3495 11.8227 16.3501 11.3555 16.3501 10.6748V8.86274C16.3501 8.24407 16.3495 7.82432 16.3227 7.52197C16.3013 7.28033 16.2677 7.19789 16.2615 7.1827C16.2611 7.18167 16.2608 7.18094 16.2606 7.1805C16.1898 7.10156 16.087 7.05898 15.9811 7.06473C15.9807 7.06493 15.98 7.06523 15.979 7.06567C15.9638 7.07203 15.8818 7.10658 15.6958 7.2623C15.4631 7.45715 15.1658 7.75352 14.7283 8.19099L14.6497 8.26966ZM4.93322 4.90614C5.14718 4.79712 5.42257 4.7263 5.88263 4.68871C6.35028 4.65051 6.94929 4.65 7.8001 4.65H9.2001C10.0509 4.65 10.6499 4.65051 11.1176 4.68871C11.5776 4.7263 11.853 4.79712 12.067 4.90614C12.5092 5.13144 12.8687 5.49094 13.094 5.93312C13.203 6.14709 13.2738 6.42248 13.3114 6.88254C13.3496 7.35018 13.3501 7.9492 13.3501 8.8V11.2C13.3501 12.0508 13.3496 12.6498 13.3114 13.1175C13.2738 13.5775 13.203 13.8529 13.094 14.0669C12.8687 14.5091 12.5092 14.8686 12.067 15.0939C11.853 15.2029 11.5776 15.2737 11.1176 15.3113C10.6499 15.3495 10.0509 15.35 9.2001 15.35H7.8001C6.94929 15.35 6.35028 15.3495 5.88263 15.3113C5.42257 15.2737 5.14718 15.2029 4.93322 15.0939C4.49104 14.8686 4.13153 14.5091 3.90623 14.0669C3.79721 13.8529 3.7264 13.5775 3.68881 13.1175C3.6506 12.6498 3.6501 12.0508 3.6501 11.2V8.8C3.6501 7.9492 3.6506 7.35019 3.68881 6.88254C3.7264 6.42248 3.79721 6.14709 3.90623 5.93312C4.13153 5.49094 4.49104 5.13144 4.93322 4.90614Z"
    fill="#09101C"
  />
</svg>
