<svg
  width="20"
  height="20"
  viewBox="0 0 20 20"
  fill="none"
  xmlns="http://www.w3.org/2000/svg"
>
  <path
    fill-rule="evenodd"
    clip-rule="evenodd"
    d="M8.97598 3.35H8.99998H11H11.024H11.024C11.9355 3.35 12.6528 3.35 13.2328 3.38957C13.8238 3.42989 14.3195 3.51345 14.7795 3.70396C15.9188 4.17591 16.8241 5.08114 17.296 6.22052C17.4865 6.68047 17.5701 7.17621 17.6104 7.76713C17.65 8.34713 17.65 9.06442 17.65 9.97597V9.97601V10V10.024V10.024C17.65 10.9356 17.65 11.6529 17.6104 12.2329C17.5701 12.8238 17.4865 13.3195 17.296 13.7795C16.8241 14.9189 15.9188 15.8241 14.7795 16.296C14.3195 16.4866 13.8238 16.5701 13.2328 16.6104C12.6528 16.65 11.9356 16.65 11.024 16.65H11.024H11H8.99998H8.97599H8.97595C8.06439 16.65 7.3471 16.65 6.76711 16.6104C6.17618 16.5701 5.68044 16.4866 5.2205 16.296C4.08112 15.8241 3.17588 14.9189 2.70394 13.7795C2.51342 13.3195 2.42986 12.8238 2.38954 12.2329C2.34997 11.6529 2.34997 10.9356 2.34998 10.024V10.024V10V9.97601V9.97599C2.34997 9.06443 2.34997 8.34713 2.38954 7.76713C2.42986 7.17621 2.51342 6.68047 2.70394 6.22052C3.17588 5.08114 4.08112 4.17591 5.2205 3.70396C5.68044 3.51345 6.17618 3.42989 6.76711 3.38957C7.34711 3.35 8.0644 3.35 8.97597 3.35H8.97598ZM6.8556 4.68655C6.33087 4.72236 5.99313 4.79104 5.71799 4.905C4.89714 5.24501 4.24498 5.89717 3.90498 6.71801C3.79101 6.99315 3.72233 7.33089 3.68653 7.85562C3.65033 8.38619 3.64998 9.05922 3.64998 10C3.64998 10.9408 3.65033 11.6138 3.68653 12.1444C3.72233 12.6691 3.79101 13.0069 3.90498 13.282C4.24498 14.1028 4.89714 14.755 5.71799 15.095C5.99313 15.209 6.33087 15.2776 6.8556 15.3134C7.38617 15.3496 8.0592 15.35 8.99998 15.35H11C11.9408 15.35 12.6138 15.3496 13.1444 15.3134C13.6691 15.2776 14.0068 15.209 14.282 15.095C15.1028 14.755 15.755 14.1028 16.095 13.282C16.1125 13.2396 16.129 13.1958 16.1444 13.15H14.5L14.4322 13.15C14.0336 13.1502 13.7404 13.1503 13.483 13.0991C12.4318 12.89 11.61 12.0682 11.4009 11.017C11.3497 10.7596 11.3498 10.4664 11.35 10.0678L11.35 10L11.35 9.9322C11.3498 9.53363 11.3497 9.24044 11.4009 8.98301C11.61 7.93178 12.4318 7.11002 13.483 6.90092C13.7404 6.84971 14.0336 6.84983 14.4322 6.84998L14.5 6.85H16.1444C16.129 6.80422 16.1125 6.76037 16.095 6.71801C15.755 5.89717 15.1028 5.24501 14.282 4.905C14.0068 4.79104 13.6691 4.72236 13.1444 4.68655C12.6138 4.65035 11.9408 4.65 11 4.65H8.99998C8.0592 4.65 7.38617 4.65035 6.8556 4.68655ZM16.35 10C16.35 10.775 16.3497 11.3683 16.3294 11.85H14.5C14.0042 11.85 13.8512 11.8469 13.7366 11.8241C13.2011 11.7175 12.7824 11.2989 12.6759 10.7634C12.6531 10.6488 12.65 10.4958 12.65 10C12.65 9.50419 12.6531 9.35121 12.6759 9.23663C12.7824 8.7011 13.2011 8.28246 13.7366 8.17594C13.8512 8.15315 14.0042 8.15 14.5 8.15H16.3294C16.3497 8.63165 16.35 9.22497 16.35 10ZM5.99998 7.65H8.99998V6.35H5.99998V7.65Z"
    fill="#09101C"
  />
</svg>
