<svg
  width="20"
  height="20"
  viewBox="0 0 20 20"
  fill="none"
  xmlns="http://www.w3.org/2000/svg"
>
  <path
    d="M8.77541 3.75724C9.22736 3.57004 9.45333 3.47644 9.68713 3.43941C9.89442 3.40658 10.1056 3.40658 10.3129 3.43941C10.5467 3.47644 10.7726 3.57004 11.2246 3.75724L13.5484 4.71979C14.0003 4.90699 14.2263 5.00059 14.4178 5.13973C14.5876 5.26309 14.7369 5.4124 14.8603 5.58219C14.9994 5.7737 15.093 5.99967 15.2802 6.45162L16.2428 8.77541C16.43 9.22736 16.5236 9.45333 16.5606 9.68713C16.5934 9.89442 16.5934 10.1056 16.5606 10.3129C16.5236 10.5467 16.43 10.7726 16.2428 11.2246L15.2802 13.5484C15.093 14.0003 14.9994 14.2263 14.8603 14.4178C14.7369 14.5876 14.5876 14.7369 14.4178 14.8603C14.2263 14.9994 14.0003 15.093 13.5484 15.2802L11.2246 16.2428C10.7726 16.43 10.5467 16.5236 10.3129 16.5606C10.1056 16.5934 9.89442 16.5934 9.68713 16.5606C9.45333 16.5236 9.22736 16.43 8.77541 16.2428L6.45162 15.2802C5.99967 15.093 5.7737 14.9994 5.58219 14.8603C5.4124 14.7369 5.26309 14.5876 5.13973 14.4178C5.00059 14.2263 4.90699 14.0003 4.71979 13.5484L3.75724 11.2246C3.57004 10.7726 3.47644 10.5467 3.43941 10.3129C3.40658 10.1056 3.40658 9.89442 3.43941 9.68713C3.47644 9.45333 3.57004 9.22736 3.75724 8.77541L4.71979 6.45162C4.90699 5.99967 5.00059 5.7737 5.13973 5.58219C5.26309 5.4124 5.4124 5.26309 5.58219 5.13973C5.7737 5.00059 5.99967 4.90699 6.45162 4.71979L8.77541 3.75724Z"
    stroke="#09101C"
    stroke-width="1.3"
  />
  <path d="M10 7V11" stroke="#09101C" stroke-width="1.3" />
  <circle
    cx="10"
    cy="12.5"
    r="0.5"
    fill="#09101C"
    stroke="#09101C"
    stroke-width="0.3"
    stroke-linejoin="round"
  />
</svg>
