<svg
  width="20"
  height="20"
  viewBox="0 0 20 20"
  fill="none"
  xmlns="http://www.w3.org/2000/svg"
>
  <circle cx="10" cy="10" r="7" stroke="#09101C" stroke-width="1.3" />
  <path
    d="M3 11L5.10712 9.127C6.35781 8.01528 6.30668 6.04534 5 5V5"
    stroke="black"
    stroke-width="1.3"
  />
  <path
    d="M4.5 14C5.16667 13.5 6.7 12.6 7.5 13C8.5 13.5 9 14 9 14.5C9 15 7.5 16 6.5 16"
    stroke="black"
    stroke-width="1.3"
  />
  <path
    d="M12.5 3.5C11 4.33333 8.19984 5.6 8.99984 6C9.99984 6.5 12.5 6.5 12.5 7.5C12.5 8.5 10.4999 8 9.5 8.5C8.86746 8.8163 7.49969 9.5 8.99984 10C10.5 10.5 11 11 11 12C11 12.2857 11.1063 12.7075 11.2505 13.1469C11.5075 13.9298 12.3321 13.8751 12.5366 13.0769C12.7871 12.0992 13.1562 11.0624 13.9998 10.5C15.6639 9.3906 13.4998 7.5 15.9998 6.5"
    stroke="black"
    stroke-width="1.3"
  />
</svg>
