<svg
  width="16"
  height="16"
  viewBox="0 0 16 16"
  fill="none"
  xmlns="http://www.w3.org/2000/svg"
>
  <circle cx="8" cy="8" r="8" fill="url(#paint0_linear_971_65)" />
  <circle cx="8" cy="8" r="8" fill="url(#paint1_radial_971_65)" />
  <path
    d="M3.67233 5.59786C3.45024 5.50268 3.19304 5.60556 3.09786 5.82765C3.00268 6.04974 3.10556 6.30694 3.32765 6.40212L4.38357 6.85465C4.52461 6.9151 4.57553 7.08819 4.53515 7.23624C4.51223 7.32027 4.5 7.4087 4.5 7.5C4.5 8.05228 4.94772 8.5 5.5 8.5C5.9152 8.5 6.27129 8.24696 6.42249 7.88669C6.45218 7.81595 6.5326 7.77567 6.60311 7.80588L6.82765 7.90212C7.04974 7.9973 7.30694 7.89442 7.40212 7.67233C7.4973 7.45024 7.39442 7.19304 7.17233 7.09786L3.67233 5.59786Z"
    fill="#424242"
  />
  <path
    d="M12.33 5.59786C12.5521 5.50268 12.8093 5.60556 12.9045 5.82765C12.9997 6.04974 12.8968 6.30694 12.6747 6.40212L11.6188 6.85465C11.4778 6.9151 11.4268 7.08819 11.4672 7.23624C11.4901 7.32027 11.5024 7.4087 11.5024 7.5C11.5024 8.05228 11.0547 8.5 10.5024 8.5C10.0872 8.5 9.73108 8.24696 9.57988 7.88669C9.5502 7.81595 9.46978 7.77567 9.39927 7.80588L9.17472 7.90212C8.95264 7.9973 8.69544 7.89442 8.60026 7.67233C8.50508 7.45024 8.60796 7.19304 8.83004 7.09786L12.33 5.59786Z"
    fill="#424242"
  />
  <path
    fill-rule="evenodd"
    clip-rule="evenodd"
    d="M7.99999 10.9375C7.1091 10.9375 6.32412 11.3918 5.86431 12.0833C5.73053 12.2845 5.45896 12.3392 5.25775 12.2054C5.05654 12.0716 5.00188 11.8001 5.13567 11.5989C5.75077 10.6737 6.8039 10.0625 7.99999 10.0625C9.19607 10.0625 10.2492 10.6737 10.8643 11.5989C10.9981 11.8001 10.9434 12.0716 10.7422 12.2054C10.541 12.3392 10.2694 12.2845 10.1357 12.0833C9.67585 11.3918 8.89087 10.9375 7.99999 10.9375Z"
    fill="#772622"
  />
  <defs>
    <linearGradient
      id="paint0_linear_971_65"
      x1="8"
      y1="0"
      x2="8"
      y2="16"
      gradientUnits="userSpaceOnUse"
    >
      <stop offset="0.110497" stop-color="#EA6433" />
      <stop offset="0.546961" stop-color="#F2B660" />
      <stop offset="1" stop-color="#FFBA49" />
    </linearGradient>
    <radialGradient
      id="paint1_radial_971_65"
      cx="0"
      cy="0"
      r="1"
      gradientUnits="userSpaceOnUse"
      gradientTransform="translate(10.75 3.25) rotate(124.563) scale(13.6611 17.7349)"
    >
      <stop stop-color="#FFD764" stop-opacity="0.2" />
      <stop offset="1" stop-color="#FFB746" stop-opacity="0.1" />
    </radialGradient>
  </defs>
</svg>
