<svg
  width="16"
  height="16"
  viewBox="0 0 16 16"
  fill="none"
  xmlns="http://www.w3.org/2000/svg"
>
  <circle cx="8" cy="8" r="8" fill="#FFD764" />
  <circle cx="8" cy="8" r="8" fill="url(#paint0_radial_971_67)" />
  <path
    d="M12.5 9.75C12.5 11.9591 10 13.5 8 13.5C6 13.5 3.5 11.9591 3.5 9.75C3.5 8.75 5.75 8.25 8 8.25C10.25 8.25 12.5 8.75 12.5 9.75Z"
    fill="#772622"
  />
  <path
    d="M10.6791 9.37453C10.2389 9.22642 9.34585 9 7.99998 9C6.65411 9 5.76109 9.22642 5.3209 9.37453C5.14005 9.43538 5.06916 9.63835 5.15449 9.80902C5.21302 9.92606 5.33206 10 5.46293 10H10.537C10.6679 10 10.787 9.92606 10.8455 9.80902C10.9308 9.63835 10.8599 9.43538 10.6791 9.37453Z"
    fill="white"
  />
  <path
    d="M9.4722 11.8855C9.69194 12.0095 9.67795 12.3133 9.44984 12.4212C9.00299 12.6324 8.50625 12.75 7.99999 12.75C7.49374 12.75 6.99699 12.6324 6.55015 12.4212C6.32203 12.3133 6.30804 12.0095 6.52779 11.8855C6.96271 11.64 7.465 11.5 7.99999 11.5C8.53499 11.5 9.03728 11.64 9.4722 11.8855Z"
    fill="#E45852"
  />
  <path
    fill-rule="evenodd"
    clip-rule="evenodd"
    d="M4.10146 4.65743C4.25615 4.47181 4.53202 4.44673 4.71764 4.60141L6.21764 5.85141C6.35914 5.96933 6.41163 6.16325 6.34893 6.33645C6.28622 6.50964 6.12175 6.62501 5.93756 6.62501C5.2439 6.62501 4.2335 6.84961 3.6695 7.20225C3.46462 7.33034 3.1947 7.2681 3.0666 7.06323C2.9385 6.85835 3.00074 6.58842 3.20562 6.46033C3.59101 6.21936 4.09638 6.03691 4.60612 5.91729C4.70873 5.8932 4.7423 5.76096 4.66133 5.69349L4.15748 5.27361C3.97186 5.11892 3.94678 4.84305 4.10146 4.65743Z"
    fill="#424242"
  />
  <path
    fill-rule="evenodd"
    clip-rule="evenodd"
    d="M11.8985 4.65743C11.7439 4.47181 11.468 4.44673 11.2824 4.60141L9.78236 5.85141C9.64086 5.96933 9.58837 6.16325 9.65107 6.33645C9.71378 6.50964 9.87825 6.62501 10.0624 6.62501C10.7561 6.62501 11.7665 6.84961 12.3305 7.20225C12.5354 7.33034 12.8053 7.2681 12.9334 7.06323C13.0615 6.85835 12.9993 6.58842 12.7944 6.46033C12.409 6.21936 11.9036 6.03691 11.3939 5.91729C11.2913 5.8932 11.2577 5.76096 11.3387 5.69349L11.8425 5.27361C12.0281 5.11892 12.0532 4.84305 11.8985 4.65743Z"
    fill="#424242"
  />
  <defs>
    <radialGradient
      id="paint0_radial_971_67"
      cx="0"
      cy="0"
      r="1"
      gradientUnits="userSpaceOnUse"
      gradientTransform="translate(10.75 3.25) rotate(124.563) scale(13.6611 17.7349)"
    >
      <stop stop-color="#FFD764" />
      <stop offset="1" stop-color="#FFB746" />
    </radialGradient>
  </defs>
</svg>
