<svg
  width="16"
  height="16"
  viewBox="0 0 16 16"
  fill="none"
  xmlns="http://www.w3.org/2000/svg"
>
  <path
    d="M0.5 5.5C0.5 10 5.79086 15 8 15C10.2091 15 15.5 10 15.5 5.5C15.5 3.29086 14 1.5 12 1.5C10.2423 1.5 8.74933 2.29136 8.21261 4C8.1063 4.25 8.05315 4.25 8 4.25C7.94685 4.25 7.8937 4.25 7.78739 4C7.25067 2.29136 5.75774 1.5 4 1.5C2 1.5 0.5 3.29086 0.5 5.5Z"
    fill="#E45852"
  />
  <path
    d="M0.5 5.5C0.5 10 5.79086 15 8 15C10.2091 15 15.5 10 15.5 5.5C15.5 3.29086 14 1.5 12 1.5C10.2423 1.5 8.74933 2.29136 8.21261 4C8.1063 4.25 8.05315 4.25 8 4.25C7.94685 4.25 7.8937 4.25 7.78739 4C7.25067 2.29136 5.75774 1.5 4 1.5C2 1.5 0.5 3.29086 0.5 5.5Z"
    fill="url(#paint0_radial_971_70)"
  />
  <defs>
    <radialGradient
      id="paint0_radial_971_70"
      cx="0"
      cy="0"
      r="1"
      gradientUnits="userSpaceOnUse"
      gradientTransform="translate(8 5.27609) rotate(93.8972) scale(10.3452 9.89501)"
    >
      <stop stop-color="#F05D56" />
      <stop offset="1" stop-color="#D15954" />
    </radialGradient>
  </defs>
</svg>
