<svg
  width="16"
  height="16"
  viewBox="0 0 16 16"
  fill="none"
  xmlns="http://www.w3.org/2000/svg"
>
  <circle cx="8" cy="8" r="8" fill="#FFD764" />
  <circle cx="8" cy="8" r="8" fill="url(#paint0_radial_971_66)" />
  <path
    d="M5.39039 11.2529C5.24653 12.0687 4.46855 12.6135 3.65271 12.4696C2.83686 12.3258 2.29211 11.5478 2.43597 10.7319C2.56094 10.0232 3.32114 8.9718 4.03128 8.63203C4.22646 8.53864 4.45803 8.57947 4.6095 8.73398C5.16061 9.29614 5.51537 10.5441 5.39039 11.2529Z"
    fill="url(#paint1_linear_971_66)"
  />
  <path
    fill-rule="evenodd"
    clip-rule="evenodd"
    d="M8 10.9375C7.36755 10.9375 6.94161 11.1433 6.44566 11.3913C6.22954 11.4994 5.96675 11.4118 5.85869 11.1957C5.75063 10.9795 5.83823 10.7167 6.05435 10.6087L6.05702 10.6074C6.56048 10.3556 7.14672 10.0625 8 10.0625C8.85345 10.0625 9.43136 10.3515 9.93154 10.6016L9.94566 10.6087C10.1618 10.7167 10.2494 10.9795 10.1413 11.1957C10.0333 11.4118 9.77046 11.4994 9.55435 11.3913C9.05778 11.143 8.63852 10.9375 8 10.9375Z"
    fill="#772622"
  />
  <path
    d="M13.0414 11.8465C13.1493 12.4584 12.7407 13.0419 12.1289 13.1498C11.517 13.2577 10.9335 12.8491 10.8256 12.2372C10.7362 11.7301 10.9742 10.855 11.3551 10.4095C11.4957 10.245 11.7303 10.2037 11.9187 10.3101C12.429 10.5985 12.952 11.3394 13.0414 11.8465Z"
    fill="url(#paint2_linear_971_66)"
  />
  <path
    fill-rule="evenodd"
    clip-rule="evenodd"
    d="M4 5.5625C4.24162 5.5625 4.4375 5.75838 4.4375 6C4.4375 6.27558 4.52745 6.47123 4.65311 6.59689C4.77877 6.72255 4.97442 6.8125 5.25 6.8125C5.52558 6.8125 5.72123 6.72255 5.84689 6.59689C5.97255 6.47123 6.0625 6.27558 6.0625 6C6.0625 5.75838 6.25838 5.5625 6.5 5.5625C6.74162 5.5625 6.9375 5.75838 6.9375 6C6.9375 6.47442 6.77745 6.90377 6.46561 7.21561C6.15377 7.52745 5.72442 7.6875 5.25 7.6875C4.77558 7.6875 4.34623 7.52745 4.03439 7.21561C3.72255 6.90377 3.5625 6.47442 3.5625 6C3.5625 5.75838 3.75838 5.5625 4 5.5625Z"
    fill="#424242"
  />
  <path
    d="M12.1943 8.231C12.2662 8.63893 11.9938 9.02792 11.5859 9.09985C11.178 9.17177 10.789 8.8994 10.7171 8.49148C10.6629 8.18439 10.7889 7.67489 11.0027 7.36146C11.1247 7.18274 11.3636 7.14061 11.5393 7.26685C11.8475 7.48822 12.1401 7.92392 12.1943 8.231Z"
    fill="url(#paint3_linear_971_66)"
  />
  <path
    fill-rule="evenodd"
    clip-rule="evenodd"
    d="M9.5 5.5625C9.74162 5.5625 9.9375 5.75838 9.9375 6C9.9375 6.27558 10.0275 6.47123 10.1531 6.59689C10.2788 6.72255 10.4744 6.8125 10.75 6.8125C11.0256 6.8125 11.2212 6.72255 11.3469 6.59689C11.4725 6.47123 11.5625 6.27558 11.5625 6C11.5625 5.75838 11.7584 5.5625 12 5.5625C12.2416 5.5625 12.4375 5.75838 12.4375 6C12.4375 6.47442 12.2775 6.90377 11.9656 7.21561C11.6538 7.52745 11.2244 7.6875 10.75 7.6875C10.2756 7.6875 9.84623 7.52745 9.53439 7.21561C9.22255 6.90377 9.0625 6.47442 9.0625 6C9.0625 5.75838 9.25838 5.5625 9.5 5.5625Z"
    fill="#424242"
  />
  <defs>
    <radialGradient
      id="paint0_radial_971_66"
      cx="0"
      cy="0"
      r="1"
      gradientUnits="userSpaceOnUse"
      gradientTransform="translate(10.75 3.25) rotate(124.563) scale(13.6611 17.7349)"
    >
      <stop stop-color="#FFD764" />
      <stop offset="1" stop-color="#FFB746" />
    </radialGradient>
    <linearGradient
      id="paint1_linear_971_66"
      x1="4.3473"
      y1="8.5304"
      x2="3.65271"
      y2="12.4696"
      gradientUnits="userSpaceOnUse"
    >
      <stop stop-color="#6BC2FF" />
      <stop offset="1" stop-color="#2196E8" />
    </linearGradient>
    <linearGradient
      id="paint2_linear_971_66"
      x1="11.6079"
      y1="10.1954"
      x2="12.1289"
      y2="13.1498"
      gradientUnits="userSpaceOnUse"
    >
      <stop stop-color="#6BC2FF" />
      <stop offset="1" stop-color="#2196E8" />
    </linearGradient>
    <linearGradient
      id="paint3_linear_971_66"
      x1="11.2386"
      y1="7.13023"
      x2="11.5859"
      y2="9.09985"
      gradientUnits="userSpaceOnUse"
    >
      <stop stop-color="#6BC2FF" />
      <stop offset="1" stop-color="#2196E8" />
    </linearGradient>
  </defs>
</svg>
