<svg
  width="16"
  height="16"
  viewBox="0 0 16 16"
  fill="none"
  xmlns="http://www.w3.org/2000/svg"
>
  <path
    d="M4.5 14.0966C4.5 15.3466 5.78351 15.8466 6.75 15.8466C7.71649 15.8466 8 15.0631 8 14.0966C8 13.5144 7.75 13.0966 7.75 12.4016C7.75 10.8466 8.83267 10.0971 9.5 9.59663C10.5 8.8466 12.5 8.84657 12.5 6.8466C12.5 4.0966 9.75 1.34663 6.5 1.34663C3.18628 1.34663 0.5 4.03291 0.5 7.34663C0.5 10.2458 2.36784 11.7441 4.97536 10.2621C5.11676 10.1817 5.30027 10.247 5.32205 10.4082C5.41047 11.0628 5.12864 11.739 4.83093 12.4016C4.5 13.0966 4.5 13.5966 4.5 14.0966Z"
    fill="#FFD764"
  />
  <path
    d="M4.5 14.0966C4.5 15.3466 5.78351 15.8466 6.75 15.8466C7.71649 15.8466 8 15.0631 8 14.0966C8 13.5144 7.75 13.0966 7.75 12.4016C7.75 10.8466 8.83267 10.0971 9.5 9.59663C10.5 8.8466 12.5 8.84657 12.5 6.8466C12.5 4.0966 9.75 1.34663 6.5 1.34663C3.18628 1.34663 0.5 4.03291 0.5 7.34663C0.5 10.2458 2.36784 11.7441 4.97536 10.2621C5.11676 10.1817 5.30027 10.247 5.32205 10.4082C5.41047 11.0628 5.12864 11.739 4.83093 12.4016C4.5 13.0966 4.5 13.5966 4.5 14.0966Z"
    fill="url(#paint0_radial_971_68)"
  />
  <path
    d="M10.6262 0.629732C10.6795 0.203819 11.0808 -0.0944395 11.4923 0.0275106C15.2994 1.15565 17.2124 5.31788 15.1684 8.78696C15.058 8.97429 14.8322 9.05607 14.6232 8.99633L13.7773 8.75465C13.4851 8.67117 13.3363 8.34747 13.4035 8.05111C13.882 5.94016 12.3273 2.97661 10.8064 2.0225C10.6176 1.90409 10.4931 1.69432 10.5208 1.47321L10.6262 0.629732Z"
    fill="url(#paint1_linear_971_68)"
  />
  <defs>
    <radialGradient
      id="paint0_radial_971_68"
      cx="0"
      cy="0"
      r="1"
      gradientUnits="userSpaceOnUse"
      gradientTransform="translate(5.5 9.75001) rotate(-61.9275) scale(8.5 9.88786)"
    >
      <stop stop-color="#FFD764" />
      <stop offset="1" stop-color="#FFB746" />
    </radialGradient>
    <linearGradient
      id="paint1_linear_971_68"
      x1="13.2585"
      y1="9.01559"
      x2="13.2585"
      y2="-2.86102e-06"
      gradientUnits="userSpaceOnUse"
    >
      <stop stop-color="#2196E8" />
      <stop offset="1" stop-color="#6BC2FF" />
    </linearGradient>
  </defs>
</svg>
