<svg
  width="16"
  height="16"
  viewBox="0 0 16 16"
  fill="none"
  xmlns="http://www.w3.org/2000/svg"
>
  <path
    d="M5.87378 15.2169C5.82054 15.6428 5.4192 15.941 5.00766 15.8191C1.20056 14.6909 -0.71242 10.5287 1.33159 7.05963C1.44197 6.87229 1.66776 6.79052 1.87682 6.85026L2.72267 7.09193C3.01486 7.17542 3.1637 7.49912 3.09652 7.79547C2.61798 9.90643 4.17271 12.87 5.69365 13.8241C5.88241 13.9425 6.00685 14.1523 5.97921 14.3734L5.87378 15.2169Z"
    fill="url(#paint0_linear_971_69)"
  />
  <path
    d="M12 1.75C12 0.75 11.25 0 10 0C9 0 8.5 0.783508 8.5 1.75C8.5 2.33218 8.75 2.75 8.75 3.44498C8.75 5 8 5.74994 7 6.24997C6 6.75 4 6.75 4 9C4 11.75 6.75 14.5 10 14.5C13.25 14.5 16 12 16 8.49997C16 5.70686 14.2663 4.21399 11.8078 5.43376C11.5164 5.57832 11.1507 5.44584 11.1466 5.12058C11.1399 4.58039 11.3199 4.0402 11.5 3.5C11.75 2.75 12 2.25 12 1.75Z"
    fill="#FFD764"
  />
  <path
    d="M12 1.75C12 0.75 11.25 0 10 0C9 0 8.5 0.783508 8.5 1.75C8.5 2.33218 8.75 2.75 8.75 3.44498C8.75 5 8 5.74994 7 6.24997C6 6.75 4 6.75 4 9C4 11.75 6.75 14.5 10 14.5C13.25 14.5 16 12 16 8.49997C16 5.70686 14.2663 4.21399 11.8078 5.43376C11.5164 5.57832 11.1507 5.44584 11.1466 5.12058C11.1399 4.58039 11.3199 4.0402 11.5 3.5C11.75 2.75 12 2.25 12 1.75Z"
    fill="url(#paint1_radial_971_69)"
  />
  <defs>
    <linearGradient
      id="paint0_linear_971_69"
      x1="3.24152"
      y1="6.83099"
      x2="3.24152"
      y2="15.8466"
      gradientUnits="userSpaceOnUse"
    >
      <stop stop-color="#6BC2FF" />
      <stop offset="1" stop-color="#2196E8" />
    </linearGradient>
    <radialGradient
      id="paint1_radial_971_69"
      cx="0"
      cy="0"
      r="1"
      gradientUnits="userSpaceOnUse"
      gradientTransform="translate(11 6) rotate(119.539) scale(8.62047 10.028)"
    >
      <stop stop-color="#FFD764" />
      <stop offset="1" stop-color="#FFB746" />
    </radialGradient>
  </defs>
</svg>
