<svg width="198" height="47" viewBox="0 0 198 47" fill="none" xmlns="http://www.w3.org/2000/svg">
<path d="M3.31523 13.6608C1.48428 12.5858 1.47555 10.848 3.29573 9.77939L16.6565 1.93514C18.4766 0.866488 21.4365 0.871614 23.2674 1.94659L36.6848 9.8241C38.5157 10.8991 38.5245 12.6368 36.7043 13.7055L34.3782 15.0712L31.828 13.5739L34.1541 12.2082C34.5741 11.9616 34.5721 11.5606 34.1496 11.3125L21.7691 3.8847C20.8853 3.28604 19.1237 3.28299 18.2458 3.8786L5.8459 11.2766C5.42586 11.5232 5.42787 11.9243 5.8504 12.1723L17.7351 19.1045C18.9126 19.7037 20.3821 20.0048 21.8471 19.4102L23.1195 18.6868L25.6697 20.184L23.3436 21.5497C21.5234 22.6184 18.5635 22.6133 16.7326 21.5383L3.31523 13.6608Z" fill="#BD5DE2"/>
<path d="M39.4453 17.69C39.4453 15.6461 37.9191 14.8618 36.0364 15.9381L24.1108 22.7558C22.2281 23.8321 20.7018 26.3615 20.7019 28.4054L20.7019 43.2992C20.7019 45.3431 22.2281 46.1274 24.1108 45.0511L36.0364 38.2334C37.9191 37.1571 39.4453 34.6277 39.4453 32.5838L39.4453 29.9991L36.8231 31.4982L36.8231 33.1974C36.8818 34.3344 35.6706 35.5081 33.8539 36.4146L24.1108 42.2044C23.6763 42.4528 23.3241 42.2718 23.3241 41.8001L23.3241 29.0325C23.2562 27.0418 24.4674 25.0141 25.9813 24.401L36.0364 18.7848C36.4709 18.5364 36.8231 18.7174 36.8231 19.1891L36.8231 21.7739L39.4453 20.2748L39.4453 17.69Z" fill="#BD5DE2"/>
<path d="M0.953096 13.9893L16.2183 22.7558C18.101 23.8322 19.6273 26.3616 19.6273 28.4054L19.6273 43.2992C19.6273 45.3431 18.101 46.1275 16.2183 45.0511L0.883789 35.8473L0.883789 32.5838L0.883789 19.9219L3.50603 21.421L3.50603 33.1974L3.50603 34.5358L6.47521 36.4146L16.2183 42.2044C16.6528 42.4528 17.005 42.2718 17.005 41.8001L17.005 29.0326C17.0729 27.0418 15.8617 25.0141 14.3478 24.4011L4.29271 18.7848L0.953096 16.9835L0.953096 13.9893Z" fill="#BD5DE2"/>
<path d="M59.7195 14.7536C59.4062 12.4915 57.6662 11.179 55.4091 11.179C52.7493 11.179 50.7457 13.1179 50.7457 16.4091C50.7457 19.6953 52.7244 21.6392 55.4091 21.6392C57.8303 21.6392 59.4361 20.0732 59.7195 18.1293L57.8601 18.1193C57.6264 19.3125 56.652 19.9837 55.4339 19.9837C53.7834 19.9837 52.6001 18.7457 52.6001 16.4091C52.6001 14.1122 53.7734 12.8345 55.4389 12.8345C56.6768 12.8345 57.6463 13.5355 57.8601 14.7536H59.7195ZM64.66 21.6491C66.8972 21.6491 68.3191 20.0732 68.3191 17.7116C68.3191 15.3452 66.8972 13.7642 64.66 13.7642C62.4228 13.7642 61.0009 15.3452 61.0009 17.7116C61.0009 20.0732 62.4228 21.6491 64.66 21.6491ZM64.6699 20.2074C63.432 20.2074 62.8255 19.1037 62.8255 17.7067C62.8255 16.3097 63.432 15.1911 64.6699 15.1911C65.888 15.1911 66.4945 16.3097 66.4945 17.7067C66.4945 19.1037 65.888 20.2074 64.6699 20.2074ZM69.8466 21.5H71.6463V16.8565C71.6463 15.9169 72.2727 15.2805 73.0483 15.2805C73.8089 15.2805 74.331 15.7926 74.331 16.5781V21.5H76.0959V16.7372C76.0959 15.8771 76.608 15.2805 77.478 15.2805C78.2038 15.2805 78.7805 15.7081 78.7805 16.6527V21.5H80.5852V16.3743C80.5852 14.669 79.6009 13.7642 78.1989 13.7642C77.0902 13.7642 76.245 14.3111 75.907 15.1612H75.8274C75.5341 14.2962 74.7933 13.7642 73.7642 13.7642C72.7401 13.7642 71.9744 14.2912 71.6562 15.1612H71.5668V13.8636H69.8466V21.5ZM82.411 21.5H84.2108V16.8565C84.2108 15.9169 84.8372 15.2805 85.6127 15.2805C86.3734 15.2805 86.8954 15.7926 86.8954 16.5781V21.5H88.6603V16.7372C88.6603 15.8771 89.1724 15.2805 90.0424 15.2805C90.7683 15.2805 91.345 15.7081 91.345 16.6527V21.5H93.1497V16.3743C93.1497 14.669 92.1653 13.7642 90.7633 13.7642C89.6547 13.7642 88.8095 14.3111 88.4714 15.1612H88.3919C88.0985 14.2962 87.3578 13.7642 86.3287 13.7642C85.3045 13.7642 84.5389 14.2912 84.2207 15.1612H84.1312V13.8636H82.411V21.5ZM99.8427 18.2884C99.8427 19.4517 99.0124 20.0284 98.217 20.0284C97.3519 20.0284 96.7752 19.4169 96.7752 18.4474V13.8636H94.9755V18.7259C94.9755 20.5604 96.0195 21.5994 97.521 21.5994C98.6644 21.5994 99.4698 20.9979 99.8178 20.1428H99.8974V21.5H101.642V13.8636H99.8427V18.2884ZM105.293 17.0256C105.293 15.9219 105.959 15.2855 106.909 15.2855C107.838 15.2855 108.395 15.897 108.395 16.9162V21.5H110.195V16.6378C110.2 14.8082 109.156 13.7642 107.58 13.7642C106.436 13.7642 105.651 14.3111 105.303 15.1612H105.213V13.8636H103.493V21.5H105.293V17.0256ZM112.024 21.5H113.824V13.8636H112.024V21.5ZM112.929 12.7798C113.501 12.7798 113.968 12.3423 113.968 11.8054C113.968 11.2635 113.501 10.826 112.929 10.826C112.352 10.826 111.885 11.2635 111.885 11.8054C111.885 12.3423 112.352 12.7798 112.929 12.7798ZM119.488 13.8636H117.982V12.0341H116.182V13.8636H115.098V15.2557H116.182V19.5014C116.172 20.9382 117.216 21.6442 118.568 21.6044C119.08 21.5895 119.433 21.4901 119.627 21.4254L119.324 20.0185C119.224 20.0433 119.021 20.0881 118.797 20.0881C118.344 20.0881 117.982 19.929 117.982 19.2031V15.2557H119.488V13.8636ZM122.112 24.3636C123.514 24.3636 124.324 23.6428 124.757 22.4247L127.824 13.8736L125.9 13.8636L124.135 19.6307H124.056L122.296 13.8636H120.387L123.156 21.6591L123.002 22.0717C122.669 22.9418 122.142 23.0014 121.356 22.7727L120.938 24.1747C121.182 24.2741 121.619 24.3636 122.112 24.3636ZM136.076 21.5C139.178 21.5 141.017 19.581 141.017 16.3991C141.017 13.2273 139.178 11.3182 136.145 11.3182H132.625V21.5H136.076ZM134.47 19.9041V12.9141H136.041C138.109 12.9141 139.188 14.0675 139.188 16.3991C139.188 18.7408 138.109 19.9041 135.986 19.9041H134.47ZM142.69 21.5H144.49V13.8636H142.69V21.5ZM143.595 12.7798C144.167 12.7798 144.634 12.3423 144.634 11.8054C144.634 11.2635 144.167 10.826 143.595 10.826C143.018 10.826 142.551 11.2635 142.551 11.8054C142.551 12.3423 143.018 12.7798 143.595 12.7798ZM146.341 21.5H148.14V17.0107C148.14 16.0412 148.871 15.3551 149.861 15.3551C150.164 15.3551 150.542 15.4098 150.696 15.4595V13.804C150.532 13.7741 150.248 13.7543 150.05 13.7543C149.175 13.7543 148.444 14.2514 148.165 15.1364H148.086V13.8636H146.341V21.5ZM154.958 21.6491C156.738 21.6491 157.961 20.7791 158.279 19.4517L156.598 19.2628C156.355 19.9091 155.758 20.2472 154.983 20.2472C153.819 20.2472 153.049 19.4815 153.034 18.174H158.353V17.6222C158.353 14.9425 156.743 13.7642 154.863 13.7642C152.676 13.7642 151.249 15.37 151.249 17.7266C151.249 20.1229 152.656 21.6491 154.958 21.6491ZM153.039 16.9609C153.093 15.9865 153.814 15.1662 154.888 15.1662C155.922 15.1662 156.618 15.9219 156.628 16.9609H153.039ZM163.207 21.6491C165.126 21.6491 166.349 20.5107 166.478 18.8899H164.758C164.604 19.7102 164.012 20.1825 163.222 20.1825C162.098 20.1825 161.372 19.2429 161.372 17.6818C161.372 16.1406 162.113 15.2159 163.222 15.2159C164.087 15.2159 164.619 15.7727 164.758 16.5085H166.478C166.354 14.853 165.061 13.7642 163.197 13.7642C160.96 13.7642 159.548 15.38 159.548 17.7116C159.548 20.0234 160.925 21.6491 163.207 21.6491ZM171.769 13.8636H170.263V12.0341H168.463V13.8636H167.379V15.2557H168.463V19.5014C168.453 20.9382 169.497 21.6442 170.849 21.6044C171.362 21.5895 171.714 21.4901 171.908 21.4254L171.605 20.0185C171.506 20.0433 171.302 20.0881 171.078 20.0881C170.626 20.0881 170.263 19.929 170.263 19.2031V15.2557H171.769V13.8636ZM176.523 21.6491C178.76 21.6491 180.182 20.0732 180.182 17.7116C180.182 15.3452 178.76 13.7642 176.523 13.7642C174.286 13.7642 172.864 15.3452 172.864 17.7116C172.864 20.0732 174.286 21.6491 176.523 21.6491ZM176.533 20.2074C175.295 20.2074 174.689 19.1037 174.689 17.7067C174.689 16.3097 175.295 15.1911 176.533 15.1911C177.751 15.1911 178.358 16.3097 178.358 17.7067C178.358 19.1037 177.751 20.2074 176.533 20.2074ZM181.71 21.5H183.51V17.0107C183.51 16.0412 184.24 15.3551 185.23 15.3551C185.533 15.3551 185.911 15.4098 186.065 15.4595V13.804C185.901 13.7741 185.618 13.7543 185.419 13.7543C184.544 13.7543 183.813 14.2514 183.534 15.1364H183.455V13.8636H181.71V21.5ZM188.612 24.3636C190.014 24.3636 190.824 23.6428 191.257 22.4247L194.324 13.8736L192.4 13.8636L190.635 19.6307H190.556L188.796 13.8636H186.887L189.656 21.6591L189.502 22.0717C189.169 22.9418 188.642 23.0014 187.856 22.7727L187.438 24.1747C187.682 24.2741 188.119 24.3636 188.612 24.3636ZM59.7195 30.7536C59.4062 28.4915 57.6662 27.179 55.4091 27.179C52.7493 27.179 50.7457 29.1179 50.7457 32.4091C50.7457 35.6953 52.7244 37.6392 55.4091 37.6392C57.8303 37.6392 59.4361 36.0732 59.7195 34.1293L57.8601 34.1193C57.6264 35.3125 56.652 35.9837 55.4339 35.9837C53.7834 35.9837 52.6001 34.7457 52.6001 32.4091C52.6001 30.1122 53.7734 28.8345 55.4389 28.8345C56.6768 28.8345 57.6463 29.5355 57.8601 30.7536H59.7195ZM66.1962 34.2884C66.1962 35.4517 65.3659 36.0284 64.5705 36.0284C63.7054 36.0284 63.1287 35.4169 63.1287 34.4474V29.8636H61.329V34.7259C61.329 36.5604 62.373 37.5994 63.8745 37.5994C65.0179 37.5994 65.8233 36.9979 66.1713 36.1428H66.2509V37.5H67.9959V29.8636H66.1962V34.2884ZM69.8466 37.5H71.6463V33.0107C71.6463 32.0412 72.3771 31.3551 73.3665 31.3551C73.6697 31.3551 74.0476 31.4098 74.2017 31.4595V29.804C74.0376 29.7741 73.7543 29.7543 73.5554 29.7543C72.6804 29.7543 71.9496 30.2514 71.6712 31.1364H71.5916V29.8636H69.8466V37.5ZM77.4444 37.6541C78.6426 37.6541 79.3585 37.0923 79.6866 36.451H79.7463V37.5H81.4764V32.3892C81.4764 30.3707 79.8308 29.7642 78.3741 29.7642C76.7683 29.7642 75.5353 30.4801 75.1376 31.8722L76.818 32.1108C76.997 31.5888 77.5041 31.1413 78.3841 31.1413C79.2193 31.1413 79.6767 31.5689 79.6767 32.3196V32.3494C79.6767 32.8665 79.1348 32.8913 77.7875 33.0355C76.3059 33.1946 74.889 33.6371 74.889 35.3572C74.889 36.8587 75.9877 37.6541 77.4444 37.6541ZM77.9118 36.3317C77.161 36.3317 76.6241 35.9886 76.6241 35.3274C76.6241 34.6364 77.2257 34.348 78.0311 34.2337C78.5034 34.169 79.448 34.0497 79.6816 33.8608V34.7607C79.6816 35.6108 78.9956 36.3317 77.9118 36.3317ZM87.0993 29.8636H85.5929V28.0341H83.7931V29.8636H82.7093V31.2557H83.7931V35.5014C83.7832 36.9382 84.8272 37.6442 86.1795 37.6044C86.6916 37.5895 87.0446 37.4901 87.2385 37.4254L86.9352 36.0185C86.8358 36.0433 86.6319 36.0881 86.4082 36.0881C85.9558 36.0881 85.5929 35.929 85.5929 35.2031V31.2557H87.0993V29.8636ZM88.6044 37.5H90.4041V29.8636H88.6044V37.5ZM89.5092 28.7798C90.081 28.7798 90.5483 28.3423 90.5483 27.8054C90.5483 27.2635 90.081 26.826 89.5092 26.826C88.9325 26.826 88.4652 27.2635 88.4652 27.8054C88.4652 28.3423 88.9325 28.7798 89.5092 28.7798ZM95.5858 37.6491C97.823 37.6491 99.2449 36.0732 99.2449 33.7116C99.2449 31.3452 97.823 29.7642 95.5858 29.7642C93.3485 29.7642 91.9267 31.3452 91.9267 33.7116C91.9267 36.0732 93.3485 37.6491 95.5858 37.6491ZM95.5957 36.2074C94.3578 36.2074 93.7512 35.1037 93.7512 33.7067C93.7512 32.3097 94.3578 31.1911 95.5957 31.1911C96.8137 31.1911 97.4203 32.3097 97.4203 33.7067C97.4203 35.1037 96.8137 36.2074 95.5957 36.2074ZM102.572 33.0256C102.572 31.9219 103.238 31.2855 104.188 31.2855C105.118 31.2855 105.674 31.897 105.674 32.9162V37.5H107.474V32.6378C107.479 30.8082 106.435 29.7642 104.859 29.7642C103.716 29.7642 102.93 30.3111 102.582 31.1612H102.493V29.8636H100.772V37.5H102.572V33.0256Z" fill="black"/>
</svg>
