<svg xmlns="http://www.w3.org/2000/svg" width="32" height="32" fill="none"><g clip-path="url(#a)"><mask id="b" width="32" height="33" x="0" y="-1" maskUnits="userSpaceOnUse" style="mask-type:alpha"><path fill="#fff" d="M16 0C4 0 0 4 0 16s4 16 16 16 16-4 16-16S28 0 16 0Z"/></mask><g mask="url(#b)"><g filter="url(#c)"><circle cx="23" cy="9" r="19" fill="#1992D7"/></g><g filter="url(#d)"><circle cx="33" cy="19" r="19" fill="#F6B03C"/></g><g filter="url(#e)"><circle cx="5" cy="31" r="19" fill="#FF7D46"/></g><g filter="url(#f)"><circle cx="-7" cy="9" r="19" fill="#7140FD"/></g><g fill="#fff" fill-rule="evenodd" clip-rule="evenodd" filter="url(#g)"><path d="M19.656 16.862c-.26 3.263-2.603 6.148-5.776 6.329-1.949.111-3.895-1.079-4-3.01-.082-1.556.88-2.69 2.56-3.125a6.04 6.04 0 0 1 1.212-.189c1.783-.1 2.9.308 4.683.207.411-.02.82-.082 1.219-.184.032-.009.07-.018.102-.028ZM12.352 15.137c.26-3.263 2.603-6.147 5.776-6.329 1.949-.11 3.895 1.08 4 3.011.085 1.555-.88 2.69-2.56 3.125a6.04 6.04 0 0 1-1.212.189c-1.783.1-2.9-.308-4.683-.209a6.24 6.24 0 0 0-1.219.184l-.102.03Z"/></g></g></g><defs><filter id="c" width="56.861" height="56.861" x="-5.43" y="-19.431" color-interpolation-filters="sRGB" filterUnits="userSpaceOnUse"><feFlood flood-opacity="0" result="BackgroundImageFix"/><feBlend in="SourceGraphic" in2="BackgroundImageFix" result="shape"/><feGaussianBlur result="effect1_foregroundBlur_718_92851" stdDeviation="4.715"/></filter><filter id="d" width="56.861" height="56.861" x="4.57" y="-9.431" color-interpolation-filters="sRGB" filterUnits="userSpaceOnUse"><feFlood flood-opacity="0" result="BackgroundImageFix"/><feBlend in="SourceGraphic" in2="BackgroundImageFix" result="shape"/><feGaussianBlur result="effect1_foregroundBlur_718_92851" stdDeviation="4.715"/></filter><filter id="e" width="56.861" height="56.861" x="-23.43" y="2.569" color-interpolation-filters="sRGB" filterUnits="userSpaceOnUse"><feFlood flood-opacity="0" result="BackgroundImageFix"/><feBlend in="SourceGraphic" in2="BackgroundImageFix" result="shape"/><feGaussianBlur result="effect1_foregroundBlur_718_92851" stdDeviation="4.715"/></filter><filter id="f" width="56.861" height="56.861" x="-35.43" y="-19.431" color-interpolation-filters="sRGB" filterUnits="userSpaceOnUse"><feFlood flood-opacity="0" result="BackgroundImageFix"/><feBlend in="SourceGraphic" in2="BackgroundImageFix" result="shape"/><feGaussianBlur result="effect1_foregroundBlur_718_92851" stdDeviation="4.715"/></filter><filter id="g" width="72.456" height="74.596" x="-20.224" y="-13.271" color-interpolation-filters="sRGB" filterUnits="userSpaceOnUse"><feFlood flood-opacity="0" result="BackgroundImageFix"/><feColorMatrix in="SourceAlpha" result="hardAlpha" values="0 0 0 0 0 0 0 0 0 0 0 0 0 0 0 0 0 0 127 0"/><feOffset dy="8.026"/><feGaussianBlur stdDeviation="15.05"/><feColorMatrix values="0 0 0 0 0.0352941 0 0 0 0 0.0627451 0 0 0 0 0.109804 0 0 0 0.12 0"/><feBlend in2="BackgroundImageFix" result="effect1_dropShadow_718_92851"/><feBlend in="SourceGraphic" in2="effect1_dropShadow_718_92851" result="shape"/></filter><clipPath id="a"><path fill="#fff" d="M0 0h32v32H0z"/></clipPath></defs></svg>
