<svg xmlns="http://www.w3.org/2000/svg" width="32" height="32" fill="none"><g clip-path="url(#a)"><mask id="b" width="32" height="33" x="0" y="-1" maskUnits="userSpaceOnUse" style="mask-type:alpha"><path fill="#fff" d="M16 0C4 0 0 4 0 16s4 16 16 16 16-4 16-16S28 0 16 0Z"/></mask><g mask="url(#b)"><g filter="url(#c)"><circle cx="23" cy="9" r="19" fill="#EC266C"/></g><g filter="url(#d)"><circle cx="33" cy="19" r="19" fill="#F66F8F"/></g><g filter="url(#e)"><circle cx="5" cy="31" r="19" fill="#EC266C"/></g><g filter="url(#f)"><circle cx="-7" cy="9" r="19" fill="#7140FD"/></g><g filter="url(#g)"><path fill="#fff" d="M23.787 15.315c-.223 3.894-3.781 6.765-7.792 7.085-4.01-.32-7.568-3.19-7.79-7.085-.137-2.392 1.325-4.78 3.7-4.91 1.91-.1 3.304 1.082 3.839 3.142.127.487.205.985.232 1.488.006.102.01.203.013.302.011-.096.02-.197.026-.302a7.399 7.399 0 0 1 .232-1.488c.534-2.06 1.929-3.241 3.84-3.141 2.374.129 3.836 2.517 3.7 4.909Z"/></g></g></g><defs><filter id="c" width="63.147" height="63.147" x="-8.574" y="-22.574" color-interpolation-filters="sRGB" filterUnits="userSpaceOnUse"><feFlood flood-opacity="0" result="BackgroundImageFix"/><feBlend in="SourceGraphic" in2="BackgroundImageFix" result="shape"/><feGaussianBlur result="effect1_foregroundBlur_718_91701" stdDeviation="6.287"/></filter><filter id="d" width="63.147" height="63.147" x="1.426" y="-12.574" color-interpolation-filters="sRGB" filterUnits="userSpaceOnUse"><feFlood flood-opacity="0" result="BackgroundImageFix"/><feBlend in="SourceGraphic" in2="BackgroundImageFix" result="shape"/><feGaussianBlur result="effect1_foregroundBlur_718_91701" stdDeviation="6.287"/></filter><filter id="e" width="63.147" height="63.147" x="-26.574" y="-.574" color-interpolation-filters="sRGB" filterUnits="userSpaceOnUse"><feFlood flood-opacity="0" result="BackgroundImageFix"/><feBlend in="SourceGraphic" in2="BackgroundImageFix" result="shape"/><feGaussianBlur result="effect1_foregroundBlur_718_91701" stdDeviation="6.287"/></filter><filter id="f" width="63.147" height="63.147" x="-38.574" y="-22.574" color-interpolation-filters="sRGB" filterUnits="userSpaceOnUse"><feFlood flood-opacity="0" result="BackgroundImageFix"/><feBlend in="SourceGraphic" in2="BackgroundImageFix" result="shape"/><feGaussianBlur result="effect1_foregroundBlur_718_91701" stdDeviation="6.287"/></filter><filter id="g" width="75.602" height="72" x="-21.805" y="-11.6" color-interpolation-filters="sRGB" filterUnits="userSpaceOnUse"><feFlood flood-opacity="0" result="BackgroundImageFix"/><feColorMatrix in="SourceAlpha" result="hardAlpha" values="0 0 0 0 0 0 0 0 0 0 0 0 0 0 0 0 0 0 127 0"/><feOffset dy="8"/><feGaussianBlur stdDeviation="15"/><feColorMatrix values="0 0 0 0 0.0352941 0 0 0 0 0.0627451 0 0 0 0 0.109804 0 0 0 0.12 0"/><feBlend in2="BackgroundImageFix" result="effect1_dropShadow_718_91701"/><feBlend in="SourceGraphic" in2="effect1_dropShadow_718_91701" result="shape"/></filter><clipPath id="a"><path fill="#fff" d="M0 0h32v32H0z"/></clipPath></defs></svg>
