<svg width="210" height="32" fill="none" xmlns="http://www.w3.org/2000/svg"><g clip-path="url(#a)"><mask id="b" style="mask-type:alpha" maskUnits="userSpaceOnUse" x="0" y="0" width="32" height="32"><path d="M16 0C4 0 0 4 0 16s4 16 16 16 16-4 16-16S28 0 16 0Z" fill="#fff"/></mask><g mask="url(#b)"><circle cx="15.998" cy="16" r="21.6" fill="#7140FD"/><path fill-rule="evenodd" clip-rule="evenodd" d="M20.013 8.924a4.72 4.72 0 0 0-.479.847 7.45 7.45 0 0 0-.17.418c-.177.476-.288.91-.4 1.346l-.005.02c-.142.55-.285 1.103-.565 1.742a5.005 5.005 0 0 1-.5.885l-.01.014-.007.01-.008.011c2.5.707 5.296-.231 6.311-2.533.624-1.413.277-3.183-1.132-3.794-1.133-.492-2.245-.089-3.034 1.034h-.001Zm-13.786 7.05c.105-.308.242-.603.409-.883.08-.135.16-.261.241-.382.284-.423.572-.767.861-1.112l.027-.033c.36-.433.723-.867 1.074-1.46.166-.28.306-.576.415-.882l.006-.02.007-.02a.486.486 0 0 1 .012-.04c2.041 1.602 2.915 4.407 1.636 6.573-.785 1.331-2.429 2.088-3.751 1.31-1.064-.625-1.388-1.758-.937-3.052Zm19.161 5.4c-2.699 0-4.887-2.177-4.887-4.864h-2.854c0 4.255 3.466 7.705 7.741 7.705v-2.841ZM16.07 16.51c0 4.255-3.465 7.705-7.74 7.705v-2.841c2.698 0 4.886-2.177 4.886-4.864h2.854Zm0-.001V7.91h-2.854v8.599h2.854Z" fill="#fff"/></g></g><path fill-rule="evenodd" clip-rule="evenodd" d="M59.081 19.923c.248.042 1.485.01 1.568 0v2.806h-1.908c-.825-.02-1.513-.088-2.22-.359a3.097 3.097 0 0 1-1.482-1.204c-.371-.621-.517-1.346-.517-2.058v-6.57h-1.815v-2.64h1.815V7.01h3.383v2.888h2.146v2.64h-2.146v6.106c0 .248.039.52.149.755.09.17.238.303.418.373.198.076.341.12.61.151Zm-11.357-4.797c1.232.252 2.15.66 2.754 1.221.3.282.535.626.69 1.007.155.382.219.795.219 1.207a3.58 3.58 0 0 1-.73 2.181 4.778 4.778 0 0 1-1.997 1.463 7.59 7.59 0 0 1-2.914.522c-1.678-.002-3.012-.351-4.002-1.05a4.058 4.058 0 0 1-1.182-1.243c-.3-.494-.562-1.274-.562-1.831h3.455c.02.237.13.482.26.682.13.2.298.37.496.503.463.283.996.414 1.542.414.513 0 1.036-.114 1.488-.372a1.083 1.083 0 0 0 .574-.929.978.978 0 0 0-.404-.787c-.366-.245-.789-.383-1.22-.464l-2.193-.437c-1.237-.248-2.156-.676-2.758-1.286a3.187 3.187 0 0 1-.892-2.333 3.41 3.41 0 0 1 .664-2.104 4.232 4.232 0 0 1 1.871-1.36 7.692 7.692 0 0 1 2.833-.478c1.6.001 2.86.34 3.78 1.014.447.322.823.734 1.1 1.21.279.476.482 1.384.482 1.9H47.9c-.052-.279-.198-.682-.384-.895a1.95 1.95 0 0 0-.712-.536 2.514 2.514 0 0 0-1.052-.202 2.55 2.55 0 0 0-1.365.326c-.167.086-.32.232-.42.393a1.03 1.03 0 0 0-.151.534.974.974 0 0 0 .362.766c.372.264.797.413 1.254.5l2.291.464Zm25.158-3.129a3.762 3.762 0 0 0-1.19-1.333 5.353 5.353 0 0 0-1.723-.766 8.355 8.355 0 0 0-2.026-.248c-.898 0-1.814.142-2.666.464a4.748 4.748 0 0 0-1.874 1.296c-.56.657-.979 1.495-.979 2.366h3.218c.083-.526.424-.89.782-1.145a2.665 2.665 0 0 1 1.5-.436c.491 0 1.005.139 1.402.447.166.154.296.342.38.551.086.21.134.433.12.658a1.166 1.166 0 0 1-.083.398.86.86 0 0 1-.264.289c-.308.174-.642.251-.996.304-.42.063-.942.117-1.611.186l-.142.015c-.605.057-1.204.161-1.792.313a5.064 5.064 0 0 0-1.521.66 3.12 3.12 0 0 0-1.056 1.16c-.275.55-.39 1.159-.39 1.767 0 .732.166 1.467.55 2.095.366.556.886.994 1.497 1.26.682.294 1.418.43 2.16.43.558 0 1.123-.08 1.657-.256.45-.151.867-.388 1.228-.696.336-.293.728-.652.932-1.049l.01 1.754h3.373v-8.54c0-.67-.194-1.343-.496-1.944Zm-3.05 5.484c-.112 1.258-.862 2.384-2.062 2.732-.554.164-1.227.116-1.69-.25a1.536 1.536 0 0 1-.508-.736c-.233-.85.253-1.584 1.279-1.927.4-.125.815-.181 1.229-.237.383-.052.767-.104 1.141-.211.206-.06.404-.136.596-.23l.003.011c.042.28.042.567.012.848Zm11.241 2.442c.248.042 1.486.01 1.568 0v2.806h-1.908c-.825-.02-1.513-.088-2.22-.359a3.097 3.097 0 0 1-1.482-1.204c-.371-.621-.517-1.346-.517-2.058v-6.57H74.7v-2.64h1.816V7.01h3.383v2.888h2.145v2.64h-2.145v6.106c0 .248.038.52.148.755.09.17.239.303.418.373.199.076.341.12.61.151Zm10.89-10.026v7.262c0 .495-.099.991-.34 1.427a2.26 2.26 0 0 1-.894.869 2.504 2.504 0 0 1-1.186.295 2.051 2.051 0 0 1-1.6-.653 2.553 2.553 0 0 1-.6-1.774V9.897h-3.384v8.046c0 .876.17 1.764.55 2.561a3.93 3.93 0 0 0 1.504 1.64 4.438 4.438 0 0 0 2.237.584c.846 0 1.699-.216 2.418-.682a3.788 3.788 0 0 0 1.44-1.793v2.228h3.238V9.897h-3.383Zm12.429 5.229c1.232.252 2.15.66 2.754 1.221.299.282.535.626.69 1.007.155.382.219.795.219 1.207 0 .784-.25 1.555-.731 2.181a4.775 4.775 0 0 1-1.996 1.463 7.59 7.59 0 0 1-2.914.522c-1.678-.002-3.012-.351-4.002-1.05a4.058 4.058 0 0 1-1.182-1.243c-.3-.494-.562-1.274-.562-1.831h3.455c.021.237.129.482.259.682.13.2.299.37.497.503.463.283.996.414 1.542.414.513 0 1.036-.114 1.488-.372a1.08 1.08 0 0 0 .574-.929.984.984 0 0 0-.404-.787c-.366-.245-.789-.383-1.219-.464l-2.194-.437c-1.237-.248-2.156-.676-2.758-1.286a3.188 3.188 0 0 1-.892-2.333 3.41 3.41 0 0 1 .664-2.104 4.232 4.232 0 0 1 1.871-1.36 7.69 7.69 0 0 1 2.833-.478c1.6.001 2.86.34 3.78 1.014.447.322.823.734 1.101 1.21s.48 1.384.48 1.9h-3.176c-.052-.279-.198-.682-.383-.895a1.96 1.96 0 0 0-.713-.536 2.516 2.516 0 0 0-1.052-.202 2.551 2.551 0 0 0-1.365.326 1.11 1.11 0 0 0-.419.393 1.03 1.03 0 0 0-.152.534.98.98 0 0 0 .362.766c.372.264.797.413 1.254.5l2.291.464Z" fill="#fff"/><path d="m190.005 18.356-.016-3.037h.432l5.093-5.41h2.979l-5.808 6.159h-.391l-2.289 2.288Zm-2.288 4.336V7h2.488v15.692h-2.488Zm8.072 0-4.577-6.075 1.714-1.74 5.917 7.815h-3.054ZM178.889 22.692V9.91h2.405v2.03h.133a3.089 3.089 0 0 1 1.231-1.622c.594-.4 1.265-.6 2.014-.6a10.653 10.653 0 0 1 1.057.059v2.38a4.471 4.471 0 0 0-.532-.091 5.089 5.089 0 0 0-.766-.059c-.588 0-1.112.125-1.573.375a2.787 2.787 0 0 0-1.082 1.023 2.77 2.77 0 0 0-.399 1.482v7.805h-2.488ZM170.945 22.949c-1.199 0-2.244-.275-3.138-.824-.893-.55-1.586-1.318-2.08-2.305-.494-.988-.741-2.142-.741-3.462 0-1.326.247-2.486.741-3.479.494-.993 1.187-1.764 2.08-2.313.894-.55 1.939-.824 3.138-.824 1.198 0 2.244.275 3.137.824.893.55 1.587 1.32 2.08 2.313.494.994.741 2.153.741 3.479 0 1.32-.247 2.474-.741 3.462-.493.987-1.187 1.756-2.08 2.305-.893.55-1.939.824-3.137.824Zm.008-2.089c.777 0 1.42-.205 1.931-.616.51-.41.887-.957 1.131-1.64.25-.681.375-1.433.375-2.254 0-.816-.125-1.565-.375-2.247-.244-.688-.621-1.24-1.131-1.656-.511-.416-1.154-.624-1.931-.624-.782 0-1.431.208-1.947.624-.511.416-.891.968-1.14 1.656a6.63 6.63 0 0 0-.367 2.247c0 .82.123 1.572.367 2.255.249.682.629 1.229 1.14 1.64.516.41 1.165.615 1.947.615ZM150.675 22.692 146.914 9.91h2.571l2.505 9.387h.125l2.513-9.387h2.572l2.496 9.346h.125l2.488-9.346h2.572l-3.753 12.782h-2.539l-2.596-9.229h-.191l-2.597 9.23h-2.53ZM145.316 9.91v1.997h-6.982V9.91h6.982ZM140.206 7h2.489v11.939c0 .482.072.846.216 1.09.144.238.33.402.557.49.234.084.486.126.758.126.199 0 .374-.014.524-.042l.35-.067.449 2.056c-.144.055-.35.11-.616.166a4.867 4.867 0 0 1-.998.1 4.381 4.381 0 0 1-1.831-.35 3.136 3.136 0 0 1-1.373-1.131c-.35-.51-.525-1.151-.525-1.922V7ZM132.226 22.81c-1.242 0-2.311-.267-3.208-.797-.891-.537-1.58-1.289-2.067-2.257-.481-.973-.728-2.123-.728-3.422 0-1.28.249-2.49.731-3.474.486-.984 1.165-1.753 2.034-2.305.875-.553 1.897-.823 3.052-.823.722 0 1.417.111 2.084.347a4.998 4.998 0 0 1 1.797 1.107c.531.504.949 1.157 1.255 1.961.307.799.454 1.837.454 2.98v.867h-10.005v-1.836h7.612c0-.646-.136-1.283-.399-1.781a2.978 2.978 0 0 0-1.107-1.19c-.471-.29-1.023-.435-1.658-.435-.689 0-1.291.17-1.805.51a3.418 3.418 0 0 0-1.181 1.312 4.043 4.043 0 0 0-.413 1.81v1.435c0 .842.148 1.559.443 2.15.301.59.719 1.042 1.255 1.353.536.307 1.162.46 1.879.46.465 0 .889-.066 1.272-.197.383-.137.713-.34.992-.607.279-.268.495-.61.642-1.004h2.473c-.186.684-.672 1.712-1.154 2.226-.476.509-1.074.905-1.796 1.19-.717.279-1.536.42-2.454.42ZM116.685 15.101v7.59h-2.488V9.909h2.389v2.08h.158a3.652 3.652 0 0 1 1.381-1.631c.633-.41 1.429-.616 2.388-.616.871 0 1.634.183 2.289.55.655.36 1.162.898 1.523 1.614.36.715.541 1.6.541 2.654v8.13h-2.488v-7.83c0-.926-.242-1.65-.724-2.172-.483-.527-1.146-.79-1.989-.79-.577 0-1.091.124-1.54.374-.444.25-.796.616-1.057 1.098-.255.478-.383 1.055-.383 1.731ZM110.807 23c-.455 0-.844-.16-1.168-.48a1.563 1.563 0 0 1-.473-1.16 1.528 1.528 0 0 1 .473-1.142c.324-.32.713-.48 1.168-.48.429 0 .807.16 1.135.48.333.315.501.696.505 1.142a1.562 1.562 0 0 1-.24.826 1.718 1.718 0 0 1-.599.593c-.244.148-.511.221-.801.221Z" fill="#fff"/><defs><clipPath id="a"><path fill="#fff" d="M0 0h32.153v32H0z"/></clipPath></defs></svg>