<svg xmlns="http://www.w3.org/2000/svg" width="42" height="41" viewBox="0 0 42 41" fill="none">
<mask id="mask0_4267_20254" style="mask-type:alpha" maskUnits="userSpaceOnUse" x="0" y="0" width="42" height="41">
<path d="M21 0C5.625 0 0.5 5.125 0.5 20.5C0.5 35.875 5.625 41 21 41C36.375 41 41.5 35.875 41.5 20.5C41.5 5.125 36.375 0 21 0Z" fill="white"/>
</mask>
<g mask="url(#mask0_4267_20254)">
<ellipse cx="20.5" cy="19.5" rx="24" ry="24.5" fill="#7140FD"/>
<path d="M21.4844 21.2373C21.4841 26.8256 16.8437 31.3553 11.1191 31.3555V27.625C14.733 27.6249 17.6628 24.7651 17.6631 21.2373H21.4844ZM27.417 21.2373C27.4172 24.7652 30.3469 27.625 33.9609 27.625V31.3555C28.2362 31.3555 23.5959 26.8257 23.5957 21.2373H27.417ZM12.3906 14.1855C15.1232 16.2904 16.2931 19.9748 14.5811 22.8193C13.5303 24.568 11.3282 25.562 9.55762 24.54C8.13295 23.7191 7.69995 22.2302 8.30273 20.5312C8.44446 20.1273 8.62859 19.7401 8.85156 19.373C8.95922 19.1961 9.06429 19.0297 9.17383 18.8711C9.55366 18.3158 9.93976 17.864 10.3271 17.4102C10.8222 16.8273 11.3189 16.2479 11.8008 15.4492C12.0237 15.0822 12.211 14.6931 12.3564 14.291C12.3621 14.2744 12.3684 14.2559 12.374 14.2393C12.3797 14.219 12.385 14.2003 12.3906 14.1855ZM21.4824 21.2354H17.6602V9.94141H21.4824V21.2354ZM26.7637 11.2725C27.82 9.79872 29.3098 9.26942 30.8271 9.91504C32.7128 10.7176 33.1769 13.0418 32.3418 14.8975C30.9831 17.9209 27.2402 19.1534 23.8916 18.2256C23.901 18.2127 23.9145 18.1962 23.9258 18.1797C23.9371 18.1668 23.9486 18.1514 23.958 18.1367C24.2073 17.7845 24.421 17.4085 24.5947 17.0176C24.9746 16.1672 25.1647 15.4345 25.3574 14.7021C25.5067 14.1303 25.6564 13.5599 25.8945 12.9346C25.9606 12.7559 26.0381 12.5736 26.1211 12.3857C26.2949 11.9928 26.5104 11.6211 26.7617 11.2725H26.7637Z" fill="white"/>
</g>
</svg>