<svg width="20" height="20" viewBox="0 0 20 20" fill="none" xmlns="http://www.w3.org/2000/svg">
<g clip-path="url(#clip0_8696_74166)">
<circle cx="10" cy="10" r="10" fill="#A1ABBD"/>
<path fill-rule="evenodd" clip-rule="evenodd" d="M12.3449 19.723C11.5927 19.9038 10.8075 19.9995 9.99988 19.9995C9.20052 19.9995 8.42307 19.9057 7.67792 19.7285C7.67745 19.6283 7.67691 19.5149 7.67632 19.3923C7.67285 18.6716 7.66785 17.6345 7.66785 17.1092C5.31239 17.5538 4.70302 16.5205 4.51552 15.9798C4.30747 15.454 3.97766 14.988 3.55459 14.6221C3.22647 14.4419 2.75772 13.9973 3.54286 13.9853C3.84266 14.0187 4.1302 14.1256 4.38111 14.2971C4.63203 14.4686 4.83892 14.6996 4.98427 14.9705C5.11249 15.2067 5.2849 15.4146 5.49163 15.5823C5.69836 15.7501 5.93533 15.8743 6.18898 15.948C6.44262 16.0217 6.70795 16.0433 6.96976 16.0116C7.23158 15.98 7.48472 15.8957 7.7147 15.7635C7.75528 15.2749 7.96769 14.818 8.31237 14.4779C6.22645 14.2376 4.04677 13.4086 4.04677 9.73195C4.0336 8.77665 4.37741 7.85238 5.00771 7.1487C4.7211 6.31842 4.75463 5.40726 5.10145 4.60149C5.10145 4.60149 5.88658 4.34916 7.67956 5.58673C9.21357 5.15416 10.833 5.15416 12.367 5.58673C14.16 4.33715 14.9451 4.60149 14.9451 4.60149C15.292 5.40725 15.3255 6.31843 15.0389 7.1487C15.6711 7.85118 16.0152 8.77625 15.9998 9.73195C15.9998 13.4206 13.8084 14.2376 11.7225 14.4779C11.9462 14.7104 12.1185 14.9896 12.2277 15.2964C12.3369 15.6032 12.3804 15.9306 12.3553 16.2562C12.3553 17.1119 12.3501 18.4097 12.3466 19.2776C12.346 19.4439 12.3454 19.5944 12.3449 19.723Z" fill="#09101C"/>
</g>
<defs>
<clipPath id="clip0_8696_74166">
<rect width="20" height="20" fill="white"/>
</clipPath>
</defs>
</svg>
