<svg width="20" height="20" viewBox="0 0 20 20" fill="none" xmlns="http://www.w3.org/2000/svg">
<g clip-path="url(#clip0_8696_74165)">
<path fill-rule="evenodd" clip-rule="evenodd" d="M19.7778 5.57808C19.7778 5.57808 19.5602 4.05455 18.8944 3.38292C18.0491 2.50174 17.1023 2.49762 16.6681 2.44638C13.5583 2.22266 10.0051 2.22266 10.0051 2.22266H9.99491C9.99491 2.22266 6.44167 2.22266 3.33194 2.44684C2.89722 2.49762 1.95093 2.50174 1.10509 3.38292C0.438889 4.05409 0.222222 5.57808 0.222222 5.57808C0.222222 5.57808 0 7.36834 0 9.15769V10.8359C0 12.6257 0.222222 14.415 0.222222 14.415C0.222222 14.415 0.438889 15.939 1.10509 16.6102C1.95093 17.4913 3.06111 17.4639 3.55556 17.5559C5.33333 17.7256 10 17.7782 10 17.7782C10 17.7782 13.5583 17.7713 16.6681 17.5472C17.1023 17.4955 18.0491 17.4913 18.8944 16.6102C19.5606 15.939 19.7778 14.415 19.7778 14.415C19.7778 14.415 20 12.6261 20 10.8359V9.15769C20 7.36834 19.7778 5.57808 19.7778 5.57808Z" fill="#A1ABBD"/>
<path fill-rule="evenodd" clip-rule="evenodd" d="M7.70552 12.8683L7.70459 6.6543L13.7092 9.77181L7.70552 12.8683Z" fill="#09101C"/>
</g>
<defs>
<clipPath id="clip0_8696_74165">
<rect width="20" height="20" fill="white"/>
</clipPath>
</defs>
</svg>
