<svg
  width="12"
  height="12"
  viewBox="0 0 12 12"
  fill="none"
  xmlns="http://www.w3.org/2000/svg"
>
  <g clip-path="url(#clip0_971_102)">
    <path
      d="M7.2941 1.17037C6.28498 0.899978 5.21651 0.952469 4.23875 1.32047C3.26099 1.68847 2.42307 2.3535 1.84265 3.22215C1.26224 4.0908 0.968495 5.11944 1.00268 6.1636C1.03686 7.20775 1.39725 8.21498 2.03323 9.04381C2.66922 9.87264 3.54884 10.4814 4.54858 10.7847C5.54831 11.088 6.61792 11.0705 7.6072 10.7347C8.59647 10.3988 9.45571 9.76158 10.0642 8.91239C10.6728 8.06319 11 7.04472 11 6"
      stroke="#09101C"
      stroke-width="1.1"
    />
    <path
      d="M4.06812 7C4.18207 7.42527 4.43316 7.80105 4.78244 8.06907C5.13173 8.33709 5.5597 8.48236 5.99997 8.48236C6.44024 8.48236 6.8682 8.33709 7.21749 8.06907C7.56678 7.80105 7.81787 7.42527 7.93182 7"
      stroke="#09101C"
      stroke-width="1.1"
    />
    <circle cx="4.75" cy="4.75" r="0.75" fill="#09101C" />
    <circle cx="7.25" cy="4.75" r="0.75" fill="#09101C" />
    <path d="M8 2.5H12" stroke="#09101C" stroke-width="1.1" />
    <path d="M10 0.5V4.5" stroke="#09101C" stroke-width="1.1" />
  </g>
  <defs>
    <clipPath id="clip0_971_102">
      <rect width="12" height="12" fill="white" />
    </clipPath>
  </defs>
</svg>
