<svg
  width="12"
  height="12"
  viewBox="0 0 12 12"
  fill="none"
  xmlns="http://www.w3.org/2000/svg"
>
  <g clip-path="url(#clip0_2265_853)">
    <path
      fill-rule="evenodd"
      clip-rule="evenodd"
      d="M2.05007 6C2.05007 3.81848 3.81855 2.05 6.00007 2.05C6.89247 2.05 7.71575 2.34594 8.37712 2.84502L2.84509 8.37705C2.34601 7.71568 2.05007 6.8924 2.05007 6ZM3.6229 9.15489C4.28429 9.65403 5.10762 9.95 6.00007 9.95C8.1816 9.95 9.95007 8.18153 9.95007 6C9.95007 5.10755 9.6541 4.28422 9.15496 3.62282L3.6229 9.15489ZM6.00007 0.950001C3.21104 0.950001 0.950073 3.21096 0.950073 6C0.950073 8.78904 3.21104 11.05 6.00007 11.05C8.78911 11.05 11.0501 8.78904 11.0501 6C11.0501 3.21096 8.78911 0.950001 6.00007 0.950001Z"
      fill="#E65F5C"
    />
  </g>
  <defs>
    <clipPath id="clip0_2265_853">
      <rect width="12" height="12" fill="white" />
    </clipPath>
  </defs>
</svg>
