<svg
  width="12"
  height="12"
  viewBox="0 0 12 12"
  fill="none"
  xmlns="http://www.w3.org/2000/svg"
>
  <g clip-path="url(#clip0_409_48)">
    <path
      d="M1 4.19959C1 3.26093 1.76093 2.5 2.69959 2.5H2.91147C3.42538 2.5 3.89518 2.20965 4.125 1.75V1.75C4.35482 1.29035 4.82462 1 5.33853 1H6H6.66147C7.17538 1 7.64518 1.29035 7.875 1.75V1.75C8.10482 2.20965 8.57462 2.5 9.08853 2.5H9.30041C10.2391 2.5 11 3.26093 11 4.19959V6.75C11 7.91353 11 8.4953 10.8408 8.96432C10.541 9.84749 9.84749 10.541 8.96432 10.8408C8.4953 11 7.91353 11 6.75 11H5.25C4.08647 11 3.5047 11 3.03568 10.8408C2.15251 10.541 1.45901 9.84749 1.15921 8.96432C1 8.4953 1 7.91353 1 6.75V4.19959Z"
      stroke="#09101C"
      stroke-width="1.1"
    />
    <circle cx="6" cy="6.5" r="2" stroke="#09101C" stroke-width="1.1" />
  </g>
  <defs>
    <clipPath id="clip0_409_48">
      <rect width="12" height="12" fill="white" />
    </clipPath>
  </defs>
</svg>
