<svg
  width="12"
  height="12"
  viewBox="0 0 12 12"
  fill="none"
  xmlns="http://www.w3.org/2000/svg"
>
  <g clip-path="url(#clip0_659_35)">
    <path
      fill-rule="evenodd"
      clip-rule="evenodd"
      d="M1.54995 10.0909C1.54995 5.3739 5.37385 1.55 10.0909 1.55C10.2892 1.55 10.45 1.71077 10.45 1.90909V3.70171C10.4289 3.70058 10.4077 3.7 10.3863 3.7C6.69354 3.7 3.69995 6.69359 3.69995 10.3864C3.69995 10.4077 3.70053 10.4289 3.70166 10.45H1.90904C1.71072 10.45 1.54995 10.2892 1.54995 10.0909ZM4.86359 10.45H6.24995H6.87495C7.26386 10.45 7.33638 10.444 7.38058 10.4306C7.5244 10.387 7.63695 10.2744 7.68057 10.1306C7.69398 10.0864 7.69995 10.0139 7.69995 9.625L7.69989 9.55965C7.6995 9.27703 7.69915 9.02273 7.76669 8.80006C7.91697 8.30468 8.30463 7.91702 8.80001 7.76674C9.02268 7.6992 9.27699 7.69955 9.5596 7.69994L9.62495 7.7C10.0139 7.7 10.0864 7.69403 10.1306 7.68062C10.2744 7.637 10.3869 7.52445 10.4306 7.38063C10.444 7.33643 10.45 7.26391 10.45 6.875V6.25V4.86364C10.45 4.82849 10.4215 4.8 10.3863 4.8C7.30105 4.8 4.79995 7.3011 4.79995 10.3864C4.79995 10.4215 4.82844 10.45 4.86359 10.45ZM11.55 6.25V6.875L11.55 6.94035C11.5504 7.22297 11.5508 7.47727 11.4832 7.69994C11.3329 8.19532 10.9453 8.58299 10.4499 8.73326C10.2272 8.8008 9.97292 8.80045 9.6903 8.80006L9.62495 8.8C9.23605 8.8 9.16352 8.80597 9.11932 8.81938C8.9755 8.863 8.86296 8.97555 8.81933 9.11937C8.80592 9.16357 8.79995 9.2361 8.79995 9.625L8.80001 9.69035C8.8004 9.97297 8.80075 10.2273 8.73321 10.4499C8.58294 10.9453 8.19527 11.333 7.69989 11.4833C7.47723 11.5508 7.22292 11.5505 6.9403 11.5501L6.87495 11.55H6.24995H4.86359H1.90904C1.10321 11.55 0.449951 10.8967 0.449951 10.0909C0.449951 4.76638 4.76633 0.450001 10.0909 0.450001C10.8967 0.450001 11.55 1.10326 11.55 1.90909V4.86364V6.25Z"
      fill="#09101C"
    />
  </g>
  <defs>
    <clipPath id="clip0_659_35">
      <rect width="12" height="12" fill="white" />
    </clipPath>
  </defs>
</svg>
