<svg
  width="12"
  height="12"
  viewBox="0 0 12 12"
  fill="none"
  xmlns="http://www.w3.org/2000/svg"
>
  <g clip-path="url(#clip0_539_26)">
    <path
      d="M8 3V3C8 1.89543 7.10457 1 6 1H4.2C3.07989 1 2.51984 1 2.09202 1.21799C1.71569 1.40973 1.40973 1.71569 1.21799 2.09202C1 2.51984 1 3.0799 1 4.2V6C1 7.10457 1.89543 8 3 8V8"
      stroke="#1B273D"
      stroke-opacity="0.3"
      stroke-width="1.1"
    />
    <path
      d="M4 7.2C4 6.0799 4 5.51984 4.21799 5.09202C4.40973 4.71569 4.71569 4.40973 5.09202 4.21799C5.51984 4 6.07989 4 7.2 4H7.8C8.9201 4 9.48016 4 9.90798 4.21799C10.2843 4.40973 10.5903 4.71569 10.782 5.09202C11 5.51984 11 6.07989 11 7.2V7.8C11 8.9201 11 9.48016 10.782 9.90798C10.5903 10.2843 10.2843 10.5903 9.90798 10.782C9.48016 11 8.92011 11 7.8 11H7.2C6.0799 11 5.51984 11 5.09202 10.782C4.71569 10.5903 4.40973 10.2843 4.21799 9.90798C4 9.48016 4 8.9201 4 7.8V7.2Z"
      stroke="#09101C"
      stroke-width="1.1"
    />
  </g>
  <defs>
    <clipPath id="clip0_539_26">
      <rect width="12" height="12" fill="white" />
    </clipPath>
  </defs>
</svg>
