<svg
  width="12"
  height="12"
  viewBox="0 0 12 12"
  fill="none"
  xmlns="http://www.w3.org/2000/svg"
>
  <path
    d="M5.93967 3.18165C6.33569 2.78563 6.5337 2.58762 6.76203 2.51343C6.96287 2.44818 7.17922 2.44818 7.38006 2.51343C7.60839 2.58762 7.8064 2.78563 8.20242 3.18165L8.7681 3.74733C9.16412 4.14335 9.36213 4.34136 9.43631 4.56969C9.50157 4.77053 9.50157 4.98688 9.43631 5.18772C9.36213 5.41605 9.16412 5.61406 8.7681 6.01008L5.91775 8.86042C5.71807 9.06011 5.61822 9.15995 5.50065 9.22674C5.39648 9.28591 5.28254 9.32588 5.16424 9.34475C5.0307 9.36604 4.89036 9.35045 4.60969 9.31927L2.8284 9.12135L2.63048 7.34006C2.5993 7.05939 2.5837 6.91905 2.605 6.78551C2.62387 6.66721 2.66384 6.55327 2.72301 6.4491C2.7898 6.33153 2.88964 6.23168 3.08933 6.032L5.93967 3.18165Z"
    stroke="#09101C"
    stroke-width="1.1"
    stroke-linejoin="round"
  />
  <path
    d="M4.83887 3.57542L8.3744 7.11095"
    stroke="#09101C"
    stroke-width="1.1"
    stroke-linejoin="round"
  />
</svg>
