<svg
  width="12"
  height="12"
  viewBox="0 0 12 12"
  fill="none"
  xmlns="http://www.w3.org/2000/svg"
>
  <g clip-path="url(#clip0_1907_880)">
    <path
      d="M7.5 10.5V4.5C7.5 3.56812 7.5 3.10218 7.34776 2.73463C7.14477 2.24458 6.75542 1.85523 6.26537 1.65224C5.89782 1.5 5.43188 1.5 4.5 1.5C3.56812 1.5 3.10218 1.5 2.73463 1.65224C2.24458 1.85523 1.85523 2.24458 1.65224 2.73463C1.5 3.10218 1.5 3.56812 1.5 4.5V10.5H7.5Z"
      stroke="#09101C"
      stroke-width="1.1"
      stroke-linejoin="round"
    />
    <path
      d="M7.5 7.5H9C9.55228 7.5 10 7.05228 10 6.5V5.5"
      stroke="black"
      stroke-width="1.1"
    />
    <path d="M10 2.5L10 4.5" stroke="black" stroke-width="1.1" />
    <rect
      x="9.5"
      y="4.5"
      width="1"
      height="1"
      stroke="#09101C"
      stroke-width="1.1"
      stroke-linejoin="round"
    />
    <path d="M1.5 4.5L7.5 4.5" stroke="black" stroke-width="1.1" />
  </g>
  <defs>
    <clipPath id="clip0_1907_880">
      <rect width="12" height="12" fill="white" />
    </clipPath>
  </defs>
</svg>
