<svg
  width="12"
  height="12"
  viewBox="0 0 12 12"
  fill="none"
  xmlns="http://www.w3.org/2000/svg"
>
  <g clip-path="url(#clip0_637_14)">
    <path
      d="M1 2.5C1 2.03501 1 1.80252 1.05111 1.61177C1.18981 1.09413 1.59413 0.689812 2.11177 0.551111C2.30252 0.5 2.53501 0.5 3 0.5H9C9.46499 0.5 9.69748 0.5 9.88823 0.551111C10.4059 0.689812 10.8102 1.09413 10.9489 1.61177C11 1.80252 11 2.03501 11 2.5V2.5C11 2.96499 11 3.19748 10.9489 3.38823C10.8102 3.90587 10.4059 4.31019 9.88823 4.44889C9.69748 4.5 9.46499 4.5 9 4.5H3C2.53501 4.5 2.30252 4.5 2.11177 4.44889C1.59413 4.31019 1.18981 3.90587 1.05111 3.38823C1 3.19748 1 2.96499 1 2.5V2.5Z"
      stroke="#09101C"
      stroke-width="1.1"
    />
    <path
      d="M1 9.5C1 9.03501 1 8.80252 1.05111 8.61177C1.18981 8.09413 1.59413 7.68981 2.11177 7.55111C2.30252 7.5 2.53501 7.5 3 7.5H9C9.46499 7.5 9.69748 7.5 9.88823 7.55111C10.4059 7.68981 10.8102 8.09413 10.9489 8.61177C11 8.80252 11 9.03501 11 9.5V9.5C11 9.96499 11 10.1975 10.9489 10.3882C10.8102 10.9059 10.4059 11.3102 9.88823 11.4489C9.69748 11.5 9.46499 11.5 9 11.5H3C2.53501 11.5 2.30252 11.5 2.11177 11.4489C1.59413 11.3102 1.18981 10.9059 1.05111 10.3882C1 10.1975 1 9.96499 1 9.5V9.5Z"
      stroke="#09101C"
      stroke-width="1.1"
    />
  </g>
  <defs>
    <clipPath id="clip0_637_14">
      <rect width="12" height="12" fill="white" />
    </clipPath>
  </defs>
</svg>
