<svg
  width="12"
  height="12"
  viewBox="0 0 12 12"
  fill="none"
  xmlns="http://www.w3.org/2000/svg"
>
  <g clip-path="url(#clip0_1945_871)">
    <path
      d="M11 6C11 4.89933 10.6368 3.82941 9.96677 2.95619C9.29672 2.08297 8.35726 1.45525 7.2941 1.17037C6.23093 0.885496 5.10347 0.959394 4.08658 1.3806C3.0697 1.80181 2.22021 2.54679 1.66987 3.5C1.11954 4.45321 0.899109 5.56138 1.04278 6.65263C1.18644 7.74389 1.68617 8.75724 2.46447 9.53553C3.24276 10.3138 4.25611 10.8136 5.34737 10.9572C6.43862 11.1009 7.54679 10.8805 8.5 10.3301"
      stroke="#09101C"
      stroke-width="1.1"
    />
    <circle cx="6" cy="6" r="2" stroke="#09101C" stroke-width="1.1" />
    <path
      d="M8 3.5V6.95573C8 7.80861 8.69139 8.5 9.54427 8.5V8.5C10.2529 8.5 10.8702 8.01517 10.9353 7.30955C11 6.60897 11 6 11 6"
      stroke="#09101C"
      stroke-width="1.1"
    />
  </g>
  <defs>
    <clipPath id="clip0_1945_871">
      <rect width="12" height="12" fill="white" />
    </clipPath>
  </defs>
</svg>
