<svg
  width="12"
  height="12"
  viewBox="0 0 12 12"
  fill="none"
  xmlns="http://www.w3.org/2000/svg"
>
  <g clip-path="url(#clip0_570_23)">
    <path
      fill-rule="evenodd"
      clip-rule="evenodd"
      d="M9.64157 1.79271L9.62688 1.77802L9.62686 1.778C9.44142 1.59255 9.27938 1.4305 9.13455 1.30754C8.98099 1.17718 8.81099 1.0588 8.60027 0.990329C8.28896 0.889179 7.95362 0.889179 7.64232 0.990329C7.4316 1.0588 7.26159 1.17718 7.10803 1.30754C6.9632 1.4305 6.80115 1.59257 6.6157 1.77802L6.60101 1.79271L6.28054 2.11319C6.23125 2.08957 6.17967 2.06862 6.12539 2.05099C5.81409 1.94984 5.47875 1.94984 5.16744 2.05099C4.95672 2.11946 4.78672 2.23784 4.63316 2.3682C4.48833 2.49116 4.32628 2.65322 4.14085 2.83866L4.14083 2.83868L4.12614 2.85337L3.84329 3.13622C3.62851 3.35101 3.62851 3.69925 3.8433 3.91404L4.16149 4.23223L2.54416 5.84957L2.51349 5.88019C2.37085 6.02252 2.23971 6.15338 2.14284 6.31145C2.05786 6.45013 1.99523 6.60132 1.95726 6.75948C1.91399 6.93974 1.91419 7.125 1.91441 7.32651L1.91444 7.36985L1.91444 9.53553C1.91444 9.83929 2.16068 10.0855 2.46444 10.0855L4.63012 10.0855L4.67347 10.0856C4.87497 10.0858 5.06023 10.086 5.24049 10.0427C5.39865 10.0047 5.54984 9.94211 5.68852 9.85713C5.84659 9.76026 5.97745 9.62912 6.11978 9.48648L6.11978 9.48648L6.1504 9.45581L7.76774 7.83848L8.08594 8.15668C8.30072 8.37146 8.64897 8.37146 8.86375 8.15668L9.1466 7.87383L9.16129 7.85914C9.34675 7.6737 9.50881 7.51165 9.63177 7.36681C9.76213 7.21325 9.88052 7.04325 9.94898 6.83253C10.0501 6.52122 10.0501 6.18588 9.94898 5.87458C9.93135 5.8203 9.9104 5.76872 9.88679 5.71943L10.2073 5.39896L10.2219 5.38427C10.4074 5.19883 10.5695 5.03678 10.6924 4.89194C10.8228 4.73838 10.9412 4.56837 11.0096 4.35766C11.1108 4.04635 11.1108 3.71101 11.0096 3.3997C10.9412 3.18899 10.8228 3.01898 10.6924 2.86542C10.5695 2.72059 10.4074 2.55855 10.222 2.37311L10.2219 2.37309L10.2073 2.3584L9.64157 1.79271ZM9.18195 4.86863L9.42944 4.62114C9.63386 4.41672 9.76349 4.28648 9.85385 4.18004C9.94005 4.07851 9.95776 4.03535 9.96348 4.01774C9.99285 3.92736 9.99285 3.83 9.96348 3.73962C9.95776 3.72201 9.94005 3.67885 9.85385 3.57732C9.76349 3.47088 9.63386 3.34064 9.42944 3.13622L8.86375 2.57053C8.65933 2.36611 8.5291 2.23648 8.42265 2.14612C8.32112 2.05993 8.27796 2.04221 8.26035 2.03649C8.16997 2.00712 8.07261 2.00712 7.98223 2.03649C7.96462 2.04221 7.92146 2.05993 7.81993 2.14612C7.71349 2.23648 7.58325 2.36611 7.37883 2.57053L7.13134 2.81802C7.1382 2.82487 7.14508 2.83176 7.152 2.83868L7.15201 2.83868L7.1667 2.85337L9.1466 4.83327L9.16129 4.84796L9.16129 4.84797C9.16821 4.85489 9.1751 4.86177 9.18195 4.86863ZM6.98992 7.06066L4.93931 5.01005L3.32198 6.62739C3.13051 6.81885 3.10067 6.85369 3.08075 6.8862C3.05608 6.92646 3.03789 6.97035 3.02687 7.01627C3.01797 7.05334 3.01444 7.09908 3.01444 7.36985L3.01444 8.98553L4.63012 8.98553C4.90089 8.98553 4.94663 8.982 4.9837 8.9731C5.02962 8.96208 5.07351 8.9439 5.11378 8.91922C5.14628 8.8993 5.18112 8.86946 5.37258 8.678L6.98992 7.06066ZM5.78548 3.09715C5.80309 3.10287 5.84625 3.12059 5.94778 3.20678C6.05422 3.29714 6.18445 3.42677 6.38888 3.63119L8.36878 5.61109C8.5732 5.81552 8.70283 5.94575 8.79319 6.05219C8.87939 6.15372 8.8971 6.19689 8.90282 6.2145C8.93219 6.30488 8.93219 6.40223 8.90282 6.49261C8.8971 6.51022 8.87939 6.55339 8.79319 6.65492C8.71955 6.74167 8.61982 6.84422 8.47477 6.98987L5.0101 3.5252C5.15575 3.38015 5.2583 3.28042 5.34505 3.20678C5.44658 3.12059 5.48975 3.10287 5.50736 3.09715C5.59774 3.06778 5.6951 3.06778 5.78548 3.09715Z"
      fill="#09101C"
    />
  </g>
  <defs>
    <clipPath id="clip0_570_23">
      <rect width="12" height="12" fill="white" />
    </clipPath>
  </defs>
</svg>
