<svg
  width="12"
  height="12"
  viewBox="0 0 12 12"
  fill="none"
  xmlns="http://www.w3.org/2000/svg"
>
  <path
    fill-rule="evenodd"
    clip-rule="evenodd"
    d="M6 2C5.07563 2 4.2245 2.31355 3.54715 2.84009L5.9999 5.29285L8.45274 2.84C7.77541 2.31351 6.92432 2 6 2ZM9.15986 3.54709L6.70701 5.99996L9.1599 8.45286C9.68645 7.77551 10 6.92437 10 6C10 5.07561 9.68643 4.22445 9.15986 3.54709ZM5.2928 5.99996L2.84005 3.5472C2.31353 4.22454 2 5.07565 2 6C2 6.92433 2.31352 7.77542 2.84002 8.45276L5.2928 5.99996ZM3.54711 9.15988L5.99991 6.70707L8.45278 9.15996C7.77545 9.68647 6.92434 10 6 10C5.07561 10 4.22446 9.68644 3.54711 9.15988ZM1 6C1 3.23858 3.23858 1 6 1C8.76142 1 11 3.23858 11 6C11 8.76142 8.76142 11 6 11C3.23858 11 1 8.76142 1 6Z"
    fill="#09101C"
  />
</svg>
