<svg
  width="12"
  height="12"
  viewBox="0 0 12 12"
  fill="none"
  xmlns="http://www.w3.org/2000/svg"
>
  <path
    d="M3.5 4.73092C3.5 3.52537 3.5 2.9226 3.75004 2.59864C3.96773 2.31659 4.29949 2.14585 4.65553 2.13265C5.06448 2.11749 5.55498 2.46784 6.53598 3.16856L8.31268 4.43763C9.05035 4.96454 9.41919 5.22799 9.54974 5.55465C9.66401 5.84056 9.66401 6.15944 9.54974 6.44535C9.41919 6.77201 9.05035 7.03546 8.31268 7.56237L6.53598 8.83144C5.55498 9.53216 5.06448 9.88251 4.65553 9.86735C4.29949 9.85415 3.96773 9.68341 3.75004 9.40136C3.5 9.0774 3.5 8.47463 3.5 7.26908V4.73092Z"
    fill="#09101C"
  />
</svg>
