<svg
  width="12"
  height="12"
  viewBox="0 0 12 12"
  fill="none"
  xmlns="http://www.w3.org/2000/svg"
>
  <g clip-path="url(#clip0_1912_851)">
    <path
      d="M6 1C6.65661 1 7.30679 1.12933 7.91342 1.3806C8.52005 1.63188 9.07124 2.00017 9.53553 2.46447C9.99983 2.92876 10.3681 3.47996 10.6194 4.08658C10.8707 4.69321 11 5.34339 11 6C11 6.65661 10.8707 7.30679 10.6194 7.91342C10.3681 8.52005 9.99983 9.07124 9.53553 9.53553C9.07124 9.99983 8.52004 10.3681 7.91342 10.6194C7.30679 10.8707 6.65661 11 6 11C5.34339 11 4.69321 10.8707 4.08658 10.6194C3.47995 10.3681 2.92876 9.99983 2.46446 9.53553C2.00017 9.07124 1.63187 8.52004 1.3806 7.91342C1.12933 7.30679 1 6.65661 1 6C1 5.34339 1.12933 4.69321 1.3806 4.08658C1.63188 3.47995 2.00017 2.92876 2.46447 2.46446C2.92876 2.00017 3.47996 1.63187 4.08659 1.3806C4.69321 1.12933 5.34339 1 6 1L6 1Z"
      stroke="#E7EAEE"
      stroke-width="1.1"
    />
    <path
      d="M6 1C7.0559 1 8.08469 1.33427 8.93893 1.95492C9.79316 2.57556 10.429 3.4507 10.7553 4.45492"
      stroke="#09101C"
      stroke-width="1.1"
    />
  </g>
  <defs>
    <clipPath id="clip0_1912_851">
      <rect width="12" height="12" fill="white" />
    </clipPath>
  </defs>
</svg>
