<svg
  width="12"
  height="12"
  viewBox="0 0 12 12"
  fill="none"
  xmlns="http://www.w3.org/2000/svg"
>
  <path
    fill-rule="evenodd"
    clip-rule="evenodd"
    d="M2.1 5.38236C2.1 3.56956 3.56956 2.1 5.38236 2.1C7.19516 2.1 8.66473 3.56956 8.66473 5.38236C8.66473 7.19516 7.19516 8.66473 5.38236 8.66473C3.56956 8.66473 2.1 7.19516 2.1 5.38236ZM5.38236 1C2.96205 1 1 2.96205 1 5.38236C1 7.80268 2.96205 9.76473 5.38236 9.76473C6.39438 9.76473 7.32627 9.42169 8.06811 8.84555L10.221 10.9985L10.9988 10.2207L8.84588 8.06769C9.42182 7.32592 9.76473 6.39419 9.76473 5.38236C9.76473 2.96205 7.80268 1 5.38236 1Z"
    fill="#09101C"
  />
</svg>
