<svg
  width="12"
  height="12"
  viewBox="0 0 12 12"
  fill="none"
  xmlns="http://www.w3.org/2000/svg"
>
  <path
    d="M2.5 7.75C2.5 7.28534 2.5 7.05302 2.53843 6.85982C2.69624 6.06644 3.31644 5.44624 4.10982 5.28843C4.30302 5.25 4.53534 5.25 5 5.25H7C7.46466 5.25 7.69698 5.25 7.89018 5.28843C8.68356 5.44624 9.30376 6.06644 9.46157 6.85982C9.5 7.05302 9.5 7.28534 9.5 7.75V7.75C9.5 8.21466 9.5 8.44698 9.46157 8.64018C9.30376 9.43356 8.68356 10.0538 7.89018 10.2116C7.69698 10.25 7.46466 10.25 7 10.25H5C4.53534 10.25 4.30302 10.25 4.10982 10.2116C3.31644 10.0538 2.69624 9.43356 2.53843 8.64018C2.5 8.44698 2.5 8.21466 2.5 7.75V7.75Z"
    stroke="#09101C"
    stroke-width="1.1"
  />
  <path
    d="M8 5.25V3.75C8 2.64543 7.10457 1.75 6 1.75V1.75C4.89543 1.75 4 2.64543 4 3.75V3.75"
    stroke="#09101C"
    stroke-width="1.1"
  />
</svg>
