<svg
  width="12"
  height="12"
  viewBox="0 0 12 12"
  fill="none"
  xmlns="http://www.w3.org/2000/svg"
>
  <g clip-path="url(#clip0_2550_885)">
    <path
      fill-rule="evenodd"
      clip-rule="evenodd"
      d="M6.42953 1.15642L6.00005 0.619572L5.57057 1.15642L3.87085 3.28108L1.78302 2.02838L0.873169 1.48247L0.951551 2.54063L1.40578 8.67277L1.40827 8.70662C1.42846 8.98284 1.44771 9.24601 1.63119 9.55815C1.70917 9.69082 1.7911 9.80085 1.89692 9.89922C1.98809 9.98398 2.08567 10.0481 2.15942 10.0965L2.17232 10.105C2.82379 10.5336 4.0238 11.05 6.00005 11.05C7.97629 11.05 9.17631 10.5336 9.82778 10.105L9.84068 10.0965C9.91442 10.0481 10.012 9.98398 10.1032 9.89922C10.209 9.80085 10.2909 9.69082 10.3689 9.55815C10.5524 9.24601 10.5716 8.98284 10.5918 8.70663L10.5943 8.67277L11.0485 2.54063L11.1269 1.48247L10.2171 2.02838L8.12925 3.28108L6.42953 1.15642ZM4.42953 4.34358L6.00005 2.38043L7.57057 4.34358L7.87085 4.71893L8.28302 4.47162L9.87317 3.51753L9.53543 8.07694C9.47082 8.04777 9.40216 8.01848 9.32931 7.98934C8.63233 7.71055 7.56204 7.45 6.00005 7.45C4.43805 7.45 3.36777 7.71055 2.67078 7.98934C2.59794 8.01848 2.52928 8.04777 2.46466 8.07694L2.12693 3.51753L3.71708 4.47162L4.12925 4.71893L4.42953 4.34358ZM2.74328 9.16378C2.75332 9.17045 2.76448 9.17783 2.77691 9.18601C3.2387 9.48982 4.2262 9.95 6.00005 9.95C7.7739 9.95 8.7614 9.48982 9.22318 9.18601C9.23562 9.17783 9.24678 9.17045 9.25682 9.16378C9.16468 9.11582 9.05325 9.06365 8.92078 9.01066C8.36777 8.78946 7.43805 8.55 6.00005 8.55C4.56204 8.55 3.63233 8.78946 3.07931 9.01066C2.94684 9.06365 2.83542 9.11582 2.74328 9.16378Z"
      fill="#09101C"
    />
  </g>
  <defs>
    <clipPath id="clip0_2550_885">
      <rect width="12" height="12" fill="white" />
    </clipPath>
  </defs>
</svg>
