<svg
  width="12"
  height="12"
  viewBox="0 0 12 12"
  fill="none"
  xmlns="http://www.w3.org/2000/svg"
>
  <path
    d="M7.12756 7.69621C7.16637 7.10414 7.02873 6.51385 6.73206 6L7.96411 4.13397L6.96411 2.40192L2.63398 4.90192C2.12013 5.1986 1.7058 5.64098 1.44337 6.17313C1.18094 6.70529 1.0822 7.30331 1.15965 7.89158C1.2371 8.47985 1.48725 9.03194 1.87846 9.47804C2.26968 9.92414 2.7844 10.2442 3.35753 10.3978C3.93065 10.5513 4.53645 10.5315 5.0983 10.3408C5.66016 10.1501 6.15284 9.79702 6.51404 9.32628C6.87525 8.85555 7.08875 8.28828 7.12756 7.69621Z"
    stroke="#09101C"
    stroke-width="1.1"
  />
  <circle
    r="1"
    transform="matrix(-0.866025 0.5 0.5 0.866025 4.13397 7.5)"
    stroke="#09101C"
    stroke-width="1.1"
  />
</svg>
