<svg
  width="20"
  height="20"
  viewBox="0 0 20 20"
  fill="none"
  xmlns="http://www.w3.org/2000/svg"
>
  <g clip-path="url(#clip0_1111_39344)">
    <path
      d="M11.865 12.79C11.9358 12.86 11.9358 12.9742 11.865 13.045C11.4775 13.43 10.87 13.6175 10.0058 13.6175L9.99917 13.6158L9.9925 13.6175C9.12917 13.6175 8.52083 13.43 8.13333 13.0442C8.0625 12.9742 8.0625 12.86 8.13333 12.79C8.20333 12.72 8.31833 12.72 8.38917 12.79C8.705 13.1042 9.22917 13.2575 9.9925 13.2575L9.99917 13.2592L10.0058 13.2575C10.7683 13.2575 11.2925 13.1042 11.6092 12.79C11.68 12.72 11.795 12.72 11.865 12.79ZM8.99833 10.775C8.99833 10.3525 8.65333 10.0092 8.23 10.0092C7.80583 10.0092 7.46083 10.3525 7.46083 10.775C7.46083 11.1967 7.80583 11.54 8.23 11.54C8.65333 11.5408 8.99833 11.1975 8.99833 10.775ZM20 10C20 15.5225 15.5225 20 10 20C4.4775 20 0 15.5225 0 10C0 4.4775 4.4775 0 10 0C15.5225 0 20 4.4775 20 10ZM15.8333 9.8925C15.8333 9.18333 15.2542 8.60667 14.5417 8.60667C14.1942 8.60667 13.8792 8.74583 13.6467 8.96917C12.7667 8.39 11.5758 8.02167 10.2583 7.97417L10.9792 5.70417L12.9317 6.16167L12.9292 6.19C12.9292 6.77 13.4033 7.24167 13.9858 7.24167C14.5683 7.24167 15.0417 6.77 15.0417 6.19C15.0417 5.61 14.5683 5.13833 13.9858 5.13833C13.5383 5.13833 13.1575 5.4175 13.0033 5.80833L10.8992 5.315C10.8075 5.2925 10.7133 5.34583 10.685 5.43583L9.88083 7.9675C8.50083 7.98417 7.25167 8.35583 6.3325 8.95167C6.10167 8.73917 5.79583 8.60583 5.4575 8.60583C4.74583 8.60667 4.16667 9.18333 4.16667 9.8925C4.16667 10.3642 4.42583 10.7725 4.80667 10.9967C4.78167 11.1333 4.765 11.2725 4.765 11.4133C4.765 13.3142 7.1025 14.8608 9.97583 14.8608C12.8492 14.8608 15.1867 13.3142 15.1867 11.4133C15.1867 11.28 15.1725 11.1492 15.15 11.02C15.555 10.8025 15.8333 10.3817 15.8333 9.8925ZM11.7733 10.01C11.3492 10.01 11.005 10.3533 11.005 10.7758C11.005 11.1975 11.35 11.5408 11.7733 11.5408C12.1967 11.5408 12.5417 11.1975 12.5417 10.7758C12.5417 10.3533 12.1975 10.01 11.7733 10.01Z"
      fill="#647084"
    />
  </g>
  <defs>
    <clipPath id="clip0_1111_39344">
      <rect width="20" height="20" fill="white" />
    </clipPath>
  </defs>
</svg>
