<svg
  width="20"
  height="20"
  viewBox="0 0 20 20"
  fill="none"
  xmlns="http://www.w3.org/2000/svg"
>
  <g clip-path="url(#clip0_1111_39335)">
    <g clip-path="url(#clip1_1111_39335)">
      <mask
        id="mask0_1111_39335"
        style="mask-type: alpha"
        maskUnits="userSpaceOnUse"
        x="0"
        y="-1"
        width="20"
        height="21"
      >
        <path
          d="M10 -0.000366211C2.5 -0.000366211 0 2.49963 0 9.99963C0 17.4996 2.5 19.9996 10 19.9996C17.5 19.9996 20 17.4996 20 9.99963C20 2.49963 17.5 -0.000366211 10 -0.000366211Z"
          fill="white"
        />
      </mask>
      <g mask="url(#mask0_1111_39335)">
        <g filter="url(#filter0_f_1111_39335)">
          <circle cx="9.0625" cy="13.4375" r="17.8125" fill="#647084" />
        </g>
        <g filter="url(#filter1_d_1111_39335)">
          <path
            fill-rule="evenodd"
            clip-rule="evenodd"
            d="M12.6063 10.6139C12.4204 12.9416 10.7481 14.9991 8.48319 15.1285C7.0925 15.2078 5.70345 14.3591 5.62842 12.9809C5.57025 11.8718 6.25689 11.0625 7.45512 10.7524C7.73822 10.6783 8.02824 10.6331 8.32063 10.6176C9.59334 10.5459 10.3903 10.8376 11.6631 10.7654C11.9567 10.7505 12.2481 10.7066 12.5329 10.6344C12.5558 10.6279 12.5835 10.6209 12.6063 10.6139Z"
            fill="white"
          />
          <path
            fill-rule="evenodd"
            clip-rule="evenodd"
            d="M7.39258 9.38378C7.57851 7.05609 9.25081 4.99853 11.5157 4.86912C12.9064 4.78986 14.2954 5.63855 14.3705 7.01672C14.4314 8.12584 13.742 8.93517 12.5438 9.24574C12.2607 9.31992 11.9707 9.36509 11.6783 9.38054C10.4055 9.45225 9.60854 9.16055 8.33583 9.23173C8.0422 9.24659 7.75081 9.29049 7.46597 9.36275C7.44314 9.36976 7.41541 9.37677 7.39258 9.38378Z"
            fill="white"
          />
        </g>
      </g>
    </g>
  </g>
  <defs>
    <filter
      id="filter0_f_1111_39335"
      x="-14.6439"
      y="-10.2689"
      width="47.4128"
      height="47.4128"
      filterUnits="userSpaceOnUse"
      color-interpolation-filters="sRGB"
    >
      <feFlood flood-opacity="0" result="BackgroundImageFix" />
      <feBlend
        mode="normal"
        in="SourceGraphic"
        in2="BackgroundImageFix"
        result="shape"
      />
      <feGaussianBlur
        stdDeviation="2.94696"
        result="effect1_foregroundBlur_1111_39335"
      />
    </filter>
    <filter
      id="filter1_d_1111_39335"
      x="-15.8517"
      y="-10.8855"
      width="51.7033"
      height="53.2229"
      filterUnits="userSpaceOnUse"
      color-interpolation-filters="sRGB"
    >
      <feFlood flood-opacity="0" result="BackgroundImageFix" />
      <feColorMatrix
        in="SourceAlpha"
        type="matrix"
        values="0 0 0 0 0 0 0 0 0 0 0 0 0 0 0 0 0 0 127 0"
        result="hardAlpha"
      />
      <feOffset dy="5.72711" />
      <feGaussianBlur stdDeviation="10.7383" />
      <feColorMatrix
        type="matrix"
        values="0 0 0 0 0.0352941 0 0 0 0 0.0627451 0 0 0 0 0.109804 0 0 0 0.12 0"
      />
      <feBlend
        mode="normal"
        in2="BackgroundImageFix"
        result="effect1_dropShadow_1111_39335"
      />
      <feBlend
        mode="normal"
        in="SourceGraphic"
        in2="effect1_dropShadow_1111_39335"
        result="shape"
      />
    </filter>
    <clipPath id="clip0_1111_39335">
      <rect width="20" height="20" fill="white" />
    </clipPath>
    <clipPath id="clip1_1111_39335">
      <rect width="20" height="20" fill="white" />
    </clipPath>
  </defs>
</svg>
