<svg
  width="20"
  height="20"
  viewBox="0 0 20 20"
  fill="none"
  xmlns="http://www.w3.org/2000/svg"
>
  <path
    d="M20 3.51238C19.2477 3.85565 18.452 4.08379 17.6375 4.18977C18.4958 3.65705 19.1376 2.8135 19.4412 1.81891C18.6375 2.31758 17.7582 2.66875 16.8412 2.85722C16.2791 2.22923 15.5493 1.79265 14.7469 1.60417C13.9444 1.4157 13.1063 1.48406 12.3415 1.80037C11.5766 2.11667 10.9204 2.66631 10.458 3.37786C9.99566 4.08942 9.74853 4.93 9.74875 5.79039C9.74875 6.13039 9.77625 6.45732 9.84375 6.76855C8.2126 6.68489 6.6167 6.242 5.16038 5.46885C3.70406 4.6957 2.42012 3.60969 1.3925 2.28183C0.866024 3.22581 0.703261 4.34422 0.937354 5.40933C1.17145 6.47445 1.78479 7.40617 2.6525 8.01479C2.00345 7.99658 1.36809 7.81539 0.8 7.48648V7.53356C0.801087 8.52405 1.12833 9.48391 1.72665 10.2516C2.32496 11.0192 3.15781 11.5478 4.085 11.7483C3.73423 11.845 3.37273 11.8925 3.01 11.8895C2.74949 11.8944 2.48923 11.8698 2.23375 11.8163C2.49868 12.6676 3.00936 13.4121 3.69549 13.9472C4.38162 14.4824 5.20945 14.7818 6.065 14.8044C4.61367 15.9918 2.82372 16.636 0.98125 16.6338C0.645 16.6338 0.3225 16.6182 0 16.575C1.87485 17.8389 4.05959 18.5075 6.29 18.4999C13.835 18.4999 17.96 11.9614 17.96 6.29386C17.96 6.10424 17.9538 5.92116 17.945 5.73939C18.7537 5.13391 19.4501 4.37923 20 3.51238Z"
    fill="#647084"
  />
</svg>
